<svg width="24" height="24" viewBox="0 0 24 24" fill="none" xmlns="http://www.w3.org/2000/svg">
<path d="M18.1581 7.00473V15.8436C18.1581 16.175 18.02 16.4789 17.799 16.6998C17.5504 16.9484 17.2466 17.0865 16.9151 17.0865C16.2246 17.1141 15.6445 16.5341 15.6721 15.8436L15.6445 10.0155L7.19239 18.4676C6.6952 18.9648 5.92181 18.9648 5.42462 18.4676C4.95506 17.998 4.92744 17.197 5.42462 16.6998L13.8768 8.24769H8.07627C7.38574 8.27531 6.80569 7.69526 6.83331 7.00473C6.80569 6.31419 7.38574 5.73414 8.07627 5.76177H16.9151C17.6056 5.73414 18.1857 6.31419 18.1581 7.00473Z" fill="#034833"/>
</svg>
