<svg width="73" height="56" viewBox="0 0 73 56" fill="none" xmlns="http://www.w3.org/2000/svg">
<path d="M36.8723 41.0882C36.493 40.7847 36.4172 40.4054 36.5689 39.7605L43.8519 14.5354C43.9657 14.0423 44.383 13.7009 44.914 13.7009H62.0595C62.7423 13.7009 63.0078 14.0044 63.0078 14.6492V17.2286C62.9699 17.7218 62.8181 18.177 62.5526 18.5563L43.5105 43.6676C43.2071 44.1228 42.5622 44.2745 42.0691 43.971L36.8723 41.0882ZM10.1679 41.0882C9.78857 40.7847 9.71272 40.4054 9.86444 39.7605L17.1475 14.5354C17.2613 14.0044 17.7544 13.663 18.2855 13.7009H35.3551C36.0378 13.7009 36.3034 14.0044 36.3034 14.6492V17.2286C36.2654 17.7218 36.1137 18.177 35.8482 18.5563L16.8819 43.6676C16.5785 44.1228 15.9336 44.2745 15.4405 43.9331L10.1679 41.0882Z" fill="white"/>
</svg>
