<svg width="127" height="49" viewBox="0 0 127 49" fill="none" xmlns="http://www.w3.org/2000/svg">
<path fill-rule="evenodd" clip-rule="evenodd" d="M122.957 32.0199C123.033 32.8894 123.729 33.9962 124.934 33.9962H125.639C125.913 33.9962 126.137 33.7722 126.137 33.4987V17.993H126.133C126.12 17.7318 125.904 17.5226 125.639 17.5226H123.455C123.19 17.5226 122.974 17.7318 122.961 17.993H122.957V19.2529C121.619 17.603 119.508 16.9182 117.392 16.9182C112.582 16.9182 108.683 20.8207 108.683 25.6349C108.683 30.4494 112.582 34.3519 117.392 34.3519C119.508 34.3519 121.815 33.5307 122.957 32.0179V32.0199ZM117.4 31.3012C114.341 31.3012 111.861 28.7645 111.861 25.6349C111.861 22.5058 114.341 19.969 117.4 19.969C120.461 19.969 122.94 22.5058 122.94 25.6349C122.94 28.7645 120.461 31.3012 117.4 31.3012Z" fill="#034833"/>
<path fill-rule="evenodd" clip-rule="evenodd" d="M105.92 24.5296C105.92 20.0067 103.069 16.9556 98.5225 16.9556C96.3521 16.9556 94.573 18.2115 93.9446 19.2904C93.8088 18.4468 93.3613 17.5601 91.9735 17.5601H91.2661C90.9925 17.5601 90.769 17.7842 90.769 18.0578V32.0587C90.769 32.0591 90.769 32.0601 90.769 32.0608V33.5648H90.7718C90.7861 33.8256 91.0021 34.035 91.2663 34.035H93.451C93.4844 34.035 93.5172 34.031 93.5489 34.0249C93.5634 34.0221 93.5768 34.0164 93.5909 34.0124C93.6071 34.0074 93.624 34.0035 93.6395 33.9972C93.6589 33.9891 93.6765 33.9783 93.6946 33.9682C93.7035 33.9627 93.7128 33.959 93.7213 33.9533C93.7431 33.9392 93.7631 33.9223 93.7824 33.905C93.7856 33.9018 93.7894 33.8997 93.7926 33.8967C93.8143 33.8757 93.8342 33.8525 93.8517 33.8284C93.9063 33.7533 93.9397 33.6624 93.9452 33.5648H93.948V24.4051C93.948 21.9761 95.9159 20.0067 98.3433 20.0067C100.771 20.0067 102.738 21.9761 102.738 24.4051L102.74 32.0614L102.741 32.0587C102.741 32.0655 102.742 32.0724 102.742 32.0797V33.5648H102.745C102.759 33.8256 102.975 34.035 103.239 34.035H105.424C105.458 34.035 105.49 34.031 105.522 34.0249C105.535 34.0225 105.547 34.0173 105.56 34.0138C105.577 34.0085 105.596 34.0041 105.613 33.9972C105.631 33.9898 105.647 33.9795 105.664 33.9699C105.674 33.9641 105.685 33.9599 105.695 33.9533C105.715 33.94 105.734 33.924 105.752 33.9082C105.756 33.9039 105.762 33.9007 105.766 33.8964C105.787 33.8764 105.805 33.8548 105.822 33.8322C105.823 33.8305 105.825 33.8291 105.826 33.8274C105.88 33.753 105.913 33.6631 105.918 33.566C105.918 33.5654 105.918 33.5648 105.918 33.5648H105.921L105.92 24.5296Z" fill="#034833"/>
<path fill-rule="evenodd" clip-rule="evenodd" d="M83.1683 32.0198C83.2447 32.8894 83.9403 33.9962 85.1453 33.9962H85.8503C86.1235 33.9962 86.3473 33.7722 86.3473 33.4987V17.993H86.3445C86.3303 17.7318 86.1141 17.5226 85.8503 17.5226H83.6656C83.4014 17.5226 83.1856 17.7318 83.1708 17.993H83.1683V19.2529C81.8297 17.603 79.7193 16.9182 77.6031 16.9182C72.7929 16.9182 68.8936 20.8207 68.8936 25.6349C68.8936 30.4494 72.7929 34.352 77.6031 34.352C79.7193 34.352 82.0257 33.5307 83.1681 32.0179L83.1683 32.0198ZM77.6116 31.3012C74.5525 31.3012 72.0723 28.7646 72.0723 25.6349C72.0723 22.5058 74.5525 19.969 77.6116 19.969C80.671 19.969 83.1508 22.5058 83.1508 25.6349C83.1508 28.7646 80.671 31.3012 77.6116 31.3012Z" fill="#034833"/>
<path fill-rule="evenodd" clip-rule="evenodd" d="M55.9744 29.7991C57.4328 30.8102 59.0247 31.3014 60.5545 31.3014C62.0119 31.3014 63.5186 30.5452 63.5186 29.2291C63.5186 27.4721 60.2355 27.1987 58.1728 26.4971C56.1096 25.7955 54.3327 24.3451 54.3327 21.9963C54.3327 18.4023 57.5325 16.918 60.5191 16.918C62.4114 16.918 64.3638 17.5424 65.6296 18.437C66.0655 18.7676 65.8 19.1471 65.8 19.1471L64.5918 20.8742C64.456 21.0687 64.2185 21.2367 63.8777 21.0262C63.5368 20.8158 62.3412 19.9689 60.5191 19.9689C58.6969 19.9689 57.5993 20.811 57.5993 21.8549C57.5993 23.1066 59.0258 23.5003 60.6968 23.9269C63.6087 24.7124 66.7852 25.6566 66.7852 29.2291C66.7852 32.3957 63.8255 34.3526 60.5545 34.3526C58.0757 34.3526 55.9653 33.6455 54.1953 32.3456C53.8265 31.9763 54.084 31.6333 54.084 31.6333L55.2864 29.915C55.5311 29.5938 55.8395 29.7058 55.9744 29.7991Z" fill="#034833"/>
<path fill-rule="evenodd" clip-rule="evenodd" d="M47.5757 32.0198C47.652 32.8894 48.3476 33.9962 49.5525 33.9962H50.2576C50.5309 33.9962 50.7549 33.7722 50.7549 33.4987V17.993H50.7518C50.7375 17.7318 50.5217 17.5226 50.2576 17.5226H48.0729C47.8087 17.5226 47.5929 17.7318 47.5783 17.993H47.5757V19.2529C46.2371 17.603 44.1268 16.9182 42.0106 16.9182C37.2003 16.9182 33.3008 20.8207 33.3008 25.6349C33.3008 30.4494 37.2003 34.352 42.0106 34.352C44.1268 34.352 46.4331 33.5307 47.5753 32.0179L47.5757 32.0198ZM42.0191 31.3012C38.9598 31.3012 36.4796 28.7646 36.4796 25.6349C36.4796 22.5058 38.9598 19.969 42.0191 19.969C45.0783 19.969 47.5582 22.5058 47.5582 25.6349C47.5582 28.7646 45.0783 31.3012 42.0191 31.3012Z" fill="#034833"/>
<path fill-rule="evenodd" clip-rule="evenodd" d="M21.0895 26.2271C17.8525 26.2271 15.2282 28.8513 15.2282 32.0887C15.2282 35.3259 17.8525 37.9501 21.0895 37.9501C24.3267 37.9501 26.9509 35.3259 26.9509 32.0887C26.9509 28.8513 24.3267 26.2271 21.0895 26.2271ZM5.86134 26.2277C2.62424 26.2277 0 28.8513 0 32.0887C0 35.3259 2.62424 37.9501 5.86134 37.9501C9.09858 37.9501 11.723 35.3259 11.723 32.0887C11.723 28.8513 9.09858 26.2277 5.86134 26.2277ZM19.3367 18.9003C19.3367 22.1377 16.7126 24.7621 13.4755 24.7621C10.2382 24.7621 7.61414 22.1377 7.61414 18.9003C7.61414 15.6636 10.2382 13.0391 13.4755 13.0391C16.7126 13.0391 19.3367 15.6636 19.3367 18.9003Z" fill="#034833"/>
</svg>
