<svg width="108" height="49" viewBox="0 0 108 49" fill="none" xmlns="http://www.w3.org/2000/svg">
<path d="M11.4932 29.415C11.4932 30.1278 11.3425 30.7901 11.041 31.4025C10.7395 32.0064 10.3123 32.5261 9.77609 32.9456C9.23164 33.3733 8.58675 33.7003 7.84098 33.935C7.09555 34.1697 6.27475 34.2872 5.38675 34.2872C4.32275 34.2872 3.36809 34.1446 2.53075 33.8512C1.69315 33.566 0.847199 33.0796 0.000976562 32.4085L1.40009 30.1356C2.07013 30.6975 2.67298 31.108 3.21787 31.3685C3.75395 31.6285 4.30675 31.7543 4.87653 31.7543C5.57173 31.7543 6.12453 31.5781 6.55209 31.2176C6.97929 30.8569 7.18027 30.379 7.18027 29.7669C7.18027 29.507 7.13838 29.2638 7.06302 29.0374C6.98763 28.8109 6.84524 28.5761 6.64426 28.3329C6.4432 28.0982 6.15849 27.8298 5.79831 27.5531C5.44649 27.2763 4.98587 26.9241 4.41609 26.5131C3.98889 26.2112 3.56178 25.8926 3.1512 25.5736C2.7408 25.2465 2.37227 24.9027 2.02853 24.5336C1.69351 24.1646 1.42551 23.7537 1.21609 23.2927C1.01502 22.8399 0.906221 22.3113 0.906221 21.7327C0.906221 21.0618 1.04862 20.4411 1.32498 19.8873C1.60133 19.3336 1.98667 18.8642 2.47253 18.4704C2.95831 18.0763 3.53653 17.7744 4.22275 17.5567C4.90115 17.3386 5.63787 17.2296 6.44231 17.2296C7.28827 17.2296 8.10098 17.3386 8.88764 17.5651C9.67493 17.7915 10.4041 18.1185 11.0823 18.5544L9.81742 20.6007C8.95475 19.9968 8.04142 19.6869 7.08675 19.6869C6.5088 19.6869 6.02275 19.8378 5.64586 20.1397C5.26898 20.4416 5.07626 20.819 5.07626 21.2801C5.07626 21.7162 5.24382 22.1104 5.57884 22.4544C5.91387 22.8065 6.49173 23.2846 7.31307 23.9219C8.14231 24.5257 8.82951 25.0624 9.36551 25.5148C9.90995 25.9676 10.3371 26.4037 10.6553 26.8064C10.9736 27.2089 11.183 27.6114 11.3086 28.0304C11.4342 28.458 11.4929 28.9108 11.4929 29.4144L11.4932 29.415ZM25.8577 25.583C25.8577 26.2119 25.7907 26.8914 25.6567 27.6203C25.531 28.3499 25.3049 29.0212 24.9867 29.6416C24.6684 30.2622 24.258 30.7741 23.7467 31.1679C23.2357 31.5704 22.5822 31.7716 21.8036 31.7716C20.4969 31.7716 19.4667 31.2517 18.7129 30.2036C17.959 29.1636 17.5822 27.7298 17.5822 25.9103C17.5822 24.04 17.9591 22.5645 18.7298 21.4658C19.492 20.3672 20.5307 19.8223 21.8373 19.8223C23.0773 19.8223 24.0569 20.3422 24.7769 21.3654C25.4972 22.3965 25.8578 23.8054 25.8578 25.5832L25.8577 25.583ZM30.3972 25.4236C30.3972 24.2076 30.2213 23.1009 29.878 22.1116C29.5261 21.1134 29.0404 20.2583 28.3953 19.5374C27.7504 18.8162 26.9962 18.2627 26.1171 17.86C25.238 17.4574 24.2664 17.2563 23.2024 17.2563C22.03 17.2563 20.9997 17.4827 20.1117 17.9188C19.2239 18.3632 18.3944 19.0592 17.6406 20.0148L17.6156 17.6415H13.436V42.0326H17.6076V31.7304C18.018 32.2083 18.4116 32.6108 18.7969 32.9375C19.1738 33.2645 19.5591 33.5328 19.9524 33.7341C20.346 33.9353 20.7564 34.0863 21.1916 34.1702C21.6271 34.254 22.0964 34.296 22.5907 34.296C23.6964 34.296 24.7347 34.0695 25.6893 33.6335C26.644 33.189 27.4733 32.5686 28.1684 31.7632C28.8636 30.9579 29.4084 30.0192 29.8022 28.9544C30.2043 27.8806 30.3969 26.6984 30.3969 25.4237L30.3972 25.4236ZM32.2568 33.9018H36.5448V10.0352H32.2568V33.9018ZM54.8346 33.9102V17.6257H50.5466V26.3884C50.5466 27.1683 50.5131 27.7724 50.446 28.2C50.379 28.6276 50.2701 29.0049 50.1194 29.3573C49.5163 30.6986 48.402 31.3786 46.786 31.3786C45.5211 31.3786 44.642 30.9258 44.1389 30.0115C43.938 29.6677 43.8039 29.2736 43.7285 28.8373C43.6531 28.4013 43.6113 27.7724 43.6113 26.9422V17.6266H39.3233V26.88C39.3233 27.5088 39.3316 28.0453 39.3401 28.4728C39.3484 28.9005 39.382 29.2946 39.4238 29.6302C39.4657 29.9656 39.5159 30.2675 39.5746 30.528C39.6248 30.7879 39.7086 31.0394 39.8175 31.2743C40.2111 32.2725 40.8397 33.0272 41.7188 33.5383C42.5983 34.0497 43.6788 34.3014 44.9517 34.3014C46.0993 34.3014 47.1126 34.1 47.9837 33.6976C48.8548 33.2951 49.7011 32.6407 50.5215 31.7269L50.5299 33.9073L54.8348 33.9157L54.8346 33.9102ZM73.3146 33.9018V24.6663C73.3146 24.0373 73.3062 23.5009 73.2978 23.0565C73.2894 22.612 73.2644 22.2264 73.214 21.8992C73.1722 21.572 73.1136 21.287 73.0549 21.0438C72.9879 20.7922 72.9125 20.549 72.8288 20.3142C72.4351 19.3417 71.8066 18.5871 70.9275 18.0582C70.0484 17.5293 68.9675 17.2616 67.6857 17.2616C66.5381 17.2616 65.5248 17.4628 64.6537 17.8653C63.7826 18.2678 62.9364 18.9302 62.1159 19.836L62.1076 17.6555H57.7938V33.9044H62.1156V25.1328C62.1156 24.3781 62.1407 23.7826 62.1993 23.3631C62.2495 22.9438 62.3585 22.5496 62.5092 22.172C62.7856 21.5178 63.2212 21.0315 63.799 20.6964C64.3769 20.3613 65.0639 20.1933 65.8675 20.1933C67.1323 20.1933 68.0115 20.6461 68.5146 21.5604C68.7073 21.9042 68.8412 22.2984 68.9166 22.7257C68.992 23.1535 69.0339 23.7906 69.0339 24.6128V33.884L73.3139 33.8924L73.3146 33.9018ZM91.0568 32.828L84.5243 24.7018L90.0435 18.7818L86.7937 17.3818L81.0479 24.0485H80.5956V10.0396H76.2739V33.9063H80.5956V25.2609L87.0614 34.2298L91.0561 32.8289L91.0568 32.828ZM107.759 26.9916V24.3329L94.7635 17.8085V20.7347L104.835 25.6405L94.7635 30.6129V33.4725L107.759 26.9907V26.9916ZM96.0257 13.5872C95.2301 13.5872 94.5848 14.2412 94.5848 15.0467C94.5848 15.8685 95.2301 16.5143 96.0257 16.5143C96.8301 16.5143 97.4666 15.8686 97.4666 15.0467C97.4666 14.2333 96.8301 13.5872 96.0257 13.5872ZM96.0346 13.8136C96.679 13.8136 97.1981 14.367 97.1981 15.0544C97.1981 15.7421 96.679 16.2953 96.0346 16.2873C95.3812 16.2873 94.8612 15.7423 94.8612 15.0464C94.8612 14.3672 95.3812 13.8136 96.0346 13.8136ZM95.7581 15.1976H95.9332C96.143 15.1976 96.2435 15.273 96.2852 15.4827C96.319 15.7008 96.3608 15.8433 96.3946 15.8936H96.671C96.6452 15.8433 96.6035 15.7427 96.5706 15.4912C96.5368 15.248 96.4444 15.1222 96.2941 15.097V15.0802C96.4701 15.0299 96.6124 14.8958 96.6124 14.6861C96.6124 14.5352 96.5617 14.4178 96.4612 14.3506C96.3608 14.2752 96.2017 14.2249 95.959 14.2249C95.7661 14.2249 95.6319 14.2416 95.4986 14.2668V15.8935H95.7581V15.1975V15.1976ZM95.7581 14.4428C95.7999 14.4344 95.8586 14.426 95.9421 14.426C96.2355 14.426 96.3359 14.5686 96.3359 14.7112C96.3359 14.9124 96.151 14.9879 95.9421 14.9879H95.7581V14.4428V14.4428Z" fill="#034833"/>
</svg>
