<svg width="144" height="49" viewBox="0 0 144 49" fill="none" xmlns="http://www.w3.org/2000/svg">
<path d="M143.733 23.6619V19.0678C142.834 19.1037 140.138 19.4704 138.945 20.9011V19.3841H133.912V34.6907H138.945V27.458C139.664 24.0501 142.921 23.6907 143.747 23.6619H143.733ZM98.6546 23.8417C98.1146 23.3587 97.4973 22.9698 96.8285 22.6913C96.2777 22.4229 95.6725 22.2851 95.0598 22.2887C94.606 22.2842 94.1567 22.38 93.7442 22.5691C93.5562 22.6454 93.3969 22.7786 93.2885 22.9502C93.1802 23.1217 93.1283 23.3228 93.1402 23.5253C93.1353 23.7307 93.1971 23.9321 93.3163 24.0993C93.4356 24.2666 93.6059 24.3906 93.8017 24.4528C94.5041 24.7128 95.2251 24.9194 95.9585 25.0711C96.5559 25.2005 97.1424 25.376 97.7128 25.5959C98.2864 25.8147 98.8243 26.1175 99.3089 26.4946C99.7816 26.8665 100.173 27.3314 100.459 27.8606C100.76 28.4521 100.909 29.1095 100.891 29.773C100.922 30.5833 100.739 31.3875 100.361 32.1045C99.9819 32.8215 99.4207 33.4259 98.7337 33.8567C98.0748 34.2838 97.3441 34.5882 96.5768 34.7554C95.8044 34.9407 95.013 35.0348 94.2187 35.0357C92.9599 35.0358 91.7095 34.8319 90.5161 34.4318C89.3829 34.0794 88.3469 33.4691 87.4893 32.6488L89.9768 29.5358C90.5831 30.0896 91.272 30.5456 92.0187 30.8874C92.6721 31.2161 93.3938 31.386 94.1252 31.3835C94.552 31.3791 94.9723 31.2783 95.3546 31.0887C95.5489 30.9984 95.7109 30.8508 95.8189 30.6657C95.9268 30.4807 95.9756 30.267 95.9585 30.0534C95.9612 29.8258 95.8935 29.6028 95.7649 29.415C95.6362 29.2272 95.4528 29.0836 95.2396 29.0037C94.4898 28.6917 93.7123 28.451 92.9174 28.2848C92.3677 28.1558 91.8272 27.99 91.2997 27.7887C90.7801 27.5869 90.295 27.3056 89.8618 26.9547C89.448 26.6016 89.1062 26.172 88.8553 25.6894C88.5746 25.1122 88.4366 24.4761 88.4527 23.8345C88.4291 23.0046 88.633 22.1842 89.0422 21.4619C89.4273 20.8119 89.9561 20.2585 90.588 19.8443C91.2156 19.4237 91.9113 19.1148 92.6442 18.9312C93.3812 18.7382 94.1397 18.6392 94.9017 18.6364C96.0542 18.6353 97.1997 18.8173 98.2951 19.1756C99.3409 19.5024 100.301 20.0574 101.106 20.8005L98.6546 23.8417ZM128.11 25.0495C128.104 24.3449 127.849 23.6651 127.391 23.1299C127.095 22.8273 126.736 22.5938 126.34 22.4459C125.944 22.298 125.519 22.2394 125.098 22.2743C124.639 22.2705 124.184 22.3484 123.753 22.5044C123.362 22.6475 122.999 22.8593 122.682 23.1299C122.387 23.3942 122.143 23.7111 121.963 24.0645C121.803 24.3712 121.703 24.7055 121.668 25.0495H128.11ZM132.747 27.1273V27.7384C132.759 27.9323 132.759 28.1268 132.747 28.3207H121.647C121.679 28.7316 121.81 29.1286 122.028 29.4782C122.244 29.8292 122.525 30.1365 122.855 30.3841C123.199 30.6419 123.583 30.8433 123.991 30.9809C124.409 31.1246 124.849 31.1975 125.292 31.1965C125.994 31.217 126.69 31.0639 127.319 30.7508C127.849 30.4738 128.308 30.0805 128.664 29.6005L132.165 31.8076C131.435 32.8482 130.443 33.6767 129.289 34.209C128.016 34.7822 126.631 35.0647 125.234 35.0357C124.126 35.0422 123.025 34.8598 121.977 34.4965C120.989 34.1599 120.077 33.6295 119.296 32.9364C118.519 32.2352 117.904 31.3743 117.491 30.4129C117.032 29.3316 116.806 28.1653 116.83 26.9907C116.815 25.8305 117.032 24.6791 117.47 23.6044C117.873 22.6396 118.467 21.7664 119.217 21.0377C119.971 20.3255 120.857 19.7685 121.826 19.3985C122.871 19.001 123.98 18.8034 125.098 18.8162C126.157 18.8062 127.209 18.999 128.196 19.3841C129.114 19.7463 129.942 20.3059 130.619 21.0234C131.316 21.7733 131.854 22.656 132.201 23.6188C132.594 24.741 132.786 25.9239 132.769 27.1129L132.747 27.1273ZM72.118 23.5325V18.9096H67.8043V15.4802C67.6965 13.5031 66.7618 12.0293 62.9442 12.0293V29.8377C62.9407 30.5513 63.0326 31.2622 63.2174 31.9514C63.3804 32.557 63.675 33.1192 64.0801 33.5978C64.514 34.0747 65.0602 34.4355 65.669 34.6475C66.5195 34.9181 67.4081 35.0492 68.3004 35.0357C69.6003 35.0517 70.8928 34.8375 72.118 34.4031V30.305C71.3002 30.5147 70.4603 30.6257 69.6161 30.6358C69.3532 30.6683 69.0864 30.6391 68.8368 30.5505C68.5872 30.4619 68.3617 30.3163 68.1782 30.1253C67.8907 29.6585 67.762 29.1112 67.8115 28.5652V23.5325H72.118Z" fill="#034833"/>
<path d="M112.487 26.5235L118.167 19.3339H112.157L107.124 25.6895V15.6241C107.031 13.5536 106.132 12.0294 102.257 12.0294V34.6908H107.124V27.3718L112.876 34.6908H118.951L112.487 26.5235ZM86.6338 34.6764V24.5392C86.6338 20.1751 83.1685 18.6078 80.0986 18.6078C77.6813 18.4872 75.3034 19.2543 73.4123 20.7647L75.9502 23.9137C76.9721 23.0161 78.2491 22.4606 79.6025 22.3248C81.4502 22.3248 81.8312 23.3816 81.8312 24.7333V24.9921H80.1704C75.8999 24.9921 73.3332 26.8398 73.3332 30.1326C73.3332 33.7274 76.4966 34.662 80.3502 34.662L86.6338 34.6764ZM81.8312 31.4914H80.2352C78.9914 31.4914 78.2293 30.9738 78.2293 29.9026C78.2293 28.8313 78.9914 28.213 80.5155 28.213H81.8312V31.4914ZM45.215 14.8117C45.215 15.5554 45.5104 16.2686 46.0362 16.7944C46.562 17.3202 47.2752 17.6156 48.0189 17.6156C48.7625 17.6156 49.4757 17.3202 50.0015 16.7944C50.5274 16.2686 50.8228 15.5554 50.8228 14.8117C50.8228 14.0681 50.5274 13.3549 50.0015 12.8291C49.4757 12.3032 48.7625 12.0078 48.0189 12.0078C47.2752 12.0078 46.562 12.3032 46.0362 12.8291C45.5104 13.3549 45.215 14.0681 45.215 14.8117ZM45.6895 18.9457H45.481V34.6908H50.5496V22.2601C50.4058 20.3477 49.428 18.9457 45.6895 18.9457ZM61.83 23.662V19.0679C60.9385 19.1039 58.2352 19.4705 57.0417 20.9013V19.3843H52.0091V34.6908H57.0417V27.5803C57.0383 27.5397 57.0383 27.4988 57.0417 27.4581C57.7607 24.0503 61.0104 23.6908 61.8443 23.662H61.83ZM142.274 32.3829H141.993V32.915H142.274C142.31 32.9169 142.346 32.9115 142.38 32.899C142.414 32.8865 142.445 32.8672 142.471 32.8423C142.497 32.8174 142.518 32.7874 142.532 32.7542C142.547 32.7209 142.554 32.6851 142.554 32.649C142.554 32.6128 142.547 32.577 142.532 32.5437C142.518 32.5105 142.497 32.4805 142.471 32.4556C142.445 32.4307 142.414 32.4114 142.38 32.3989C142.346 32.3864 142.31 32.381 142.274 32.3829ZM142.554 33.8568L142.209 33.1378H141.993V33.8568H141.677V32.1097H142.353C142.424 32.1078 142.496 32.1204 142.562 32.1467C142.629 32.173 142.69 32.2125 142.741 32.2629C142.792 32.3133 142.832 32.3734 142.859 32.4398C142.887 32.5061 142.9 32.5773 142.899 32.649C142.9 32.7536 142.868 32.8558 142.807 32.941C142.746 33.0263 142.66 33.0901 142.561 33.1235L142.942 33.8424L142.554 33.8568ZM142.223 31.6999C141.961 31.687 141.7 31.753 141.476 31.8895C141.251 32.026 141.072 32.2267 140.963 32.4657C140.853 32.7047 140.818 32.971 140.861 33.2303C140.904 33.4897 141.024 33.7301 141.205 33.9206C141.386 34.1111 141.62 34.243 141.877 34.2993C142.134 34.3555 142.402 34.3335 142.646 34.2361C142.89 34.1387 143.1 33.9704 143.247 33.7529C143.395 33.5353 143.474 33.2785 143.474 33.0156C143.479 32.847 143.45 32.679 143.39 32.5215C143.33 32.3639 143.239 32.2198 143.122 32.0975C143.006 31.9753 142.867 31.8772 142.713 31.8089C142.558 31.7407 142.392 31.7037 142.223 31.6999ZM142.223 34.6333C141.903 34.6432 141.586 34.5576 141.314 34.3872C141.043 34.2169 140.827 33.9696 140.696 33.6767C140.566 33.3838 140.525 33.0586 140.579 32.7425C140.633 32.4263 140.78 32.1334 141.002 31.901C141.223 31.6687 141.508 31.5073 141.821 31.4375C142.134 31.3677 142.461 31.3926 142.76 31.509C143.059 31.6254 143.317 31.828 143.5 32.0912C143.684 32.3543 143.785 32.6661 143.791 32.9869C143.796 33.409 143.635 33.8161 143.341 34.1193C143.047 34.4225 142.645 34.5969 142.223 34.6045V34.6333ZM31.332 25.8117L33.5823 19.3411L35.8326 25.8117H31.332ZM35.9477 12.0294H31.4254L24.4444 30.4777H21.698C19.8256 30.557 17.9703 30.0926 16.3562 29.1405C15.7128 28.7276 15.1907 28.1513 14.8433 27.4704C14.4959 26.7895 14.3357 26.0285 14.3791 25.2653V23.1084H12.1503C10.0772 23.0516 8.09193 22.259 6.54966 20.8725C5.34474 19.6087 4.58714 17.9849 4.3928 16.2496H20.0157C22.8555 16.2496 23.9052 17.6372 24.5594 18.881C24.8809 19.5048 25.1224 20.1667 25.2784 20.8509L27.2555 15.6241C27.2555 15.6241 25.6019 12.0294 20.0157 12.0294H0V14.1862C0 18.2555 1.20784 21.5196 3.59477 23.8633C5.46844 25.6365 7.8388 26.7953 10.3889 27.1849C11.2876 31.8006 15.5294 34.6764 21.698 34.6764H28.1111L29.549 30.5209H37.5797L39.0176 34.6692H44.5032L35.9477 12.0294Z" fill="#034833"/>
</svg>
