<svg width="114" height="49" viewBox="0 0 114 49" fill="none" xmlns="http://www.w3.org/2000/svg">
<path d="M12.3085 13.1445V22.2323H3.96242V13.1445H0V34.8378H3.96242V26.0452H12.3085V34.8378H16.2709V13.1445H12.3085Z" fill="#034833"/>
<path d="M28.9522 27.825C28.9522 28.6944 28.6068 29.5282 27.9921 30.1429C27.3773 30.7577 26.5435 31.1031 25.6741 31.1031C24.8047 31.1031 23.971 30.7577 23.3562 30.1429C22.7414 29.5282 22.3961 28.6944 22.3961 27.825V18.5334H18.6375V27.825C18.6375 29.6894 19.3781 31.4775 20.6965 32.7958C22.0149 34.1142 23.8029 34.8548 25.6673 34.8548C27.5318 34.8548 29.3198 34.1142 30.6382 32.7958C31.9565 31.4775 32.6972 29.6894 32.6972 27.825V18.5334H28.9522V27.825Z" fill="#034833"/>
<path d="M56.8007 19.491C56.8007 17.5865 58.0606 16.9827 59.441 16.9827C60.5534 16.9827 62.0231 17.8292 62.9841 18.8562L65.4458 15.9557C64.2169 14.2939 61.7241 13.1446 59.6837 13.1446C55.6067 13.1446 52.6577 15.5325 52.6577 19.491C52.6577 26.8354 61.6348 24.5057 61.6348 28.6156C61.6348 29.8834 60.4039 31.0036 58.9945 31.0036C56.7715 31.0036 56.0513 29.9164 55.0301 28.7671L52.2985 31.6073C54.0458 33.7526 56.2008 34.8417 58.7828 34.8417C62.656 34.8417 65.7719 32.4247 65.7719 28.6467C65.7719 20.4928 56.7948 23.0263 56.7948 19.491" fill="#034833"/>
<path d="M112.337 31.3722C110.116 31.3722 109.485 30.4112 109.485 28.9396V22.4262H112.937V19.1258H109.485V14.7712L105.674 16.4816V29.7492C105.674 33.1427 108.015 34.8531 111.226 34.8531C111.73 34.8623 112.233 34.822 112.729 34.7328L113.659 31.3101C113.239 31.3392 112.758 31.3683 112.337 31.3683" fill="#034833"/>
<path d="M43.2594 18.643C41.3976 18.643 40.0988 19.1827 38.8427 20.4155V13.275H35.0783V26.5096C35.0783 31.464 38.6602 34.8576 42.6847 34.8576C47.15 34.8576 51.0774 31.4038 51.0774 26.7522C51.0774 22.1589 47.4625 18.6449 43.2594 18.6449V18.643ZM43.2361 31.0699C42.3913 31.0699 41.5656 30.8194 40.8632 30.3501C40.1608 29.8808 39.6134 29.2137 39.2901 28.4333C38.9668 27.6529 38.8822 26.7941 39.0471 25.9656C39.2119 25.1371 39.6186 24.376 40.216 23.7787C40.8133 23.1814 41.5743 22.7746 42.4028 22.6098C43.2313 22.445 44.0901 22.5296 44.8706 22.8528C45.651 23.1761 46.3181 23.7235 46.7874 24.4259C47.2567 25.1283 47.5072 25.9541 47.5072 26.7988C47.5072 27.9316 47.0572 29.018 46.2562 29.8189C45.4552 30.6199 44.3688 31.0699 43.2361 31.0699Z" fill="#034833"/>
<path d="M84.1336 26.5534C84.1336 21.894 80.2139 18.448 75.7409 18.448C71.7164 18.448 68.1345 21.8416 68.1345 26.796V40.0384H71.8989V32.8882C73.153 34.119 74.4538 34.6607 76.3136 34.6607C80.5168 34.6607 84.1317 31.1487 84.1317 26.5534H84.1336ZM80.5692 26.5068C80.5692 27.3515 80.3187 28.1773 79.8494 28.8797C79.3801 29.582 78.713 30.1295 77.9326 30.4527C77.1521 30.776 76.2934 30.8606 75.4648 30.6958C74.6363 30.531 73.8753 30.1242 73.278 29.5269C72.6806 28.9296 72.2739 28.1685 72.1091 27.34C71.9443 26.5115 72.0288 25.6527 72.3521 24.8723C72.6754 24.0918 73.2228 23.4248 73.9252 22.9555C74.6276 22.4862 75.4533 22.2357 76.2981 22.2357C77.4309 22.2357 78.5172 22.6857 79.3182 23.4866C80.1192 24.2876 80.5692 25.374 80.5692 26.5068Z" fill="#034833"/>
<path d="M96.2563 18.3887V14.6457C96.751 14.4146 97.1698 14.0478 97.464 13.5879C97.7583 13.128 97.9157 12.594 97.9182 12.0481V11.9607C97.9161 11.1978 97.6121 10.4666 97.0726 9.92713C96.5331 9.38764 95.802 9.08365 95.0391 9.0816H94.9517C94.1887 9.08365 93.4576 9.38764 92.9181 9.92713C92.3786 10.4666 92.0746 11.1978 92.0726 11.9607V12.0481C92.075 12.594 92.2325 13.128 92.5267 13.5879C92.8209 14.0478 93.2398 14.4146 93.7344 14.6457V18.3887C92.3123 18.6062 90.9728 19.1956 89.8516 20.0971L79.5738 12.1005C79.647 11.8367 79.6861 11.5646 79.6903 11.2909C79.6911 10.6485 79.5013 10.0203 79.1451 9.48579C78.7888 8.95124 78.282 8.53433 77.6888 8.28779C77.0956 8.04125 76.4427 7.97615 75.8125 8.10072C75.1823 8.22529 74.6032 8.53394 74.1484 8.98763C73.6936 9.44132 73.3836 10.0197 73.2575 10.6496C73.1314 11.2795 73.195 11.9326 73.4401 12.5264C73.6852 13.1202 74.1009 13.6279 74.6346 13.9855C75.1683 14.343 75.796 14.5342 76.4384 14.535C77.0027 14.5329 77.5564 14.3823 78.044 14.0982L88.149 21.9648C87.2388 23.3379 86.764 24.9537 86.7865 26.6009C86.809 28.2482 87.3278 29.8504 88.2752 31.1981L85.2 34.2733C84.9531 34.1947 84.6961 34.1529 84.437 34.1491C83.9091 34.1491 83.393 34.3056 82.954 34.5989C82.515 34.8923 82.1728 35.3092 81.9708 35.797C81.7687 36.2847 81.7159 36.8215 81.8189 37.3393C81.9219 37.8571 82.1761 38.3328 82.5494 38.7061C82.9228 39.0794 83.3984 39.3336 83.9162 39.4366C84.4341 39.5396 84.9708 39.4868 85.4586 39.2847C85.9464 39.0827 86.3633 38.7405 86.6566 38.3016C86.9499 37.8626 87.1065 37.3465 87.1065 36.8185C87.1029 36.5594 87.061 36.3023 86.9822 36.0555L90.0244 33.0133C91.0175 33.7719 92.1707 34.2935 93.3961 34.5383C94.6215 34.7832 95.8866 34.7448 97.0949 34.4262C98.3032 34.1076 99.4228 33.5171 100.368 32.6998C101.313 31.8825 102.059 30.86 102.549 29.7104C103.039 28.5608 103.26 27.3145 103.195 26.0666C103.129 24.8187 102.78 23.6022 102.173 22.5099C101.566 21.4177 100.717 20.4786 99.6917 19.7644C98.6663 19.0501 97.4913 18.5796 96.2563 18.3887ZM94.9963 30.7011C94.1639 30.7011 93.3501 30.4543 92.658 29.9918C91.9658 29.5293 91.4263 28.8719 91.1078 28.1029C90.7892 27.3338 90.7058 26.4875 90.8682 25.671C91.0307 24.8546 91.4315 24.1046 92.0202 23.516C92.6088 22.9273 93.3588 22.5265 94.1752 22.364C94.9917 22.2016 95.838 22.285 96.607 22.6036C97.3761 22.9221 98.0335 23.4616 98.496 24.1538C98.9585 24.8459 99.2053 25.6597 99.2053 26.4921C99.2053 27.6084 98.7619 28.679 97.9725 29.4683C97.1832 30.2577 96.1126 30.7011 94.9963 30.7011Z" fill="#034833"/>
</svg>
