<svg width="11" height="13" viewBox="0 0 11 13" fill="none" xmlns="http://www.w3.org/2000/svg">
<path d="M3.5625 2.04688H6.9375V1.10938C6.9375 0.804688 7.17188 0.546875 7.5 0.546875C7.80469 0.546875 8.0625 0.804688 8.0625 1.10938V2.04688H9C9.82031 2.04688 10.5 2.72656 10.5 3.54688V11.0469C10.5 11.8906 9.82031 12.5469 9 12.5469H1.5C0.65625 12.5469 0 11.8906 0 11.0469V3.54688C0 2.72656 0.65625 2.04688 1.5 2.04688H2.4375V1.10938C2.4375 0.804688 2.67188 0.546875 3 0.546875C3.30469 0.546875 3.5625 0.804688 3.5625 1.10938V2.04688ZM1.125 6.35938H3V5.04688H1.125V6.35938ZM1.125 7.48438V8.98438H3V7.48438H1.125ZM4.125 7.48438V8.98438H6.375V7.48438H4.125ZM7.5 7.48438V8.98438H9.375V7.48438H7.5ZM9.375 5.04688H7.5V6.35938H9.375V5.04688ZM9.375 10.1094H7.5V11.4219H9C9.1875 11.4219 9.375 11.2578 9.375 11.0469V10.1094ZM6.375 10.1094H4.125V11.4219H6.375V10.1094ZM3 10.1094H1.125V11.0469C1.125 11.2578 1.28906 11.4219 1.5 11.4219H3V10.1094ZM6.375 5.04688H4.125V6.35938H6.375V5.04688Z" fill="#111214"/>
</svg>
