<svg width="568" height="45" viewBox="0 0 568 45" fill="none" xmlns="http://www.w3.org/2000/svg">
<g opacity="0.7">
<mask id="path-1-outside-1_3823_194" maskUnits="userSpaceOnUse" x="-1" y="-1.5" width="576" height="47" fill="black">
<rect fill="white" x="-1" y="-1.5" width="576" height="47"/>
<path d="M17.125 35.04C14.725 35.04 12.505 34.605 10.465 33.735C8.425 32.865 6.64 31.65 5.11 30.09C3.58 28.53 2.38 26.7 1.51 24.6C0.67 22.5 0.25 20.205 0.25 17.715C0.25 15.225 0.655 12.93 1.465 10.83C2.305 8.7 3.475 6.87 4.975 5.34C6.505 3.78 8.29 2.58 10.33 1.74C12.37 0.869998 14.59 0.434999 16.99 0.434999C19.39 0.434999 21.535 0.839999 23.425 1.65C25.345 2.46 26.965 3.54 28.285 4.89C29.605 6.21 30.55 7.665 31.12 9.255L25.675 11.865C25.045 10.125 23.98 8.715 22.48 7.635C20.98 6.555 19.15 6.015 16.99 6.015C14.89 6.015 13.03 6.51 11.41 7.5C9.82 8.49 8.575 9.855 7.675 11.595C6.805 13.335 6.37 15.375 6.37 17.715C6.37 20.055 6.82 22.11 7.72 23.88C8.65 25.62 9.925 26.985 11.545 27.975C13.165 28.965 15.025 29.46 17.125 29.46C18.835 29.46 20.41 29.13 21.85 28.47C23.29 27.78 24.445 26.82 25.315 25.59C26.185 24.33 26.62 22.845 26.62 21.135V18.57L29.41 21H16.99V15.825H32.74V19.2C32.74 21.78 32.305 24.06 31.435 26.04C30.565 28.02 29.38 29.685 27.88 31.035C26.41 32.355 24.745 33.36 22.885 34.05C21.025 34.71 19.105 35.04 17.125 35.04ZM37.0878 34.5V0.434999H42.9828V34.5H37.0878ZM60.3957 35.04C57.9957 35.04 55.8057 34.485 53.8257 33.375C51.8757 32.265 50.3157 30.75 49.1457 28.83C48.0057 26.91 47.4357 24.72 47.4357 22.26C47.4357 19.8 48.0057 17.61 49.1457 15.69C50.3157 13.77 51.8757 12.255 53.8257 11.145C55.7757 10.035 57.9657 9.48 60.3957 9.48C62.7957 9.48 64.9707 10.035 66.9207 11.145C68.8707 12.255 70.4157 13.77 71.5557 15.69C72.7257 17.58 73.3107 19.77 73.3107 22.26C73.3107 24.72 72.7257 26.91 71.5557 28.83C70.3857 30.75 68.8257 32.265 66.8757 33.375C64.9257 34.485 62.7657 35.04 60.3957 35.04ZM60.3957 29.64C61.7157 29.64 62.8707 29.325 63.8607 28.695C64.8807 28.065 65.6757 27.195 66.2457 26.085C66.8457 24.945 67.1457 23.67 67.1457 22.26C67.1457 20.82 66.8457 19.56 66.2457 18.48C65.6757 17.37 64.8807 16.5 63.8607 15.87C62.8707 15.21 61.7157 14.88 60.3957 14.88C59.0457 14.88 57.8607 15.21 56.8407 15.87C55.8207 16.5 55.0107 17.37 54.4107 18.48C53.8407 19.56 53.5557 20.82 53.5557 22.26C53.5557 23.67 53.8407 24.945 54.4107 26.085C55.0107 27.195 55.8207 28.065 56.8407 28.695C57.8607 29.325 59.0457 29.64 60.3957 29.64ZM91.1461 35.04C89.3761 35.04 87.7411 34.695 86.2411 34.005C84.7711 33.285 83.6011 32.265 82.7311 30.945L83.3161 29.775V34.5H77.7811V0.434999H83.6761V14.88L82.7761 13.665C83.6161 12.345 84.7561 11.325 86.1961 10.605C87.6361 9.855 89.3011 9.48 91.1911 9.48C93.5011 9.48 95.5861 10.05 97.4461 11.19C99.3061 12.33 100.776 13.86 101.856 15.78C102.966 17.7 103.521 19.86 103.521 22.26C103.521 24.63 102.981 26.79 101.901 28.74C100.821 30.69 99.3511 32.235 97.4911 33.375C95.6311 34.485 93.5161 35.04 91.1461 35.04ZM90.4711 29.64C91.8211 29.64 93.0211 29.325 94.0711 28.695C95.1211 28.065 95.9311 27.195 96.5011 26.085C97.1011 24.975 97.4011 23.7 97.4011 22.26C97.4011 20.82 97.1011 19.56 96.5011 18.48C95.9311 17.37 95.1211 16.5 94.0711 15.87C93.0211 15.21 91.8211 14.88 90.4711 14.88C89.1811 14.88 88.0111 15.195 86.9611 15.825C85.9411 16.455 85.1311 17.34 84.5311 18.48C83.9611 19.59 83.6761 20.85 83.6761 22.26C83.6761 23.7 83.9611 24.975 84.5311 26.085C85.1311 27.195 85.9411 28.065 86.9611 28.695C88.0111 29.325 89.1811 29.64 90.4711 29.64ZM115.441 35.04C113.731 35.04 112.246 34.755 110.986 34.185C109.726 33.615 108.751 32.805 108.061 31.755C107.371 30.675 107.026 29.43 107.026 28.02C107.026 26.67 107.326 25.47 107.926 24.42C108.526 23.34 109.456 22.44 110.716 21.72C111.976 21 113.566 20.49 115.486 20.19L123.496 18.885V23.385L116.611 24.555C115.441 24.765 114.571 25.14 114.001 25.68C113.431 26.22 113.146 26.925 113.146 27.795C113.146 28.635 113.461 29.31 114.091 29.82C114.751 30.3 115.561 30.54 116.521 30.54C117.751 30.54 118.831 30.285 119.761 29.775C120.721 29.235 121.456 28.5 121.966 27.57C122.506 26.64 122.776 25.62 122.776 24.51V18.21C122.776 17.16 122.356 16.29 121.516 15.6C120.706 14.88 119.626 14.52 118.276 14.52C117.016 14.52 115.891 14.865 114.901 15.555C113.941 16.215 113.236 17.1 112.786 18.21L107.971 15.87C108.451 14.58 109.201 13.47 110.221 12.54C111.271 11.58 112.501 10.83 113.911 10.29C115.321 9.75 116.851 9.48 118.501 9.48C120.511 9.48 122.281 9.855 123.811 10.605C125.341 11.325 126.526 12.345 127.366 13.665C128.236 14.955 128.671 16.47 128.671 18.21V34.5H123.091V30.315L124.351 30.225C123.721 31.275 122.971 32.16 122.101 32.88C121.231 33.57 120.241 34.11 119.131 34.5C118.021 34.86 116.791 35.04 115.441 35.04ZM134.119 34.5V0.434999H140.014V34.5H134.119ZM161.948 34.5V0.974997H174.413C176.693 0.974997 178.703 1.395 180.443 2.235C182.213 3.045 183.593 4.245 184.583 5.835C185.573 7.395 186.068 9.3 186.068 11.55C186.068 13.86 185.513 15.825 184.403 17.445C183.323 19.065 181.853 20.265 179.993 21.045L187.688 34.5H180.758L172.523 19.785L176.483 22.125H168.068V34.5H161.948ZM168.068 16.725H174.503C175.613 16.725 176.573 16.515 177.383 16.095C178.193 15.645 178.823 15.03 179.273 14.25C179.723 13.47 179.948 12.57 179.948 11.55C179.948 10.5 179.723 9.6 179.273 8.85C178.823 8.07 178.193 7.47 177.383 7.05C176.573 6.6 175.613 6.375 174.503 6.375H168.068V16.725ZM201.452 35.04C198.932 35.04 196.727 34.47 194.837 33.33C192.947 32.19 191.477 30.645 190.427 28.695C189.377 26.745 188.852 24.585 188.852 22.215C188.852 19.755 189.377 17.58 190.427 15.69C191.507 13.77 192.962 12.255 194.792 11.145C196.652 10.035 198.722 9.48 201.002 9.48C202.922 9.48 204.602 9.795 206.042 10.425C207.512 11.055 208.757 11.925 209.777 13.035C210.797 14.145 211.577 15.42 212.117 16.86C212.657 18.27 212.927 19.8 212.927 21.45C212.927 21.87 212.897 22.305 212.837 22.755C212.807 23.205 212.732 23.595 212.612 23.925H193.712V19.425H209.282L206.492 21.54C206.762 20.16 206.687 18.93 206.267 17.85C205.877 16.77 205.217 15.915 204.287 15.285C203.387 14.655 202.292 14.34 201.002 14.34C199.772 14.34 198.677 14.655 197.717 15.285C196.757 15.885 196.022 16.785 195.512 17.985C195.032 19.155 194.852 20.58 194.972 22.26C194.852 23.76 195.047 25.095 195.557 26.265C196.097 27.405 196.877 28.29 197.897 28.92C198.947 29.55 200.147 29.865 201.497 29.865C202.847 29.865 203.987 29.58 204.917 29.01C205.877 28.44 206.627 27.675 207.167 26.715L211.937 29.055C211.457 30.225 210.707 31.26 209.687 32.16C208.667 33.06 207.452 33.765 206.042 34.275C204.662 34.785 203.132 35.04 201.452 35.04ZM224.733 35.04C223.023 35.04 221.538 34.755 220.278 34.185C219.018 33.615 218.043 32.805 217.353 31.755C216.663 30.675 216.318 29.43 216.318 28.02C216.318 26.67 216.618 25.47 217.218 24.42C217.818 23.34 218.748 22.44 220.008 21.72C221.268 21 222.858 20.49 224.778 20.19L232.788 18.885V23.385L225.903 24.555C224.733 24.765 223.863 25.14 223.293 25.68C222.723 26.22 222.438 26.925 222.438 27.795C222.438 28.635 222.753 29.31 223.383 29.82C224.043 30.3 224.853 30.54 225.812 30.54C227.043 30.54 228.123 30.285 229.053 29.775C230.013 29.235 230.748 28.5 231.258 27.57C231.798 26.64 232.068 25.62 232.068 24.51V18.21C232.068 17.16 231.648 16.29 230.808 15.6C229.998 14.88 228.918 14.52 227.568 14.52C226.308 14.52 225.183 14.865 224.193 15.555C223.233 16.215 222.528 17.1 222.078 18.21L217.263 15.87C217.743 14.58 218.493 13.47 219.513 12.54C220.563 11.58 221.793 10.83 223.203 10.29C224.613 9.75 226.143 9.48 227.792 9.48C229.803 9.48 231.573 9.855 233.103 10.605C234.633 11.325 235.818 12.345 236.658 13.665C237.528 14.955 237.963 16.47 237.963 18.21V34.5H232.383V30.315L233.643 30.225C233.013 31.275 232.263 32.16 231.393 32.88C230.523 33.57 229.533 34.11 228.423 34.5C227.313 34.86 226.083 35.04 224.733 35.04ZM255.201 35.04C252.771 35.04 250.581 34.485 248.631 33.375C246.711 32.235 245.196 30.705 244.086 28.785C242.976 26.835 242.421 24.645 242.421 22.215C242.421 19.785 242.976 17.61 244.086 15.69C245.196 13.77 246.711 12.255 248.631 11.145C250.581 10.035 252.771 9.48 255.201 9.48C256.941 9.48 258.561 9.795 260.061 10.425C261.561 11.025 262.851 11.865 263.931 12.945C265.041 13.995 265.836 15.255 266.316 16.725L261.141 18.975C260.691 17.745 259.926 16.755 258.846 16.005C257.796 15.255 256.581 14.88 255.201 14.88C253.911 14.88 252.756 15.195 251.736 15.825C250.746 16.455 249.966 17.325 249.396 18.435C248.826 19.545 248.541 20.82 248.541 22.26C248.541 23.7 248.826 24.975 249.396 26.085C249.966 27.195 250.746 28.065 251.736 28.695C252.756 29.325 253.911 29.64 255.201 29.64C256.611 29.64 257.841 29.265 258.891 28.515C259.941 27.765 260.691 26.76 261.141 25.5L266.316 27.84C265.836 29.22 265.056 30.465 263.976 31.575C262.896 32.655 261.606 33.51 260.106 34.14C258.606 34.74 256.971 35.04 255.201 35.04ZM270.789 34.5V0.434999H276.684V14.835L275.874 13.98C276.444 12.51 277.374 11.4 278.664 10.65C279.984 9.87 281.514 9.48 283.254 9.48C285.054 9.48 286.644 9.87 288.024 10.65C289.434 11.43 290.529 12.525 291.309 13.935C292.089 15.315 292.479 16.92 292.479 18.75V34.5H286.584V20.145C286.584 19.065 286.374 18.135 285.954 17.355C285.534 16.575 284.949 15.975 284.199 15.555C283.479 15.105 282.624 14.88 281.634 14.88C280.674 14.88 279.819 15.105 279.069 15.555C278.319 15.975 277.734 16.575 277.314 17.355C276.894 18.135 276.684 19.065 276.684 20.145V34.5H270.789ZM313.955 34.5V0.974997H320.075V34.5H313.955ZM326.028 34.5V10.02H331.563V15.69L330.933 14.745C331.383 12.975 332.283 11.655 333.633 10.785C334.983 9.915 336.573 9.48 338.403 9.48C340.413 9.48 342.183 10.005 343.713 11.055C345.243 12.105 346.233 13.485 346.683 15.195L345.018 15.33C345.768 13.38 346.893 11.925 348.393 10.965C349.893 9.975 351.618 9.48 353.568 9.48C355.308 9.48 356.853 9.87 358.203 10.65C359.583 11.43 360.663 12.525 361.443 13.935C362.223 15.315 362.613 16.92 362.613 18.75V34.5H356.718V20.145C356.718 19.065 356.523 18.135 356.133 17.355C355.743 16.575 355.203 15.975 354.513 15.555C353.823 15.105 352.983 14.88 351.993 14.88C351.063 14.88 350.238 15.105 349.518 15.555C348.798 15.975 348.243 16.575 347.853 17.355C347.463 18.135 347.268 19.065 347.268 20.145V34.5H341.373V20.145C341.373 19.065 341.178 18.135 340.788 17.355C340.398 16.575 339.843 15.975 339.123 15.555C338.433 15.105 337.608 14.88 336.648 14.88C335.718 14.88 334.893 15.105 334.173 15.555C333.453 15.975 332.898 16.575 332.508 17.355C332.118 18.135 331.923 19.065 331.923 20.145V34.5H326.028ZM367.6 34.5V10.02H373.135V15.69L372.505 14.745C372.955 12.975 373.855 11.655 375.205 10.785C376.555 9.915 378.145 9.48 379.975 9.48C381.985 9.48 383.755 10.005 385.285 11.055C386.815 12.105 387.805 13.485 388.255 15.195L386.59 15.33C387.34 13.38 388.465 11.925 389.965 10.965C391.465 9.975 393.19 9.48 395.14 9.48C396.88 9.48 398.425 9.87 399.775 10.65C401.155 11.43 402.235 12.525 403.015 13.935C403.795 15.315 404.185 16.92 404.185 18.75V34.5H398.29V20.145C398.29 19.065 398.095 18.135 397.705 17.355C397.315 16.575 396.775 15.975 396.085 15.555C395.395 15.105 394.555 14.88 393.565 14.88C392.635 14.88 391.81 15.105 391.09 15.555C390.37 15.975 389.815 16.575 389.425 17.355C389.035 18.135 388.84 19.065 388.84 20.145V34.5H382.945V20.145C382.945 19.065 382.75 18.135 382.36 17.355C381.97 16.575 381.415 15.975 380.695 15.555C380.005 15.105 379.18 14.88 378.22 14.88C377.29 14.88 376.465 15.105 375.745 15.555C375.025 15.975 374.47 16.575 374.08 17.355C373.69 18.135 373.495 19.065 373.495 20.145V34.5H367.6ZM409.173 34.5V10.02H415.068V34.5H409.173ZM409.173 7.275V0.974997H415.068V7.275H409.173ZM432.391 44.4C430.561 44.4 428.866 44.1 427.306 43.5C425.746 42.9 424.396 42.06 423.256 40.98C422.146 39.93 421.336 38.685 420.826 37.245L426.316 35.175C426.676 36.315 427.381 37.23 428.431 37.92C429.511 38.64 430.831 39 432.391 39C433.591 39 434.641 38.775 435.541 38.325C436.471 37.875 437.191 37.215 437.701 36.345C438.211 35.505 438.466 34.485 438.466 33.285V27.705L439.591 29.055C438.751 30.525 437.626 31.635 436.216 32.385C434.806 33.135 433.201 33.51 431.401 33.51C429.121 33.51 427.081 32.985 425.281 31.935C423.481 30.885 422.071 29.445 421.051 27.615C420.031 25.785 419.521 23.73 419.521 21.45C419.521 19.14 420.031 17.085 421.051 15.285C422.071 13.485 423.466 12.075 425.236 11.055C427.006 10.005 429.016 9.48 431.266 9.48C433.096 9.48 434.701 9.87 436.081 10.65C437.491 11.4 438.661 12.495 439.591 13.935L438.781 15.42V10.02H444.361V33.285C444.361 35.415 443.836 37.32 442.786 39C441.766 40.68 440.356 42 438.556 42.96C436.786 43.92 434.731 44.4 432.391 44.4ZM432.121 28.065C433.381 28.065 434.476 27.795 435.406 27.255C436.366 26.685 437.116 25.905 437.656 24.915C438.196 23.925 438.466 22.785 438.466 21.495C438.466 20.235 438.181 19.11 437.611 18.12C437.071 17.1 436.321 16.305 435.361 15.735C434.431 15.165 433.351 14.88 432.121 14.88C430.891 14.88 429.781 15.165 428.791 15.735C427.801 16.305 427.021 17.1 426.451 18.12C425.911 19.11 425.641 20.235 425.641 21.495C425.641 22.755 425.911 23.88 426.451 24.87C427.021 25.86 427.786 26.64 428.746 27.21C429.736 27.78 430.861 28.065 432.121 28.065ZM449.866 34.5V10.02H455.401V15.465L454.951 14.655C455.521 12.825 456.406 11.55 457.606 10.83C458.836 10.11 460.306 9.75 462.016 9.75H463.456V14.97H461.341C459.661 14.97 458.311 15.495 457.291 16.545C456.271 17.565 455.761 19.005 455.761 20.865V34.5H449.866ZM474.122 35.04C472.412 35.04 470.927 34.755 469.667 34.185C468.407 33.615 467.432 32.805 466.742 31.755C466.052 30.675 465.707 29.43 465.707 28.02C465.707 26.67 466.007 25.47 466.607 24.42C467.207 23.34 468.137 22.44 469.397 21.72C470.657 21 472.247 20.49 474.167 20.19L482.177 18.885V23.385L475.292 24.555C474.122 24.765 473.252 25.14 472.682 25.68C472.112 26.22 471.827 26.925 471.827 27.795C471.827 28.635 472.142 29.31 472.772 29.82C473.432 30.3 474.242 30.54 475.202 30.54C476.432 30.54 477.512 30.285 478.442 29.775C479.402 29.235 480.137 28.5 480.647 27.57C481.187 26.64 481.457 25.62 481.457 24.51V18.21C481.457 17.16 481.037 16.29 480.197 15.6C479.387 14.88 478.307 14.52 476.957 14.52C475.697 14.52 474.572 14.865 473.582 15.555C472.622 16.215 471.917 17.1 471.467 18.21L466.652 15.87C467.132 14.58 467.882 13.47 468.902 12.54C469.952 11.58 471.182 10.83 472.592 10.29C474.002 9.75 475.532 9.48 477.182 9.48C479.192 9.48 480.962 9.855 482.492 10.605C484.022 11.325 485.207 12.345 486.047 13.665C486.917 14.955 487.352 16.47 487.352 18.21V34.5H481.772V30.315L483.032 30.225C482.402 31.275 481.652 32.16 480.782 32.88C479.912 33.57 478.922 34.11 477.812 34.5C476.702 34.86 475.472 35.04 474.122 35.04ZM503.521 34.77C500.761 34.77 498.616 34.02 497.086 32.52C495.586 30.99 494.836 28.845 494.836 26.085V15.285H490.606V10.02H491.056C492.256 10.02 493.186 9.705 493.846 9.075C494.506 8.445 494.836 7.53 494.836 6.33V4.44H500.731V10.02H506.356V15.285H500.731V25.77C500.731 26.58 500.866 27.27 501.136 27.84C501.436 28.41 501.886 28.845 502.486 29.145C503.116 29.445 503.911 29.595 504.871 29.595C505.081 29.595 505.321 29.58 505.591 29.55C505.891 29.52 506.176 29.49 506.446 29.46V34.5C506.026 34.56 505.546 34.62 505.006 34.68C504.466 34.74 503.971 34.77 503.521 34.77ZM510.95 34.5V10.02H516.845V34.5H510.95ZM510.95 7.275V0.974997H516.845V7.275H510.95ZM534.258 35.04C531.858 35.04 529.668 34.485 527.688 33.375C525.738 32.265 524.178 30.75 523.008 28.83C521.868 26.91 521.298 24.72 521.298 22.26C521.298 19.8 521.868 17.61 523.008 15.69C524.178 13.77 525.738 12.255 527.688 11.145C529.638 10.035 531.828 9.48 534.258 9.48C536.658 9.48 538.833 10.035 540.783 11.145C542.733 12.255 544.278 13.77 545.418 15.69C546.588 17.58 547.173 19.77 547.173 22.26C547.173 24.72 546.588 26.91 545.418 28.83C544.248 30.75 542.688 32.265 540.738 33.375C538.788 34.485 536.628 35.04 534.258 35.04ZM534.258 29.64C535.578 29.64 536.733 29.325 537.723 28.695C538.743 28.065 539.538 27.195 540.108 26.085C540.708 24.945 541.008 23.67 541.008 22.26C541.008 20.82 540.708 19.56 540.108 18.48C539.538 17.37 538.743 16.5 537.723 15.87C536.733 15.21 535.578 14.88 534.258 14.88C532.908 14.88 531.723 15.21 530.703 15.87C529.683 16.5 528.873 17.37 528.273 18.48C527.703 19.56 527.418 20.82 527.418 22.26C527.418 23.67 527.703 24.945 528.273 26.085C528.873 27.195 529.683 28.065 530.703 28.695C531.723 29.325 532.908 29.64 534.258 29.64ZM551.643 34.5V10.02H557.178V14.835L556.728 13.98C557.298 12.51 558.228 11.4 559.518 10.65C560.838 9.87 562.368 9.48 564.108 9.48C565.908 9.48 567.498 9.87 568.878 10.65C570.288 11.43 571.383 12.525 572.163 13.935C572.943 15.315 573.333 16.92 573.333 18.75V34.5H567.438V20.145C567.438 19.065 567.228 18.135 566.808 17.355C566.388 16.575 565.803 15.975 565.053 15.555C564.333 15.105 563.478 14.88 562.488 14.88C561.528 14.88 560.673 15.105 559.923 15.555C559.173 15.975 558.588 16.575 558.168 17.355C557.748 18.135 557.538 19.065 557.538 20.145V34.5H551.643Z"/>
</mask>
<path d="M10.465 33.735L10.0727 34.6548L10.465 33.735ZM1.51 24.6L0.581454 24.9714L0.586144 24.9827L1.51 24.6ZM1.465 10.83L0.534701 10.4631L0.531999 10.4701L1.465 10.83ZM4.975 5.34L4.26106 4.63979L4.26093 4.63993L4.975 5.34ZM10.33 1.74L10.7108 2.66475L10.7223 2.65984L10.33 1.74ZM23.425 1.65L23.0311 2.56916L23.0363 2.57136L23.425 1.65ZM28.285 4.89L27.57 5.58916L27.5779 5.5971L28.285 4.89ZM31.12 9.255L31.5522 10.1568L32.3658 9.76679L32.0613 8.91754L31.12 9.255ZM25.675 11.865L24.7347 12.2054L25.1109 13.2443L26.1072 12.7668L25.675 11.865ZM22.48 7.635L21.8957 8.44654L22.48 7.635ZM11.41 7.5L10.8885 6.64669L10.8814 6.6511L11.41 7.5ZM7.675 11.595L6.7867 11.1355L6.78057 11.1478L7.675 11.595ZM7.72 23.88L6.82862 24.3332L6.83325 24.3424L6.83807 24.3514L7.72 23.88ZM11.545 27.975L12.0665 27.1217L11.545 27.975ZM21.85 28.47L22.2667 29.3791L22.2744 29.3755L22.2821 29.3718L21.85 28.47ZM25.315 25.59L26.1315 26.1675L26.1379 26.1582L25.315 25.59ZM26.62 18.57L27.2768 17.8159L25.62 16.3729V18.57H26.62ZM29.41 21V22H32.0807L30.0668 20.2459L29.41 21ZM16.99 21H15.99V22H16.99V21ZM16.99 15.825V14.825H15.99V15.825H16.99ZM32.74 15.825H33.74V14.825H32.74V15.825ZM27.88 31.035L28.5481 31.779L28.549 31.7783L27.88 31.035ZM22.885 34.05L23.2194 34.9924L23.2261 34.99L23.2328 34.9876L22.885 34.05ZM17.125 34.04C14.8486 34.04 12.7634 33.628 10.8573 32.8152L10.0727 34.6548C12.2466 35.582 14.6014 36.04 17.125 36.04V34.04ZM10.8573 32.8152C8.93601 31.9958 7.26075 30.8548 5.82394 29.3898L4.39606 30.7902C6.01925 32.4452 7.91399 33.7342 10.0727 34.6548L10.8573 32.8152ZM5.82394 29.3898C4.38719 27.9249 3.25686 26.2038 2.43386 24.2173L0.586144 24.9827C1.50314 27.1962 2.77281 29.1351 4.39606 30.7902L5.82394 29.3898ZM2.43848 24.2286C1.65028 22.2581 1.25 20.0906 1.25 17.715H-0.75C-0.75 20.3194 -0.310277 22.7419 0.581523 24.9714L2.43848 24.2286ZM1.25 17.715C1.25 15.335 1.63676 13.1635 2.398 11.1899L0.531999 10.4701C-0.326756 12.6965 -0.75 15.115 -0.75 17.715H1.25ZM2.39527 11.1969C3.18962 9.18263 4.28899 7.46816 5.68907 6.04007L4.26093 4.63993C2.66101 6.27184 1.42038 8.21737 0.534727 10.4631L2.39527 11.1969ZM5.68894 6.04021C7.12327 4.57775 8.79461 3.45367 10.7108 2.66468L9.94925 0.81532C7.78539 1.70632 5.88673 2.98224 4.26106 4.63979L5.68894 6.04021ZM10.7223 2.65984C12.6284 1.84695 14.7136 1.435 16.99 1.435V-0.565001C14.4664 -0.565001 12.1116 -0.106956 9.93771 0.820155L10.7223 2.65984ZM16.99 1.435C19.277 1.435 21.2846 1.82065 23.0311 2.56914L23.8189 0.730854C21.7854 -0.140655 19.503 -0.565001 16.99 -0.565001V1.435ZM23.0363 2.57136C24.8466 3.33508 26.3521 4.34356 27.57 5.58912L29 4.19088C27.5779 2.73644 25.8434 1.58492 23.8137 0.728635L23.0363 2.57136ZM27.5779 5.5971C28.8046 6.82379 29.6635 8.15551 30.1787 9.59246L32.0613 8.91754C31.4365 7.17449 30.4054 5.59621 28.9921 4.18289L27.5779 5.5971ZM30.6878 8.35324L25.2428 10.9632L26.1072 12.7668L31.5522 10.1568L30.6878 8.35324ZM26.6153 11.5246C25.9168 9.59552 24.7279 8.02124 23.0643 6.82347L21.8957 8.44654C23.2321 9.40876 24.1732 10.6545 24.7347 12.2054L26.6153 11.5246ZM23.0643 6.82347C21.3667 5.6012 19.3232 5.015 16.99 5.015V7.015C18.9768 7.015 20.5933 7.50879 21.8957 8.44654L23.0643 6.82347ZM16.99 5.015C14.7261 5.015 12.6819 5.55079 10.8886 6.64672L11.9314 8.35328C13.3781 7.46921 15.0539 7.015 16.99 7.015V5.015ZM10.8814 6.6511C9.13154 7.74066 7.76548 9.24342 6.78678 11.1356L8.56322 12.0544C9.38452 10.4666 10.5085 9.23934 11.9386 8.3489L10.8814 6.6511ZM6.78057 11.1478C5.82844 13.052 5.37 15.2509 5.37 17.715H7.37C7.37 15.4991 7.78156 13.618 8.56943 12.0422L6.78057 11.1478ZM5.37 17.715C5.37 20.1845 5.84552 22.3998 6.82862 24.3332L8.61139 23.4268C7.79448 21.8202 7.37 19.9255 7.37 17.715H5.37ZM6.83807 24.3514C7.84862 26.2421 9.24541 27.7416 11.0236 28.8283L12.0665 27.1217C10.6046 26.2284 9.45138 24.9979 8.60193 23.4086L6.83807 24.3514ZM11.0236 28.8283C12.8169 29.9242 14.8611 30.46 17.125 30.46V28.46C15.1889 28.46 13.5131 28.0058 12.0665 27.1217L11.0236 28.8283ZM17.125 30.46C18.9672 30.46 20.6858 30.1036 22.2667 29.3791L21.4333 27.5609C20.1342 28.1564 18.7028 28.46 17.125 28.46V30.46ZM22.2821 29.3718C23.8662 28.6128 25.1571 27.5449 26.1314 26.1675L24.4986 25.0125C23.7329 26.0951 22.7138 26.9472 21.4179 27.5682L22.2821 29.3718ZM26.1379 26.1582C27.1365 24.7119 27.62 23.0233 27.62 21.135H25.62C25.62 22.6667 25.2335 23.9481 24.4921 25.0218L26.1379 26.1582ZM27.62 21.135V18.57H25.62V21.135H27.62ZM25.9632 19.3241L28.7532 21.7541L30.0668 20.2459L27.2768 17.8159L25.9632 19.3241ZM29.41 20H16.99V22H29.41V20ZM17.99 21V15.825H15.99V21H17.99ZM16.99 16.825H32.74V14.825H16.99V16.825ZM31.74 15.825V19.2H33.74V15.825H31.74ZM31.74 19.2C31.74 21.6678 31.3241 23.8065 30.5195 25.6377L32.3505 26.4423C33.2859 24.3134 33.74 21.8922 33.74 19.2H31.74ZM30.5195 25.6377C29.7024 27.4973 28.5982 29.0433 27.211 30.2917L28.549 31.7783C30.1618 30.3267 31.4276 28.5427 32.3505 26.4423L30.5195 25.6377ZM27.2119 30.291C25.8359 31.5265 24.2797 32.466 22.5372 33.1124L23.2328 34.9876C25.2103 34.254 26.9841 33.1835 28.5481 31.779L27.2119 30.291ZM22.5506 33.1076C20.7983 33.7293 18.9914 34.04 17.125 34.04V36.04C19.2186 36.04 21.2517 35.6907 23.2194 34.9924L22.5506 33.1076ZM37.0878 34.5H36.0878V35.5H37.0878V34.5ZM37.0878 0.434999V-0.565001H36.0878V0.434999H37.0878ZM42.9828 0.434999H43.9828V-0.565001H42.9828V0.434999ZM42.9828 34.5V35.5H43.9828V34.5H42.9828ZM38.0878 34.5V0.434999H36.0878V34.5H38.0878ZM37.0878 1.435H42.9828V-0.565001H37.0878V1.435ZM41.9828 0.434999V34.5H43.9828V0.434999H41.9828ZM42.9828 33.5H37.0878V35.5H42.9828V33.5ZM53.8257 33.375L53.331 34.2441L53.3367 34.2473L53.8257 33.375ZM49.1457 28.83L48.2858 29.3406L48.2917 29.3504L49.1457 28.83ZM49.1457 15.69L48.2917 15.1696L48.2858 15.1795L49.1457 15.69ZM53.8257 11.145L53.331 10.2759L53.8257 11.145ZM66.9207 11.145L67.4154 10.2759L66.9207 11.145ZM71.5557 15.69L70.6958 16.2005L70.7005 16.2085L70.7054 16.2164L71.5557 15.69ZM71.5557 28.83L72.4096 29.3504V29.3504L71.5557 28.83ZM66.8757 33.375L67.3704 34.2441L66.8757 33.375ZM63.8607 28.695L63.3351 27.8441L63.3238 27.8513L63.8607 28.695ZM66.2457 26.085L65.3607 25.6192L65.3561 25.6282L66.2457 26.085ZM66.2457 18.48L65.3561 18.9368L65.3636 18.9513L65.3715 18.9656L66.2457 18.48ZM63.8607 15.87L63.306 16.702L63.3204 16.7117L63.3352 16.7208L63.8607 15.87ZM56.8407 15.87L57.3662 16.7208L57.3751 16.7153L57.3839 16.7096L56.8407 15.87ZM54.4107 18.48L53.5309 18.0045L53.5263 18.0132L54.4107 18.48ZM54.4107 26.085L53.5162 26.5322L53.5234 26.5465L53.531 26.5605L54.4107 26.085ZM56.8407 28.695L57.3662 27.8442L56.8407 28.695ZM60.3957 34.04C58.1567 34.04 56.1367 33.5241 54.3147 32.5027L53.3367 34.2473C55.4747 35.4459 57.8346 36.04 60.3957 36.04V34.04ZM54.3204 32.5059C52.5181 31.48 51.0816 30.0851 49.9996 28.3096L48.2917 29.3504C49.5498 31.4149 51.2333 33.05 53.331 34.2441L54.3204 32.5059ZM50.0055 28.3195C48.9664 26.5694 48.4357 24.5591 48.4357 22.26H46.4357C46.4357 24.8809 47.0449 27.2506 48.2858 29.3405L50.0055 28.3195ZM48.4357 22.26C48.4357 19.9609 48.9664 17.9506 50.0055 16.2005L48.2858 15.1795C47.0449 17.2694 46.4357 19.6391 46.4357 22.26H48.4357ZM49.9996 16.2104C51.0816 14.4349 52.5181 13.04 54.3204 12.0141L53.331 10.2759C51.2333 11.47 49.5498 13.1051 48.2917 15.1696L49.9996 16.2104ZM54.3204 12.0141C56.1072 10.9969 58.1243 10.48 60.3957 10.48V8.48C57.807 8.48 55.4441 9.07307 53.331 10.2759L54.3204 12.0141ZM60.3957 10.48C62.6347 10.48 64.6372 10.9958 66.426 12.0141L67.4154 10.2759C65.3041 9.07415 62.9566 8.48 60.3957 8.48V10.48ZM66.426 12.0141C68.226 13.0387 69.6448 14.4305 70.6958 16.2005L72.4155 15.1795C71.1865 13.1095 69.5154 11.4713 67.4154 10.2759L66.426 12.0141ZM70.7054 16.2164C71.7661 17.9298 72.3107 19.933 72.3107 22.26H74.3107C74.3107 19.607 73.6852 17.2302 72.4059 15.1636L70.7054 16.2164ZM72.3107 22.26C72.3107 24.5543 71.7673 26.561 70.7017 28.3096L72.4096 29.3504C73.684 27.259 74.3107 24.8857 74.3107 22.26H72.3107ZM70.7017 28.3096C69.6198 30.0851 68.1833 31.48 66.381 32.5059L67.3704 34.2441C69.4681 33.05 71.1516 31.4149 72.4096 29.3504L70.7017 28.3096ZM66.381 32.5059C64.5903 33.5252 62.6023 34.04 60.3957 34.04V36.04C62.929 36.04 65.2611 35.4447 67.3704 34.2441L66.381 32.5059ZM60.3957 30.64C61.8814 30.64 63.2276 30.2831 64.3975 29.5387L63.3238 27.8513C62.5137 28.3669 61.5499 28.64 60.3957 28.64V30.64ZM64.3862 29.5458C65.5676 28.8161 66.4856 27.8069 67.1352 26.5418L65.3561 25.6282C64.8658 26.5831 64.1937 27.3139 63.3352 27.8442L64.3862 29.5458ZM67.1306 26.5507C67.8131 25.2539 68.1457 23.8166 68.1457 22.26H66.1457C66.1457 23.5234 65.8782 24.6361 65.3607 25.6193L67.1306 26.5507ZM68.1457 22.26C68.1457 20.6784 67.8151 19.2458 67.1198 17.9944L65.3715 18.9656C65.8762 19.8741 66.1457 20.9616 66.1457 22.26H68.1457ZM67.1352 18.0232C66.4856 16.7581 65.5676 15.7489 64.3862 15.0192L63.3352 16.7208C64.1937 17.2511 64.8658 17.9819 65.3561 18.9368L67.1352 18.0232ZM64.4154 15.0379C63.2434 14.2566 61.8906 13.88 60.3957 13.88V15.88C61.5407 15.88 62.498 16.1634 63.306 16.702L64.4154 15.0379ZM60.3957 13.88C58.8751 13.88 57.4969 14.2543 56.2974 15.0304L57.3839 16.7096C58.2244 16.1657 59.2162 15.88 60.3957 15.88V13.88ZM56.3152 15.0192C55.1384 15.746 54.2096 16.7489 53.531 18.0045L55.2904 18.9555C55.8117 17.9911 56.5029 17.254 57.3662 16.7208L56.3152 15.0192ZM53.5263 18.0132C52.8678 19.2608 52.5557 20.6864 52.5557 22.26H54.5557C54.5557 20.9536 54.8135 19.8592 55.295 18.9468L53.5263 18.0132ZM52.5557 22.26C52.5557 23.8085 52.8697 25.2391 53.5162 26.5322L55.3051 25.6378C54.8116 24.6509 54.5557 23.5315 54.5557 22.26H52.5557ZM53.531 26.5605C54.2096 27.8161 55.1384 28.819 56.3152 29.5458L57.3662 27.8442C56.5029 27.311 55.8117 26.5739 55.2904 25.6095L53.531 26.5605ZM56.3152 29.5458C57.5124 30.2852 58.8841 30.64 60.3957 30.64V28.64C59.2073 28.64 58.209 28.3648 57.3662 27.8442L56.3152 29.5458ZM86.2411 34.005L85.8013 34.9031L85.8122 34.9084L85.8232 34.9135L86.2411 34.005ZM82.7311 30.945L81.8367 30.4978L81.5788 31.0137L81.8962 31.4953L82.7311 30.945ZM83.3161 29.775H84.3161L82.4217 29.3278L83.3161 29.775ZM83.3161 34.5V35.5H84.3161V34.5H83.3161ZM77.7811 34.5H76.7811V35.5H77.7811V34.5ZM77.7811 0.434999V-0.565001H76.7811V0.434999H77.7811ZM83.6761 0.434999H84.6761V-0.565001H83.6761V0.434999ZM83.6761 14.88L82.8726 15.4752L84.6761 17.91V14.88H83.6761ZM82.7761 13.665L81.9325 13.1281L81.5635 13.708L81.9726 14.2602L82.7761 13.665ZM86.1961 10.605L86.6433 11.4994L86.6507 11.4957L86.6581 11.4919L86.1961 10.605ZM97.4461 11.19L96.9236 12.0426L97.4461 11.19ZM101.856 15.78L100.984 16.2703L100.99 16.2805L101.856 15.78ZM101.901 28.74L101.026 28.2555L101.901 28.74ZM97.4911 33.375L98.0036 34.2338L98.0137 34.2276L97.4911 33.375ZM94.0711 28.695L93.5566 27.8375L94.0711 28.695ZM96.5011 26.085L95.6214 25.6095L95.6164 25.6188L95.6116 25.6282L96.5011 26.085ZM96.5011 18.48L95.6116 18.9368L95.619 18.9513L95.627 18.9656L96.5011 18.48ZM94.0711 15.87L93.539 16.7166L93.5477 16.7222L93.5566 16.7275L94.0711 15.87ZM86.9611 15.825L86.4466 14.9674L86.4356 14.9742L86.9611 15.825ZM84.5311 18.48L83.6462 18.0142L83.6416 18.0232L84.5311 18.48ZM84.5311 26.085L83.6416 26.5418L83.6464 26.5512L83.6514 26.5605L84.5311 26.085ZM86.9611 28.695L86.4356 29.5459L86.4466 29.5525L86.9611 28.695ZM91.1461 34.04C89.5098 34.04 88.0187 33.722 86.659 33.0965L85.8232 34.9135C87.4636 35.668 89.2424 36.04 91.1461 36.04V34.04ZM86.681 33.1069C85.3654 32.4626 84.3342 31.5601 83.5661 30.3947L81.8962 31.4953C82.868 32.9699 84.1768 34.1074 85.8013 34.9031L86.681 33.1069ZM83.6256 31.3922L84.2106 30.2222L82.4217 29.3278L81.8367 30.4978L83.6256 31.3922ZM82.3161 29.775V34.5H84.3161V29.775H82.3161ZM83.3161 33.5H77.7811V35.5H83.3161V33.5ZM78.7811 34.5V0.434999H76.7811V34.5H78.7811ZM77.7811 1.435H83.6761V-0.565001H77.7811V1.435ZM82.6761 0.434999V14.88H84.6761V0.434999H82.6761ZM84.4797 14.2848L83.5797 13.0698L81.9726 14.2602L82.8726 15.4752L84.4797 14.2848ZM83.6198 14.2019C84.3596 13.0394 85.3605 12.1408 86.6433 11.4994L85.7489 9.71057C84.1517 10.5092 82.8727 11.6506 81.9325 13.1281L83.6198 14.2019ZM86.6581 11.4919C87.9337 10.8275 89.4355 10.48 91.1911 10.48V8.48C89.1667 8.48 87.3386 8.88247 85.7342 9.71809L86.6581 11.4919ZM91.1911 10.48C93.328 10.48 95.2302 11.0047 96.9236 12.0426L97.9687 10.3374C95.942 9.09526 93.6742 8.48 91.1911 8.48V10.48ZM96.9236 12.0426C98.6368 13.0926 99.9873 14.4973 100.985 16.2703L102.728 15.2897C101.565 13.2227 99.9755 11.5674 97.9687 10.3374L96.9236 12.0426ZM100.99 16.2805C102.005 18.036 102.521 20.0208 102.521 22.26H104.521C104.521 19.6992 103.927 17.364 102.722 15.2795L100.99 16.2805ZM102.521 22.26C102.521 24.4716 102.019 26.4632 101.026 28.2555L102.776 29.2245C103.943 27.1168 104.521 24.7884 104.521 22.26H102.521ZM101.026 28.2555C100.028 30.0579 98.678 31.4747 96.9686 32.5224L98.0137 34.2276C100.024 32.9953 101.614 31.3221 102.776 29.2245L101.026 28.2555ZM96.9787 32.5163C95.288 33.5252 93.3532 34.04 91.1461 34.04V36.04C93.679 36.04 95.9743 35.4448 98.0036 34.2337L96.9787 32.5163ZM90.4711 30.64C91.9832 30.64 93.3646 30.2851 94.5856 29.5525L93.5566 27.8375C92.6777 28.3649 91.659 28.64 90.4711 28.64V30.64ZM94.5856 29.5525C95.7988 28.8246 96.7372 27.8144 97.3907 26.5418L95.6116 25.6282C95.1251 26.5756 94.4435 27.3054 93.5566 27.8375L94.5856 29.5525ZM97.3808 26.5605C98.0703 25.2849 98.4011 23.8423 98.4011 22.26H96.4011C96.4011 23.5577 96.1319 24.6651 95.6214 25.6095L97.3808 26.5605ZM98.4011 22.26C98.4011 20.6784 98.0706 19.2458 97.3753 17.9944L95.627 18.9656C96.1317 19.8741 96.4011 20.9616 96.4011 22.26H98.4011ZM97.3907 18.0232C96.7372 16.7506 95.7988 15.7404 94.5856 15.0125L93.5566 16.7275C94.4435 17.2596 95.1251 17.9894 95.6116 18.9368L97.3907 18.0232ZM94.6033 15.0234C93.3798 14.2543 91.9921 13.88 90.4711 13.88V15.88C91.6502 15.88 92.6624 16.1657 93.539 16.7166L94.6033 15.0234ZM90.4711 13.88C89.01 13.88 87.6605 14.2392 86.4466 14.9675L87.4756 16.6825C88.3618 16.1508 89.3523 15.88 90.4711 15.88V13.88ZM86.4356 14.9742C85.2522 15.7051 84.323 16.7283 83.6462 18.0143L85.4161 18.9457C85.9392 17.9517 86.63 17.2049 87.4866 16.6758L86.4356 14.9742ZM83.6416 18.0232C82.99 19.292 82.6761 20.712 82.6761 22.26H84.6761C84.6761 20.988 84.9322 19.888 85.4207 18.9368L83.6416 18.0232ZM82.6761 22.26C82.6761 23.8343 82.9885 25.2701 83.6416 26.5418L85.4207 25.6282C84.9337 24.6799 84.6761 23.5657 84.6761 22.26H82.6761ZM83.6514 26.5605C84.3301 27.8161 85.2589 28.819 86.4356 29.5458L87.4866 27.8442C86.6234 27.311 85.9322 26.5739 85.4108 25.6095L83.6514 26.5605ZM86.4466 29.5525C87.6605 30.2808 89.01 30.64 90.4711 30.64V28.64C89.3523 28.64 88.3618 28.3692 87.4756 27.8375L86.4466 29.5525ZM110.986 34.185L110.573 35.0961L110.986 34.185ZM108.061 31.755L107.218 32.2934L107.225 32.3042L108.061 31.755ZM107.926 24.42L108.794 24.9162L108.8 24.9056L107.926 24.42ZM110.716 21.72L111.212 22.5882L110.716 21.72ZM115.486 20.19L115.64 21.178L115.646 21.177L115.486 20.19ZM123.496 18.885H124.496V17.7089L123.335 17.898L123.496 18.885ZM123.496 23.385L123.663 24.3709L124.496 24.2294V23.385H123.496ZM116.611 24.555L116.443 23.5691L116.434 23.5707L116.611 24.555ZM114.001 25.68L113.313 24.954H113.313L114.001 25.68ZM114.091 29.82L113.461 30.5972L113.481 30.6135L113.502 30.6287L114.091 29.82ZM119.761 29.775L120.241 30.6519L120.251 30.6466L119.761 29.775ZM121.966 27.57L121.101 27.0679L121.095 27.0784L121.089 27.0892L121.966 27.57ZM121.516 15.6L120.851 16.3474L120.866 16.3604L120.881 16.3727L121.516 15.6ZM114.901 15.555L115.467 16.3791L115.472 16.3754L114.901 15.555ZM112.786 18.21L112.348 19.1094L113.31 19.5769L113.712 18.5857L112.786 18.21ZM107.971 15.87L107.033 15.5213L106.717 16.3724L107.533 16.7694L107.971 15.87ZM110.221 12.54L110.894 13.279L110.895 13.278L110.221 12.54ZM113.911 10.29L113.553 9.35614L113.911 10.29ZM123.811 10.605L123.37 11.5029L123.378 11.5064L123.385 11.5098L123.811 10.605ZM127.366 13.665L126.522 14.2019L126.529 14.2131L126.536 14.2241L127.366 13.665ZM128.671 34.5V35.5H129.671V34.5H128.671ZM123.091 34.5H122.091V35.5H123.091V34.5ZM123.091 30.315L123.019 29.3175L122.091 29.3839V30.315H123.091ZM124.351 30.225L125.208 30.7395L126.197 29.0905L124.279 29.2275L124.351 30.225ZM122.101 32.88L122.722 33.6635L122.73 33.657L122.738 33.6504L122.101 32.88ZM119.131 34.5L119.439 35.4512L119.451 35.4475L119.462 35.4435L119.131 34.5ZM115.441 34.04C113.84 34.04 112.501 33.7732 111.398 33.2739L110.573 35.0961C111.99 35.7368 113.621 36.04 115.441 36.04V34.04ZM111.398 33.2739C110.292 32.7738 109.472 32.0818 108.896 31.2058L107.225 32.3042C108.029 33.5282 109.159 34.4562 110.573 35.0961L111.398 33.2739ZM108.903 31.2166C108.326 30.3133 108.026 29.259 108.026 28.02H106.026C106.026 29.601 106.415 31.0367 107.218 32.2934L108.903 31.2166ZM108.026 28.02C108.026 26.8233 108.29 25.798 108.794 24.9161L107.057 23.9239C106.361 25.142 106.026 26.5167 106.026 28.02H108.026ZM108.8 24.9056C109.297 24.0113 110.082 23.2336 111.212 22.5882L110.219 20.8518C108.829 21.6464 107.755 22.6687 107.051 23.9344L108.8 24.9056ZM111.212 22.5882C112.337 21.9453 113.802 21.4652 115.64 21.178L115.331 19.202C113.329 19.5148 111.614 20.0547 110.219 20.8518L111.212 22.5882ZM115.646 21.177L123.656 19.872L123.335 17.898L115.325 19.203L115.646 21.177ZM122.496 18.885V23.385H124.496V18.885H122.496ZM123.328 22.3991L116.443 23.5691L116.778 25.5409L123.663 24.3709L123.328 22.3991ZM116.434 23.5707C115.164 23.7986 114.08 24.2276 113.313 24.954L114.688 26.406C115.061 26.0524 115.717 25.7313 116.787 25.5393L116.434 23.5707ZM113.313 24.954C112.521 25.7043 112.146 26.6832 112.146 27.795H114.146C114.146 27.1668 114.34 26.7357 114.688 26.406L113.313 24.954ZM112.146 27.795C112.146 28.9241 112.587 29.8895 113.461 30.5972L114.72 29.0428C114.334 28.7305 114.146 28.3459 114.146 27.795H112.146ZM113.502 30.6287C114.362 31.2539 115.388 31.54 116.521 31.54V29.54C115.733 29.54 115.139 29.3461 114.679 29.0113L113.502 30.6287ZM116.521 31.54C117.892 31.54 119.142 31.2547 120.241 30.6518L119.28 28.8982C118.519 29.3153 117.609 29.54 116.521 29.54V31.54ZM120.251 30.6466C121.367 30.0187 122.239 29.1511 122.842 28.0508L121.089 27.0892C120.672 27.8489 120.074 28.4513 119.27 28.9034L120.251 30.6466ZM122.83 28.0721C123.462 26.9846 123.776 25.7904 123.776 24.51H121.776C121.776 25.4496 121.549 26.2954 121.101 27.0679L122.83 28.0721ZM123.776 24.51V18.21H121.776V24.51H123.776ZM123.776 18.21C123.776 16.8488 123.212 15.6995 122.15 14.8273L120.881 16.3727C121.499 16.8805 121.776 17.4712 121.776 18.21H123.776ZM122.18 14.8526C121.145 13.9326 119.808 13.52 118.276 13.52V15.52C119.443 15.52 120.266 15.8274 120.851 16.3474L122.18 14.8526ZM118.276 13.52C116.821 13.52 115.494 13.9223 114.329 14.7346L115.472 16.3754C116.287 15.8077 117.21 15.52 118.276 15.52V13.52ZM114.334 14.731C113.208 15.5052 112.38 16.5482 111.859 17.8343L113.712 18.5857C114.091 17.6518 114.673 16.9248 115.467 16.379L114.334 14.731ZM113.223 17.3106L108.408 14.9706L107.533 16.7694L112.348 19.1094L113.223 17.3106ZM108.908 16.2187C109.332 15.0784 109.992 14.102 110.894 13.279L109.547 11.801C108.409 12.838 107.569 14.0816 107.033 15.5213L108.908 16.2187ZM110.895 13.278C111.847 12.4077 112.968 11.7218 114.268 11.2239L113.553 9.35614C112.033 9.93819 110.694 10.7523 109.546 11.802L110.895 13.278ZM114.268 11.2239C115.554 10.7315 116.961 10.48 118.501 10.48V8.48C116.74 8.48 115.087 8.76853 113.553 9.35614L114.268 11.2239ZM118.501 10.48C120.385 10.48 122 10.8311 123.37 11.5029L124.251 9.70708C122.561 8.87888 120.636 8.48 118.501 8.48V10.48ZM123.385 11.5098C124.758 12.156 125.792 13.0545 126.522 14.2019L128.209 13.1281C127.259 11.6355 125.923 10.494 124.236 9.70018L123.385 11.5098ZM126.536 14.2241C127.282 15.3298 127.671 16.6448 127.671 18.21H129.671C129.671 16.2952 129.189 14.5802 128.195 13.1059L126.536 14.2241ZM127.671 18.21V34.5H129.671V18.21H127.671ZM128.671 33.5H123.091V35.5H128.671V33.5ZM124.091 34.5V30.315H122.091V34.5H124.091ZM123.162 31.3125L124.422 31.2225L124.279 29.2275L123.019 29.3175L123.162 31.3125ZM123.493 29.7105C122.916 30.6716 122.239 31.4677 121.463 32.1096L122.738 33.6504C123.702 32.8523 124.525 31.8784 125.208 30.7395L123.493 29.7105ZM121.479 32.0965C120.701 32.7134 119.81 33.2012 118.799 33.5565L119.462 35.4435C120.671 35.0188 121.76 34.4266 122.722 33.6635L121.479 32.0965ZM118.822 33.5488C117.826 33.8718 116.702 34.04 115.441 34.04V36.04C116.879 36.04 118.215 35.8482 119.439 35.4512L118.822 33.5488ZM134.119 34.5H133.119V35.5H134.119V34.5ZM134.119 0.434999V-0.565001H133.119V0.434999H134.119ZM140.014 0.434999H141.014V-0.565001H140.014V0.434999ZM140.014 34.5V35.5H141.014V34.5H140.014ZM135.119 34.5V0.434999H133.119V34.5H135.119ZM134.119 1.435H140.014V-0.565001H134.119V1.435ZM139.014 0.434999V34.5H141.014V0.434999H139.014ZM140.014 33.5H134.119V35.5H140.014V33.5ZM161.948 34.5H160.948V35.5H161.948V34.5ZM161.948 0.974998V-0.0250025H160.948V0.974998H161.948ZM180.443 2.235L180.008 3.13555L180.018 3.14003L180.027 3.14431L180.443 2.235ZM184.583 5.835L183.734 6.36358L183.739 6.37082L184.583 5.835ZM184.403 17.445L183.578 16.8797L183.571 16.8903L184.403 17.445ZM179.993 21.045L179.606 20.1228L178.564 20.56L179.125 21.5415L179.993 21.045ZM187.688 34.5V35.5H189.412L188.556 34.0035L187.688 34.5ZM180.758 34.5L179.885 34.9884L180.172 35.5H180.758V34.5ZM172.523 19.785L173.032 18.9241L169.84 17.0378L171.65 20.2734L172.523 19.785ZM176.483 22.125V23.125H180.141L176.992 21.2641L176.483 22.125ZM168.068 22.125V21.125H167.068V22.125H168.068ZM168.068 34.5V35.5H169.068V34.5H168.068ZM168.068 16.725H167.068V17.725H168.068V16.725ZM177.383 16.095L177.843 16.9828L177.856 16.9761L177.869 16.9692L177.383 16.095ZM179.273 14.25L178.407 13.7503L179.273 14.25ZM179.273 8.85L178.407 9.34972L178.411 9.35714L178.416 9.36449L179.273 8.85ZM177.383 7.05L176.897 7.92416L176.91 7.93114L176.923 7.93775L177.383 7.05ZM168.068 6.375V5.375H167.068V6.375H168.068ZM162.948 34.5V0.974998H160.948V34.5H162.948ZM161.948 1.975H174.413V-0.0250025H161.948V1.975ZM174.413 1.975C176.569 1.975 178.426 2.37177 180.008 3.13555L180.878 1.33445C178.98 0.418225 176.817 -0.0250025 174.413 -0.0250025V1.975ZM180.027 3.14431C181.626 3.87601 182.852 4.94698 183.734 6.36356L185.432 5.30644C184.334 3.54301 182.8 2.21399 180.859 1.32569L180.027 3.14431ZM183.739 6.37082C184.607 7.73881 185.068 9.44822 185.068 11.55H187.068C187.068 9.15178 186.539 7.05118 185.427 5.29917L183.739 6.37082ZM185.068 11.55C185.068 13.6947 184.555 15.4539 183.578 16.8798L185.228 18.0102C186.471 16.1961 187.068 14.0253 187.068 11.55H185.068ZM183.571 16.8903C182.604 18.3406 181.292 19.416 179.606 20.1228L180.38 21.9672C182.414 21.114 184.042 19.7894 185.235 17.9997L183.571 16.8903ZM179.125 21.5415L186.82 34.9965L188.556 34.0035L180.861 20.5485L179.125 21.5415ZM187.688 33.5H180.758V35.5H187.688V33.5ZM181.631 34.0116L173.396 19.2966L171.65 20.2734L179.885 34.9884L181.631 34.0116ZM172.014 20.6459L175.974 22.9859L176.992 21.2641L173.032 18.9241L172.014 20.6459ZM176.483 21.125H168.068V23.125H176.483V21.125ZM167.068 22.125V34.5H169.068V22.125H167.068ZM168.068 33.5H161.948V35.5H168.068V33.5ZM168.068 17.725H174.503V15.725H168.068V17.725ZM174.503 17.725C175.739 17.725 176.863 17.4908 177.843 16.9828L176.923 15.2072C176.283 15.5392 175.487 15.725 174.503 15.725V17.725ZM177.869 16.9692C178.832 16.4338 179.596 15.6914 180.139 14.7497L178.407 13.7503C178.05 14.3686 177.554 14.8562 176.897 15.2208L177.869 16.9692ZM180.139 14.7497C180.688 13.7985 180.948 12.7217 180.948 11.55H178.948C178.948 12.4183 178.758 13.1415 178.407 13.7503L180.139 14.7497ZM180.948 11.55C180.948 10.3552 180.691 9.26949 180.131 8.3355L178.416 9.36449C178.755 9.93051 178.948 10.6447 178.948 11.55H180.948ZM180.139 8.35028C179.592 7.40252 178.821 6.66894 177.843 6.16224L176.923 7.93775C177.566 8.27106 178.054 8.73748 178.407 9.34972L180.139 8.35028ZM177.869 6.17584C176.883 5.62841 175.749 5.375 174.503 5.375V7.375C175.477 7.375 176.263 7.57159 176.897 7.92416L177.869 6.17584ZM174.503 5.375H168.068V7.375H174.503V5.375ZM167.068 6.375V16.725H169.068V6.375H167.068ZM194.837 33.33L194.32 34.1863L194.837 33.33ZM190.427 28.695L191.307 28.2209L190.427 28.695ZM190.427 15.69L189.555 15.1997L189.553 15.2044L190.427 15.69ZM194.792 11.145L194.279 10.2863L194.273 10.29L194.792 11.145ZM206.042 10.425L205.641 11.3412L205.648 11.3441L206.042 10.425ZM209.777 13.035L209.04 13.7116L209.777 13.035ZM212.117 16.86L211.18 17.2111L211.183 17.2176L212.117 16.86ZM212.837 22.755L211.845 22.6228L211.841 22.6556L211.839 22.6885L212.837 22.755ZM212.612 23.925V24.925H213.312L213.551 24.2667L212.612 23.925ZM193.712 23.925H192.712V24.925H193.712V23.925ZM193.712 19.425V18.425H192.712V19.425H193.712ZM209.282 19.425L209.886 20.2219L212.256 18.425H209.282V19.425ZM206.492 21.54L205.51 21.348L205.007 23.9203L207.096 22.3369L206.492 21.54ZM206.267 17.85L205.326 18.1896L205.33 18.2011L205.335 18.2124L206.267 17.85ZM204.287 15.285L203.713 16.1042L203.719 16.1086L203.726 16.1129L204.287 15.285ZM197.717 15.285L198.247 16.133L198.256 16.1271L198.265 16.121L197.717 15.285ZM195.512 17.985L194.591 17.5938L194.587 17.6054L195.512 17.985ZM194.972 22.26L195.968 22.3397L195.975 22.2643L195.969 22.1888L194.972 22.26ZM195.557 26.265L194.64 26.6646L194.646 26.6789L194.653 26.6931L195.557 26.265ZM197.897 28.92L197.371 29.7709L197.382 29.7775L197.897 28.92ZM204.917 29.01L204.406 28.1501L204.394 28.1574L204.917 29.01ZM207.167 26.715L207.607 25.8172L206.758 25.4009L206.295 26.2247L207.167 26.715ZM211.937 29.055L212.862 29.4346L213.217 28.5692L212.377 28.1572L211.937 29.055ZM209.687 32.16L210.348 32.9098V32.9098L209.687 32.16ZM206.042 34.275L205.702 33.3346L205.695 33.337L206.042 34.275ZM201.452 34.04C199.087 34.04 197.066 33.507 195.353 32.4737L194.32 34.1863C196.387 35.433 198.776 36.04 201.452 36.04V34.04ZM195.353 32.4737C193.617 31.4265 192.273 30.0138 191.307 28.2209L189.546 29.1691C190.681 31.2762 192.276 32.9535 194.32 34.1863L195.353 32.4737ZM191.307 28.2209C190.341 26.4268 189.852 24.4314 189.852 22.215H187.852C187.852 24.7385 188.412 27.0632 189.546 29.1691L191.307 28.2209ZM189.852 22.215C189.852 19.9012 190.344 17.8976 191.301 16.1756L189.553 15.2044C188.409 17.2624 187.852 19.6088 187.852 22.215H189.852ZM191.298 16.1803C192.297 14.4056 193.632 13.0181 195.31 12L194.273 10.29C192.292 11.4919 190.717 13.1344 189.555 15.1997L191.298 16.1803ZM195.304 12.0037C197.001 10.9911 198.892 10.48 201.002 10.48V8.48C198.551 8.48 196.302 9.07887 194.279 10.2863L195.304 12.0037ZM201.002 10.48C202.814 10.48 204.352 10.7773 205.641 11.3412L206.443 9.50884C204.851 8.81273 203.03 8.48 201.002 8.48V10.48ZM205.648 11.3441C206.996 11.9219 208.122 12.712 209.04 13.7116L210.513 12.3584C209.392 11.138 208.028 10.1881 206.436 9.50585L205.648 11.3441ZM209.04 13.7116C209.972 14.725 210.685 15.889 211.18 17.2111L213.053 16.5089C212.469 14.951 211.622 13.5649 210.513 12.3584L209.04 13.7116ZM211.183 17.2176C211.675 18.5033 211.927 19.9109 211.927 21.45H213.927C213.927 19.6891 213.638 18.0367 213.051 16.5024L211.183 17.2176ZM211.927 21.45C211.927 21.8224 211.9 22.2132 211.845 22.6228L213.828 22.8872C213.893 22.3968 213.927 21.9176 213.927 21.45H211.927ZM211.839 22.6885C211.813 23.0697 211.752 23.3628 211.672 23.5833L213.551 24.2667C213.711 23.8272 213.8 23.3403 213.834 22.8215L211.839 22.6885ZM212.612 22.925H193.712V24.925H212.612V22.925ZM194.712 23.925V19.425H192.712V23.925H194.712ZM193.712 20.425H209.282V18.425H193.712V20.425ZM208.678 18.6281L205.888 20.7431L207.096 22.3369L209.886 20.2219L208.678 18.6281ZM207.473 21.732C207.772 20.2061 207.701 18.7784 207.199 17.4876L205.335 18.2124C205.673 19.0816 205.752 20.1139 205.51 21.348L207.473 21.732ZM207.207 17.5104C206.747 16.2363 205.957 15.2084 204.848 14.4571L203.726 16.1129C204.477 16.6216 205.006 17.3037 205.326 18.1896L207.207 17.5104ZM204.86 14.4658C203.764 13.6987 202.46 13.34 201.002 13.34V15.34C202.123 15.34 203.009 15.6113 203.713 16.1042L204.86 14.4658ZM201.002 13.34C199.591 13.34 198.303 13.7043 197.168 14.449L198.265 16.121C199.051 15.6057 199.952 15.34 201.002 15.34V13.34ZM197.187 14.437C196.027 15.1615 195.169 16.2347 194.591 17.5939L196.432 18.3761C196.874 17.3353 197.486 16.6085 198.247 16.133L197.187 14.437ZM194.587 17.6054C194.032 18.9574 193.847 20.5462 193.974 22.3312L195.969 22.1888C195.857 20.6138 196.031 19.3526 196.437 18.3646L194.587 17.6054ZM193.975 22.1803C193.844 23.8148 194.053 25.319 194.64 26.6646L196.473 25.8654C196.04 24.871 195.859 23.7052 195.968 22.3397L193.975 22.1803ZM194.653 26.6931C195.271 27.998 196.178 29.0339 197.371 29.7708L198.422 28.0692C197.575 27.5461 196.922 26.812 196.46 25.8369L194.653 26.6931ZM197.382 29.7775C198.603 30.5101 199.985 30.865 201.497 30.865V28.865C200.309 28.865 199.29 28.5899 198.411 28.0625L197.382 29.7775ZM201.497 30.865C202.987 30.865 204.318 30.5495 205.439 29.8626L204.394 28.1574C203.655 28.6105 202.706 28.865 201.497 28.865V30.865ZM205.427 29.8699C206.536 29.2117 207.411 28.3201 208.038 27.2053L206.295 26.2247C205.842 27.0299 205.218 27.6683 204.406 28.1501L205.427 29.8699ZM206.726 27.6128L211.496 29.9528L212.377 28.1572L207.607 25.8172L206.726 27.6128ZM211.012 28.6754C210.594 29.6928 209.939 30.6039 209.025 31.4102L210.348 32.9098C211.475 31.9161 212.319 30.7572 212.862 29.4346L211.012 28.6754ZM209.025 31.4102C208.108 32.2189 207.005 32.863 205.702 33.3346L206.382 35.2154C207.898 34.667 209.225 33.9011 210.348 32.9098L209.025 31.4102ZM205.695 33.337C204.441 33.8006 203.03 34.04 201.452 34.04V36.04C203.233 36.04 204.883 35.7694 206.388 35.213L205.695 33.337ZM220.277 34.185L219.865 35.0961L220.277 34.185ZM217.352 31.755L216.51 32.2934L216.517 32.3042L217.352 31.755ZM217.217 24.42L218.086 24.9162L218.092 24.9056L217.217 24.42ZM220.008 21.72L220.504 22.5882H220.504L220.008 21.72ZM224.777 20.19L224.932 21.178L224.938 21.177L224.777 20.19ZM232.788 18.885H233.788V17.7089L232.627 17.898L232.788 18.885ZM232.788 23.385L232.955 24.3709L233.788 24.2294V23.385H232.788ZM225.902 24.555L225.735 23.5691L225.726 23.5707L225.902 24.555ZM223.292 25.68L222.605 24.954L223.292 25.68ZM223.383 29.82L222.753 30.5972L222.773 30.6135L222.794 30.6287L223.383 29.82ZM229.053 29.775L229.533 30.6519L229.543 30.6466L229.053 29.775ZM231.258 27.57L230.393 27.0679L230.387 27.0784L230.381 27.0892L231.258 27.57ZM230.807 15.6L230.143 16.3474L230.158 16.3604L230.173 16.3727L230.807 15.6ZM224.193 15.555L224.759 16.3791L224.764 16.3754L224.193 15.555ZM222.077 18.21L221.64 19.1094L222.602 19.5769L223.004 18.5857L222.077 18.21ZM217.262 15.87L216.325 15.5213L216.009 16.3724L216.825 16.7694L217.262 15.87ZM219.512 12.54L220.186 13.279L220.187 13.278L219.512 12.54ZM223.202 10.29L222.845 9.35614L223.202 10.29ZM233.103 10.605L232.662 11.5029L232.669 11.5064L232.677 11.5098L233.103 10.605ZM236.658 13.665L235.814 14.2019L235.821 14.2131L235.828 14.2241L236.658 13.665ZM237.963 34.5V35.5H238.963V34.5H237.963ZM232.383 34.5H231.383V35.5H232.383V34.5ZM232.383 30.315L232.311 29.3175L231.383 29.3839V30.315H232.383ZM233.643 30.225L234.5 30.7395L235.489 29.0905L233.571 29.2275L233.643 30.225ZM231.393 32.88L232.014 33.6635L232.022 33.657L232.03 33.6504L231.393 32.88ZM228.423 34.5L228.731 35.4512L228.743 35.4475L228.754 35.4435L228.423 34.5ZM224.732 34.04C223.132 34.04 221.793 33.7732 220.69 33.2739L219.865 35.0961C221.282 35.7368 222.913 36.04 224.732 36.04V34.04ZM220.69 33.2739C219.584 32.7738 218.764 32.0818 218.188 31.2058L216.517 32.3042C217.321 33.5282 218.451 34.4562 219.865 35.0961L220.69 33.2739ZM218.195 31.2166C217.618 30.3133 217.318 29.259 217.318 28.02H215.318C215.318 29.601 215.707 31.0367 216.51 32.2934L218.195 31.2166ZM217.318 28.02C217.318 26.8233 217.582 25.798 218.086 24.9161L216.349 23.9239C215.653 25.142 215.318 26.5167 215.318 28.02H217.318ZM218.092 24.9056C218.588 24.0113 219.374 23.2336 220.504 22.5882L219.511 20.8518C218.121 21.6464 217.047 22.6687 216.343 23.9344L218.092 24.9056ZM220.504 22.5882C221.629 21.9453 223.094 21.4652 224.932 21.178L224.623 19.202C222.621 19.5148 220.906 20.0547 219.511 20.8518L220.504 22.5882ZM224.938 21.177L232.948 19.872L232.627 17.898L224.617 19.203L224.938 21.177ZM231.788 18.885V23.385H233.788V18.885H231.788ZM232.62 22.3991L225.735 23.5691L226.07 25.5409L232.955 24.3709L232.62 22.3991ZM225.726 23.5707C224.456 23.7986 223.372 24.2276 222.605 24.954L223.98 26.406C224.353 26.0524 225.009 25.7313 226.079 25.5393L225.726 23.5707ZM222.605 24.954C221.813 25.7043 221.438 26.6832 221.438 27.795H223.438C223.438 27.1668 223.632 26.7357 223.98 26.406L222.605 24.954ZM221.438 27.795C221.438 28.9241 221.879 29.8895 222.753 30.5972L224.012 29.0428C223.626 28.7305 223.438 28.3459 223.438 27.795H221.438ZM222.794 30.6287C223.654 31.2539 224.68 31.54 225.812 31.54V29.54C225.025 29.54 224.431 29.3461 223.971 29.0113L222.794 30.6287ZM225.812 31.54C227.184 31.54 228.434 31.2547 229.533 30.6518L228.572 28.8982C227.811 29.3153 226.901 29.54 225.812 29.54V31.54ZM229.543 30.6466C230.659 30.0187 231.531 29.1511 232.134 28.0508L230.381 27.0892C229.964 27.8489 229.366 28.4513 228.562 28.9034L229.543 30.6466ZM232.122 28.0721C232.754 26.9846 233.068 25.7904 233.068 24.51H231.068C231.068 25.4496 230.841 26.2954 230.393 27.0679L232.122 28.0721ZM233.068 24.51V18.21H231.068V24.51H233.068ZM233.068 18.21C233.068 16.8488 232.504 15.6995 231.442 14.8273L230.173 16.3727C230.791 16.8805 231.068 17.4712 231.068 18.21H233.068ZM231.472 14.8526C230.437 13.9326 229.1 13.52 227.568 13.52V15.52C228.735 15.52 229.558 15.8274 230.143 16.3474L231.472 14.8526ZM227.568 13.52C226.113 13.52 224.786 13.9223 223.621 14.7346L224.764 16.3754C225.579 15.8077 226.502 15.52 227.568 15.52V13.52ZM223.626 14.731C222.5 15.5052 221.672 16.5482 221.151 17.8343L223.004 18.5857C223.383 17.6518 223.965 16.9248 224.759 16.379L223.626 14.731ZM222.515 17.3106L217.7 14.9706L216.825 16.7694L221.64 19.1094L222.515 17.3106ZM218.2 16.2187C218.624 15.0784 219.284 14.102 220.186 13.279L218.839 11.801C217.701 12.838 216.861 14.0816 216.325 15.5213L218.2 16.2187ZM220.187 13.278C221.139 12.4077 222.26 11.7218 223.56 11.2239L222.845 9.35614C221.325 9.93819 219.986 10.7523 218.838 11.802L220.187 13.278ZM223.56 11.2239C224.846 10.7315 226.253 10.48 227.792 10.48V8.48C226.032 8.48 224.379 8.76853 222.845 9.35614L223.56 11.2239ZM227.792 10.48C229.677 10.48 231.292 10.8311 232.662 11.5029L233.543 9.70708C231.853 8.87888 229.928 8.48 227.792 8.48V10.48ZM232.677 11.5098C234.05 12.156 235.084 13.0545 235.814 14.2019L237.501 13.1281C236.551 11.6355 235.215 10.494 233.528 9.70018L232.677 11.5098ZM235.828 14.2241C236.574 15.3298 236.963 16.6448 236.963 18.21H238.963C238.963 16.2952 238.481 14.5802 237.487 13.1059L235.828 14.2241ZM236.963 18.21V34.5H238.963V18.21H236.963ZM237.963 33.5H232.383V35.5H237.963V33.5ZM233.383 34.5V30.315H231.383V34.5H233.383ZM232.454 31.3125L233.714 31.2225L233.571 29.2275L232.311 29.3175L232.454 31.3125ZM232.785 29.7105C232.208 30.6716 231.531 31.4677 230.755 32.1096L232.03 33.6504C232.994 32.8523 233.817 31.8784 234.5 30.7395L232.785 29.7105ZM230.771 32.0965C229.993 32.7134 229.102 33.2012 228.091 33.5565L228.754 35.4435C229.963 35.0188 231.052 34.4266 232.014 33.6635L230.771 32.0965ZM228.114 33.5488C227.118 33.8718 225.994 34.04 224.732 34.04V36.04C226.171 36.04 227.507 35.8482 228.731 35.4512L228.114 33.5488ZM248.631 33.375L248.12 34.2349L248.128 34.2395L248.136 34.2441L248.631 33.375ZM244.086 28.785L243.217 29.2797L243.22 29.2855L244.086 28.785ZM244.086 15.69L244.952 16.1905L244.086 15.69ZM248.631 11.145L248.136 10.2759L248.131 10.2793L248.631 11.145ZM260.061 10.425L259.674 11.347L259.682 11.3503L259.69 11.3535L260.061 10.425ZM263.931 12.945L263.224 13.6521L263.234 13.6619L263.244 13.6715L263.931 12.945ZM266.316 16.725L266.715 17.6421L267.549 17.2794L267.267 16.4146L266.316 16.725ZM261.141 18.975L260.202 19.3186L260.567 20.3152L261.54 19.8921L261.141 18.975ZM258.846 16.005L258.265 16.8188L258.276 16.8264L258.846 16.005ZM251.736 15.825L251.21 14.9741L251.199 14.9813L251.736 15.825ZM249.396 18.435L248.506 17.9782V17.9782L249.396 18.435ZM249.396 26.085L248.506 26.5418L249.396 26.085ZM251.736 28.695L251.199 29.5387L251.211 29.5458L251.736 28.695ZM258.891 28.515L259.472 29.3287V29.3287L258.891 28.515ZM261.141 25.5L261.553 24.5888L260.564 24.1417L260.199 25.1637L261.141 25.5ZM266.316 27.84L267.261 28.1685L267.561 27.3054L266.728 26.9288L266.316 27.84ZM263.976 31.575L264.683 32.2822L264.693 32.2724L263.976 31.575ZM260.106 34.14L260.477 35.0685L260.485 35.0653L260.493 35.062L260.106 34.14ZM255.201 34.04C252.93 34.04 250.913 33.5231 249.126 32.5059L248.136 34.2441C250.249 35.4469 252.612 36.04 255.201 36.04V34.04ZM249.142 32.5151C247.368 31.4619 245.975 30.0552 244.952 28.2845L243.22 29.2855C244.417 31.3548 246.054 33.0081 248.12 34.2349L249.142 32.5151ZM244.955 28.2903C243.938 26.5034 243.421 24.4864 243.421 22.215H241.421C241.421 24.8036 242.014 27.1666 243.217 29.2797L244.955 28.2903ZM243.421 22.215C243.421 19.9434 243.938 17.9441 244.952 16.1905L243.22 15.1895C242.014 17.2759 241.421 19.6266 241.421 22.215H243.421ZM244.952 16.1905C245.974 14.4221 247.363 13.0331 249.132 12.0107L248.131 10.2793C246.059 11.4769 244.418 13.1179 243.22 15.1895L244.952 16.1905ZM249.126 12.0141C250.913 10.9969 252.93 10.48 255.201 10.48V8.48C252.612 8.48 250.249 9.07307 248.136 10.2759L249.126 12.0141ZM255.201 10.48C256.817 10.48 258.305 10.772 259.674 11.347L260.448 9.50302C258.817 8.81802 257.065 8.48 255.201 8.48V10.48ZM259.69 11.3535C261.071 11.9061 262.245 12.6733 263.224 13.6521L264.638 12.2379C263.457 11.0567 262.051 10.1439 260.432 9.49652L259.69 11.3535ZM263.244 13.6715C264.231 14.6055 264.936 15.7219 265.365 17.0354L267.267 16.4146C266.736 14.7881 265.851 13.3845 264.618 12.2185L263.244 13.6715ZM265.917 15.8079L260.742 18.0579L261.54 19.8921L266.715 17.6421L265.917 15.8079ZM262.08 18.6314C261.559 17.2072 260.665 16.0506 259.416 15.1836L258.276 16.8264C259.187 17.4594 259.823 18.2828 260.202 19.3186L262.08 18.6314ZM259.427 15.1913C258.196 14.3115 256.774 13.88 255.201 13.88V15.88C256.388 15.88 257.396 16.1985 258.265 16.8187L259.427 15.1913ZM255.201 13.88C253.74 13.88 252.4 14.2392 251.211 14.9742L252.262 16.6758C253.112 16.1508 254.082 15.88 255.201 15.88V13.88ZM251.199 14.9813C250.05 15.7128 249.152 16.7206 248.506 17.9782L250.286 18.8918C250.78 17.9294 251.442 17.1972 252.273 16.6687L251.199 14.9813ZM248.506 17.9782C247.853 19.2499 247.541 20.6857 247.541 22.26H249.541C249.541 20.9543 249.799 19.8401 250.286 18.8918L248.506 17.9782ZM247.541 22.26C247.541 23.8343 247.853 25.2701 248.506 26.5418L250.286 25.6282C249.799 24.6799 249.541 23.5657 249.541 22.26H247.541ZM248.506 26.5418C249.152 27.7994 250.05 28.8072 251.199 29.5387L252.273 27.8513C251.442 27.3228 250.78 26.5906 250.286 25.6282L248.506 26.5418ZM251.211 29.5458C252.4 30.2808 253.74 30.64 255.201 30.64V28.64C254.082 28.64 253.112 28.3692 252.262 27.8442L251.211 29.5458ZM255.201 30.64C256.799 30.64 258.237 30.2112 259.472 29.3287L258.31 27.7013C257.445 28.3188 256.423 28.64 255.201 28.64V30.64ZM259.472 29.3287C260.695 28.4555 261.567 27.281 262.083 25.8363L260.199 25.1637C259.815 26.239 259.187 27.0745 258.31 27.7013L259.472 29.3287ZM260.729 26.4112L265.904 28.7512L266.728 26.9288L261.553 24.5888L260.729 26.4112ZM265.372 27.5115C264.942 28.7451 264.244 29.866 263.259 30.8776L264.693 32.2724C265.868 31.064 266.73 29.6949 267.261 28.1685L265.372 27.5115ZM263.269 30.8679C262.286 31.8503 261.107 32.6349 259.719 33.218L260.493 35.062C262.105 34.3851 263.506 33.4597 264.683 32.2821L263.269 30.8679ZM259.735 33.2115C258.364 33.7599 256.856 34.04 255.201 34.04V36.04C257.086 36.04 258.848 35.7201 260.477 35.0685L259.735 33.2115ZM270.789 34.5H269.789V35.5H270.789V34.5ZM270.789 0.434999V-0.565001H269.789V0.434999H270.789ZM276.684 0.434999H277.684V-0.565001H276.684V0.434999ZM276.684 14.835L275.958 15.5227L277.684 17.3446V14.835H276.684ZM275.874 13.98L274.942 13.6185L274.713 14.2084L275.148 14.6677L275.874 13.98ZM278.664 10.65L279.167 11.5145L279.173 11.5109L278.664 10.65ZM288.024 10.65L287.532 11.5206L287.54 11.525L288.024 10.65ZM291.309 13.935L290.434 14.4191L290.438 14.4271L291.309 13.935ZM292.479 34.5V35.5H293.479V34.5H292.479ZM286.584 34.5H285.584V35.5H286.584V34.5ZM285.954 17.355L286.834 16.8809L285.954 17.355ZM284.199 15.555L283.669 16.403L283.689 16.4157L283.71 16.4275L284.199 15.555ZM279.069 15.555L279.558 16.4275L279.571 16.4202L279.583 16.4125L279.069 15.555ZM277.314 17.355L278.194 17.8291L277.314 17.355ZM276.684 34.5V35.5H277.684V34.5H276.684ZM271.789 34.5V0.434999H269.789V34.5H271.789ZM270.789 1.435H276.684V-0.565001H270.789V1.435ZM275.684 0.434999V14.835H277.684V0.434999H275.684ZM277.41 14.1473L276.6 13.2923L275.148 14.6677L275.958 15.5227L277.41 14.1473ZM276.806 14.3415C277.299 13.0702 278.084 12.1437 279.167 11.5145L278.161 9.78549C276.664 10.6563 275.589 11.9498 274.942 13.6185L276.806 14.3415ZM279.173 11.5109C280.319 10.8337 281.668 10.48 283.254 10.48V8.48C281.36 8.48 279.649 8.90627 278.155 9.78907L279.173 11.5109ZM283.254 10.48C284.905 10.48 286.321 10.8364 287.532 11.5206L288.516 9.77944C286.966 8.90362 285.203 8.48 283.254 8.48V10.48ZM287.54 11.525C288.785 12.214 289.745 13.1735 290.434 14.4191L292.184 13.4509C291.313 11.8765 290.082 10.646 288.508 9.77497L287.54 11.525ZM290.438 14.4271C291.121 15.6351 291.479 17.0655 291.479 18.75H293.479C293.479 16.7745 293.057 14.9949 292.18 13.4429L290.438 14.4271ZM291.479 18.75V34.5H293.479V18.75H291.479ZM292.479 33.5H286.584V35.5H292.479V33.5ZM287.584 34.5V20.145H285.584V34.5H287.584ZM287.584 20.145C287.584 18.9354 287.348 17.8353 286.834 16.8809L285.073 17.8291C285.4 18.4347 285.584 19.1946 285.584 20.145H287.584ZM286.834 16.8809C286.327 15.939 285.609 15.1983 284.688 14.6825L283.71 16.4275C284.289 16.7517 284.741 17.211 285.073 17.8291L286.834 16.8809ZM284.729 14.707C283.825 14.1421 282.78 13.88 281.634 13.88V15.88C282.468 15.88 283.133 16.0679 283.669 16.403L284.729 14.707ZM281.634 13.88C280.511 13.88 279.475 14.1453 278.554 14.6975L279.583 16.4125C280.163 16.0647 280.837 15.88 281.634 15.88V13.88ZM278.58 14.6825C277.659 15.1983 276.941 15.939 276.433 16.8809L278.194 17.8291C278.527 17.211 278.979 16.7517 279.558 16.4275L278.58 14.6825ZM276.433 16.8809C275.92 17.8353 275.684 18.9354 275.684 20.145H277.684C277.684 19.1946 277.868 18.4347 278.194 17.8291L276.433 16.8809ZM275.684 20.145V34.5H277.684V20.145H275.684ZM276.684 33.5H270.789V35.5H276.684V33.5ZM313.955 34.5H312.955V35.5H313.955V34.5ZM313.955 0.974998V-0.0250025H312.955V0.974998H313.955ZM320.075 0.974998H321.075V-0.0250025H320.075V0.974998ZM320.075 34.5V35.5H321.075V34.5H320.075ZM314.955 34.5V0.974998H312.955V34.5H314.955ZM313.955 1.975H320.075V-0.0250025H313.955V1.975ZM319.075 0.974998V34.5H321.075V0.974998H319.075ZM320.075 33.5H313.955V35.5H320.075V33.5ZM326.028 34.5H325.028V35.5H326.028V34.5ZM326.028 10.02V9.02H325.028V10.02H326.028ZM331.563 10.02H332.563V9.02H331.563V10.02ZM331.563 15.69L330.731 16.2447L332.563 18.9928V15.69H331.563ZM330.933 14.745L329.964 14.4986L329.854 14.9296L330.101 15.2997L330.933 14.745ZM333.633 10.785L334.175 11.6256L333.633 10.785ZM343.713 11.055L343.147 11.8795L343.713 11.055ZM346.683 15.195L346.764 16.1917L347.954 16.0952L347.65 14.9405L346.683 15.195ZM345.018 15.33L344.085 14.971L343.514 16.4552L345.099 16.3267L345.018 15.33ZM348.393 10.965L348.932 11.8074L348.944 11.7996L348.393 10.965ZM358.203 10.65L357.703 11.5159L357.711 11.5206L358.203 10.65ZM361.443 13.935L360.568 14.4191L360.573 14.4271L361.443 13.935ZM362.613 34.5V35.5H363.613V34.5H362.613ZM356.718 34.5H355.718V35.5H356.718V34.5ZM354.513 15.555L353.967 16.3926L353.98 16.4011L353.993 16.4092L354.513 15.555ZM349.518 15.555L350.022 16.4188L350.035 16.4111L350.048 16.403L349.518 15.555ZM347.853 17.355L346.959 16.9078V16.9078L347.853 17.355ZM347.268 34.5V35.5H348.268V34.5H347.268ZM341.373 34.5H340.373V35.5H341.373V34.5ZM340.788 17.355L341.683 16.9078L340.788 17.355ZM339.123 15.555L338.577 16.3926L338.598 16.4062L338.619 16.4188L339.123 15.555ZM334.173 15.555L334.677 16.4188L334.69 16.4111L334.703 16.403L334.173 15.555ZM332.508 17.355L333.403 17.8022L332.508 17.355ZM331.923 34.5V35.5H332.923V34.5H331.923ZM327.028 34.5V10.02H325.028V34.5H327.028ZM326.028 11.02H331.563V9.02H326.028V11.02ZM330.563 10.02V15.69H332.563V10.02H330.563ZM332.395 15.1353L331.765 14.1903L330.101 15.2997L330.731 16.2447L332.395 15.1353ZM331.902 14.9914C332.299 13.4302 333.067 12.3397 334.175 11.6256L333.091 9.94443C331.5 10.9703 330.467 12.5198 329.964 14.4986L331.902 14.9914ZM334.175 11.6256C335.342 10.8736 336.738 10.48 338.403 10.48V8.48C336.409 8.48 334.625 8.95638 333.091 9.94443L334.175 11.6256ZM338.403 10.48C340.229 10.48 341.798 10.9534 343.147 11.8795L344.279 10.2305C342.569 9.05659 340.598 8.48 338.403 8.48V10.48ZM343.147 11.8795C344.49 12.8011 345.33 13.9837 345.716 15.4495L347.65 14.9405C347.136 12.9863 345.996 11.4089 344.279 10.2305L343.147 11.8795ZM346.602 14.1983L344.937 14.3333L345.099 16.3267L346.764 16.1917L346.602 14.1983ZM345.952 15.689C346.639 13.9024 347.642 12.6333 348.932 11.8073L347.854 10.1227C346.145 11.2167 344.898 12.8576 344.085 14.971L345.952 15.689ZM348.944 11.7996C350.267 10.9267 351.797 10.48 353.568 10.48V8.48C351.44 8.48 349.52 9.02331 347.842 10.1304L348.944 11.7996ZM353.568 10.48C355.153 10.48 356.522 10.8336 357.703 11.5159L358.703 9.78413C357.184 8.90639 355.463 8.48 353.568 8.48V10.48ZM357.711 11.5206C358.927 12.208 359.876 13.168 360.568 14.4191L362.318 13.4509C361.45 11.882 360.239 10.652 358.695 9.77944L357.711 11.5206ZM360.573 14.4271C361.255 15.6351 361.613 17.0655 361.613 18.75H363.613C363.613 16.7745 363.191 14.9949 362.314 13.4429L360.573 14.4271ZM361.613 18.75V34.5H363.613V18.75H361.613ZM362.613 33.5H356.718V35.5H362.613V33.5ZM357.718 34.5V20.145H355.718V34.5H357.718ZM357.718 20.145C357.718 18.946 357.502 17.8558 357.028 16.9078L355.239 17.8022C355.545 18.4142 355.718 19.184 355.718 20.145H357.718ZM357.028 16.9078C356.561 15.9735 355.897 15.2264 355.033 14.7008L353.993 16.4092C354.51 16.7236 354.926 17.1765 355.239 17.8022L357.028 16.9078ZM355.059 14.7174C354.177 14.1417 353.138 13.88 351.993 13.88V15.88C352.829 15.88 353.47 16.0683 353.967 16.3926L355.059 14.7174ZM351.993 13.88C350.894 13.88 349.882 14.1483 348.988 14.707L350.048 16.403C350.594 16.0617 351.232 15.88 351.993 15.88V13.88ZM349.014 14.6912C348.118 15.2138 347.431 15.9624 346.959 16.9078L348.748 17.8022C349.055 17.1876 349.478 16.7362 350.022 16.4188L349.014 14.6912ZM346.959 16.9078C346.485 17.8558 346.268 18.946 346.268 20.145H348.268C348.268 19.184 348.442 18.4142 348.748 17.8022L346.959 16.9078ZM346.268 20.145V34.5H348.268V20.145H346.268ZM347.268 33.5H341.373V35.5H347.268V33.5ZM342.373 34.5V20.145H340.373V34.5H342.373ZM342.373 20.145C342.373 18.946 342.157 17.8558 341.683 16.9078L339.894 17.8022C340.2 18.4142 340.373 19.184 340.373 20.145H342.373ZM341.683 16.9078C341.21 15.9624 340.523 15.2138 339.627 14.6912L338.619 16.4188C339.163 16.7362 339.586 17.1876 339.894 17.8022L341.683 16.9078ZM339.669 14.7174C338.792 14.1448 337.769 13.88 336.648 13.88V15.88C337.447 15.88 338.075 16.0652 338.577 16.3926L339.669 14.7174ZM336.648 13.88C335.549 13.88 334.537 14.1483 333.643 14.707L334.703 16.403C335.249 16.0617 335.887 15.88 336.648 15.88V13.88ZM333.669 14.6912C332.773 15.2138 332.086 15.9624 331.614 16.9078L333.403 17.8022C333.71 17.1876 334.133 16.7362 334.677 16.4188L333.669 14.6912ZM331.614 16.9078C331.14 17.8558 330.923 18.946 330.923 20.145H332.923C332.923 19.184 333.097 18.4142 333.403 17.8022L331.614 16.9078ZM330.923 20.145V34.5H332.923V20.145H330.923ZM331.923 33.5H326.028V35.5H331.923V33.5ZM367.6 34.5H366.6V35.5H367.6V34.5ZM367.6 10.02V9.02H366.6V10.02H367.6ZM373.135 10.02H374.135V9.02H373.135V10.02ZM373.135 15.69L372.303 16.2447L374.135 18.9928V15.69H373.135ZM372.505 14.745L371.536 14.4986L371.427 14.9296L371.673 15.2997L372.505 14.745ZM375.205 10.785L375.747 11.6256L375.205 10.785ZM385.285 11.055L384.72 11.8795L385.285 11.055ZM388.255 15.195L388.336 16.1917L389.526 16.0952L389.223 14.9405L388.255 15.195ZM386.59 15.33L385.657 14.971L385.086 16.4552L386.671 16.3267L386.59 15.33ZM389.965 10.965L390.505 11.8074L390.516 11.7996L389.965 10.965ZM399.775 10.65L399.275 11.5159L399.283 11.5206L399.775 10.65ZM403.015 13.935L402.14 14.4191L402.145 14.4271L403.015 13.935ZM404.185 34.5V35.5H405.185V34.5H404.185ZM398.29 34.5H397.29V35.5H398.29V34.5ZM396.085 15.555L395.539 16.3926L395.552 16.4011L395.566 16.4092L396.085 15.555ZM391.09 15.555L391.594 16.4188L391.608 16.4111L391.62 16.403L391.09 15.555ZM389.425 17.355L388.531 16.9078V16.9078L389.425 17.355ZM388.84 34.5V35.5H389.84V34.5H388.84ZM382.945 34.5H381.945V35.5H382.945V34.5ZM382.36 17.355L383.255 16.9078L382.36 17.355ZM380.695 15.555L380.149 16.3926L380.17 16.4062L380.192 16.4188L380.695 15.555ZM375.745 15.555L376.249 16.4188L376.263 16.4111L376.275 16.403L375.745 15.555ZM374.08 17.355L374.975 17.8022L374.08 17.355ZM373.495 34.5V35.5H374.495V34.5H373.495ZM368.6 34.5V10.02H366.6V34.5H368.6ZM367.6 11.02H373.135V9.02H367.6V11.02ZM372.135 10.02V15.69H374.135V10.02H372.135ZM373.968 15.1353L373.338 14.1903L371.673 15.2997L372.303 16.2447L373.968 15.1353ZM373.475 14.9914C373.872 13.4302 374.639 12.3397 375.747 11.6256L374.664 9.94443C373.072 10.9703 372.039 12.5198 371.536 14.4986L373.475 14.9914ZM375.747 11.6256C376.914 10.8736 378.31 10.48 379.975 10.48V8.48C377.981 8.48 376.197 8.95638 374.664 9.94443L375.747 11.6256ZM379.975 10.48C381.801 10.48 383.37 10.9534 384.72 11.8795L385.851 10.2305C384.141 9.05659 382.17 8.48 379.975 8.48V10.48ZM384.72 11.8795C386.062 12.8011 386.903 13.9837 387.288 15.4495L389.223 14.9405C388.708 12.9863 387.568 11.4089 385.851 10.2305L384.72 11.8795ZM388.175 14.1983L386.51 14.3333L386.671 16.3267L388.336 16.1917L388.175 14.1983ZM387.524 15.689C388.211 13.9024 389.214 12.6333 390.505 11.8073L389.426 10.1227C387.717 11.2167 386.47 12.8576 385.657 14.971L387.524 15.689ZM390.516 11.7996C391.839 10.9267 393.369 10.48 395.14 10.48V8.48C393.012 8.48 391.092 9.02331 389.415 10.1304L390.516 11.7996ZM395.14 10.48C396.726 10.48 398.094 10.8336 399.275 11.5159L400.276 9.78413C398.757 8.90639 397.035 8.48 395.14 8.48V10.48ZM399.283 11.5206C400.5 12.208 401.448 13.168 402.14 14.4191L403.891 13.4509C403.023 11.882 401.811 10.652 400.268 9.77944L399.283 11.5206ZM402.145 14.4271C402.828 15.6351 403.185 17.0655 403.185 18.75H405.185C405.185 16.7745 404.763 14.9949 403.886 13.4429L402.145 14.4271ZM403.185 18.75V34.5H405.185V18.75H403.185ZM404.185 33.5H398.29V35.5H404.185V33.5ZM399.29 34.5V20.145H397.29V34.5H399.29ZM399.29 20.145C399.29 18.946 399.074 17.8558 398.6 16.9078L396.811 17.8022C397.117 18.4142 397.29 19.184 397.29 20.145H399.29ZM398.6 16.9078C398.133 15.9735 397.469 15.2264 396.605 14.7008L395.566 16.4092C396.082 16.7236 396.498 17.1765 396.811 17.8022L398.6 16.9078ZM396.632 14.7174C395.749 14.1417 394.71 13.88 393.565 13.88V15.88C394.401 15.88 395.042 16.0683 395.539 16.3926L396.632 14.7174ZM393.565 13.88C392.467 13.88 391.454 14.1483 390.56 14.707L391.62 16.403C392.167 16.0617 392.804 15.88 393.565 15.88V13.88ZM390.587 14.6912C389.691 15.2138 389.004 15.9624 388.531 16.9078L390.32 17.8022C390.627 17.1876 391.05 16.7362 391.594 16.4188L390.587 14.6912ZM388.531 16.9078C388.057 17.8558 387.84 18.946 387.84 20.145H389.84C389.84 19.184 390.014 18.4142 390.32 17.8022L388.531 16.9078ZM387.84 20.145V34.5H389.84V20.145H387.84ZM388.84 33.5H382.945V35.5H388.84V33.5ZM383.945 34.5V20.145H381.945V34.5H383.945ZM383.945 20.145C383.945 18.946 383.729 17.8558 383.255 16.9078L381.466 17.8022C381.772 18.4142 381.945 19.184 381.945 20.145H383.945ZM383.255 16.9078C382.782 15.9624 382.095 15.2138 381.199 14.6912L380.192 16.4188C380.736 16.7362 381.159 17.1876 381.466 17.8022L383.255 16.9078ZM381.242 14.7174C380.364 14.1448 379.342 13.88 378.22 13.88V15.88C379.019 15.88 379.647 16.0652 380.149 16.3926L381.242 14.7174ZM378.22 13.88C377.122 13.88 376.109 14.1483 375.215 14.707L376.275 16.403C376.822 16.0617 377.459 15.88 378.22 15.88V13.88ZM375.242 14.6912C374.346 15.2138 373.659 15.9624 373.186 16.9078L374.975 17.8022C375.282 17.1876 375.705 16.7362 376.249 16.4188L375.242 14.6912ZM373.186 16.9078C372.712 17.8558 372.495 18.946 372.495 20.145H374.495C374.495 19.184 374.669 18.4142 374.975 17.8022L373.186 16.9078ZM372.495 20.145V34.5H374.495V20.145H372.495ZM373.495 33.5H367.6V35.5H373.495V33.5ZM409.173 34.5H408.173V35.5H409.173V34.5ZM409.173 10.02V9.02H408.173V10.02H409.173ZM415.068 10.02H416.068V9.02H415.068V10.02ZM415.068 34.5V35.5H416.068V34.5H415.068ZM409.173 7.275H408.173V8.275H409.173V7.275ZM409.173 0.974998V-0.0250025H408.173V0.974998H409.173ZM415.068 0.974998H416.068V-0.0250025H415.068V0.974998ZM415.068 7.275V8.275H416.068V7.275H415.068ZM410.173 34.5V10.02H408.173V34.5H410.173ZM409.173 11.02H415.068V9.02H409.173V11.02ZM414.068 10.02V34.5H416.068V10.02H414.068ZM415.068 33.5H409.173V35.5H415.068V33.5ZM410.173 7.275V0.974998H408.173V7.275H410.173ZM409.173 1.975H415.068V-0.0250025H409.173V1.975ZM414.068 0.974998V7.275H416.068V0.974998H414.068ZM415.068 6.275H409.173V8.275H415.068V6.275ZM427.306 43.5L427.665 42.5667L427.306 43.5ZM423.256 40.98L423.943 40.254L423.943 40.2535L423.256 40.98ZM420.826 37.245L420.473 36.3093L419.556 36.6551L419.883 37.5788L420.826 37.245ZM426.316 35.175L427.269 34.8739L426.951 33.8667L425.963 34.2393L426.316 35.175ZM428.431 37.92L428.985 37.0879L428.98 37.0843L428.431 37.92ZM435.541 38.325L435.105 37.4248L435.093 37.4306L435.541 38.325ZM437.701 36.345L436.846 35.826L436.842 35.8326L436.838 35.8393L437.701 36.345ZM438.466 27.705L439.234 27.0648L437.466 24.943V27.705H438.466ZM439.591 29.055L440.459 29.5511L440.803 28.9482L440.359 28.4148L439.591 29.055ZM436.216 32.385L436.685 33.2679L436.216 32.385ZM425.281 31.935L424.777 32.7988L425.281 31.935ZM421.051 27.615L421.924 27.1281L421.051 27.615ZM421.051 15.285L421.921 15.778L421.051 15.285ZM425.236 11.055L425.735 11.9215L425.746 11.9151L425.236 11.055ZM436.081 10.65L435.589 11.5206L435.6 11.5269L435.611 11.5329L436.081 10.65ZM439.591 13.935L440.469 14.4139L440.753 13.8919L440.431 13.3925L439.591 13.935ZM438.781 15.42H437.781L439.659 15.8989L438.781 15.42ZM438.781 10.02V9.02H437.781V10.02H438.781ZM444.361 10.02H445.361V9.02H444.361V10.02ZM442.786 39L441.938 38.47L441.931 38.481L442.786 39ZM438.556 42.96L438.085 42.0776L438.079 42.081L438.556 42.96ZM435.406 27.255L435.908 28.1198L435.916 28.1149L435.406 27.255ZM437.656 24.915L438.534 25.3939L437.656 24.915ZM437.611 18.12L436.727 18.5879L436.735 18.6036L436.744 18.619L437.611 18.12ZM435.361 15.735L434.838 16.5877L434.85 16.5949L435.361 15.735ZM428.791 15.735L428.292 14.8684L428.791 15.735ZM426.451 18.12L425.578 17.6322L425.573 17.6411L426.451 18.12ZM426.451 24.87L425.573 25.3489L425.578 25.359L425.584 25.369L426.451 24.87ZM428.746 27.21L428.235 28.0699L428.247 28.0766L428.746 27.21ZM432.391 43.4C430.672 43.4 429.1 43.1186 427.665 42.5667L426.947 44.4333C428.632 45.0814 430.45 45.4 432.391 45.4V43.4ZM427.665 42.5667C426.219 42.0106 424.982 41.2384 423.943 40.254L422.568 41.706C423.809 42.8816 425.272 43.7894 426.947 44.4333L427.665 42.5667ZM423.943 40.2535C422.948 39.3123 422.225 38.2019 421.768 36.9112L419.883 37.5788C420.446 39.1681 421.343 40.5477 422.568 41.7065L423.943 40.2535ZM421.178 38.1807L426.668 36.1107L425.963 34.2393L420.473 36.3093L421.178 38.1807ZM425.362 35.4761C425.795 36.8473 426.65 37.9463 427.881 38.7557L428.98 37.0843C428.112 36.5137 427.556 35.7827 427.269 34.8739L425.362 35.4761ZM427.876 38.7521C429.151 39.602 430.674 40 432.391 40V38C430.988 38 429.87 37.678 428.985 37.088L427.876 38.7521ZM432.391 40C433.716 40 434.925 39.751 435.988 39.2194L435.093 37.4306C434.357 37.799 433.465 38 432.391 38V40ZM435.976 39.2252C437.08 38.6911 437.951 37.896 438.563 36.8507L436.838 35.8393C436.431 36.534 435.861 37.0589 435.105 37.4248L435.976 39.2252ZM438.555 36.864C439.179 35.8362 439.466 34.6275 439.466 33.285H437.466C437.466 34.3424 437.242 35.1738 436.846 35.826L438.555 36.864ZM439.466 33.285V27.705H437.466V33.285H439.466ZM437.697 28.3452L438.822 29.6952L440.359 28.4148L439.234 27.0648L437.697 28.3452ZM438.722 28.5589C437.97 29.8752 436.979 30.8462 435.746 31.5021L436.685 33.2679C438.272 32.4238 439.531 31.1748 440.459 29.5511L438.722 28.5589ZM435.746 31.5021C434.498 32.1659 433.058 32.51 431.401 32.51V34.51C433.343 34.51 435.113 34.1041 436.685 33.2679L435.746 31.5021ZM431.401 32.51C429.281 32.51 427.417 32.0237 425.784 31.0712L424.777 32.7988C426.744 33.9463 428.961 34.51 431.401 34.51V32.51ZM425.784 31.0712C424.14 30.112 422.857 28.8025 421.924 27.1281L420.177 28.1019C421.284 30.0874 422.821 31.658 424.777 32.7988L425.784 31.0712ZM421.924 27.1281C420.994 25.4599 420.521 23.575 420.521 21.45H418.521C418.521 23.885 419.067 26.1101 420.177 28.1019L421.924 27.1281ZM420.521 21.45C420.521 19.2922 420.995 17.4107 421.921 15.778L420.181 14.792C419.066 16.7593 418.521 18.9878 418.521 21.45H420.521ZM421.921 15.778C422.854 14.1313 424.122 12.8511 425.735 11.9214L424.736 10.1886C422.81 11.2989 421.287 12.8387 420.181 14.792L421.921 15.778ZM425.746 11.9151C427.347 10.9651 429.178 10.48 431.266 10.48V8.48C428.853 8.48 426.664 9.04491 424.725 10.1949L425.746 11.9151ZM431.266 10.48C432.95 10.48 434.38 10.8377 435.589 11.5206L436.573 9.77944C435.021 8.90225 433.241 8.48 431.266 8.48V10.48ZM435.611 11.5329C436.86 12.197 437.906 13.1699 438.751 14.4775L440.431 13.3925C439.415 11.8201 438.122 10.603 436.55 9.76713L435.611 11.5329ZM438.713 13.4561L437.903 14.9411L439.659 15.8989L440.469 14.4139L438.713 13.4561ZM439.781 15.42V10.02H437.781V15.42H439.781ZM438.781 11.02H444.361V9.02H438.781V11.02ZM443.361 10.02V33.285H445.361V10.02H443.361ZM443.361 33.285C443.361 35.2422 442.881 36.9609 441.938 38.47L443.634 39.53C444.79 37.6791 445.361 35.5878 445.361 33.285H443.361ZM441.931 38.481C441.008 40.0016 439.733 41.1987 438.085 42.0776L439.026 43.8424C440.978 42.8013 442.524 41.3584 443.64 39.519L441.931 38.481ZM438.079 42.081C436.477 42.9496 434.591 43.4 432.391 43.4V45.4C434.87 45.4 437.094 44.8904 439.032 43.839L438.079 42.081ZM432.121 29.065C433.526 29.065 434.801 28.7625 435.908 28.1198L434.904 26.3902C434.15 26.8275 433.235 27.065 432.121 27.065V29.065ZM435.916 28.1149C437.032 27.4522 437.908 26.5399 438.534 25.3939L436.778 24.4361C436.323 25.2701 435.699 25.9178 434.895 26.3951L435.916 28.1149ZM438.534 25.3939C439.165 24.237 439.466 22.928 439.466 21.495H437.466C437.466 22.642 437.227 23.613 436.778 24.4361L438.534 25.3939ZM439.466 21.495C439.466 20.0784 439.143 18.7781 438.477 17.621L436.744 18.619C437.218 19.4419 437.466 20.3916 437.466 21.495H439.466ZM438.494 17.6521C437.871 16.4754 436.995 15.5423 435.871 14.8751L434.85 16.5949C435.646 17.0677 436.27 17.7246 436.727 18.5879L438.494 17.6521ZM435.883 14.8824C434.777 14.2041 433.511 13.88 432.121 13.88V15.88C433.19 15.88 434.085 16.1259 434.838 16.5876L435.883 14.8824ZM432.121 13.88C430.729 13.88 429.445 14.2043 428.292 14.8684L429.29 16.6016C430.116 16.1257 431.052 15.88 432.121 15.88V13.88ZM428.292 14.8684C427.141 15.5307 426.234 16.4582 425.578 17.6322L427.324 18.6078C427.808 17.7418 428.46 17.0793 429.29 16.6016L428.292 14.8684ZM425.573 17.6411C424.944 18.7946 424.641 20.0877 424.641 21.495H426.641C426.641 20.3823 426.878 19.4254 427.329 18.5989L425.573 17.6411ZM424.641 21.495C424.641 22.9023 424.944 24.1954 425.573 25.3489L427.329 24.3911C426.878 23.5646 426.641 22.6077 426.641 21.495H424.641ZM425.584 25.369C426.238 26.5042 427.124 27.41 428.235 28.0699L429.256 26.3501C428.447 25.87 427.804 25.2158 427.317 24.371L425.584 25.369ZM428.247 28.0766C429.404 28.7428 430.704 29.065 432.121 29.065V27.065C431.017 27.065 430.068 26.8172 429.245 26.3434L428.247 28.0766ZM449.866 34.5H448.866V35.5H449.866V34.5ZM449.866 10.02V9.02H448.866V10.02H449.866ZM455.401 10.02H456.401V9.02H455.401V10.02ZM455.401 15.465L454.527 15.9506L456.401 19.3241V15.465H455.401ZM454.951 14.655L453.996 14.3576L453.869 14.7664L454.077 15.1406L454.951 14.655ZM457.606 10.83L457.101 9.96693L457.092 9.97251L457.606 10.83ZM463.456 9.75H464.456V8.75H463.456V9.75ZM463.456 14.97V15.97H464.456V14.97H463.456ZM457.291 16.545L457.998 17.2521L458.003 17.247L458.008 17.2418L457.291 16.545ZM455.761 34.5V35.5H456.761V34.5H455.761ZM450.866 34.5V10.02H448.866V34.5H450.866ZM449.866 11.02H455.401V9.02H449.866V11.02ZM454.401 10.02V15.465H456.401V10.02H454.401ZM456.275 14.9794L455.825 14.1694L454.077 15.1406L454.527 15.9506L456.275 14.9794ZM455.906 14.9524C456.43 13.2696 457.198 12.241 458.121 11.6875L457.092 9.97251C455.614 10.859 454.612 12.3804 453.996 14.3576L455.906 14.9524ZM458.111 11.693C459.16 11.0791 460.448 10.75 462.016 10.75V8.75C460.164 8.75 458.512 9.14088 457.101 9.96698L458.111 11.693ZM462.016 10.75H463.456V8.75H462.016V10.75ZM462.456 9.75V14.97H464.456V9.75H462.456ZM463.456 13.97H461.341V15.97H463.456V13.97ZM461.341 13.97C459.434 13.97 457.81 14.5752 456.574 15.8482L458.008 17.2418C458.812 16.4147 459.888 15.97 461.341 15.97V13.97ZM456.584 15.8379C455.326 17.0954 454.761 18.82 454.761 20.865H456.761C456.761 19.19 457.216 18.0346 457.998 17.2521L456.584 15.8379ZM454.761 20.865V34.5H456.761V20.865H454.761ZM455.761 33.5H449.866V35.5H455.761V33.5ZM469.667 34.185L469.255 35.0961L469.667 34.185ZM466.742 31.755L465.899 32.2934L465.906 32.3042L466.742 31.755ZM466.607 24.42L467.475 24.9162L467.481 24.9056L466.607 24.42ZM469.397 21.72L469.893 22.5882L469.397 21.72ZM474.167 20.19L474.322 21.178L474.328 21.177L474.167 20.19ZM482.177 18.885H483.177V17.7089L482.016 17.898L482.177 18.885ZM482.177 23.385L482.345 24.3709L483.177 24.2294V23.385H482.177ZM475.292 24.555L475.125 23.5691L475.115 23.5707L475.292 24.555ZM472.682 25.68L471.994 24.954L472.682 25.68ZM472.772 29.82L472.143 30.5972L472.163 30.6135L472.184 30.6287L472.772 29.82ZM478.442 29.775L478.923 30.6519L478.932 30.6466L478.442 29.775ZM480.647 27.57L479.782 27.0679L479.776 27.0784L479.77 27.0892L480.647 27.57ZM480.197 15.6L479.533 16.3474L479.547 16.3604L479.562 16.3727L480.197 15.6ZM473.582 15.555L474.149 16.3791L474.154 16.3754L473.582 15.555ZM471.467 18.21L471.03 19.1094L471.992 19.5769L472.394 18.5857L471.467 18.21ZM466.652 15.87L465.715 15.5213L465.398 16.3724L466.215 16.7694L466.652 15.87ZM468.902 12.54L469.576 13.279L469.577 13.278L468.902 12.54ZM472.592 10.29L472.234 9.35614L472.592 10.29ZM482.492 10.605L482.052 11.5029L482.059 11.5064L482.066 11.5098L482.492 10.605ZM486.047 13.665L485.203 14.2019L485.211 14.2131L485.218 14.2241L486.047 13.665ZM487.352 34.5V35.5H488.352V34.5H487.352ZM481.772 34.5H480.772V35.5H481.772V34.5ZM481.772 30.315L481.701 29.3175L480.772 29.3839V30.315H481.772ZM483.032 30.225L483.89 30.7395L484.879 29.0905L482.961 29.2275L483.032 30.225ZM480.782 32.88L481.404 33.6635L481.412 33.657L481.42 33.6504L480.782 32.88ZM477.812 34.5L478.121 35.4512L478.132 35.4475L478.144 35.4435L477.812 34.5ZM474.122 34.04C472.522 34.04 471.183 33.7732 470.079 33.2739L469.255 35.0961C470.671 35.7368 472.303 36.04 474.122 36.04V34.04ZM470.079 33.2739C468.974 32.7738 468.153 32.0818 467.578 31.2058L465.906 32.3042C466.711 33.5282 467.84 34.4562 469.255 35.0961L470.079 33.2739ZM467.585 31.2166C467.008 30.3133 466.707 29.259 466.707 28.02H464.707C464.707 29.601 465.097 31.0367 465.899 32.2934L467.585 31.2166ZM466.707 28.02C466.707 26.8233 466.971 25.798 467.475 24.9161L465.739 23.9239C465.043 25.142 464.707 26.5167 464.707 28.02H466.707ZM467.481 24.9056C467.978 24.0113 468.764 23.2336 469.893 22.5882L468.901 20.8518C467.51 21.6464 466.436 22.6687 465.733 23.9344L467.481 24.9056ZM469.893 22.5882C471.018 21.9453 472.483 21.4652 474.322 21.178L474.013 19.202C472.011 19.5148 470.296 20.0547 468.901 20.8518L469.893 22.5882ZM474.328 21.177L482.338 19.872L482.016 17.898L474.006 19.203L474.328 21.177ZM481.177 18.885V23.385H483.177V18.885H481.177ZM482.01 22.3991L475.125 23.5691L475.46 25.5409L482.345 24.3709L482.01 22.3991ZM475.115 23.5707C473.846 23.7986 472.761 24.2276 471.994 24.954L473.37 26.406C473.743 26.0524 474.399 25.7313 475.469 25.5393L475.115 23.5707ZM471.994 24.954C471.202 25.7043 470.827 26.6832 470.827 27.795H472.827C472.827 27.1668 473.022 26.7357 473.37 26.406L471.994 24.954ZM470.827 27.795C470.827 28.9241 471.269 29.8895 472.143 30.5972L473.401 29.0428C473.016 28.7305 472.827 28.3459 472.827 27.795H470.827ZM472.184 30.6287C473.044 31.2539 474.069 31.54 475.202 31.54V29.54C474.415 29.54 473.821 29.3461 473.36 29.0113L472.184 30.6287ZM475.202 31.54C476.573 31.54 477.824 31.2547 478.923 30.6518L477.961 28.8982C477.201 29.3153 476.291 29.54 475.202 29.54V31.54ZM478.932 30.6466C480.049 30.0187 480.921 29.1511 481.524 28.0508L479.77 27.0892C479.354 27.8489 478.756 28.4513 477.952 28.9034L478.932 30.6466ZM481.512 28.0721C482.143 26.9846 482.457 25.7904 482.457 24.51H480.457C480.457 25.4496 480.231 26.2954 479.782 27.0679L481.512 28.0721ZM482.457 24.51V18.21H480.457V24.51H482.457ZM482.457 18.21C482.457 16.8488 481.894 15.6995 480.832 14.8273L479.562 16.3727C480.181 16.8805 480.457 17.4712 480.457 18.21H482.457ZM480.862 14.8526C479.827 13.9326 478.49 13.52 476.957 13.52V15.52C478.125 15.52 478.948 15.8274 479.533 16.3474L480.862 14.8526ZM476.957 13.52C475.502 13.52 474.176 13.9223 473.01 14.7346L474.154 16.3754C474.969 15.8077 475.892 15.52 476.957 15.52V13.52ZM473.016 14.731C471.889 15.5052 471.062 16.5482 470.54 17.8343L472.394 18.5857C472.772 17.6518 473.355 16.9248 474.149 16.379L473.016 14.731ZM471.904 17.3106L467.089 14.9706L466.215 16.7694L471.03 19.1094L471.904 17.3106ZM467.589 16.2187C468.014 15.0784 468.673 14.102 469.576 13.279L468.228 11.801C467.091 12.838 466.251 14.0816 465.715 15.5213L467.589 16.2187ZM469.577 13.278C470.529 12.4077 471.65 11.7218 472.95 11.2239L472.234 9.35614C470.715 9.93819 469.375 10.7523 468.227 11.802L469.577 13.278ZM472.95 11.2239C474.235 10.7315 475.643 10.48 477.182 10.48V8.48C475.421 8.48 473.769 8.76853 472.234 9.35614L472.95 11.2239ZM477.182 10.48C479.067 10.48 480.682 10.8311 482.052 11.5029L482.932 9.70708C481.243 8.87888 479.318 8.48 477.182 8.48V10.48ZM482.066 11.5098C483.439 12.156 484.473 13.0545 485.203 14.2019L486.891 13.1281C485.941 11.6355 484.605 10.494 482.918 9.70018L482.066 11.5098ZM485.218 14.2241C485.964 15.3298 486.352 16.6448 486.352 18.21H488.352C488.352 16.2952 487.871 14.5802 486.876 13.1059L485.218 14.2241ZM486.352 18.21V34.5H488.352V18.21H486.352ZM487.352 33.5H481.772V35.5H487.352V33.5ZM482.772 34.5V30.315H480.772V34.5H482.772ZM481.843 31.3125L483.103 31.2225L482.961 29.2275L481.701 29.3175L481.843 31.3125ZM482.175 29.7105C481.598 30.6716 480.92 31.4677 480.145 32.1096L481.42 33.6504C482.384 32.8523 483.206 31.8784 483.89 30.7395L482.175 29.7105ZM480.161 32.0965C479.383 32.7134 478.492 33.2012 477.481 33.5565L478.144 35.4435C479.352 35.0188 480.441 34.4266 481.404 33.6635L480.161 32.0965ZM477.504 33.5488C476.508 33.8718 475.383 34.04 474.122 34.04V36.04C475.561 36.04 476.897 35.8482 478.121 35.4512L477.504 33.5488ZM497.086 32.52L496.372 33.2201L496.379 33.2271L496.386 33.2341L497.086 32.52ZM494.836 15.285H495.836V14.285H494.836V15.285ZM490.606 15.285H489.606V16.285H490.606V15.285ZM490.606 10.02V9.02H489.606V10.02H490.606ZM493.846 9.075L494.537 9.79836V9.79836L493.846 9.075ZM494.836 4.44V3.44H493.836V4.44H494.836ZM500.731 4.44H501.731V3.44H500.731V4.44ZM500.731 10.02H499.731V11.02H500.731V10.02ZM506.356 10.02H507.356V9.02H506.356V10.02ZM506.356 15.285V16.285H507.356V15.285H506.356ZM500.731 15.285V14.285H499.731V15.285H500.731ZM501.136 27.84L500.232 28.2681L500.241 28.2871L500.251 28.3057L501.136 27.84ZM502.486 29.145L502.039 30.0394L502.048 30.0437L502.056 30.0479L502.486 29.145ZM505.591 29.55L505.492 28.5549L505.481 28.5561L505.591 29.55ZM506.446 29.46H507.446V28.3427L506.336 28.4661L506.446 29.46ZM506.446 34.5L506.588 35.4899L507.446 35.3673V34.5H506.446ZM505.006 34.68L505.117 35.6739L505.006 34.68ZM503.521 33.77C500.944 33.77 499.08 33.0741 497.786 31.8059L496.386 33.2341C498.153 34.9659 500.578 35.77 503.521 35.77V33.77ZM497.8 31.8199C496.532 30.5264 495.836 28.6618 495.836 26.085H493.836C493.836 29.0282 494.64 31.4536 496.372 33.2201L497.8 31.8199ZM495.836 26.085V15.285H493.836V26.085H495.836ZM494.836 14.285H490.606V16.285H494.836V14.285ZM491.606 15.285V10.02H489.606V15.285H491.606ZM490.606 11.02H491.056V9.02H490.606V11.02ZM491.056 11.02C492.43 11.02 493.638 10.6563 494.537 9.79836L493.156 8.35164C492.734 8.75373 492.083 9.02 491.056 9.02V11.02ZM494.537 9.79836C495.451 8.92538 495.836 7.7132 495.836 6.33H493.836C493.836 7.34679 493.561 7.96461 493.156 8.35164L494.537 9.79836ZM495.836 6.33V4.44H493.836V6.33H495.836ZM494.836 5.44H500.731V3.44H494.836V5.44ZM499.731 4.44V10.02H501.731V4.44H499.731ZM500.731 11.02H506.356V9.02H500.731V11.02ZM505.356 10.02V15.285H507.356V10.02H505.356ZM506.356 14.285H500.731V16.285H506.356V14.285ZM499.731 15.285V25.77H501.731V15.285H499.731ZM499.731 25.77C499.731 26.6875 499.884 27.5319 500.232 28.2681L502.04 27.4119C501.849 27.0081 501.731 26.4725 501.731 25.77H499.731ZM500.251 28.3057C500.653 29.0689 501.26 29.65 502.039 30.0394L502.933 28.2506C502.512 28.04 502.219 27.7511 502.021 27.3743L500.251 28.3057ZM502.056 30.0479C502.861 30.4311 503.815 30.595 504.871 30.595V28.595C504.007 28.595 503.371 28.4589 502.916 28.2421L502.056 30.0479ZM504.871 30.595C505.127 30.595 505.405 30.5768 505.702 30.5439L505.481 28.5561C505.237 28.5832 505.035 28.595 504.871 28.595V30.595ZM505.691 30.545C505.994 30.5147 506.283 30.4843 506.557 30.4539L506.336 28.4661C506.07 28.4957 505.788 28.5253 505.492 28.555L505.691 30.545ZM505.446 29.46V34.5H507.446V29.46H505.446ZM506.305 33.5101C505.897 33.5682 505.428 33.627 504.896 33.6861L505.117 35.6739C505.664 35.613 506.155 35.5518 506.588 35.4899L506.305 33.5101ZM504.896 33.6861C504.385 33.7428 503.928 33.77 503.521 33.77V35.77C504.015 35.77 504.547 35.7372 505.117 35.6739L504.896 33.6861ZM510.95 34.5H509.95V35.5H510.95V34.5ZM510.95 10.02V9.02H509.95V10.02H510.95ZM516.845 10.02H517.845V9.02H516.845V10.02ZM516.845 34.5V35.5H517.845V34.5H516.845ZM510.95 7.275H509.95V8.275H510.95V7.275ZM510.95 0.974998V-0.0250025H509.95V0.974998H510.95ZM516.845 0.974998H517.845V-0.0250025H516.845V0.974998ZM516.845 7.275V8.275H517.845V7.275H516.845ZM511.95 34.5V10.02H509.95V34.5H511.95ZM510.95 11.02H516.845V9.02H510.95V11.02ZM515.845 10.02V34.5H517.845V10.02H515.845ZM516.845 33.5H510.95V35.5H516.845V33.5ZM511.95 7.275V0.974998H509.95V7.275H511.95ZM510.95 1.975H516.845V-0.0250025H510.95V1.975ZM515.845 0.974998V7.275H517.845V0.974998H515.845ZM516.845 6.275H510.95V8.275H516.845V6.275ZM527.688 33.375L527.193 34.2441L527.199 34.2473L527.688 33.375ZM523.008 28.83L522.148 29.3406L522.154 29.3504L523.008 28.83ZM523.008 15.69L522.154 15.1696L522.148 15.1795L523.008 15.69ZM527.688 11.145L527.193 10.2759L527.688 11.145ZM540.783 11.145L541.278 10.2759L540.783 11.145ZM545.418 15.69L544.558 16.2005L544.563 16.2085L544.568 16.2164L545.418 15.69ZM545.418 28.83L546.272 29.3504V29.3504L545.418 28.83ZM540.738 33.375L541.233 34.2441L540.738 33.375ZM537.723 28.695L537.197 27.8441L537.186 27.8513L537.723 28.695ZM540.108 26.085L539.223 25.6192L539.218 25.6282L540.108 26.085ZM540.108 18.48L539.218 18.9368L539.226 18.9513L539.234 18.9656L540.108 18.48ZM537.723 15.87L537.168 16.702L537.183 16.7117L537.197 16.7208L537.723 15.87ZM530.703 15.87L531.228 16.7208L531.237 16.7153L531.246 16.7096L530.703 15.87ZM528.273 18.48L527.393 18.0045L527.389 18.0132L528.273 18.48ZM528.273 26.085L527.379 26.5322L527.386 26.5465L527.393 26.5605L528.273 26.085ZM530.703 28.695L531.228 27.8442L530.703 28.695ZM534.258 34.04C532.019 34.04 529.999 33.5241 528.177 32.5027L527.199 34.2473C529.337 35.4459 531.697 36.04 534.258 36.04V34.04ZM528.183 32.5059C526.38 31.48 524.944 30.0851 523.862 28.3096L522.154 29.3504C523.412 31.4149 525.096 33.05 527.193 34.2441L528.183 32.5059ZM523.868 28.3195C522.829 26.5694 522.298 24.5591 522.298 22.26H520.298C520.298 24.8809 520.907 27.2506 522.148 29.3405L523.868 28.3195ZM522.298 22.26C522.298 19.9609 522.829 17.9506 523.868 16.2005L522.148 15.1795C520.907 17.2694 520.298 19.6391 520.298 22.26H522.298ZM523.862 16.2104C524.944 14.4349 526.38 13.04 528.183 12.0141L527.193 10.2759C525.096 11.47 523.412 13.1051 522.154 15.1696L523.862 16.2104ZM528.183 12.0141C529.97 10.9969 531.987 10.48 534.258 10.48V8.48C531.669 8.48 529.306 9.07307 527.193 10.2759L528.183 12.0141ZM534.258 10.48C536.497 10.48 538.5 10.9958 540.288 12.0141L541.278 10.2759C539.166 9.07415 536.819 8.48 534.258 8.48V10.48ZM540.288 12.0141C542.088 13.0387 543.507 14.4305 544.558 16.2005L546.278 15.1795C545.049 13.1095 543.378 11.4713 541.278 10.2759L540.288 12.0141ZM544.568 16.2164C545.628 17.9298 546.173 19.933 546.173 22.26H548.173C548.173 19.607 547.548 17.2302 546.268 15.1636L544.568 16.2164ZM546.173 22.26C546.173 24.5543 545.63 26.561 544.564 28.3096L546.272 29.3504C547.546 27.259 548.173 24.8857 548.173 22.26H546.173ZM544.564 28.3096C543.482 30.0851 542.046 31.48 540.243 32.5059L541.233 34.2441C543.33 33.05 545.014 31.4149 546.272 29.3504L544.564 28.3096ZM540.243 32.5059C538.453 33.5252 536.465 34.04 534.258 34.04V36.04C536.791 36.04 539.123 35.4447 541.233 34.2441L540.243 32.5059ZM534.258 30.64C535.744 30.64 537.09 30.2831 538.26 29.5387L537.186 27.8513C536.376 28.3669 535.412 28.64 534.258 28.64V30.64ZM538.248 29.5458C539.43 28.8161 540.348 27.8069 540.998 26.5418L539.218 25.6282C538.728 26.5831 538.056 27.3139 537.197 27.8442L538.248 29.5458ZM540.993 26.5507C541.675 25.2539 542.008 23.8166 542.008 22.26H540.008C540.008 23.5234 539.74 24.6361 539.223 25.6193L540.993 26.5507ZM542.008 22.26C542.008 20.6784 541.677 19.2458 540.982 17.9944L539.234 18.9656C539.739 19.8741 540.008 20.9616 540.008 22.26H542.008ZM540.998 18.0232C540.348 16.7581 539.43 15.7489 538.248 15.0192L537.197 16.7208C538.056 17.2511 538.728 17.9819 539.218 18.9368L540.998 18.0232ZM538.278 15.0379C537.106 14.2566 535.753 13.88 534.258 13.88V15.88C535.403 15.88 536.36 16.1634 537.168 16.702L538.278 15.0379ZM534.258 13.88C532.737 13.88 531.359 14.2543 530.16 15.0304L531.246 16.7096C532.087 16.1657 533.079 15.88 534.258 15.88V13.88ZM530.177 15.0192C529.001 15.746 528.072 16.7489 527.393 18.0045L529.153 18.9555C529.674 17.9911 530.365 17.254 531.228 16.7208L530.177 15.0192ZM527.389 18.0132C526.73 19.2608 526.418 20.6864 526.418 22.26H528.418C528.418 20.9536 528.676 19.8592 529.157 18.9468L527.389 18.0132ZM526.418 22.26C526.418 23.8085 526.732 25.2391 527.379 26.5322L529.167 25.6378C528.674 24.6509 528.418 23.5315 528.418 22.26H526.418ZM527.393 26.5605C528.072 27.8161 529.001 28.819 530.177 29.5458L531.228 27.8442C530.365 27.311 529.674 26.5739 529.153 25.6095L527.393 26.5605ZM530.177 29.5458C531.375 30.2852 532.746 30.64 534.258 30.64V28.64C533.07 28.64 532.071 28.3648 531.228 27.8442L530.177 29.5458ZM551.643 34.5H550.643V35.5H551.643V34.5ZM551.643 10.02V9.02H550.643V10.02H551.643ZM557.178 10.02H558.178V9.02H557.178V10.02ZM557.178 14.835L556.294 15.3007L558.178 14.835H557.178ZM556.728 13.98L555.796 13.6185L555.631 14.0429L555.844 14.4457L556.728 13.98ZM559.518 10.65L560.021 11.5145L560.027 11.5109L559.518 10.65ZM568.878 10.65L568.386 11.5206L568.394 11.525L568.878 10.65ZM572.163 13.935L571.288 14.4191L571.293 14.4271L572.163 13.935ZM573.333 34.5V35.5H574.333V34.5H573.333ZM567.438 34.5H566.438V35.5H567.438V34.5ZM566.808 17.355L567.689 16.8809L566.808 17.355ZM565.053 15.555L564.523 16.403L564.544 16.4157L564.565 16.4275L565.053 15.555ZM559.923 15.555L560.412 16.4275L560.425 16.4202L560.438 16.4125L559.923 15.555ZM558.168 17.355L559.049 17.8291L558.168 17.355ZM557.538 34.5V35.5H558.538V34.5H557.538ZM552.643 34.5V10.02H550.643V34.5H552.643ZM551.643 11.02H557.178V9.02H551.643V11.02ZM556.178 10.02V14.835H558.178V10.02H556.178ZM558.063 14.3693L557.613 13.5143L555.844 14.4457L556.294 15.3007L558.063 14.3693ZM557.661 14.3415C558.154 13.0702 558.939 12.1437 560.021 11.5145L559.016 9.78549C557.518 10.6563 556.443 11.9498 555.796 13.6185L557.661 14.3415ZM560.027 11.5109C561.173 10.8337 562.523 10.48 564.108 10.48V8.48C562.214 8.48 560.504 8.90627 559.01 9.78907L560.027 11.5109ZM564.108 10.48C565.76 10.48 567.176 10.8364 568.386 11.5206L569.37 9.77944C567.821 8.90362 566.057 8.48 564.108 8.48V10.48ZM568.394 11.525C569.64 12.214 570.599 13.1735 571.288 14.4191L573.038 13.4509C572.167 11.8765 570.937 10.646 569.362 9.77497L568.394 11.525ZM571.293 14.4271C571.976 15.6351 572.333 17.0655 572.333 18.75H574.333C574.333 16.7745 573.911 14.9949 573.034 13.4429L571.293 14.4271ZM572.333 18.75V34.5H574.333V18.75H572.333ZM573.333 33.5H567.438V35.5H573.333V33.5ZM568.438 34.5V20.145H566.438V34.5H568.438ZM568.438 20.145C568.438 18.9354 568.203 17.8353 567.689 16.8809L565.928 17.8291C566.254 18.4347 566.438 19.1946 566.438 20.145H568.438ZM567.689 16.8809C567.182 15.939 566.463 15.1983 565.542 14.6825L564.565 16.4275C565.144 16.7517 565.595 17.211 565.928 17.8291L567.689 16.8809ZM565.583 14.707C564.68 14.1421 563.634 13.88 562.488 13.88V15.88C563.323 15.88 563.987 16.0679 564.523 16.403L565.583 14.707ZM562.488 13.88C561.365 13.88 560.329 14.1453 559.409 14.6975L560.438 16.4125C561.018 16.0647 561.691 15.88 562.488 15.88V13.88ZM559.435 14.6825C558.514 15.1983 557.795 15.939 557.288 16.8809L559.049 17.8291C559.382 17.211 559.833 16.7517 560.412 16.4275L559.435 14.6825ZM557.288 16.8809C556.774 17.8353 556.538 18.9354 556.538 20.145H558.538C558.538 19.1946 558.723 18.4347 559.049 17.8291L557.288 16.8809ZM556.538 20.145V34.5H558.538V20.145H556.538ZM557.538 33.5H551.643V35.5H557.538V33.5Z" fill="white" mask="url(#path-1-outside-1_3823_194)"/>
</g>
</svg>
