<svg width="453" height="536" viewBox="0 0 453 536" fill="none" xmlns="http://www.w3.org/2000/svg">
<g clip-path="url(#clip0_3968_174)">
<g opacity="0.4">
<path d="M287.863 110.535C287.863 110.535 241.432 351.136 83.2459 445.434L147.077 461.677C147.077 461.677 157.506 409.773 217.072 424.902C276.638 440.031 258.202 492.07 258.202 492.07L318.418 507.349C318.418 507.349 224.625 381 304.229 114.69L287.863 110.535Z" stroke="white" stroke-width="2.19582" stroke-linecap="round" stroke-linejoin="round"/>
<path d="M283.652 304.008L281.649 311.891L209.551 293.576L211.554 285.693L283.652 304.008Z" stroke="white" stroke-width="2.19582" stroke-linecap="round" stroke-linejoin="round"/>
<path d="M291.418 387.459L286.593 406.453L159.671 374.212L164.496 355.218L291.418 387.459Z" stroke="white" stroke-width="2.19582" stroke-linecap="round" stroke-linejoin="round"/>
<path d="M250.668 325.588L250.465 377.019L205.338 365.546L230.376 320.441L250.668 325.588Z" stroke="white" stroke-width="2.19582" stroke-linecap="round" stroke-linejoin="round"/>
<path d="M305.726 115.069L312.217 116.722L317.422 96.2131L285.472 88.1057L280.266 108.591L305.726 115.069Z" stroke="white" stroke-width="2.19582" stroke-linecap="round" stroke-linejoin="round"/>
<path d="M310.773 52.2242L310.516 94.4702L291.946 89.7515L310.773 52.2242Z" stroke="white" stroke-width="2.19582" stroke-linecap="round" stroke-linejoin="round"/>
<path d="M207.792 314.701L250.665 325.589L272.428 331.12L250.597 342.085L273.85 357.222L250.462 377.02L276.776 383.695L250.545 354.572L272.928 343.538L250.665 325.589" stroke="white" stroke-width="2.19582" stroke-linecap="round" stroke-linejoin="round"/>
<path d="M229.712 320.256L201.573 325.395L215.982 345.781L179.011 358.859L205.337 365.545L194.221 336.99L221.888 334.784L207.938 314.737L229.712 320.256ZM229.712 320.256L272.574 331.156L218.685 295.868" stroke="white" stroke-width="2.19582" stroke-linecap="round" stroke-linejoin="round"/>
<path d="M247.525 236.439L276.694 243.851L253.315 222.391L280.089 219.552L261.943 199.704" stroke="white" stroke-width="2.19582" stroke-linecap="round" stroke-linejoin="round"/>
<path d="M282.561 204.935L261.944 199.702L284.439 192.632L269.085 179.074L289.05 172.693" stroke="white" stroke-width="2.19582" stroke-linecap="round" stroke-linejoin="round"/>
<path d="M283.347 419.383L154.471 386.628" stroke="white" stroke-width="2.19582" stroke-linecap="round" stroke-linejoin="round"/>
<path d="M276.693 243.849L241.523 250.142L273.746 274.108L234.568 264.143L271.743 293.271L224.771 289.036" stroke="white" stroke-width="2.19582" stroke-linecap="round" stroke-linejoin="round"/>
<path d="M272.481 168.463L289.053 172.688L276.312 157.463L293.317 154.631L280.384 141.493" stroke="white" stroke-width="2.19582" stroke-linecap="round" stroke-linejoin="round"/>
<path d="M288.557 439.359L139.918 401.591" stroke="white" stroke-width="2.19582" stroke-linecap="round" stroke-linejoin="round"/>
<path d="M318.445 507.363L253.999 448.572L294.833 458.684L258.289 492.069" stroke="white" stroke-width="2.19582" stroke-linecap="round" stroke-linejoin="round"/>
<path d="M83.2591 445.444L172.294 427.811L124.743 415.467L147.148 461.671" stroke="white" stroke-width="2.19582" stroke-linecap="round" stroke-linejoin="round"/>
<path d="M304.252 114.689L285.864 119.918L299.159 132.95L280.382 141.499L295.665 145.388" stroke="white" stroke-width="2.19582" stroke-linecap="round" stroke-linejoin="round"/>
<path d="M276.779 243.882L247.61 236.469L278.401 228.761L257.297 214.227L281.646 204.709" stroke="white" stroke-width="2.19582" stroke-linecap="round" stroke-linejoin="round"/>
<path d="M261.942 199.703L281.644 204.708L265.922 188.433L286.481 182.846L272.476 168.469" stroke="white" stroke-width="2.19582" stroke-linecap="round" stroke-linejoin="round"/>
<path d="M247.608 236.469L274.673 258.106L235.759 264.439L273.745 274.109L226.681 281.523L271.655 300.948" stroke="white" stroke-width="2.19582" stroke-linecap="round" stroke-linejoin="round"/>
<path d="M287.304 172.24L272.478 168.466L291.576 161.474L277.766 150.868L295.664 145.384" stroke="white" stroke-width="2.19582" stroke-linecap="round" stroke-linejoin="round"/>
<path d="M287.848 110.526L300.515 124.925L283.521 129.108L295.664 145.389L280.38 141.5" stroke="white" stroke-width="2.19582" stroke-linecap="round" stroke-linejoin="round"/>
<path d="M272.241 309.48L207.938 314.737" stroke="white" stroke-width="2.19582" stroke-linecap="round" stroke-linejoin="round"/>
<path d="M281.568 103.508L313.521 111.625L312.211 116.783L280.258 108.666L281.568 103.508Z" stroke="white" stroke-width="2.19582" stroke-linecap="round" stroke-linejoin="round"/>
<path d="M285.479 88.176L317.433 96.293L316.122 101.451L284.169 93.334L285.479 88.176Z" stroke="white" stroke-width="2.19582" stroke-linecap="round" stroke-linejoin="round"/>
</g>
</g>
<defs>
<clipPath id="clip0_3968_174">
<rect width="345.329" height="460.725" fill="white" transform="matrix(-0.965926 -0.258819 -0.258819 0.965926 452.807 90.0117)"/>
</clipPath>
</defs>
</svg>
