<svg width="453" height="536" viewBox="0 0 453 536" fill="none" xmlns="http://www.w3.org/2000/svg">
<g opacity="0.2" clip-path="url(#clip0_3827_18)">
<g opacity="0.4">
<path d="M164.944 110.535C164.944 110.535 211.375 351.136 369.561 445.434L305.73 461.677C305.73 461.677 295.3 409.773 235.734 424.902C176.169 440.031 194.604 492.07 194.604 492.07L134.389 507.349C134.389 507.349 228.182 381 148.578 114.69L164.944 110.535Z" stroke="white" stroke-width="2.19582" stroke-linecap="round" stroke-linejoin="round"/>
<path d="M169.155 304.008L171.157 311.891L243.255 293.576L241.253 285.693L169.155 304.008Z" stroke="white" stroke-width="2.19582" stroke-linecap="round" stroke-linejoin="round"/>
<path d="M161.389 387.459L166.214 406.453L293.136 374.212L288.311 355.218L161.389 387.459Z" stroke="white" stroke-width="2.19582" stroke-linecap="round" stroke-linejoin="round"/>
<path d="M202.138 325.588L202.342 377.019L247.468 365.546L222.431 320.441L202.138 325.588Z" stroke="white" stroke-width="2.19582" stroke-linecap="round" stroke-linejoin="round"/>
<path d="M147.081 115.069L140.589 116.722L135.385 96.2131L167.335 88.1057L172.541 108.591L147.081 115.069Z" stroke="white" stroke-width="2.19582" stroke-linecap="round" stroke-linejoin="round"/>
<path d="M142.034 52.2242L142.29 94.4702L160.861 89.7515L142.034 52.2242Z" stroke="white" stroke-width="2.19582" stroke-linecap="round" stroke-linejoin="round"/>
<path d="M245.015 314.701L202.141 325.589L180.379 331.12L202.209 342.085L178.957 357.222L202.344 377.02L176.031 383.695L202.262 354.572L179.879 343.538L202.141 325.589" stroke="white" stroke-width="2.19582" stroke-linecap="round" stroke-linejoin="round"/>
<path d="M223.095 320.256L251.234 325.395L236.825 345.781L273.796 358.859L247.469 365.545L258.585 336.99L230.919 334.784L244.869 314.737L223.095 320.256ZM223.095 320.256L180.232 331.156L234.122 295.868" stroke="white" stroke-width="2.19582" stroke-linecap="round" stroke-linejoin="round"/>
<path d="M205.281 236.439L176.113 243.851L199.491 222.391L172.717 219.552L190.864 199.704" stroke="white" stroke-width="2.19582" stroke-linecap="round" stroke-linejoin="round"/>
<path d="M170.245 204.935L190.863 199.702L168.367 192.632L183.722 179.074L163.756 172.693" stroke="white" stroke-width="2.19582" stroke-linecap="round" stroke-linejoin="round"/>
<path d="M169.46 419.383L298.336 386.628" stroke="white" stroke-width="2.19582" stroke-linecap="round" stroke-linejoin="round"/>
<path d="M176.114 243.849L211.284 250.142L179.061 274.108L218.239 264.143L181.064 293.271L228.035 289.036" stroke="white" stroke-width="2.19582" stroke-linecap="round" stroke-linejoin="round"/>
<path d="M180.326 168.463L163.753 172.688L176.495 157.463L159.489 154.631L172.423 141.493" stroke="white" stroke-width="2.19582" stroke-linecap="round" stroke-linejoin="round"/>
<path d="M164.25 439.359L312.888 401.591" stroke="white" stroke-width="2.19582" stroke-linecap="round" stroke-linejoin="round"/>
<path d="M134.361 507.363L198.808 448.572L157.974 458.684L194.518 492.069" stroke="white" stroke-width="2.19582" stroke-linecap="round" stroke-linejoin="round"/>
<path d="M369.548 445.444L280.512 427.811L328.064 415.467L305.658 461.671" stroke="white" stroke-width="2.19582" stroke-linecap="round" stroke-linejoin="round"/>
<path d="M148.555 114.689L166.942 119.918L153.648 132.95L172.425 141.499L157.142 145.388" stroke="white" stroke-width="2.19582" stroke-linecap="round" stroke-linejoin="round"/>
<path d="M176.028 243.882L205.196 236.469L174.405 228.761L195.51 214.227L171.161 204.709" stroke="white" stroke-width="2.19582" stroke-linecap="round" stroke-linejoin="round"/>
<path d="M190.865 199.703L171.162 204.708L186.885 188.433L166.325 182.846L180.331 168.469" stroke="white" stroke-width="2.19582" stroke-linecap="round" stroke-linejoin="round"/>
<path d="M205.199 236.469L178.134 258.106L217.048 264.439L179.062 274.109L226.126 281.523L181.152 300.948" stroke="white" stroke-width="2.19582" stroke-linecap="round" stroke-linejoin="round"/>
<path d="M165.503 172.24L180.329 168.466L161.231 161.474L175.041 150.868L157.143 145.384" stroke="white" stroke-width="2.19582" stroke-linecap="round" stroke-linejoin="round"/>
<path d="M164.958 110.526L152.291 124.925L169.285 129.108L157.143 145.389L172.426 141.5" stroke="white" stroke-width="2.19582" stroke-linecap="round" stroke-linejoin="round"/>
<path d="M180.565 309.48L244.869 314.737" stroke="white" stroke-width="2.19582" stroke-linecap="round" stroke-linejoin="round"/>
<path d="M171.239 103.508L139.285 111.625L140.595 116.783L172.549 108.666L171.239 103.508Z" stroke="white" stroke-width="2.19582" stroke-linecap="round" stroke-linejoin="round"/>
<path d="M167.328 88.176L135.374 96.293L136.684 101.451L168.638 93.334L167.328 88.176Z" stroke="white" stroke-width="2.19582" stroke-linecap="round" stroke-linejoin="round"/>
</g>
</g>
<defs>
<clipPath id="clip0_3827_18">
<rect width="345.329" height="460.725" fill="white" transform="translate(0 90.0117) rotate(-15)"/>
</clipPath>
</defs>
</svg>
