<svg width="30" height="31" viewBox="0 0 30 31" fill="none" xmlns="http://www.w3.org/2000/svg">
<g clip-path="url(#clip0_3761_459)">
<path d="M29.5898 23.9781H27.041V10.8493C27.0411 10.7786 27.023 10.7091 26.9883 10.6475C26.9537 10.5859 26.9037 10.5344 26.8432 10.4978L15.2123 3.46159C15.1483 3.42283 15.0749 3.40234 15 3.40234C14.9251 3.40234 14.8517 3.42283 14.7877 3.46159L3.1568 10.4985C3.09633 10.5351 3.04634 10.5867 3.01168 10.6482C2.97703 10.7098 2.95887 10.7793 2.95898 10.85V23.9788H0.410157C0.356255 23.9788 0.302881 23.9894 0.253088 24.01C0.203295 24.0307 0.158059 24.0609 0.119966 24.0991C0.0818737 24.1372 0.0516716 24.1825 0.0310869 24.2323C0.0105022 24.2821 -6.13343e-05 24.3355 2.67882e-07 24.3894V26.2644C2.67882e-07 26.3732 0.043213 26.4775 0.120132 26.5544C0.197051 26.6313 0.301376 26.6746 0.410157 26.6746H29.5898C29.6986 26.6746 29.8029 26.6313 29.8799 26.5544C29.9568 26.4775 30 26.3732 30 26.2644V24.3894C30.0002 24.3354 29.9897 24.282 29.9691 24.2321C29.9486 24.1822 29.9184 24.1368 29.8803 24.0986C29.8422 24.0604 29.7969 24.0301 29.7471 24.0094C29.6972 23.9887 29.6438 23.9781 29.5898 23.9781ZM3.7793 19.8191H11.0156V21.6685H3.7793V19.8191ZM11.8359 15.5141C11.8365 15.0014 12.0404 14.5099 12.4029 14.1474C12.7654 13.785 13.2569 13.5811 13.7695 13.5805H14.5898V17.7674C14.5893 18.879 14.342 19.9766 13.8657 20.981C13.3895 21.9855 12.6962 22.8717 11.8359 23.5757V15.5141ZM26.2207 21.669H18.9844V19.8191H26.2207V21.669ZM18.1641 23.5757C17.3037 22.8717 16.6104 21.9855 16.1342 20.9811C15.658 19.9766 15.4107 18.879 15.4102 17.7674V13.5805H16.2305C16.7431 13.5811 17.2346 13.785 17.5971 14.1474C17.9596 14.5099 18.1635 15.0014 18.1641 15.5141V23.5757ZM12.7402 23.8754C13.7797 22.9138 14.5574 21.7034 15 20.3582C15.4601 21.7507 16.2761 22.9989 17.3672 23.979H12.6328C12.6696 23.9441 12.7031 23.9092 12.7402 23.8754ZM18.9844 22.4893H26.2207V23.9781H18.9844V22.4893ZM15 4.29175L26.2207 11.0807V18.9988H18.9844V15.5141C18.9835 14.784 18.6931 14.084 18.1768 13.5677C17.6605 13.0515 16.9606 12.7611 16.2305 12.7602H13.7695C13.0394 12.761 12.3394 13.0514 11.8231 13.5677C11.3068 14.084 11.0164 14.784 11.0156 15.5141V18.9988H3.7793V11.0807L15 4.29175ZM3.7793 22.4893H11.0156V23.9781H3.7793V22.4893ZM29.1797 25.8531H0.820313V24.7984H29.1797V25.8531Z" fill="white"/>
<path d="M7.39707 17.5583C7.78604 17.5583 8.1663 17.443 8.48974 17.227C8.81318 17.0109 9.06529 16.7038 9.21418 16.3444C9.36306 15.9851 9.40204 15.5896 9.32619 15.2081C9.25033 14.8266 9.06304 14.4762 8.78801 14.2011C8.51298 13.926 8.16256 13.7387 7.78106 13.6628C7.39957 13.5869 7.00413 13.6258 6.64476 13.7747C6.28539 13.9235 5.97823 14.1756 5.76212 14.499C5.54601 14.8224 5.43066 15.2027 5.43066 15.5916C5.43122 16.113 5.63857 16.6129 6.00721 16.9816C6.37586 17.3503 6.8757 17.5577 7.39707 17.5583ZM7.39707 14.4453C7.6238 14.4453 7.84546 14.5125 8.034 14.6384C8.22254 14.7643 8.36951 14.9433 8.45631 15.1528C8.54311 15.3623 8.56584 15.5928 8.52163 15.8151C8.47743 16.0375 8.36827 16.2418 8.20796 16.4021C8.04766 16.5625 7.8434 16.6717 7.62103 16.7159C7.39866 16.7602 7.16816 16.7375 6.95868 16.6507C6.7492 16.564 6.57015 16.417 6.44418 16.2285C6.31821 16.04 6.25098 15.8184 6.25098 15.5916C6.25153 15.2878 6.37245 14.9966 6.58726 14.7818C6.80207 14.5669 7.09326 14.4459 7.39707 14.4453Z" fill="white"/>
<path d="M14.9998 11.4723C15.3888 11.4723 15.7691 11.357 16.0925 11.1409C16.416 10.9247 16.668 10.6175 16.8169 10.2581C16.9657 9.89874 17.0046 9.50328 16.9286 9.12177C16.8527 8.74026 16.6653 8.38984 16.3902 8.11483C16.1151 7.83982 15.7646 7.65257 15.3831 7.57677C15.0015 7.50096 14.6061 7.54001 14.2468 7.68897C13.8874 7.83792 13.5803 8.0901 13.3643 8.41361C13.1483 8.73711 13.0331 9.11741 13.0332 9.50641C13.0339 10.0277 13.2414 10.5274 13.6101 10.896C13.9788 11.2645 14.4786 11.4718 14.9998 11.4723ZM14.9998 8.35938C15.2265 8.35938 15.4481 8.42659 15.6366 8.55252C15.8251 8.67845 15.9721 8.85744 16.0588 9.06686C16.1456 9.27628 16.1684 9.50674 16.1242 9.72908C16.08 9.95143 15.9709 10.1557 15.8107 10.316C15.6504 10.4764 15.4462 10.5856 15.2239 10.6299C15.0016 10.6742 14.7711 10.6516 14.5617 10.565C14.3522 10.4783 14.1731 10.3315 14.047 10.1431C13.921 9.95466 13.8537 9.7331 13.8535 9.50641C13.8539 9.20243 13.9748 8.911 14.1896 8.69599C14.4045 8.48098 14.6959 8.35993 14.9998 8.35938Z" fill="white"/>
<path d="M22.6021 17.5583C22.9911 17.5583 23.3714 17.443 23.6948 17.227C24.0183 17.0109 24.2704 16.7038 24.4193 16.3444C24.5681 15.9851 24.6071 15.5896 24.5313 15.2081C24.4554 14.8266 24.2681 14.4762 23.9931 14.2011C23.7181 13.926 23.3676 13.7387 22.9861 13.6628C22.6046 13.5869 22.2092 13.6258 21.8498 13.7747C21.4905 13.9235 21.1833 14.1756 20.9672 14.499C20.7511 14.8224 20.6357 15.2027 20.6357 15.5916C20.6363 16.113 20.8436 16.6129 21.2123 16.9816C21.5809 17.3503 22.0808 17.5577 22.6021 17.5583ZM22.6021 14.4453C22.8289 14.4453 23.0505 14.5125 23.2391 14.6384C23.4276 14.7643 23.5746 14.9433 23.6614 15.1528C23.7482 15.3623 23.7709 15.5928 23.7267 15.8151C23.6825 16.0375 23.5734 16.2418 23.413 16.4021C23.2527 16.5625 23.0485 16.6717 22.8261 16.7159C22.6037 16.7602 22.3732 16.7375 22.1638 16.6507C21.9543 16.564 21.7752 16.417 21.6493 16.2285C21.5233 16.04 21.4561 15.8184 21.4561 15.5916C21.4566 15.2878 21.5775 14.9966 21.7923 14.7818C22.0071 14.5669 22.2983 14.4459 22.6021 14.4453Z" fill="white"/>
</g>
<defs>
<clipPath id="clip0_3761_459">
<rect width="30" height="30" fill="white" transform="translate(0 0.0390625)"/>
</clipPath>
</defs>
</svg>
