<svg width="65" height="65" viewBox="0 0 65 65" fill="none" xmlns="http://www.w3.org/2000/svg">
<path d="M64.1113 12.5703H0.888672C0.771951 12.5702 0.656362 12.5932 0.548513 12.6378C0.440664 12.6825 0.342671 12.7479 0.260137 12.8304C0.177603 12.913 0.112147 13.011 0.0675103 13.1188C0.022874 13.2267 -6.66096e-05 13.3423 1.45269e-07 13.459V51.5419C-6.66096e-05 51.6586 0.022874 51.7742 0.0675103 51.882C0.112147 51.9899 0.177603 52.0879 0.260137 52.1704C0.342671 52.2529 0.440664 52.3184 0.548513 52.363C0.656362 52.4077 0.771951 52.4306 0.888672 52.4305H64.1113C64.2281 52.4306 64.3436 52.4077 64.4515 52.363C64.5593 52.3184 64.6573 52.2529 64.7399 52.1704C64.8224 52.0879 64.8879 51.9899 64.9325 51.882C64.9771 51.7742 65.0001 51.6586 65 51.5419V13.459C65.0001 13.3423 64.9771 13.2267 64.9325 13.1188C64.8879 13.011 64.8224 12.913 64.7399 12.8304C64.6573 12.7479 64.5593 12.6825 64.4515 12.6378C64.3436 12.5932 64.2281 12.5702 64.1113 12.5703ZM1.77734 14.3477H63.2227V45.1023H1.77734V14.3477ZM63.2227 50.6532H1.77734V46.8797H63.2227V50.6532Z" fill="white"/>
<path d="M24.8828 16.6328H4.95117C4.83445 16.6327 4.71886 16.6557 4.61101 16.7003C4.50316 16.745 4.40517 16.8104 4.32264 16.8929C4.2401 16.9755 4.17465 17.0735 4.13001 17.1813C4.08537 17.2892 4.06243 17.4048 4.0625 17.5215V41.9285C4.0625 42.1642 4.15613 42.3902 4.32279 42.5569C4.48944 42.7235 4.71548 42.8171 4.95117 42.8171H24.8828C25.1185 42.8171 25.3445 42.7235 25.5112 42.5569C25.6779 42.3902 25.7715 42.1642 25.7715 41.9285V17.5215C25.7716 17.4048 25.7486 17.2892 25.704 17.1813C25.6593 17.0735 25.5939 16.9755 25.5113 16.8929C25.4288 16.8104 25.3308 16.745 25.223 16.7003C25.1151 16.6557 24.9995 16.6327 24.8828 16.6328ZM23.9941 41.0398H5.83984V38.7252C5.84119 37.4798 6.33651 36.2858 7.21713 35.4052C8.09774 34.5246 9.29173 34.0293 10.5371 34.0279H19.2969C20.5423 34.0293 21.7362 34.5246 22.6169 35.4052C23.4975 36.2858 23.9928 37.4798 23.9941 38.7252V41.0398ZM19.2969 32.2506H10.5371C9.65701 32.2509 8.78627 32.4312 7.97846 32.7805C7.17065 33.1299 6.44286 33.6408 5.83984 34.2818V18.4102H23.9941V34.2823C23.3911 33.6412 22.6633 33.1303 21.8555 32.7809C21.0477 32.4315 20.177 32.251 19.2969 32.2506Z" fill="white"/>
<path d="M60.0492 17.9648H28.9492C28.8325 17.9648 28.7169 17.9877 28.6091 18.0324C28.5012 18.077 28.4032 18.1424 28.3207 18.225C28.2382 18.3075 28.1727 18.4055 28.1281 18.5134C28.0834 18.6212 28.0605 18.7368 28.0605 18.8535V23.2278C28.0605 23.3445 28.0834 23.4601 28.1281 23.568C28.1727 23.6758 28.2382 23.7738 28.3207 23.8563C28.4032 23.9389 28.5012 24.0043 28.6091 24.049C28.7169 24.0936 28.8325 24.1166 28.9492 24.1165H60.0492C60.1659 24.1166 60.2815 24.0936 60.3893 24.049C60.4972 24.0043 60.5952 23.9389 60.6777 23.8563C60.7603 23.7738 60.8257 23.6758 60.8703 23.568C60.915 23.4601 60.9379 23.3445 60.9379 23.2278V18.8535C60.9379 18.7368 60.915 18.6212 60.8703 18.5134C60.8257 18.4055 60.7603 18.3075 60.6777 18.225C60.5952 18.1424 60.4972 18.077 60.3893 18.0324C60.2815 17.9877 60.1659 17.9648 60.0492 17.9648ZM59.1605 22.3391H29.8379V19.7422H59.1605V22.3391Z" fill="white"/>
<path d="M60.0492 26.6484H28.9492C28.8325 26.6484 28.7169 26.6713 28.6091 26.7159C28.5012 26.7606 28.4032 26.826 28.3207 26.9086C28.2382 26.9911 28.1727 27.0891 28.1281 27.197C28.0834 27.3048 28.0605 27.4204 28.0605 27.5371V31.9109C28.0605 32.0276 28.0834 32.1432 28.1281 32.2511C28.1727 32.3589 28.2382 32.4569 28.3207 32.5394C28.4032 32.622 28.5012 32.6874 28.6091 32.7321C28.7169 32.7767 28.8325 32.7996 28.9492 32.7996H60.0492C60.1659 32.7996 60.2815 32.7767 60.3893 32.7321C60.4972 32.6874 60.5952 32.622 60.6777 32.5394C60.7603 32.4569 60.8257 32.3589 60.8703 32.2511C60.915 32.1432 60.9379 32.0276 60.9379 31.9109V27.5371C60.9379 27.4204 60.915 27.3048 60.8703 27.197C60.8257 27.0891 60.7603 26.9911 60.6777 26.9086C60.5952 26.826 60.4972 26.7606 60.3893 26.7159C60.2815 26.6713 60.1659 26.6484 60.0492 26.6484ZM59.1605 31.0222H29.8379V28.4258H59.1605V31.0222Z" fill="white"/>
<path d="M52.9707 35.332H28.9512C28.8345 35.332 28.7189 35.3549 28.611 35.3995C28.5032 35.4442 28.4052 35.5096 28.3226 35.5922C28.2401 35.6747 28.1746 35.7727 28.13 35.8805C28.0854 35.9884 28.0624 36.104 28.0625 36.2207V40.5955C28.0625 40.8312 28.1561 41.0572 28.3228 41.2239C28.4894 41.3906 28.7155 41.4842 28.9512 41.4842H52.9732C53.2089 41.4842 53.435 41.3906 53.6016 41.2239C53.7683 41.0572 53.8619 40.8312 53.8619 40.5955V36.2207C53.862 36.1038 53.839 35.988 53.7942 35.88C53.7494 35.7719 53.6837 35.6738 53.6009 35.5913C53.5181 35.5087 53.4198 35.4433 53.3116 35.3988C53.2035 35.3543 53.0876 35.3316 52.9707 35.332ZM52.082 39.7068H29.8398V37.1094H52.0846L52.082 39.7068Z" fill="white"/>
<path d="M14.9167 20.8203C13.6435 20.8919 12.4461 21.4481 11.5701 22.3747C10.6941 23.3013 10.2061 24.5281 10.2061 25.8032C10.2061 27.0784 10.6941 28.3051 11.5701 29.2317C12.4461 30.1584 13.6435 30.7145 14.9167 30.7861C16.1898 30.7145 17.3872 30.1584 18.2632 29.2317C19.1392 28.3051 19.6272 27.0784 19.6272 25.8032C19.6272 24.5281 19.1392 23.3013 18.2632 22.3747C17.3872 21.4481 16.1898 20.8919 14.9167 20.8203ZM14.9167 29.0088C14.1152 28.9381 13.3694 28.5698 12.826 27.9765C12.2827 27.3831 11.9813 26.6078 11.9813 25.8032C11.9813 24.9987 12.2827 24.2233 12.826 23.63C13.3694 23.0366 14.1152 22.6683 14.9167 22.5977C15.7181 22.6683 16.4639 23.0366 17.0073 23.63C17.5506 24.2233 17.852 24.9987 17.852 25.8032C17.852 26.6078 17.5506 27.3831 17.0073 27.9765C16.4639 28.5698 15.7181 28.9381 14.9167 29.0088Z" fill="white"/>
</svg>
