<svg class="svg-link-icon" width="15" height="15" viewBox="0 0 15 15" fill="none" xmlns="http://www.w3.org/2000/svg">
<path d="M7.99902 3.44922C9.96777 3.44922 11.5928 5.07422 11.5928 7.04297C11.5928 9.04297 9.96777 10.6367 7.99902 10.6367C5.99902 10.6367 4.40527 9.04297 4.40527 7.04297C4.40527 5.07422 5.99902 3.44922 7.99902 3.44922ZM7.99902 9.38672C9.28027 9.38672 10.3115 8.35547 10.3115 7.04297C10.3115 5.76172 9.28027 4.73047 7.99902 4.73047C6.68652 4.73047 5.65527 5.76172 5.65527 7.04297C5.65527 8.35547 6.71777 9.38672 7.99902 9.38672ZM12.5615 3.32422C12.5615 2.85547 12.1865 2.48047 11.7178 2.48047C11.249 2.48047 10.874 2.85547 10.874 3.32422C10.874 3.79297 11.249 4.16797 11.7178 4.16797C12.1865 4.16797 12.5615 3.79297 12.5615 3.32422ZM14.9365 4.16797C14.999 5.32422 14.999 8.79297 14.9365 9.94922C14.874 11.0742 14.624 12.043 13.8115 12.8867C12.999 13.6992 11.999 13.9492 10.874 14.0117C9.71777 14.0742 6.24902 14.0742 5.09277 14.0117C3.96777 13.9492 2.99902 13.6992 2.15527 12.8867C1.34277 12.043 1.09277 11.0742 1.03027 9.94922C0.967773 8.79297 0.967773 5.32422 1.03027 4.16797C1.09277 3.04297 1.34277 2.04297 2.15527 1.23047C2.99902 0.417969 3.96777 0.167969 5.09277 0.105469C6.24902 0.0429688 9.71777 0.0429688 10.874 0.105469C11.999 0.167969 12.999 0.417969 13.8115 1.23047C14.624 2.04297 14.874 3.04297 14.9365 4.16797ZM13.4365 11.168C13.8115 10.2617 13.7178 8.07422 13.7178 7.04297C13.7178 6.04297 13.8115 3.85547 13.4365 2.91797C13.1865 2.32422 12.7178 1.82422 12.124 1.60547C11.1865 1.23047 8.99902 1.32422 7.99902 1.32422C6.96777 1.32422 4.78027 1.23047 3.87402 1.60547C3.24902 1.85547 2.78027 2.32422 2.53027 2.91797C2.15527 3.85547 2.24902 6.04297 2.24902 7.04297C2.24902 8.07422 2.15527 10.2617 2.53027 11.168C2.78027 11.793 3.24902 12.2617 3.87402 12.5117C4.78027 12.8867 6.96777 12.793 7.99902 12.793C8.99902 12.793 11.1865 12.8867 12.124 12.5117C12.7178 12.2617 13.2178 11.793 13.4365 11.168Z" fill="#034833"/>
</svg>
