<svg width="1802" height="901" viewBox="0 0 1802 901" fill="none" xmlns="http://www.w3.org/2000/svg">
<g opacity="0.1">
<g clip-path="url(#clip0_3809_91)">
<path d="M199.362 950.94C197.23 950.021 195.098 949.102 192.966 948.183C195.346 949.594 197.713 951.069 200.097 952.456C202.638 953.747 205.152 955.08 207.711 956.344C204.927 954.547 202.138 952.764 199.362 950.94ZM862.169 506.827C863.12 502.232 864.007 497.444 864.926 492.798C865.307 487.505 865.592 481.959 865.909 476.495C865.16 481.945 864.453 487.523 863.658 492.84C863.157 497.481 862.693 502.236 862.169 506.827ZM858.851 522.404C859.191 520.878 859.559 519.435 859.89 517.896C860.106 516.127 860.276 514.22 860.478 512.414C859.94 515.736 859.403 519.1 858.851 522.404ZM168.061 934.338C165.516 933.346 163.007 932.294 160.466 931.278C163.457 932.96 166.476 934.577 169.481 936.232C171.448 937.151 173.428 938.07 175.399 938.989C172.941 937.458 170.51 935.873 168.061 934.338ZM183.036 939.999C179.82 938.796 176.603 937.592 173.414 936.365C177.343 938.795 181.295 941.171 185.242 943.551C188.036 944.815 190.843 946.019 193.655 947.227C190.099 944.856 186.579 942.398 183.036 939.995V939.999ZM858.01 540.499C859.504 535.444 860.891 530.109 862.339 524.926C863.033 516.876 863.814 509.06 864.448 500.849C863.295 506.597 862.178 512.456 860.969 518.048C860.046 525.703 859.003 533.018 858.01 540.494V540.499ZM852.634 557.583C853.769 553.944 854.932 550.415 856.053 546.725C856.885 540.641 857.744 534.635 858.562 528.501C857.785 531.966 856.977 535.334 856.195 538.766C855.065 545.195 853.82 551.301 852.634 557.578V557.583ZM848.816 569.704C849.11 568.785 849.395 567.866 849.684 566.947L850.052 565.109C849.652 566.662 849.216 568.119 848.816 569.7V569.704ZM120.995 913.096L119.699 912.609C120.65 913.041 121.588 913.482 122.539 913.909C122.029 913.633 121.505 913.372 120.995 913.096ZM135.965 918.435C133.59 917.608 131.205 916.795 128.848 915.949C131.605 917.401 134.362 918.881 137.146 920.315C139.857 921.482 142.541 922.69 145.266 923.839C142.164 922.033 139.049 920.268 135.965 918.435ZM151.129 923.618C147.958 922.58 144.815 921.509 141.668 920.434C145.413 922.63 149.167 924.822 152.935 926.977C156.209 928.328 159.493 929.671 162.786 931.007C158.908 928.544 154.998 926.127 151.138 923.618H151.129ZM166.21 928.461C162.616 927.325 159.034 926.175 155.462 925.011C159.832 927.823 164.234 930.589 168.631 933.341C172.077 934.692 175.546 935.974 179.016 937.265C174.752 934.338 170.474 931.439 166.219 928.461H166.21ZM854.031 569.36C855.943 564.645 857.804 559.77 859.674 554.927C860.464 547.115 861.121 538.955 861.801 530.854C860.262 536.262 858.709 541.643 857.119 546.913C856.126 554.467 855.125 562.054 854.04 569.36H854.031ZM847.097 585.764C848.862 581.587 850.654 577.493 852.4 573.224C853.392 566.731 854.265 559.899 855.157 553.126C853.705 557.854 852.225 562.49 850.746 567.136C849.556 573.394 848.375 579.703 847.107 585.764H847.097ZM840.072 602.379C841.753 598.588 843.362 594.568 845.02 590.676C845.999 586.104 846.891 581.27 847.777 576.496C846.399 580.631 845.048 584.767 843.665 588.852C842.484 593.345 841.34 597.986 840.081 602.379H840.072ZM834.976 613.343C835.743 611.679 836.529 610.089 837.273 608.412C837.912 606.198 838.523 603.896 839.111 601.612C837.774 605.531 836.396 609.474 834.985 613.343H834.976ZM89.8227 899.637C89.2345 899.453 88.6418 899.279 88.0536 899.09C89.2391 899.573 90.4384 900.046 91.6239 900.529L89.8227 899.637ZM105.023 904.365C102.197 903.511 99.4078 902.615 96.5956 901.746C99.8811 903.332 103.194 904.885 106.502 906.447C108.864 907.366 111.258 908.239 113.634 909.135C110.739 907.568 107.895 905.955 105.023 904.365ZM119.786 908.607C116.478 907.688 113.17 906.741 109.889 905.776C113.782 907.92 117.69 910.042 121.611 912.14C124.809 913.316 128.025 914.471 131.26 915.605C127.405 913.303 123.605 910.95 119.786 908.607ZM134.605 912.659C131.018 911.722 127.442 910.762 123.876 909.778C128.103 912.356 132.322 914.943 136.577 917.47C140.285 918.761 143.974 920.085 147.701 921.339C143.317 918.481 138.961 915.573 134.605 912.659ZM149.424 916.501C145.596 915.549 141.815 914.529 138.01 913.546C142.568 916.574 147.113 919.653 151.703 922.626C155.526 923.889 159.372 925.112 163.218 926.302C158.605 923.082 154.007 919.815 149.424 916.501ZM849.445 597.61C851.743 593.474 853.999 589.279 856.255 585.024C857.284 576.321 858.383 567.797 859.329 558.874C857.399 563.809 855.442 568.661 853.475 573.472C852.198 581.72 850.792 589.591 849.445 597.623V597.61ZM841.174 612.245C843.403 608.339 845.632 604.433 847.837 600.445C849.151 592.789 850.525 585.281 851.775 577.47C849.896 582.01 847.993 586.471 846.086 590.924C844.506 598.23 842.806 605.15 841.174 612.258V612.245ZM832.784 626.788C834.957 623.139 837.099 619.381 839.249 615.645C840.729 609.327 842.222 603.05 843.674 596.649C841.905 600.711 840.131 604.759 838.335 608.739C836.533 614.905 834.627 620.764 832.784 626.801V626.788ZM824.972 639.447C826.81 636.465 828.648 633.533 830.486 630.5C831.989 625.643 833.487 620.755 834.985 615.875C833.652 618.765 832.306 621.604 830.964 624.453C829.021 629.6 826.971 634.434 824.982 639.461L824.972 639.447ZM818.415 650.08C819.495 648.384 820.543 646.601 821.632 644.892C822.216 643.449 822.79 641.974 823.373 640.54C821.747 643.83 820.06 646.872 818.425 650.093L818.415 650.08ZM58.563 887.745L55.9761 887.075C57.7543 887.704 59.5142 888.357 61.3063 888.977C60.3827 888.572 59.482 888.154 58.563 887.745ZM73.5794 891.518C70.8224 890.861 68.0655 890.204 65.3682 889.519C68.5387 890.897 71.7368 892.276 74.9349 893.618C77.7241 894.537 80.4903 895.502 83.2978 896.416C80.0446 894.796 76.8051 893.163 73.5794 891.518ZM88.5223 895.061C85.0117 894.261 81.5425 893.42 78.0595 892.588C82.1123 894.642 86.2294 896.637 90.3235 898.649C93.6411 899.697 96.977 900.722 100.313 901.751C96.3674 899.539 92.4372 897.309 88.5223 895.061ZM103.189 898.277C99.4736 897.484 95.767 896.676 92.0696 895.855C96.5451 898.41 101.067 900.91 105.583 903.41C109.117 904.462 112.692 905.468 116.267 906.479C111.889 903.756 107.53 901.016 103.189 898.259V898.277ZM117.76 901.222C113.946 900.487 110.132 899.757 106.365 898.971C111.002 901.893 115.668 904.787 120.361 907.651C124.156 908.712 127.956 909.778 131.779 910.803C127.083 907.629 122.41 904.43 117.76 901.204V901.222ZM132.303 903.979C128.361 903.266 124.438 902.529 120.535 901.769C125.397 905.105 130.281 908.414 135.189 911.694C139.099 912.724 143 913.762 146.943 914.755C142.035 911.184 137.174 907.568 132.303 903.956V903.979ZM844.901 624.146C847.552 620.603 850.213 617.101 852.846 613.476C853.958 605.292 854.895 596.635 855.888 588.116C853.59 592.431 851.233 596.585 848.903 600.799C847.594 608.638 846.316 616.573 844.901 624.127V624.146ZM835.55 636.423C838.194 633.002 840.83 629.542 843.458 626.043C844.837 618.825 846.036 611.16 847.299 603.638C844.974 607.81 842.642 611.946 840.301 616.045C838.739 622.868 837.204 629.811 835.55 636.405V636.423ZM826.144 648.412C828.736 645.171 831.32 641.897 833.896 638.592C835.463 632.417 836.901 625.869 838.376 619.427C836.106 623.328 833.809 627.132 831.516 630.951C829.747 636.809 828.014 642.751 826.144 648.393V648.412ZM816.904 659.665C819.339 656.719 821.779 653.783 824.201 650.783C825.928 645.567 827.569 640.09 829.227 634.659C827.034 638.264 824.833 641.836 822.624 645.374C820.731 650.167 818.857 655.024 816.904 659.646V659.665ZM807.778 670.693C809.988 668.115 812.166 665.418 814.363 662.785C816.021 658.897 817.648 654.881 819.266 650.838C817.303 653.921 815.323 656.921 813.343 659.94C811.495 663.506 809.667 667.173 807.797 670.651L807.778 670.693ZM800.854 678.504C802.03 677.162 803.211 675.871 804.382 674.52C805.591 672.319 806.809 670.141 807.999 667.885C805.618 671.4 803.257 675.003 800.854 678.472V678.504ZM28.227 877.949C26.9588 877.71 25.7228 877.453 24.4592 877.209C26.9956 877.953 29.5458 878.692 32.1098 879.424C30.8186 878.932 29.509 878.445 28.227 877.949ZM42.7609 880.577C39.8983 880.067 37.0264 879.562 34.1913 879.033C37.4078 880.265 40.6243 881.515 43.8867 882.709C46.8183 883.515 49.7652 884.305 52.7274 885.08C49.3961 883.61 46.0555 882.112 42.7609 880.577ZM57.3132 883.045C53.9221 882.503 50.531 881.956 47.2043 881.377C51.1284 883.169 55.0525 884.97 59.018 886.73C62.5377 887.649 66.0529 888.568 69.6094 889.432C65.4923 887.327 61.3706 885.214 57.3132 883.058V883.045ZM71.8379 885.342C68.1344 884.791 64.486 884.207 60.81 883.624C65.1967 885.936 69.6094 888.234 74.0481 890.516C77.8114 891.435 81.5701 892.354 85.3655 893.227C80.8717 890.608 76.3042 888.012 71.8379 885.351V885.342ZM86.3397 887.47C82.4661 886.932 78.6247 886.367 74.7925 885.802C79.4977 888.591 84.2535 891.316 89.0139 894.073C92.8324 894.937 96.6921 895.764 100.552 896.586C95.8007 893.544 91.0403 890.53 86.3397 887.47ZM100.662 889.308C96.7335 888.848 92.8048 888.352 88.9266 887.828C93.8203 891.017 98.7783 894.151 103.722 897.285C107.637 898.112 111.575 898.902 115.532 899.683C110.56 896.2 105.588 892.781 100.662 889.308ZM114.948 890.976C110.946 890.516 106.953 890.084 103.001 889.597C108.056 893.177 113.193 896.696 118.312 900.221C122.318 901.002 126.325 901.792 130.369 902.518C125.21 898.686 120.07 894.831 114.948 890.953V890.976ZM839.575 650.282C842.571 647.401 845.59 644.625 848.577 641.68C849.914 633.046 851.334 624.633 852.579 615.737C849.909 619.413 847.198 622.877 844.51 626.461C842.939 634.599 841.22 642.328 839.571 650.259L839.575 650.282ZM829.135 660.211C832.15 657.395 835.155 654.514 838.155 651.633C839.777 643.918 841.455 636.364 843.003 628.437C840.32 631.998 837.636 635.55 834.93 639.006C833.069 646.257 831.061 653.126 829.131 660.189L829.135 660.211ZM818.687 669.774C821.655 667.09 824.623 664.439 827.578 661.691C829.416 654.95 831.327 648.288 833.138 641.39C830.505 644.749 827.849 647.993 825.198 651.283C823.07 657.56 820.855 663.589 818.682 669.751L818.687 669.774ZM808.256 679.074C811.172 676.507 814.082 673.903 816.986 671.262C819.05 665.45 821.122 659.674 823.153 653.742C820.555 656.943 817.951 660.115 815.341 663.258C812.993 668.63 810.599 673.803 808.256 679.074ZM797.871 688.112C800.665 685.726 803.454 683.313 806.239 680.875C808.398 676.119 810.553 671.354 812.672 666.52C810.232 669.42 807.773 672.241 805.32 675.081C802.834 679.478 800.334 683.77 797.848 688.112H797.871ZM788.029 696.337C790.501 694.279 792.978 692.234 795.441 690.143C797.554 686.495 799.657 682.819 801.75 679.115C799.648 681.52 797.542 683.9 795.431 686.256C792.955 689.67 790.469 692.974 788.006 696.319L788.029 696.337ZM779.62 703.363C781.261 702.035 782.883 700.606 784.518 699.269C785.607 697.803 786.692 696.3 787.781 694.83C785.056 697.762 782.313 700.5 779.597 703.363H779.62ZM12.572 871.746C9.50252 871.438 6.49281 871.107 3.46013 870.785C6.89104 871.87 10.348 872.942 13.831 874.002C16.6845 874.581 19.5839 875.141 22.4603 875.702C19.1382 874.406 15.862 873.074 12.572 871.746ZM26.8164 873.064C23.315 872.752 19.8182 872.43 16.3582 872.099C20.411 873.717 24.4729 875.316 28.5854 876.924C31.9673 877.568 35.409 878.183 38.8506 878.794C34.8208 876.901 30.8324 874.985 26.8348 873.064H26.8164ZM41.0608 874.241C37.3527 873.956 33.6399 873.676 29.9961 873.359C34.3613 875.44 38.7266 877.526 43.1607 879.571C46.8734 880.227 50.6091 880.867 54.3678 881.492C49.9015 879.102 45.4903 876.671 41.07 874.241H41.0608ZM55.2639 875.284C51.4041 875.02 47.5749 874.745 43.7764 874.457C48.4173 876.998 53.0537 879.543 57.7543 882.038C61.6509 882.677 65.5658 883.32 69.4899 883.922C64.7111 881.069 59.9875 878.179 55.2731 875.284H55.2639ZM69.4348 876.203C65.4785 875.968 61.5728 875.706 57.6624 875.449C62.5193 878.427 67.367 881.423 72.2882 884.34C76.2445 884.933 80.2375 885.508 84.2352 886.068C79.2818 882.8 74.3514 879.508 69.444 876.194L69.4348 876.203ZM83.4954 876.929C79.5161 876.736 75.5507 876.534 71.6266 876.313C76.681 879.704 81.7125 883.1 86.8175 886.422C90.783 886.969 94.8036 887.461 98.8242 887.957C93.6932 884.305 88.5866 880.62 83.5046 876.901L83.4954 876.929ZM97.4871 877.508C93.494 877.365 89.5056 877.214 85.5677 877.048C90.7371 880.812 95.9248 884.575 101.154 888.283C105.188 888.779 109.239 889.257 113.308 889.717C108.017 885.658 102.747 881.585 97.4963 877.499L97.4871 877.508ZM834.388 675.03C837.724 672.825 841.06 670.697 844.391 668.45C845.797 660.418 847.005 651.839 848.287 643.467C845.259 646.431 842.208 649.225 839.171 652.134C837.604 659.803 836.088 667.655 834.397 675.021L834.388 675.03ZM822.992 682.525C826.333 680.37 829.669 678.146 833.005 675.94C834.677 668.712 836.184 661.02 837.751 653.484C834.695 656.411 831.64 659.361 828.561 662.215C826.737 669.025 824.94 675.977 823.001 682.534L822.992 682.525ZM811.61 689.725C814.905 687.648 818.204 685.626 821.499 683.508C823.41 677.116 825.175 670.353 827.013 663.699C823.994 666.488 820.957 669.144 817.928 671.878C815.847 677.865 813.77 683.958 811.62 689.716L811.61 689.725ZM800.192 696.843C803.463 694.835 806.73 692.781 810.002 690.727C812.134 685.121 814.165 679.239 816.219 673.399C813.196 676.119 810.172 678.849 807.135 681.505C804.847 686.669 802.563 691.88 800.201 696.833L800.192 696.843ZM788.842 703.735C792.022 701.833 795.202 699.935 798.377 697.987C800.674 693.226 802.889 688.264 805.118 683.32C802.181 685.874 799.231 688.342 796.286 690.846C793.828 695.161 791.369 699.535 788.851 703.712L788.842 703.735ZM777.699 710.32C780.72 708.549 783.739 706.766 786.756 704.971C789.15 701.033 791.507 696.958 793.86 692.873C791.016 695.271 788.167 697.665 785.313 700.013C782.795 703.469 780.273 706.961 777.709 710.297L777.699 710.32ZM766.989 716.537C769.672 715.002 772.355 713.421 775.039 711.859C777.309 708.927 779.566 705.945 781.812 702.913C779.271 704.985 776.721 706.993 774.17 709.029C771.781 711.565 769.396 714.124 766.989 716.537ZM758.525 721.265C760.11 720.378 761.695 719.505 763.28 718.609C764.916 716.978 766.566 715.393 768.197 713.702C764.976 716.243 761.755 718.834 758.525 721.279V721.265ZM24.5878 865.009C20.7326 865.065 16.882 865.111 13.1004 865.138C17.7597 867.451 22.4573 869.748 27.1932 872.031C31.0116 872.371 34.876 872.688 38.7587 872.995C34.0029 870.344 29.2839 867.679 24.5878 865.009ZM38.4784 864.78C34.5451 864.858 30.6348 864.931 26.7704 864.986C31.6319 867.743 36.5332 870.479 41.4743 873.193C45.3939 873.501 49.3272 873.795 53.3018 874.075C48.3025 871.001 43.3859 867.891 38.4784 864.78ZM52.3461 864.467C48.353 864.573 44.4151 864.66 40.4818 864.738C45.5179 867.924 50.5846 871.089 55.682 874.232C59.6704 874.503 63.6497 874.778 67.6841 875.017C62.5285 871.53 57.4373 868.001 52.3461 864.467ZM66.1815 864.072C62.1609 864.201 58.1955 864.306 54.2346 864.417C59.4238 868.007 64.6422 871.58 69.8897 875.137C73.8551 875.367 77.8757 875.564 81.9009 875.757C76.6121 871.893 71.3968 867.982 66.1677 864.072H66.1815ZM79.9664 863.562C75.9458 863.727 71.939 863.879 67.9873 864.021C73.2899 867.985 78.6216 871.937 83.9824 875.877C87.9709 876.06 92.0007 876.221 96.0443 876.373C90.6268 872.132 85.292 867.845 79.9527 863.576L79.9664 863.562ZM828.336 699.287C832.012 697.766 835.665 696.268 839.332 694.724C840.949 686.509 842.613 678.421 844.129 669.911C840.765 672.172 837.397 674.332 834.02 676.556C832.196 684.372 830.229 691.724 828.322 699.287H828.336ZM816.04 704.392C819.716 702.903 823.369 701.35 827.036 699.829C828.92 692.427 830.836 685.125 832.637 677.484C829.255 679.717 825.878 681.978 822.491 684.156C820.387 691.076 818.186 697.697 816.026 704.392H816.04ZM803.771 709.3C807.406 707.843 811.036 706.428 814.68 704.948C816.803 698.391 818.944 691.898 820.998 685.139C817.648 687.285 814.298 689.311 810.949 691.416C808.587 697.518 806.156 703.363 803.758 709.3H803.771ZM791.466 714.202C795.082 712.778 798.712 711.317 802.333 709.869C804.686 704.094 807.047 698.382 809.34 692.408C805.986 694.508 802.636 696.627 799.277 698.685C796.695 703.969 794.062 709.051 791.452 714.202H791.466ZM779.225 718.944C782.786 717.566 786.343 716.22 789.908 714.809C792.44 709.846 794.963 704.907 797.462 699.811C794.177 701.814 790.887 703.744 787.597 705.706C784.822 710.209 782.005 714.552 779.211 718.944H779.225ZM767.044 723.604C770.527 722.283 774.013 720.951 777.502 719.606C780.176 715.42 782.86 711.239 785.506 706.956C782.29 708.881 779.041 710.802 775.806 712.686C772.875 716.371 769.952 719.974 767.03 723.604H767.044ZM755.055 728.107C758.373 726.882 761.692 725.639 765.013 724.38C767.73 721.035 770.436 717.665 773.132 714.271C770.076 716.04 767.021 717.759 763.97 719.496C760.987 722.377 758.015 725.24 755.042 728.107H755.055ZM743.678 732.284C746.628 731.204 749.574 730.129 752.528 729.035C755.111 726.563 757.687 724.071 760.257 721.559C757.561 723.091 754.864 724.598 752.165 726.08C749.326 728.171 746.495 730.216 743.664 732.284H743.678ZM734.447 735.67C736.285 735.004 738.146 734.292 739.988 733.635C741.459 732.573 742.92 731.484 744.386 730.418C741.059 732.219 737.746 733.906 734.433 735.67H734.447ZM21.4816 853.848C17.5345 854.308 13.5966 854.74 9.72767 855.167C14.7393 858.108 19.7937 861.027 24.8911 863.925C28.8274 863.87 32.799 863.806 36.8059 863.732C31.6625 860.457 26.5545 857.163 21.4816 853.848ZM35.0506 852.3L23.1955 853.678C28.3603 857.048 33.5679 860.393 38.8185 863.714C42.8023 863.636 46.7907 863.557 50.8389 863.452C45.5394 859.742 40.2766 856.025 35.0506 852.3ZM48.6149 850.733L36.668 852.111C41.9706 855.888 47.3176 859.644 52.7091 863.378C56.7067 863.273 60.7181 863.158 64.7709 863.034C59.3519 858.95 53.9665 854.85 48.6149 850.733ZM62.1609 849.138L50.214 850.549C55.6422 854.712 61.1087 858.848 66.6134 862.956C70.5927 862.827 74.6317 862.671 78.6798 862.496C73.1261 858.079 67.6197 853.626 62.1609 849.138ZM822.363 722.51L834.25 720.001C835.945 712.254 837.494 704.08 839.074 696.006C835.398 697.555 831.69 699.067 827.996 700.601C826.144 707.972 824.338 715.434 822.363 722.51ZM809.23 725.267C813.163 724.445 817.129 723.604 821.085 722.772C823.033 715.783 824.848 708.417 826.696 701.134C822.997 702.669 819.289 704.236 815.599 705.729C813.494 712.314 811.417 718.963 809.23 725.267ZM796.111 727.987C800.045 727.169 803.964 726.365 807.907 725.538C810.085 719.312 812.153 712.764 814.243 706.281C810.567 707.779 806.891 709.212 803.215 710.683C800.854 716.509 798.528 722.4 796.111 727.992V727.987ZM783.007 730.708C786.903 729.903 790.818 729.081 794.738 728.272C797.132 722.758 799.443 716.987 801.763 711.271C798.087 712.741 794.411 714.235 790.735 715.673C788.162 720.727 785.621 725.841 783.007 730.712V730.708ZM769.952 733.373C773.821 732.582 777.667 731.806 781.55 731.006C784.128 726.232 786.641 721.242 789.159 716.302C785.515 717.727 781.881 719.091 778.242 720.493C775.489 724.808 772.751 729.2 769.952 733.377V733.373ZM756.953 736.024L768.367 733.699C771.124 729.614 773.812 725.368 776.519 721.132C772.902 722.51 769.291 723.889 765.688 725.267C762.766 728.897 759.889 732.546 756.953 736.029V736.024ZM744.087 738.62L755.17 736.387C758.019 733.023 760.836 729.536 763.657 726.048C760.137 727.376 756.631 728.663 753.121 729.963C750.116 732.886 747.115 735.836 744.087 738.625V738.62ZM731.497 741.143L741.974 739.043C744.859 736.382 747.726 733.644 750.594 730.891C747.224 732.132 743.854 733.367 740.485 734.595C737.493 736.805 734.502 739.024 731.52 741.147L731.497 741.143ZM719.522 743.532C722.596 742.926 725.689 742.301 728.768 741.694C731.451 739.81 734.131 737.896 736.809 735.95C733.794 737.039 730.789 738.105 727.784 739.167C725.032 740.642 722.275 742.121 719.522 743.537V743.532ZM710.098 745.37L715.552 744.295C717.317 743.376 719.081 742.512 720.846 741.593C717.276 742.88 713.673 744.157 710.098 745.393V745.37ZM17.5713 839.682C13.6104 840.509 9.67253 841.336 5.79437 842.159C11.0602 845.697 16.4134 849.212 21.7803 852.727L33.7272 851.349C28.3143 847.493 22.9061 843.592 17.5713 839.682ZM30.8554 836.925C26.8731 837.743 22.9275 838.559 19.0187 839.374C24.4132 843.326 29.8904 847.25 35.3814 851.169C39.3653 850.71 43.3399 850.25 47.3881 849.791C41.8419 845.513 36.3004 841.235 30.8554 836.925ZM44.1532 834.214C40.1418 835.023 36.2085 835.831 32.2706 836.64C37.7846 840.973 43.3675 845.292 48.9687 849.598L61.003 848.183C55.3558 843.542 49.7131 838.892 44.1532 834.219V834.214ZM815.681 744.984L828.446 744.525C830.321 736.837 832.2 729.154 833.96 721.173L822.013 723.696C819.969 730.979 817.814 737.954 815.681 744.989V744.984ZM801.75 745.522C805.968 745.347 810.223 745.191 814.464 745.026C816.582 738.087 818.705 731.153 820.731 723.953C816.747 724.794 812.75 725.639 808.784 726.466C806.496 732.991 804.12 739.227 801.75 745.526V745.522ZM787.836 746.115C792.059 745.935 796.268 745.747 800.509 745.572C802.852 739.369 805.196 733.166 807.466 726.733C803.482 727.565 799.526 728.378 795.555 729.2C793.024 734.99 790.423 740.532 787.836 746.119V746.115ZM773.977 746.707C778.145 746.519 782.372 746.353 786.563 746.17C789.118 740.656 791.682 735.183 794.177 729.494C790.221 730.317 786.241 731.149 782.299 731.957C779.56 736.998 776.762 741.832 773.977 746.712V746.707ZM760.147 747.378C764.319 747.176 768.459 746.965 772.654 746.772C775.411 741.979 778.141 737.205 780.838 732.261C776.891 733.074 772.98 733.864 769.047 734.664C766.106 739.001 763.12 743.188 760.147 747.383V747.378ZM746.398 748.049C750.493 747.842 754.623 747.649 758.736 747.447C761.654 743.312 764.576 739.227 767.466 734.99C763.567 735.787 759.669 736.58 755.772 737.37C752.657 741.005 749.528 744.511 746.398 748.054V748.049ZM732.738 748.766C736.777 748.55 740.806 748.306 744.868 748.122C747.915 744.685 750.961 741.262 753.985 737.738L742.497 740.035C739.249 743.004 735.991 745.876 732.738 748.77V748.766ZM719.247 749.501C723.149 749.28 727.064 749.068 730.992 748.862C734.125 746.105 737.259 743.307 740.379 740.467C736.648 741.221 732.921 741.968 729.199 742.71C725.886 745.026 722.564 747.245 719.247 749.506V749.501ZM706.082 750.241C709.758 750.025 713.434 749.818 717.151 749.611C720.258 747.507 723.368 745.398 726.47 743.256L715.902 745.352C712.625 746.997 709.354 748.614 706.082 750.245V750.241ZM693.625 750.99C696.842 750.797 700.058 750.595 703.316 750.406C706.174 748.991 709.029 747.57 711.881 746.142L702.618 747.98C699.617 748.991 696.621 749.983 693.625 750.999V750.99ZM684.219 751.555C685.965 751.445 687.734 751.348 689.49 751.238L694.429 749.575C691.011 750.25 687.624 750.898 684.219 751.56V751.555ZM12.9487 822.653C9.00626 823.829 5.09134 825.01 1.23616 826.196C6.71337 830.313 12.2534 834.421 17.8562 838.519C21.7895 837.697 25.7458 836.874 29.7526 836.052C24.1099 831.595 18.4857 827.128 12.9487 822.653ZM26.0077 818.816C22.0437 819.959 18.1227 821.109 14.2445 822.267C19.8259 826.776 25.467 831.275 31.1678 835.762C35.1241 834.954 39.0758 834.14 43.1147 833.332C37.3649 828.504 31.6625 823.665 26.0077 818.816ZM808.922 766.622C813.407 767.114 817.942 767.647 822.459 768.157C824.44 760.832 826.319 753.232 828.184 745.591C823.896 745.741 819.619 745.894 815.355 746.05C813.246 753.039 811.128 759.978 808.922 766.622ZM794.218 765.046C798.689 765.505 803.197 766.002 807.7 766.489C809.901 759.881 812.015 753.007 814.133 746.11C809.86 746.271 805.577 746.432 801.331 746.606C799.002 752.837 796.663 759.086 794.241 765.064L794.218 765.046ZM779.574 763.58C784.04 764.015 788.518 764.462 793.005 764.922C795.413 759.003 797.747 752.832 800.077 746.661C795.804 746.836 791.562 747.024 787.307 747.208C784.776 752.754 782.221 758.291 779.597 763.598L779.574 763.58ZM765.026 762.137C769.428 762.542 773.909 763.019 778.352 763.456C780.957 758.199 783.503 752.731 786.039 747.263C781.812 747.447 777.539 747.612 773.334 747.805C770.6 752.658 767.852 757.51 765.063 762.156L765.026 762.137ZM750.483 760.864C754.908 761.255 759.301 761.613 763.754 762.022C766.538 757.427 769.268 752.649 772.025 747.87C767.779 748.067 763.584 748.283 759.361 748.486C756.42 752.676 753.488 756.876 750.506 760.883L750.483 760.864ZM736.074 759.605C740.402 759.959 744.804 760.368 749.155 760.75C752.11 756.789 755.019 752.672 757.927 748.554C753.746 748.757 749.541 748.954 745.383 749.166C742.314 752.699 739.226 756.242 736.115 759.624L736.074 759.605ZM721.71 758.493C726.024 758.82 730.316 759.127 734.658 759.481C737.742 756.154 740.797 752.695 743.848 749.239C739.681 749.455 735.577 749.699 731.419 749.905C728.216 752.837 724.986 755.732 721.733 758.512L721.71 758.493ZM707.507 757.437C711.697 757.731 715.915 758.052 720.129 758.356C723.345 755.635 726.502 752.805 729.677 749.979C725.611 750.199 721.54 750.438 717.496 750.645C714.192 752.956 710.866 755.263 707.53 757.455L707.507 757.437ZM693.51 756.472C697.56 756.732 701.622 757.008 705.696 757.299C708.936 755.176 712.171 752.975 715.401 750.774L703.582 751.458C700.247 753.163 696.888 754.868 693.533 756.513L693.51 756.472ZM679.781 755.626C683.599 755.856 687.417 756.086 691.268 756.329C694.452 754.799 697.641 753.209 700.83 751.624L689.687 752.295C686.402 753.434 683.094 754.56 679.803 755.644L679.781 755.626ZM667.103 754.845C670.32 755.024 673.609 755.254 676.84 755.447C679.735 754.497 682.635 753.529 685.543 752.543L675.893 753.145L667.103 754.845ZM657.334 754.385C659.071 754.473 660.785 754.542 662.526 754.634L667.222 753.715C663.946 753.954 660.642 754.165 657.357 754.39L657.334 754.385ZM801.616 787.469C806.349 788.586 811.165 789.799 815.934 790.961C818.057 783.864 820.128 776.613 822.147 769.209C817.611 768.694 813.053 768.161 808.545 767.67C806.299 774.433 803.973 781 801.625 787.488L801.616 787.469ZM786.2 783.899C790.936 784.983 795.684 786.086 800.445 787.207C802.783 780.774 805.081 774.25 807.337 767.555C802.806 767.063 798.276 766.571 793.777 766.107C791.314 772.177 788.769 778.059 786.2 783.899ZM770.853 780.434C775.564 781.476 780.294 782.548 785.042 783.651C787.583 777.87 790.097 772.012 792.569 765.997C788.047 765.531 783.541 765.079 779.05 764.641C776.371 770.022 773.619 775.233 770.867 780.434H770.853ZM755.616 777.057C760.271 778.054 764.999 779.129 769.695 780.172C772.424 775.031 775.145 769.843 777.819 764.504C773.343 764.044 768.827 763.585 764.383 763.185C761.507 767.918 758.566 772.485 755.63 777.057H755.616ZM740.402 773.9C745.07 774.865 749.721 775.803 754.426 776.809C757.339 772.287 760.248 767.752 763.11 763.07C758.617 762.656 754.173 762.289 749.707 761.903C746.642 765.992 743.527 769.935 740.416 773.9H740.402ZM725.358 770.78C729.921 771.699 734.58 772.696 739.175 773.643C742.254 769.733 745.332 765.832 748.365 761.783C743.949 761.402 739.497 760.984 735.113 760.625C731.897 764.085 728.634 767.417 725.372 770.78H725.358ZM710.323 767.899C714.918 768.777 719.454 769.595 724.081 770.514C727.297 767.205 730.514 763.911 733.73 760.501C729.301 760.143 724.935 759.84 720.533 759.504C717.138 762.362 713.733 765.115 710.337 767.899H710.323ZM695.491 765.096C699.934 765.91 704.437 766.783 708.922 767.633C712.262 764.903 715.603 762.188 718.934 759.389C714.615 759.063 710.277 758.728 705.99 758.424C702.507 760.685 699.001 762.877 695.505 765.096H695.491ZM680.787 762.459C685.143 763.222 689.519 764.001 693.915 764.798C697.329 762.643 700.752 760.492 704.161 758.291C699.911 757.992 695.688 757.717 691.466 757.446C687.932 759.141 684.371 760.786 680.814 762.459H680.787ZM666.303 759.991C670.494 760.69 674.698 761.405 678.917 762.137C682.349 760.534 685.782 758.921 689.214 757.308C685.125 757.044 681.047 756.793 676.982 756.554C673.444 757.712 669.892 758.843 666.331 759.991H666.303ZM652.454 757.657C656.263 758.264 660.155 758.957 663.992 759.596C667.333 758.521 670.669 757.455 674.014 756.38C670.209 756.164 666.395 755.92 662.618 755.736L652.454 757.657ZM639.17 755.64C642.524 756.155 645.847 756.632 649.219 757.165L657.982 755.502C654.628 755.327 651.287 755.171 647.951 755.015C645.033 755.217 642.129 755.433 639.198 755.64H639.17ZM629.613 754.192C631.17 754.422 632.746 754.652 634.309 754.905L638.904 754.574C635.819 754.442 632.731 754.323 629.64 754.215L629.613 754.192ZM794.035 807.558C798.97 809.282 804.01 811.143 809 812.935C811.257 806.107 813.471 799.15 815.617 792.023C810.829 790.856 805.991 789.638 801.239 788.517C798.905 795.002 796.513 801.349 794.062 807.558H794.035ZM777.952 802.072C782.933 803.768 787.877 805.403 792.895 807.127C795.346 800.96 797.743 794.654 800.086 788.209C795.284 787.079 790.515 785.98 785.745 784.891C783.218 790.745 780.626 796.489 777.984 802.072H777.952ZM761.998 796.696C766.906 798.323 771.864 800.009 776.822 801.691C779.45 796.14 782.037 790.447 784.592 784.653C779.822 783.562 775.065 782.49 770.32 781.436C767.604 786.605 764.843 791.729 762.031 796.696H761.998ZM746.141 791.485C751.016 793.057 755.942 794.702 760.845 796.315C763.643 791.384 766.4 786.307 769.116 781.151C764.383 780.104 759.623 779.024 754.931 778.022C752.082 782.589 749.151 787.115 746.173 791.485H746.141ZM730.334 786.514C735.21 788.039 740.071 789.542 744.988 791.109C747.952 786.771 750.874 782.291 753.787 777.783C749.045 776.772 744.354 775.821 739.644 774.847C736.574 778.794 733.496 782.732 730.367 786.514H730.334ZM714.712 781.611C719.463 783.049 724.361 784.648 729.14 786.146C732.25 782.392 735.325 778.504 738.399 774.599C733.753 773.643 729.039 772.614 724.43 771.699C721.255 775.044 718.029 778.399 714.767 781.611H714.712ZM699.089 777.016C703.904 778.431 708.646 779.773 713.508 781.225C716.724 778.04 719.941 774.732 723.157 771.419C718.461 770.5 713.861 769.668 709.202 768.781C705.88 771.571 702.512 774.369 699.125 777.029L699.089 777.016ZM683.686 772.526C688.346 773.85 693.074 775.26 697.774 776.634C701.133 774.001 704.469 771.254 707.81 768.52C703.247 767.651 698.657 766.755 694.126 765.928C690.689 768.161 687.211 770.408 683.732 772.54L683.686 772.526ZM668.376 768.262C672.971 769.526 677.598 770.789 682.257 772.108C685.699 770.008 689.15 767.812 692.568 765.634C688.038 764.811 683.548 764.035 679.059 763.249C675.53 764.945 671.969 766.654 668.413 768.276L668.376 768.262ZM653.212 764.187C657.697 765.377 662.196 766.576 666.722 767.817C670.209 766.231 673.706 764.573 677.198 762.932C672.808 762.169 668.434 761.423 664.075 760.694C660.477 761.88 656.852 763.065 653.24 764.2L653.212 764.187ZM638.508 760.295C642.727 761.37 647.028 762.546 651.282 763.667C654.77 762.569 658.271 761.43 661.773 760.299C657.591 759.61 653.401 758.921 649.256 758.25L638.508 760.295ZM623.929 756.72C627.945 757.703 631.924 758.645 635.972 759.67L646.021 757.763C642.088 757.142 638.182 756.563 634.276 755.98C630.839 756.237 627.379 756.481 623.947 756.733L623.929 756.72ZM610.847 753.503C614.036 754.257 617.28 755.089 620.496 755.87C623.446 755.649 626.428 755.442 629.406 755.231C626.35 754.771 623.23 754.266 620.216 753.852C617.105 753.756 613.967 753.623 610.865 753.526L610.847 753.503ZM601.974 751.413C603.224 751.702 604.437 751.945 605.691 752.24C606.817 752.272 607.961 752.322 609.091 752.359C606.724 752.065 604.357 751.765 601.992 751.458L601.974 751.413ZM786.136 826.834C791.291 829.132 796.571 831.641 801.795 834.053C804.157 827.565 806.39 820.728 808.66 813.936C803.652 812.135 798.588 810.26 793.63 808.537C791.19 814.777 788.709 820.925 786.154 826.857L786.136 826.834ZM769.392 819.528C774.616 821.826 779.763 823.99 785.015 826.347C787.56 820.452 790.023 814.313 792.477 808.133C787.422 806.378 782.469 804.733 777.465 803.028C774.841 808.666 772.149 814.18 769.41 819.551L769.392 819.528ZM752.813 812.301C757.932 814.492 763.124 816.785 768.298 819.05C771.028 813.72 773.702 808.22 776.353 802.646C771.372 800.96 766.387 799.26 761.447 797.624C758.617 802.639 755.745 807.539 752.831 812.323L752.813 812.301ZM736.322 805.335C741.44 807.471 746.564 809.622 751.733 811.832C754.622 807.071 757.483 802.208 760.317 797.243C755.363 795.607 750.405 793.971 745.498 792.39C742.484 796.825 739.419 801.112 736.34 805.358L736.322 805.335ZM719.931 798.607C725.018 800.68 730.095 802.743 735.233 804.884C738.288 800.675 741.33 796.406 744.345 792.018C739.391 790.428 734.493 788.912 729.581 787.377C726.401 791.237 723.175 794.936 719.95 798.63L719.931 798.607ZM703.753 792C708.72 793.971 713.811 796.135 718.824 798.153C722.04 794.477 725.234 790.801 728.405 787.014C723.566 785.507 718.645 783.89 713.848 782.419C710.516 785.723 707.167 788.866 703.771 792.023L703.753 792ZM687.541 785.774C692.596 787.713 697.522 789.551 702.604 791.559C705.944 788.43 709.294 785.31 712.612 782.079C707.7 780.595 702.898 779.249 698.032 777.824C694.563 780.554 691.057 783.164 687.56 785.797L687.541 785.774ZM671.615 779.658C676.477 781.496 681.426 783.421 686.319 785.31C689.784 782.709 693.248 780.122 696.699 777.443C691.934 776.065 687.133 774.608 682.409 773.271C678.848 775.467 675.241 777.558 671.634 779.681L671.615 779.658ZM655.749 773.831C660.596 775.596 665.398 777.328 670.32 779.162C673.881 777.066 677.442 774.999 680.998 772.853C676.233 771.511 671.533 770.243 666.814 768.951C663.142 770.629 659.457 772.228 655.767 773.854L655.749 773.831ZM640.08 768.235C644.785 769.895 649.515 771.58 654.269 773.289C657.895 771.69 661.52 770.114 665.146 768.487C660.514 767.225 655.9 765.986 651.305 764.77C647.57 765.974 643.843 767.104 640.08 768.258V768.235ZM624.788 762.854C629.273 764.384 633.845 766.029 638.375 767.624C642.051 766.502 645.677 765.39 649.339 764.255C644.863 763.079 640.379 761.894 635.944 760.772L624.788 762.854ZM609.487 757.8C613.875 759.247 618.217 760.639 622.651 762.146L633.39 760.143C629.029 759.045 624.724 758.011 620.409 756.959C616.765 757.257 613.149 757.542 609.505 757.823L609.487 757.8ZM595.114 753.053C598.973 754.284 602.925 755.64 606.826 756.922L617.032 756.132C613.213 755.213 609.317 754.197 605.544 753.315C602.052 753.232 598.606 753.163 595.132 753.076L595.114 753.053ZM581.434 748.798C584.839 749.85 588.171 750.806 591.603 751.895L599.966 752.079C596.432 751.27 592.958 750.53 589.448 749.749C586.778 749.432 584.127 749.161 581.453 748.821L581.434 748.798ZM571.284 745.729L575.672 747.057L578.971 747.429C576.44 746.905 573.83 746.28 571.302 745.751L571.284 745.729ZM777.722 845.366C783.076 848.238 788.516 851.247 793.947 854.234C796.474 847.935 799.002 841.685 801.446 835.087C796.199 832.661 790.878 830.157 785.727 827.841C783.135 833.883 780.438 839.636 777.741 845.389L777.722 845.366ZM760.468 836.323C765.877 839.167 771.202 841.897 776.661 844.819C779.349 839.094 782.046 833.368 784.652 827.358C779.354 824.992 774.189 822.809 768.941 820.507C766.152 825.938 763.313 831.149 760.468 836.323ZM743.389 827.363C748.668 830.078 754.054 832.95 759.393 835.758C762.237 830.611 765.077 825.433 767.848 820.052C762.651 817.755 757.431 815.457 752.285 813.265C749.344 818.086 746.371 822.754 743.38 827.363H743.389ZM726.387 818.752C731.704 821.426 736.956 824.045 742.355 826.807C745.337 822.212 748.301 817.58 751.228 812.797C746.026 810.573 740.875 808.413 735.729 806.267C732.617 810.513 729.492 814.675 726.355 818.752H726.387ZM709.464 810.366C714.716 812.953 719.977 815.554 725.28 818.219C728.408 814.175 731.512 810.04 734.594 805.812C729.429 803.662 724.31 801.576 719.192 799.494C715.975 803.184 712.74 806.832 709.464 810.366ZM692.789 802.169C697.935 804.641 703.192 807.278 708.412 809.833C711.665 806.322 714.891 802.706 718.107 799.044C713.053 796.985 707.916 794.84 702.907 792.855C699.539 796.002 696.18 799.15 692.798 802.169H692.789ZM676.091 794.357C681.292 796.792 686.42 799.127 691.677 801.649C695.05 798.649 698.395 795.538 701.74 792.409C696.612 790.387 691.603 788.522 686.531 786.569C683.066 789.192 679.597 791.834 676.1 794.357H676.091ZM659.696 786.688C664.723 788.986 669.855 791.439 674.937 793.82C678.411 791.32 681.867 788.71 685.327 786.105C680.359 784.198 675.346 782.222 670.43 780.384C666.864 782.502 663.289 784.653 659.705 786.688H659.696ZM643.296 779.336C648.351 781.583 653.359 783.766 658.46 786.095C662.016 784.083 665.568 781.96 669.125 779.869C664.135 778.004 659.236 776.267 654.297 774.475C650.648 776.124 646.972 777.783 643.296 779.355V779.336ZM627.09 772.232C632.013 774.361 636.96 776.529 641.932 778.734C645.562 777.186 649.196 775.554 652.831 773.946C647.985 772.191 643.16 770.466 638.357 768.772C634.607 769.949 630.844 771.12 627.099 772.251L627.09 772.232ZM611.224 765.39C615.961 767.38 620.781 769.498 625.574 771.566C629.25 770.459 632.958 769.301 636.652 768.161C631.942 766.512 627.237 764.857 622.578 763.272L611.224 765.39ZM595.316 758.898C600.003 760.809 604.634 762.647 609.367 764.632C613.043 763.952 616.747 763.254 620.441 762.565C615.818 760.998 611.251 759.523 606.688 758.02C602.897 758.351 599.097 758.617 595.325 758.916L595.316 758.898ZM580.185 752.722C584.43 754.404 588.791 756.242 593.083 757.983C596.708 757.698 600.37 757.418 604.023 757.142C599.833 755.764 595.559 754.289 591.405 752.97C587.665 752.901 583.916 752.809 580.194 752.74L580.185 752.722ZM565.223 746.96C569.294 748.522 573.274 749.961 577.382 751.555C580.768 751.615 584.191 751.702 587.605 751.785C583.497 750.494 579.491 749.336 575.419 748.109C572.028 747.75 568.619 747.351 565.232 746.978L565.223 746.96ZM551.723 741.869C554.834 743.027 557.963 744.212 561.097 745.402C563.932 745.71 566.804 746.05 569.667 746.376C566.606 745.457 563.505 744.483 560.477 743.592C557.573 743.045 554.641 742.452 551.732 741.887L551.723 741.869ZM543.659 738.822C544.298 739.061 544.955 739.323 545.594 739.557C546.448 739.718 547.317 739.897 548.171 740.063C546.664 739.654 545.18 739.268 543.668 738.841L543.659 738.822ZM769.199 863.286C774.786 866.723 780.409 870.219 786.067 873.772C788.663 867.89 791.085 861.49 793.566 855.268C788.116 852.272 782.657 849.253 777.281 846.372C774.602 852.088 771.956 857.869 769.199 863.286ZM751.343 852.488C756.944 855.879 762.485 859.174 768.137 862.643C770.894 857.258 773.527 851.477 776.192 845.798C770.715 842.866 765.362 840.123 759.935 837.27C757.086 842.439 754.256 847.59 751.333 852.488H751.343ZM733.716 841.828C739.175 845.044 744.772 848.513 750.304 851.859C753.213 846.988 756.03 841.828 758.86 836.695C753.493 833.874 748.085 830.988 742.778 828.259C739.791 832.872 736.767 837.44 733.707 841.828H733.716ZM716.122 831.622C721.636 834.839 727.1 837.899 732.696 841.212C735.747 836.847 738.739 832.289 741.725 827.712C736.322 824.955 731.019 822.308 725.675 819.62C722.505 823.701 719.32 827.735 716.113 831.622H716.122ZM698.726 821.624C704.154 824.711 709.611 827.848 715.097 831.034C718.314 827.151 721.457 823.149 724.609 819.087C719.273 816.404 713.969 813.769 708.697 811.184C705.384 814.745 702.057 818.21 698.716 821.624H698.726ZM681.517 811.882C686.866 814.86 692.297 817.966 697.706 821.036C701.032 817.644 704.341 814.184 707.631 810.655C702.383 808.078 697.09 805.436 691.902 802.945C688.447 805.996 684.977 808.942 681.508 811.882H681.517ZM664.341 802.541C669.718 805.468 675.029 808.294 680.47 811.313C683.921 808.395 687.362 805.454 690.795 802.426C685.497 799.885 680.318 797.528 675.075 795.074C671.496 797.62 667.912 800.073 664.332 802.541H664.341ZM647.492 793.378C652.684 796.135 658.005 799.099 663.262 801.953C666.818 799.503 670.379 797.064 673.927 794.536C668.794 792.133 663.606 789.647 658.533 787.331C654.844 789.395 651.163 791.37 647.482 793.378H647.492ZM630.628 784.616C635.876 787.336 641.045 789.941 646.357 792.758C650.01 790.768 653.663 788.806 657.311 786.762C652.123 784.4 647.06 782.213 641.927 779.933C638.15 781.528 634.387 783.054 630.619 784.616H630.628ZM614.026 776.11C619.109 778.678 624.221 781.297 629.365 783.968C633.096 782.424 636.822 780.908 640.558 779.332C635.503 777.103 630.499 774.888 625.518 772.738C621.668 773.887 617.849 774.98 614.017 776.11H614.026ZM597.719 767.895C602.64 770.321 607.649 772.88 612.625 775.394C616.411 774.282 620.184 773.193 623.979 772.062C619.053 769.944 614.128 767.817 609.275 765.776L597.719 767.895ZM581.347 760.046C586.25 762.394 591.098 764.641 596.051 767.1C599.837 766.406 603.6 765.721 607.401 765.018C602.521 762.983 597.751 761.062 592.903 759.104C589.03 759.412 585.193 759.729 581.338 760.046H581.347ZM565.623 752.502C570.163 754.62 574.813 756.927 579.408 759.118C583.167 758.81 586.893 758.493 590.666 758.199C586.176 756.361 581.586 754.431 577.143 752.685C573.278 752.598 569.446 752.552 565.614 752.502H565.623ZM549.835 745.329C554.342 747.374 558.767 749.28 563.326 751.399C566.951 751.445 570.544 751.468 574.188 751.523C569.667 749.754 565.278 748.173 560.807 746.468C557.122 746.07 553.462 745.69 549.825 745.329H549.835ZM534.745 738.593C538.727 740.342 542.723 742.125 546.733 743.941C550.055 744.272 553.336 744.561 556.677 744.911C552.867 743.472 549.017 741.984 545.244 740.596C541.747 739.916 538.219 739.24 534.745 738.593ZM521.649 732.794C524.636 734.071 527.714 735.486 530.72 736.8C533.532 737.306 536.298 737.761 539.124 738.289C535.848 737.104 532.691 736.079 529.438 734.93C526.846 734.232 524.213 733.474 521.649 732.803V732.794ZM513.227 729.329C513.686 729.522 514.146 729.697 514.605 729.89L515.524 730.11C514.743 729.862 513.98 729.591 513.227 729.338V729.329ZM759.926 880.191C765.693 884.152 771.414 888.039 777.268 892.138C780.057 886.399 782.892 880.789 785.584 874.769C779.923 871.21 774.302 867.713 768.721 864.279C765.858 869.797 762.871 874.93 759.926 880.2V880.191ZM741.656 867.822C747.391 871.7 753.089 875.514 758.874 879.479C761.81 874.227 764.797 869.122 767.655 863.617C761.985 860.134 756.42 856.83 750.8 853.426C747.809 858.411 744.721 863.08 741.656 867.831V867.822ZM723.64 855.617C729.218 859.293 734.971 863.3 740.641 867.105C743.697 862.377 746.78 857.731 749.771 852.778C744.216 849.419 738.596 845.954 733.11 842.705C729.99 847.167 726.81 851.385 723.64 855.626V855.617ZM705.595 843.955C711.293 847.663 716.853 851.137 722.624 854.956C725.79 850.728 728.97 846.524 732.081 842.09C726.456 838.758 720.988 835.684 715.424 832.44C712.175 836.415 708.89 840.206 705.595 843.964V843.955ZM687.808 832.468C693.359 836.011 698.974 839.659 704.589 843.307C707.879 839.562 711.16 835.799 714.404 831.884C708.89 828.692 703.403 825.539 697.944 822.423C694.596 825.854 691.217 829.205 687.808 832.477V832.468ZM670.177 821.302C675.691 824.748 681.237 828.273 686.811 831.825C690.196 828.562 693.565 825.234 696.92 821.84C691.466 818.743 686.007 815.632 680.621 812.65C677.152 815.586 673.674 818.499 670.177 821.302ZM652.601 810.522C658.115 813.9 663.574 817.194 669.143 820.677C672.631 817.874 676.105 814.993 679.565 812.066C674.092 809.024 668.734 806.171 663.321 803.23C659.76 805.702 656.185 808.17 652.601 810.531V810.522ZM635.365 799.954C640.691 803.17 646.168 806.589 651.558 809.888C655.133 807.54 658.69 805.096 662.251 802.646C656.953 799.77 651.581 796.774 646.347 793.994C642.685 796.002 639.028 798.038 635.365 799.958V799.954ZM618.056 789.813C623.474 792.992 628.79 796.002 634.276 799.288C637.925 797.376 641.569 795.368 645.208 793.378C639.832 790.525 634.607 787.91 629.291 785.158C625.546 786.725 621.797 788.315 618.056 789.817V789.813ZM601.023 779.947C606.275 782.957 611.591 786.04 616.885 789.137C620.602 787.648 624.328 786.072 628.05 784.542C622.849 781.854 617.656 779.18 612.515 776.584C608.66 777.687 604.823 778.831 601.023 779.947ZM584.26 770.39C589.365 773.248 594.562 776.244 599.731 779.198C603.513 778.114 607.318 776.979 611.113 775.862C606.022 773.294 600.931 770.73 595.895 768.258L584.26 770.39ZM567.447 761.2C572.548 763.957 577.584 766.663 582.744 769.544C586.558 768.85 590.399 768.166 594.231 767.44C589.177 764.958 584.201 762.62 579.201 760.226L567.447 761.2ZM551.236 752.377C555.992 754.905 560.886 757.643 565.697 760.262C569.524 759.936 573.388 759.624 577.248 759.307C572.525 757.055 567.7 754.657 563.004 752.488C559.077 752.436 555.154 752.399 551.236 752.377ZM534.97 743.937C539.735 746.399 544.408 748.724 549.214 751.288C553.01 751.288 556.833 751.353 560.66 751.394C555.827 749.161 551.158 747.176 546.379 745.021C542.572 744.641 538.768 744.276 534.97 743.927V743.937ZM519.287 735.941C523.619 738.125 527.976 740.346 532.36 742.604C535.99 742.93 539.648 743.284 543.305 743.638C538.977 741.699 534.616 739.718 530.334 737.853C526.645 737.2 522.963 736.56 519.287 735.932V735.941ZM504.822 728.635C508.498 730.441 512.308 732.417 516.029 734.278C519.444 734.857 522.881 735.459 526.313 736.056C522.219 734.287 518.203 732.633 514.15 730.924L504.822 728.635ZM490.628 721.922C493.725 723.397 496.763 724.785 499.883 726.296C502.378 726.903 504.887 727.532 507.386 728.134C504.092 726.756 500.802 725.405 497.539 724.082C495.214 723.323 492.944 722.653 490.628 721.913V721.922ZM481.535 717.621L483.414 718.513L485.84 719.271C484.393 718.687 482.982 718.177 481.553 717.612L481.535 717.621ZM270.134 991.128C273.392 993.398 276.65 995.723 279.912 997.937C470.369 1101.18 665.15 1121.64 776.794 893.122C770.931 889.027 765.183 885.122 759.398 881.152C641.858 1090.74 453.115 1079.16 270.134 991.128ZM251.754 978.101C255.692 980.95 259.63 983.785 263.577 986.569C448.189 1077.34 639.57 1091.68 758.327 880.426C752.524 876.451 746.807 872.614 741.055 868.727C616.062 1061.7 429.63 1054.89 251.768 978.101H251.754ZM233.962 965.056C238.383 968.355 242.822 971.576 247.251 974.802C426.097 1053.32 614.173 1061.87 740.025 868.042C734.346 864.205 728.565 860.198 722.969 856.49C590.61 1032.54 406.655 1030.52 233.976 965.056H233.962ZM216.331 951.616C220.991 955.2 225.641 958.843 230.314 962.359C403.678 1029.11 588.878 1032.45 721.949 855.829C716.159 852.001 710.571 848.504 704.841 844.801C565.182 1003.44 383.754 1005.86 216.345 951.616H216.331ZM198.549 937.771C203.585 941.753 208.639 945.691 213.712 949.584C381.507 1004.66 563.693 1003.06 703.858 844.134C698.22 840.458 692.573 836.783 686.999 833.244C539.937 974.54 360.876 981.078 198.563 937.771H198.549ZM180.822 923.563C185.992 927.766 191.183 931.926 196.394 936.043C358.95 979.962 538.554 974.021 685.984 832.601C680.369 829.026 674.787 825.503 669.24 822.033C514.872 945.784 338.107 956.155 180.835 923.563H180.822ZM163.135 908.956C168.388 913.33 173.635 917.737 178.919 922.042C336.343 955.126 513.521 945.196 668.22 821.412C662.609 817.911 657.109 814.589 651.567 811.193C489.939 917.208 315.431 931.081 163.149 908.956H163.135ZM145.215 893.87C150.628 898.484 156.065 903.065 161.527 907.614C313.869 930.074 488.639 916.537 650.52 810.545C645.093 807.228 639.57 803.749 634.212 800.537C465.246 888.88 292.728 905.877 145.229 893.87H145.215ZM127.171 878.316C132.685 883.126 138.232 887.908 143.814 892.662C291.312 904.898 463.968 888.141 633.123 799.871C627.577 796.554 622.219 793.539 616.742 790.327C440.52 860.819 269.95 880.517 127.184 878.316H127.171ZM109.03 862.234C114.631 867.233 120.228 872.256 125.884 877.205C268.581 879.562 439.206 860.01 615.543 789.629C610.185 786.5 604.832 783.375 599.543 780.347C416.057 832.959 247.251 854.988 109.043 862.239L109.03 862.234ZM90.6911 845.692C96.3889 850.9 102.12 856.074 107.885 861.214C245.969 854.041 414.738 832.105 598.243 779.589C592.972 776.579 587.706 773.579 582.5 770.675C391.74 805.385 224.506 829.339 90.7049 845.701L90.6911 845.692ZM72.1734 828.691C77.9447 834.058 83.7941 839.402 89.6343 844.736C223.256 828.42 390.329 804.512 580.979 769.838C575.732 766.916 570.59 764.164 565.407 761.342C367.465 778.137 201.683 803.584 72.1871 828.691H72.1734ZM53.5867 811.193C59.407 816.729 65.284 822.262 71.2176 827.795C200.502 802.702 366.027 777.25 563.702 760.437C558.786 757.767 553.763 754.923 548.902 752.364C343.626 751.174 178.997 777.682 53.5867 811.193ZM34.8116 793.176C40.7254 798.892 46.6529 804.618 52.6677 810.329C177.826 776.823 342.101 750.259 546.885 751.247C541.83 748.577 536.973 746.193 531.979 743.647C319.672 724.573 156.197 751.702 34.8116 793.158V793.176ZM15.8895 774.7C21.8538 780.575 27.8748 786.457 33.9524 792.345C155.016 750.916 317.922 723.696 529.369 742.333C524.774 739.976 520.151 737.586 515.584 735.312C296.105 698.276 133.507 725.63 15.8895 774.681V774.7ZM38.1797 814.272C32.266 808.9 26.4396 803.524 20.6315 798.153C16.6661 799.582 12.7833 801.034 8.91896 802.495C14.6765 807.549 20.4477 812.604 26.3201 817.658C30.2167 816.5 34.1699 815.365 38.1797 814.253V814.272ZM56.4815 830.685C50.6612 825.505 44.8746 820.316 39.1217 815.117C35.1287 816.225 31.2 817.346 27.2989 818.467C32.9782 823.344 38.7097 828.211 44.4932 833.07C48.4403 832.256 52.4609 831.462 56.4815 830.667V830.685ZM74.5995 846.574C68.865 841.589 63.1396 836.599 57.4878 831.581C53.4764 832.371 49.4788 833.166 45.5409 833.957C51.1514 838.666 56.8445 843.34 62.5423 848.017L74.5995 846.574ZM92.4923 861.972C86.8589 857.181 81.2622 852.369 75.7023 847.535C71.6817 847.994 67.6611 848.504 63.7002 848.973C69.2142 853.497 74.7757 858.001 80.3846 862.482C84.4006 862.308 88.4258 862.138 92.4923 861.958V861.972ZM110.119 876.865C104.605 872.27 99.155 867.629 93.7008 862.997C89.6726 863.181 85.6642 863.354 81.6758 863.516C87.0886 867.845 92.5061 872.168 97.9833 876.451C102.009 876.589 106.038 876.736 110.119 876.851V876.865ZM127.699 891.247C122.277 886.84 116.841 882.429 111.47 877.972C107.435 877.862 103.442 877.724 99.4491 877.586C104.761 881.724 110.102 885.841 115.472 889.937C119.529 890.378 123.605 890.829 127.699 891.233V891.247ZM144.921 905.032C139.664 900.866 134.426 896.677 129.206 892.464C125.14 892.069 121.128 891.624 117.108 891.182C122.323 895.148 127.598 899.044 132.864 902.95C136.861 903.658 140.88 904.352 144.921 905.032ZM161.716 918.256C156.689 914.373 151.708 910.399 146.718 906.456C142.725 905.804 138.759 905.11 134.803 904.402C139.857 908.136 144.927 911.841 150.012 915.517C153.89 916.455 157.81 917.337 161.716 918.256ZM178.492 930.975C173.612 927.299 168.728 923.623 163.875 919.892C160.038 919.019 156.197 918.136 152.388 917.208C157.194 920.659 162.005 924.101 166.844 927.501C170.708 928.682 174.609 929.817 178.492 930.961V930.975ZM194.827 943.069C190.204 939.682 185.587 936.287 180.987 932.84C177.265 931.761 173.529 930.722 169.83 929.592C174.425 932.808 179.052 935.878 183.67 939.011C187.392 940.393 191.111 941.745 194.827 943.069ZM210.592 954.51C206.388 951.514 202.202 948.427 198.011 945.375C194.565 944.167 191.119 942.986 187.677 941.736C191.788 944.512 195.91 947.255 200.042 949.966C203.557 951.496 207.077 953.063 210.606 954.529L210.592 954.51ZM225.613 964.968C221.937 962.437 218.261 959.951 214.627 957.373C211.71 956.181 208.8 954.974 205.896 953.752C209.343 955.99 212.789 958.237 216.235 960.438C219.341 961.959 222.466 963.489 225.613 964.968ZM237.762 973.368C235.722 971.99 233.691 970.538 231.656 969.145C229.496 968.148 227.346 967.101 225.195 966.067C227.81 967.703 230.438 969.26 233.053 970.873C234.615 971.719 236.182 972.536 237.753 973.368H237.762ZM796.433 907.012C695.454 1144.72 507.005 1128.16 317.177 1022.42C517.918 1148.74 717.469 1180.08 814.078 919.497C808.127 915.242 802.305 911.18 796.424 907.012H796.433ZM804.704 886.881C802.163 893.484 799.493 899.706 796.842 905.983C802.705 910.118 808.513 914.194 814.432 918.431C816.922 911.667 819.399 904.839 821.784 897.693C816.017 893.985 810.411 890.516 804.709 886.881H804.704ZM812.189 865.561C809.86 872.412 807.594 879.387 805.122 885.861C810.811 889.487 816.398 892.947 822.124 896.641C824.421 889.634 826.549 882.195 828.694 874.778C823.162 871.645 817.694 868.63 812.194 865.561H812.189ZM819.541 843.454C817.294 850.728 814.9 857.579 812.534 864.518C818.048 867.578 823.475 870.579 829.007 873.708C831.18 866.2 833.423 858.875 835.44 850.995C830.156 848.454 824.835 845.927 819.555 843.454H819.541ZM826.103 820.222C824.058 827.726 822.018 835.262 819.84 842.398C825.106 844.864 830.398 847.366 835.716 849.906C837.678 842.209 839.465 834.016 841.28 825.915C836.235 824.018 831.139 822.069 826.117 820.222H826.103ZM832.403 796.117C830.473 803.997 828.456 811.648 826.402 819.175C831.405 821.013 836.51 822.961 841.528 824.849C843.366 816.675 845.204 808.464 846.881 799.903C842.08 798.653 837.204 797.325 832.416 796.117H832.403ZM838.174 771.079C836.394 779.249 834.556 787.243 832.66 795.06C837.425 796.264 842.309 797.587 847.093 798.833C848.756 790.356 850.344 781.678 851.858 772.797C847.313 772.232 842.718 771.621 838.188 771.079H838.174ZM843.417 745.076C841.799 753.522 840.168 761.935 838.417 770.018C842.93 770.56 847.506 771.171 852.042 771.736C853.539 762.937 854.941 753.871 856.292 744.672C852.014 744.81 847.704 744.934 843.431 745.076H843.417ZM848.407 718.085C846.9 726.958 845.25 735.454 843.619 743.987C847.874 743.845 852.17 743.721 856.443 743.587C857.794 734.338 859.173 725.143 860.386 715.517L848.407 718.085ZM852.625 690.212C851.32 699.195 850.066 708.325 848.623 716.932L860.542 714.372C861.705 705.022 862.683 695.188 863.69 685.424C860.014 687.028 856.324 688.636 852.639 690.212H852.625ZM856.811 661.186C855.584 670.739 854.155 679.736 852.804 688.953C856.48 687.382 860.156 685.783 863.832 684.197C864.866 674.222 866.01 664.54 866.906 654.201C863.546 656.548 860.185 658.876 856.825 661.186H856.811ZM860.028 631.589C859.03 641.041 858.111 650.7 856.972 659.761C860.317 657.461 863.661 655.143 867.003 652.809C867.83 643.017 868.427 632.619 869.093 622.409C866.076 625.503 863.056 628.563 860.032 631.589H860.028ZM863.244 600.647C862.325 610.632 861.268 620.198 860.234 629.862C863.235 626.838 866.235 623.833 869.227 620.754C869.916 610.328 870.692 600.128 871.244 589.339C868.583 593.198 865.9 596.893 863.23 600.647H863.244ZM865.629 569.314C864.926 579.156 864.25 589.072 863.405 598.542C865.799 595.179 868.211 591.875 870.578 588.397L870.605 588.36L870.647 588.319L871.308 587.661C871.809 577.553 872.144 567.025 872.503 556.553L871.497 557.987C869.558 561.865 867.577 565.555 865.615 569.314H865.629ZM867.857 536.552C867.26 546.752 866.552 556.659 865.84 566.552C867.412 563.542 868.997 560.579 870.541 557.472V557.44L870.573 557.399C871.241 556.456 871.904 555.512 872.563 554.568C872.93 544.028 873.353 533.638 873.596 522.794L871.51 526.93C870.316 530.234 869.07 533.372 867.844 536.552H867.857ZM869.406 503.587C868.983 513.526 868.565 523.47 868.027 533.087C868.868 530.923 869.714 528.781 870.527 526.535V526.502V526.475C871.566 524.425 872.598 522.378 873.624 520.331C873.835 510.158 873.9 499.617 873.973 489.086L871.529 495.882C870.839 498.524 870.114 501.032 869.392 503.587H869.406ZM870.688 469.24C870.398 479.225 870.035 489.03 869.631 498.721C869.925 497.687 870.224 496.663 870.504 495.587V495.564C871.68 492.302 872.849 489.049 874.01 485.805C874.079 475.314 874.221 465.003 874.194 454.265C873.312 457.794 872.426 461.333 871.538 464.884C871.262 466.363 870.968 467.797 870.674 469.24H870.688ZM871.386 435.154C871.221 444.634 871.065 454.136 870.812 463.367C871.93 458.895 873.044 454.438 874.153 449.996C874.097 440.388 873.923 430.458 873.748 420.538L871.566 433.799C871.497 434.263 871.428 434.695 871.373 435.154H871.386ZM871.786 400.508C871.786 409.588 871.68 418.479 871.547 427.251L873.665 414.385C873.491 404.708 873.449 395.366 873.206 385.561L871.786 400.508ZM871.671 369.18C871.671 375.966 871.763 382.919 871.745 389.632L872.926 377.327C872.737 370.558 872.466 363.542 872.177 356.557L871.671 369.18ZM871.57 340.746C871.57 341.991 871.57 343.135 871.57 344.371L871.653 342.327C871.616 341.362 871.584 340.415 871.547 339.446L871.57 340.746ZM870.706 400.453C870.706 399.447 870.706 398.372 870.706 397.351C870.651 399.029 870.591 400.669 870.536 402.337L870.706 400.453ZM870.302 435.081C870.431 427.729 870.67 420.639 870.761 413.149C870.44 417.703 870.04 422.036 869.705 426.548C869.45 433.192 869.162 439.748 868.841 446.214C869.314 442.529 869.829 438.899 870.288 435.081H870.302ZM869.608 469.148C869.842 461.249 869.962 453.033 870.1 444.873C869.41 450.479 868.652 455.901 867.917 461.415C867.458 469.226 866.998 477.162 866.511 484.881C867.531 479.67 868.602 474.515 869.594 469.148H869.608ZM868.317 503.454C868.726 494.149 869.162 484.927 869.475 475.388C868.363 481.329 867.177 487.105 866.024 492.909C865.399 501.823 864.646 510.452 863.961 519.141C865.408 513.944 866.883 508.78 868.303 503.454H868.317ZM866.773 536.354C867.301 527.251 867.692 517.754 868.087 508.325C866.562 513.981 864.999 519.532 863.432 525.078C862.697 533.882 861.957 542.668 861.135 551.191C863 546.27 864.898 541.367 866.759 536.354H866.773ZM864.544 569.052C865.257 559.375 866.006 549.785 866.612 539.823C864.682 544.979 862.736 550.085 860.772 555.143C859.825 564.383 858.746 573.256 857.707 582.253C859.986 577.885 862.261 573.48 864.531 569.038L864.544 569.052ZM862.164 600.298C862.996 591.108 863.639 581.389 864.333 571.809C862.008 576.335 859.683 580.852 857.344 585.309C856.329 594.154 855.327 603.045 854.192 611.56C856.848 607.847 859.499 604.07 862.15 600.284L862.164 600.298ZM858.948 631.139C859.977 621.605 861.066 612.24 861.98 602.398C859.288 606.211 856.604 610.062 853.898 613.825C852.657 622.896 851.242 631.502 849.9 640.306C852.933 637.287 855.943 634.19 858.957 631.139H858.948ZM855.754 660.607C856.88 651.697 857.776 642.162 858.759 632.871C855.713 635.95 852.676 639.093 849.62 642.13C848.329 650.677 847.097 659.384 845.682 667.582C849.05 665.298 852.404 662.923 855.763 660.607H855.754ZM851.587 689.481C852.924 680.393 854.344 671.474 855.547 662.063C852.175 664.388 848.802 666.769 845.439 669.057C843.918 677.705 842.222 685.838 840.582 694.205C844.244 692.643 847.92 691.058 851.596 689.481H851.587ZM847.396 717.194C848.834 708.661 850.098 699.646 851.403 690.745C847.727 692.326 844.009 693.92 840.32 695.478C838.739 703.648 837.191 711.9 835.486 719.735L847.396 717.194ZM842.433 744.024C844.06 735.578 845.682 727.133 847.185 718.352L835.21 720.902C833.432 728.98 831.534 736.686 829.636 744.47C833.897 744.319 838.166 744.171 842.443 744.024H842.433ZM837.236 769.866C838.983 761.834 840.618 753.503 842.231 745.113C837.943 745.254 833.654 745.407 829.365 745.572C827.5 753.278 825.611 760.933 823.631 768.317C828.171 768.818 832.683 769.319 837.246 769.866H837.236ZM831.493 794.775C833.392 787.01 835.23 779.06 837.007 770.927C832.412 770.376 827.89 769.875 823.35 769.365C821.329 776.836 819.215 784.097 817.101 791.26C821.889 792.423 826.636 793.553 831.502 794.775H831.493ZM825.248 818.761C827.302 811.267 829.319 803.676 831.249 795.832C826.383 794.605 821.6 793.47 816.789 792.303C814.638 799.49 812.419 806.474 810.163 813.344C815.194 815.145 820.203 816.9 825.257 818.761H825.248ZM818.714 841.874C820.888 834.779 822.909 827.266 824.954 819.818C819.863 817.948 814.845 816.183 809.814 814.377C807.558 821.238 805.283 828.061 802.921 834.595C808.192 837.017 813.421 839.392 818.723 841.874H818.714ZM811.413 863.897C813.775 857.005 816.173 850.177 818.415 842.931C813.094 840.44 807.847 838.06 802.563 835.62C800.137 842.255 797.586 848.532 795.059 854.868C800.509 857.86 805.958 860.846 811.422 863.897H811.413ZM804.006 885.172C806.455 878.739 808.738 871.787 811.068 864.954C805.554 861.894 800.118 858.898 794.659 855.898C792.174 862.156 789.738 868.561 787.138 874.48C792.734 877.99 798.357 881.554 804.006 885.172ZM795.735 905.229C798.381 898.98 801.042 892.768 803.574 886.192C797.928 882.593 792.295 879.021 786.673 875.477C783.972 881.528 781.123 887.139 778.324 892.91C784.096 896.922 789.945 901.103 795.744 905.206L795.735 905.229ZM297.051 1009.41C493.11 1124.89 690.937 1151.39 795.321 906.236C789.504 902.1 783.641 897.923 777.86 893.875C667.967 1119.49 477.349 1103.34 289.571 1004.49C292.061 1006.15 294.538 1007.76 297.051 1009.41ZM257.585 984.966C259.556 986.243 261.523 987.58 263.494 988.839C265.792 990.149 268.089 991.532 270.424 992.819C267.91 991.073 265.397 989.331 262.888 987.571C261.119 986.721 259.354 985.853 257.585 984.966ZM237.51 971.755C241.282 974.301 245.068 976.759 248.85 979.24C251.428 980.568 254.01 981.86 256.597 983.137C253.261 980.743 249.93 978.234 246.594 975.785C243.566 974.457 240.533 973.129 237.51 971.755ZM219.53 959.321C223.757 962.277 227.992 965.206 232.235 968.107C235.511 969.619 238.801 971.048 242.086 972.495C237.951 969.458 233.815 966.453 229.68 963.346C226.292 962.014 222.908 960.672 219.53 959.321ZM201.839 946.713C206.319 949.929 210.785 953.214 215.279 956.362C218.955 957.86 222.631 959.298 226.307 960.741C221.887 957.401 217.476 953.982 213.074 950.577C209.315 949.346 205.584 948.004 201.839 946.713ZM184.116 933.769C188.945 937.366 193.807 940.882 198.659 944.406C202.51 945.752 206.365 947.099 210.225 948.408C205.4 944.659 200.589 940.872 195.792 937.049C191.891 935.992 188.003 934.881 184.116 933.769ZM166.655 920.53C171.627 924.338 176.613 928.118 181.612 931.871C185.619 933.033 189.612 934.214 193.637 935.322C188.523 931.25 183.395 927.189 178.313 923.044C174.416 922.232 170.53 921.402 166.655 920.553V920.53ZM149.089 906.856C154.212 910.886 159.335 914.925 164.496 918.89C168.478 919.809 172.46 920.69 176.443 921.532C171.246 917.286 166.099 912.935 160.939 908.625C156.983 908.051 153.013 907.485 149.089 906.856ZM131.219 892.644C136.549 896.945 141.925 901.199 147.301 905.441C151.29 906.093 155.315 906.69 159.34 907.279C153.97 902.785 148.617 898.256 143.281 893.691C139.228 893.365 135.212 893.02 131.219 892.644ZM113.321 877.999C118.762 882.503 124.233 886.978 129.735 891.426C133.751 891.812 137.813 892.152 141.875 892.492C136.361 887.773 130.847 883.049 125.379 878.271C121.335 878.202 117.324 878.101 113.321 877.999ZM95.3596 862.905C100.874 867.583 106.388 872.265 111.97 876.892C115.996 877.002 120.042 877.094 124.11 877.168C118.514 872.26 112.977 867.284 107.431 862.331C103.387 862.537 99.371 862.721 95.3596 862.905ZM77.1957 847.342C82.8107 852.206 88.461 857.052 94.1465 861.88C98.1809 861.696 102.202 861.517 106.286 861.31C100.567 856.192 94.8817 851.048 89.2299 845.881C85.1894 846.377 81.178 846.864 77.1957 847.342ZM58.8479 831.296C64.5411 836.351 70.3354 841.368 76.0975 846.381L88.1777 844.92C82.3696 839.608 76.5616 834.292 70.827 828.953C66.8064 829.734 62.8042 830.515 58.8525 831.296H58.8479ZM40.3899 814.754C46.1612 819.977 51.9815 825.195 57.8508 830.409C61.8178 829.628 65.8231 828.844 69.8667 828.057C63.9759 822.567 58.1265 817.053 52.3185 811.515C48.3117 812.572 44.3094 813.651 40.3945 814.736L40.3899 814.754ZM21.817 797.753C27.6481 803.143 33.5021 808.542 39.448 813.927C43.3721 812.838 47.3789 811.767 51.3949 810.711C45.4214 805.022 39.5123 799.32 33.6307 793.627C29.6515 794.953 25.7151 796.316 21.8216 797.716L21.817 797.753ZM3.08334 780.223C8.9741 785.78 14.9246 791.338 20.9348 796.898C24.8344 795.495 28.7815 794.109 32.7761 792.74C26.7168 786.867 20.7143 780.998 14.7684 775.132C10.8075 776.8 6.95231 778.514 3.08334 780.223ZM0.000113046 659.766C106.075 613.816 256.322 614.763 469.248 711.804C478.698 715.379 488.27 719.128 497.962 723.052C508.448 726.462 519.099 730.124 529.897 733.938C540.075 736.663 550.34 739.512 560.771 742.567C570.301 744.488 579.938 746.536 589.682 748.711C599.791 749.97 610.007 751.327 620.331 752.782C629.463 753.107 638.669 753.489 647.951 753.931C657.141 753.296 666.406 752.684 675.746 752.093C684.575 750.386 693.443 748.662 702.351 746.919C710.662 744.076 718.996 741.166 727.352 738.188C735.418 733.97 743.484 729.635 751.549 725.184C758.862 719.707 766.151 714.066 773.417 708.261C780.496 700.94 787.531 693.396 794.522 685.631C800.547 677.149 806.502 668.4 812.387 659.384C818.351 648.019 824.202 636.27 829.94 624.136C834.296 612.649 838.518 600.702 842.654 588.544C847.001 572.461 851.136 555.768 855.116 538.615C857.767 523.764 860.244 508.421 862.582 492.706C864.88 471.399 866.833 449.174 868.602 426.456C869.406 408.692 870.058 390.533 870.472 371.748L870.578 369.166C870.578 359.76 870.619 350.529 870.472 340.783L870.219 304.386C868.156 260.15 866.12 216.985 864.149 175.162C861.006 108.406 858.049 45.0427 855.276 -14.9279H856.361C859.118 45.1131 862.075 108.459 865.234 175.111C866.793 208.195 868.39 242.176 870.026 277.055L869.677 228.647C869.043 141.649 868.528 60.4573 868.133 -14.9279H869.213C869.538 60.5583 870.052 141.748 870.757 228.642C870.938 253.394 871.118 278.627 871.299 304.34L871.556 309.767C871.846 316.062 871.974 321.934 872.218 328.101C873.26 301.741 874.281 275.905 875.283 250.593C879.069 154.764 882.561 66.4307 886.168 -14.9279H887.248C883.641 66.4353 880.149 154.783 876.363 250.662C875.186 280.507 873.976 311.079 872.733 342.377C873.077 351.374 873.454 360.44 873.702 369.18C877.893 325.429 881.916 283.139 885.773 242.308C894.596 149.246 902.715 63.6416 910.687 -14.9049H911.772C903.799 63.6692 895.689 149.301 886.848 242.414C882.741 285.787 878.452 330.787 873.982 377.414C874.272 387.895 874.442 398.133 874.64 408.329C886.145 338.219 896.867 271.875 906.804 209.298C919.748 128.601 931.727 53.9462 943.321 -14.9003H944.419C932.812 53.9829 920.828 128.697 907.87 209.468C897.529 273.947 886.472 342.29 874.699 414.495C874.883 425.064 875.076 435.674 875.131 445.92C900.675 343.466 923.13 248.768 943.808 161.694C958.714 98.8529 972.678 40.0142 986.173 -14.9554H987.294C973.776 40.0786 959.794 98.9999 944.865 161.951C923.948 250.124 901.18 346.108 875.242 450.12C875.287 461.148 875.242 471.923 875.154 482.639C923.824 346.701 963.791 223.234 999.549 112.78C1014.03 68.0573 1027.82 25.4757 1041.21 -14.96H1042.35C1028.92 25.5584 1015.1 68.2595 1000.58 113.102C964.568 224.355 924.274 348.824 875.14 485.938C875.067 496.773 875.003 507.64 874.787 518.103C956.834 354.774 1018.65 205.576 1072.83 74.7982C1085.66 43.8281 1098.12 13.9102 1110.21 -14.9554H1111.39C1099.19 14.0205 1086.67 44.0777 1073.85 75.2163C1019.44 206.536 957.34 356.429 874.732 520.575C874.488 531.571 874.12 542.249 873.748 552.91C999.012 375.034 1084.35 203.917 1158.57 55.0811C1170.52 31.1383 1182.21 7.79275 1193.65 -14.9554H1194.86C1183.3 7.91834 1171.52 31.4247 1159.54 55.5636C1085.1 204.799 999.526 376.44 873.67 554.895C873.302 565.532 872.972 576.261 872.457 586.508C1048.28 411.513 1156.02 221.033 1250.16 54.5849C1263.58 30.8687 1276.76 7.68859 1289.72 -14.9554H1290.97C1277.85 7.83563 1264.56 31.1934 1251.11 55.1179C1156.79 221.888 1048.84 412.777 872.416 588.103C871.86 598.841 871.138 609.148 870.449 619.532L870.656 619.325L870.697 619.279L870.748 619.247C1101.97 465.228 1229.5 255.482 1342.24 70.024C1359.89 40.9884 1377.16 12.5868 1394.46 -14.9554H1395.73C1378.35 12.7569 1360.94 41.356 1343.17 70.5892C1230.37 256.12 1102.79 465.973 871.359 620.12C871.01 620.483 870.656 620.833 870.302 621.186C869.626 631.53 869.025 642.071 868.188 651.973C869.025 651.398 869.865 650.829 870.697 650.231L870.752 650.194L870.807 650.171C1158.88 533.151 1302.86 303.017 1431.85 96.8632C1455.88 58.4585 1479.39 20.8854 1503.21 -14.9738H1504.51C1480.56 21.0508 1456.93 58.8214 1432.77 97.433C1303.71 303.72 1159.64 533.997 871.267 651.155C870.21 651.908 869.149 652.63 868.087 653.356C867.168 663.777 866.065 673.615 865.027 683.683C866.948 682.856 868.864 682.038 870.794 681.188H870.844H870.908C1217.08 613.876 1374.94 360.426 1517.72 131.137C1549.26 80.5051 1580.06 31.0448 1612 -14.983H1613.32C1581.26 31.2195 1550.34 80.8773 1518.64 131.73C1375.74 361.18 1217.76 614.818 871.161 682.208C869.061 683.127 866.975 684.046 864.884 684.919C863.874 694.738 862.922 704.714 861.751 714.115C864.793 713.463 867.825 712.815 870.881 712.153H870.987C1276.02 704.755 1445.6 424.572 1599.75 169.923C1639.05 105.001 1677.34 41.7236 1718.28 -14.9416H1719.61C1678.53 41.8614 1640.12 105.336 1600.67 170.484C1446.41 425.358 1276.67 705.798 871.092 713.233L861.617 715.268C860.391 724.968 859.012 734.246 857.647 743.564C862.091 743.422 866.525 743.275 871 743.146H871.088C1335.54 803.703 1515.11 493.106 1678.14 211.09C1724.87 130.264 1770.24 51.7865 1820.58 -14.96H1821.96C1771.46 51.8785 1725.96 130.572 1679.1 211.636C1515.9 493.929 1336.16 804.847 871.019 744.194C866.488 744.322 862.008 744.469 857.514 744.612C856.136 753.852 854.757 763.029 853.273 771.86C859.205 772.6 865.114 773.317 871.111 774.107H871.143H871.175C1395.61 909.199 1583.68 564.393 1753.36 253.285C1806.89 155.15 1858.59 60.3654 1918.44 -14.9922H1919.82C1859.8 60.4021 1807.97 155.417 1754.31 253.814C1584.43 565.266 1396.16 910.435 870.936 775.173C864.93 774.378 859.012 773.661 853.071 772.922C851.541 781.84 849.951 790.589 848.274 799.113C855.883 801.084 863.437 803.028 871.17 805.114H871.198C1456.23 1020.23 1651.5 637.333 1825.75 295.637C1885.33 178.796 1942.46 66.7799 2011.88 -14.9508H2013.3C1943.7 66.7386 1886.44 179.012 1826.71 296.129C1652.26 638.229 1456.77 1021.57 870.853 806.171C863.18 804.089 855.635 802.159 848.058 800.197C846.357 808.785 844.552 817.084 842.709 825.286C852.152 828.824 861.604 832.376 871.198 836.139H871.226C1517.58 1135.93 1718.84 710.922 1895.74 337.346C1960.68 200.227 2022.33 70.024 2101.51 -14.9554H2102.99C2023.59 69.8999 1961.8 200.37 1896.72 337.805C1719.6 711.836 1518.1 1137.36 870.807 837.159C861.254 833.414 851.853 829.881 842.461 826.357C840.623 834.499 838.845 842.733 836.873 850.462C848.223 855.865 859.651 861.384 871.253 867.164H871.276C1422.6 1169.6 1669.68 951.308 1835.92 648.039C1883.32 561.553 1924.16 468.165 1963.61 377.956C2033.35 218.478 2098.74 68.958 2188.4 -14.9554H2189.96C2100.04 68.6731 2034.5 218.52 1964.59 378.374C1925.13 468.606 1884.28 562.026 1836.85 648.559C1670.34 952.328 1422.89 1171.01 870.757 868.134C859.233 862.395 847.883 856.913 836.607 851.542C834.558 859.45 832.324 866.838 830.146 874.365C843.674 882.023 857.384 889.96 871.276 898.176C1411.49 1235.14 1676.25 1080.38 1847.2 806.139C1920.45 688.636 1976.5 549.192 2029.6 417.078C2102.97 234.515 2170.73 65.9345 2270.54 -11.6333C2272.01 -12.7774 2273.5 -13.8664 2274.98 -14.9692H2276.81C2274.94 -13.5907 2273.07 -12.2122 2271.23 -10.7786C2171.64 66.6053 2103.94 235.052 2030.62 417.473C1977.51 549.633 1921.44 689.123 1848.15 806.704C1676.89 1081.44 1411.7 1236.52 870.748 899.09C856.938 890.911 843.306 883.023 829.852 875.426C827.706 882.856 825.579 890.346 823.286 897.367C839.024 907.527 855.074 918.192 871.317 929.174C1415.93 1305.5 1695.71 1191.5 1872.87 934.959C1967.58 797.808 2033 619.9 2093.89 454.38C2157.34 281.852 2215.85 122.765 2297.49 37.1653V38.723C2216.42 124.346 2158.12 282.877 2094.9 454.77C2034.01 620.35 1968.56 798.318 1873.76 935.593C1696.27 1192.62 1416.04 1306.92 870.711 930.079C854.546 919.147 838.578 908.542 822.923 898.424C820.557 905.592 818.075 912.434 815.571 919.226C833.816 932.303 852.406 945.958 871.34 960.19C1427.66 1378.28 1721.8 1295.25 1905.64 1050.45C2019.57 898.741 2091.2 684.891 2156.61 489.628C2202.48 352.698 2245.3 224.957 2297.49 134.055V136.238C2245.77 226.91 2203.22 353.924 2157.64 489.972C2092.21 685.314 2020.54 899.251 1906.51 1051.1C1722.3 1296.38 1427.71 1379.64 870.688 961.04C851.855 946.887 833.355 933.297 815.19 920.268C715.07 1190.68 504.57 1147.98 296.477 1010.5C285.278 1003.89 274.096 997.018 262.934 989.887C252.742 984.097 242.573 978.092 232.428 971.87C221.4 965.949 210.427 959.804 199.509 953.435C189.244 948.227 179.037 942.813 168.888 937.192C158.038 932.058 147.272 926.751 136.59 921.27C126.288 916.807 116.086 912.188 105.983 907.412C95.3351 903.307 84.8203 899.04 74.4387 894.61C63.9713 891.109 53.6189 887.497 43.4732 883.748C33.2999 880.957 23.3119 878.058 13.5093 875.049C8.95725 874.13 4.45111 873.184 -0.0090769 872.21V871.102L2.62844 871.658L0.000113046 870.818V869.343C2.95928 869.664 5.94141 869.972 8.92815 870.261C5.92763 869.035 2.95468 867.799 0.000113046 866.558V865.414C4.25506 867.19 8.5437 868.953 12.866 870.703C16.542 871.066 20.2685 871.401 24.0043 871.732C19.515 869.563 15.0808 867.367 10.6788 865.166C7.08556 865.166 3.53824 865.193 0.000113046 865.198V864.123C2.82143 864.123 5.67031 864.123 8.52379 864.09C5.66572 862.663 2.82449 861.228 0.000113046 859.785V858.563C3.63014 860.401 7.28315 862.239 10.9591 864.077C14.8327 864.077 18.7706 864.008 22.7269 863.957C17.7459 861.114 12.8078 858.253 7.91266 855.374L0.000113046 856.224V855.139L6.36415 854.432C4.23821 853.176 2.11686 851.926 0.000113046 850.682V849.419C2.71727 851.03 5.44209 852.641 8.17457 854.253C12.0941 853.793 16.0687 853.37 20.0664 852.915C14.773 849.446 9.49792 845.972 4.3056 842.476L0.000113046 843.395V842.292L3.06956 841.635L0.000113046 839.562V838.244L4.55833 841.318C8.46405 840.491 12.4142 839.659 16.4088 838.823C10.8948 834.775 5.38083 830.722 0.000113046 826.655V825.277L0.170127 825.405C4.03909 824.201 7.96473 823.013 11.947 821.84C7.93104 818.589 3.94873 815.336 0.000113046 812.08V810.642C4.37453 814.249 8.76732 817.856 13.2244 821.454C17.121 820.291 21.0359 819.156 25.0243 817.984C19.1933 812.967 13.4634 807.935 7.73805 802.918C5.14036 803.901 2.56104 804.889 0.000113046 805.881V804.76C2.26084 803.881 4.53688 803.008 6.82824 802.141C4.53995 800.116 2.2639 798.099 0.000113046 796.089V794.605C2.65601 796.961 5.32569 799.318 8.00915 801.677C11.8827 800.216 15.7701 798.75 19.7447 797.316C13.759 791.775 7.83914 786.238 1.98514 780.706L0.000113046 781.592V780.407L1.13507 779.897L0.000113046 778.835V777.314L2.23787 779.423C6.10683 777.71 9.97121 775.986 13.9413 774.314C9.25745 769.697 4.6104 765.086 0.000113046 760.478V758.916C4.97187 763.888 9.99265 768.87 15.0624 773.864C132.257 724.872 294.078 697.394 512.34 733.635C507.988 731.47 503.683 729.375 499.377 727.289C274.803 672.843 113.841 699.034 0.000113046 754.215V752.989C113.115 698.249 272.574 672.117 494.461 724.959C490.587 723.121 486.75 721.283 482.918 719.5C264.657 651.555 109.576 670.334 -0.0136719 724.509V723.213C108.474 669.719 261.348 650.829 475.718 716.077C473.448 715.025 471.091 713.849 468.825 712.819C256.616 632.587 106.309 642.502 0.000113046 693.203V691.825C103.148 642.741 247.522 631.925 449.517 704.388C246.911 616.086 102.675 616.624 0.000113046 661.227V659.766Z" fill="#034833"/>
</g>
</g>
<defs>
<clipPath id="clip0_3809_91">
<rect y="0.0429688" width="1802" height="900" rx="50" fill="white"/>
</clipPath>
</defs>
</svg>
