<svg fill="#034833" height="19px" width="20px" version="1.1" id="Layer_1" xmlns="http://www.w3.org/2000/svg" xmlns:xlink="http://www.w3.org/1999/xlink" viewBox="-51.18 -51.18 614.16 614.16" xml:space="preserve" stroke="#034833" stroke-width="51.180099999999996"><g id="SVGRepo_bgCarrier" stroke-width="0"></g><g id="SVGRepo_tracerCarrier" stroke-linecap="round" stroke-linejoin="round" stroke="#CCCCCC" stroke-width="6.141612"></g><g id="SVGRepo_iconCarrier"> <g> <g> <g> <path d="M271.067,255.84l237.76-237.76c4.053-4.267,3.947-10.987-0.213-15.04c-4.16-3.947-10.667-3.947-14.827,0L248.453,248.373 c-4.16,4.16-4.16,10.88,0,15.04l245.333,245.333c4.267,4.053,10.987,3.947,15.04-0.213c3.947-4.16,3.947-10.667,0-14.827 L271.067,255.84z"></path> <path d="M25.733,255.84l237.76-237.76c4.053-4.267,3.947-10.987-0.213-15.04c-4.16-3.947-10.667-3.947-14.827,0L3.12,248.267 c-4.16,4.16-4.16,10.88,0,15.04L248.453,508.64c4.267,4.053,10.987,3.947,15.04-0.213c3.947-4.16,3.947-10.667,0-14.827 L25.733,255.84z"></path> </g> </g> </g> </g></svg>