<svg width="438" height="485" viewBox="0 0 438 485" fill="none" xmlns="http://www.w3.org/2000/svg">
<g opacity="0.4">
<path d="M164.944 59.5354C164.944 59.5354 211.375 300.136 369.561 394.434L305.73 410.677C305.73 410.677 295.3 358.773 235.734 373.902C176.169 389.031 194.604 441.07 194.604 441.07L134.389 456.349C134.389 456.349 228.182 330 148.578 63.6896L164.944 59.5354Z" stroke="white" stroke-width="2.19582" stroke-linecap="round" stroke-linejoin="round"/>
<path d="M169.155 253.008L171.157 260.891L243.255 242.576L241.253 234.693L169.155 253.008Z" stroke="white" stroke-width="2.19582" stroke-linecap="round" stroke-linejoin="round"/>
<path d="M161.389 336.459L166.214 355.453L293.136 323.212L288.311 304.218L161.389 336.459Z" stroke="white" stroke-width="2.19582" stroke-linecap="round" stroke-linejoin="round"/>
<path d="M202.138 274.588L202.342 326.019L247.468 314.546L222.431 269.441L202.138 274.588Z" stroke="white" stroke-width="2.19582" stroke-linecap="round" stroke-linejoin="round"/>
<path d="M147.081 64.0693L140.589 65.7225L135.385 45.2131L167.335 37.1057L172.541 57.5914L147.081 64.0693Z" stroke="white" stroke-width="2.19582" stroke-linecap="round" stroke-linejoin="round"/>
<path d="M142.034 1.22423L142.29 43.4702L160.861 38.7515L142.034 1.22423Z" stroke="white" stroke-width="2.19582" stroke-linecap="round" stroke-linejoin="round"/>
<path d="M245.015 263.701L202.141 274.589L180.379 280.12L202.209 291.085L178.957 306.222L202.344 326.02L176.031 332.695L202.262 303.572L179.879 292.538L202.141 274.589" stroke="white" stroke-width="2.19582" stroke-linecap="round" stroke-linejoin="round"/>
<path d="M223.095 269.256L251.234 274.395L236.825 294.781L273.796 307.859L247.469 314.545L258.585 285.99L230.919 283.784L244.869 263.737L223.095 269.256ZM223.095 269.256L180.232 280.156L234.122 244.868" stroke="white" stroke-width="2.19582" stroke-linecap="round" stroke-linejoin="round"/>
<path d="M205.281 185.439L176.113 192.851L199.491 171.391L172.717 168.552L190.864 148.704" stroke="white" stroke-width="2.19582" stroke-linecap="round" stroke-linejoin="round"/>
<path d="M170.245 153.935L190.863 148.702L168.367 141.632L183.722 128.074L163.756 121.693" stroke="white" stroke-width="2.19582" stroke-linecap="round" stroke-linejoin="round"/>
<path d="M169.46 368.383L298.336 335.628" stroke="white" stroke-width="2.19582" stroke-linecap="round" stroke-linejoin="round"/>
<path d="M176.114 192.849L211.284 199.142L179.061 223.108L218.239 213.143L181.064 242.271L228.035 238.036" stroke="white" stroke-width="2.19582" stroke-linecap="round" stroke-linejoin="round"/>
<path d="M180.326 117.463L163.753 121.688L176.495 106.463L159.489 103.631L172.423 90.4932" stroke="white" stroke-width="2.19582" stroke-linecap="round" stroke-linejoin="round"/>
<path d="M164.25 388.359L312.888 350.591" stroke="white" stroke-width="2.19582" stroke-linecap="round" stroke-linejoin="round"/>
<path d="M134.361 456.363L198.808 397.572L157.974 407.684L194.518 441.069" stroke="white" stroke-width="2.19582" stroke-linecap="round" stroke-linejoin="round"/>
<path d="M369.548 394.444L280.512 376.811L328.064 364.467L305.658 410.671" stroke="white" stroke-width="2.19582" stroke-linecap="round" stroke-linejoin="round"/>
<path d="M148.555 63.6886L166.942 68.9176L153.648 81.9504L172.425 90.4991L157.142 94.3878" stroke="white" stroke-width="2.19582" stroke-linecap="round" stroke-linejoin="round"/>
<path d="M176.028 192.882L205.196 185.469L174.405 177.761L195.51 163.227L171.161 153.709" stroke="white" stroke-width="2.19582" stroke-linecap="round" stroke-linejoin="round"/>
<path d="M190.865 148.703L171.162 153.708L186.885 137.433L166.325 131.846L180.331 117.469" stroke="white" stroke-width="2.19582" stroke-linecap="round" stroke-linejoin="round"/>
<path d="M205.199 185.469L178.134 207.106L217.048 213.439L179.062 223.109L226.126 230.523L181.152 249.948" stroke="white" stroke-width="2.19582" stroke-linecap="round" stroke-linejoin="round"/>
<path d="M165.503 121.24L180.329 117.466L161.231 110.474L175.041 99.8677L157.143 94.3841" stroke="white" stroke-width="2.19582" stroke-linecap="round" stroke-linejoin="round"/>
<path d="M164.958 59.5256L152.291 73.9247L169.285 78.1079L157.143 94.3887L172.426 90.5" stroke="white" stroke-width="2.19582" stroke-linecap="round" stroke-linejoin="round"/>
<path d="M180.565 258.48L244.869 263.737" stroke="white" stroke-width="2.19582" stroke-linecap="round" stroke-linejoin="round"/>
<path d="M171.239 52.5081L139.285 60.625L140.595 65.783L172.549 57.6661L171.239 52.5081Z" stroke="white" stroke-width="2.19582" stroke-linecap="round" stroke-linejoin="round"/>
<path d="M167.328 37.176L135.374 45.293L136.684 50.4509L168.638 42.334L167.328 37.176Z" stroke="white" stroke-width="2.19582" stroke-linecap="round" stroke-linejoin="round"/>
</g>
</svg>
