<svg width="15" height="14" viewBox="0 0 15 14" fill="none" xmlns="http://www.w3.org/2000/svg">
<path d="M14.9688 7.04297C14.9688 7.60547 14.5312 8.04297 14 8.04297H4.40625L7.6875 11.3555C8.09375 11.7305 8.09375 12.3867 7.6875 12.7617C7.5 12.9492 7.25 13.043 7 13.043C6.71875 13.043 6.46875 12.9492 6.28125 12.7617L1.28125 7.76172C0.875 7.38672 0.875 6.73047 1.28125 6.35547L6.28125 1.35547C6.65625 0.949219 7.3125 0.949219 7.6875 1.35547C8.09375 1.73047 8.09375 2.38672 7.6875 2.76172L4.40625 6.04297H14C14.5312 6.04297 14.9688 6.51172 14.9688 7.04297Z" fill="#034833"/>
</svg>
