<svg width="15" height="14" viewBox="0 0 15 14" fill="none" xmlns="http://www.w3.org/2000/svg">
    <path d="M14.9688 7.03906C14.9688 7.60156 14.5312 8.03906 14 8.03906H4.40625L7.6875 11.3516C8.09375 11.7266 8.09375 12.3828 7.6875 12.7578C7.5 12.9453 7.25 13.0391 7 13.0391C6.71875 13.0391 6.46875 12.9453 6.28125 12.7578L1.28125 7.75781C0.875 7.38281 0.875 6.72656 1.28125 6.35156L6.28125 1.35156C6.65625 0.945312 7.3125 0.945312 7.6875 1.35156C8.09375 1.72656 8.09375 2.38281 7.6875 2.75781L4.40625 6.03906H14C14.5312 6.03906 14.9688 6.50781 14.9688 7.03906Z" fill="white"/>
</svg>