<svg class="svg-link-icon" width="14" height="16" viewBox="0 0 14 16" fill="none" xmlns="http://www.w3.org/2000/svg">
<path d="M3.12402 15.043H0.217773V5.69922H3.12402V15.043ZM1.65527 4.44922C0.749023 4.44922 -0.000976562 3.66797 -0.000976562 2.73047C-0.000976562 1.44922 1.37402 0.636719 2.49902 1.29297C3.03027 1.57422 3.34277 2.13672 3.34277 2.73047C3.34277 3.66797 2.59277 4.44922 1.65527 4.44922ZM13.9678 15.043H11.0928V10.5117C11.0928 9.41797 11.0615 8.04297 9.56152 8.04297C8.06152 8.04297 7.84277 9.19922 7.84277 10.418V15.043H4.93652V5.69922H7.71777V6.98047H7.74902C8.15527 6.26172 9.09277 5.48047 10.499 5.48047C13.4365 5.48047 13.999 7.41797 13.999 9.91797V15.043H13.9678Z" fill="#034833"/>
</svg>
