<svg width="47" height="67" viewBox="0 0 47 67" fill="none" xmlns="http://www.w3.org/2000/svg">
<path d="M28.8025 1.24514C27.7139 0.986602 26.5981 0.836922 25.4959 0.632812C24.2441 0.632812 22.9786 0.632812 21.7267 0.632812C21.577 0.673634 21.441 0.741671 21.2913 0.755278C15.2088 1.43564 10.1333 4.10268 6.2416 8.8108C1.96891 13.9816 0.199956 19.9416 1.31576 26.6228C2.06416 31.0724 3.83311 35.1954 5.77895 39.2367C10.1197 48.2176 15.5082 56.5724 21.3185 64.6688C22.652 66.533 24.5298 66.5194 25.8769 64.6688C29.5917 59.5524 33.0616 54.2864 36.2593 48.8571C39.3346 43.6183 42.1921 38.2706 44.2604 32.5283C45.281 29.6844 46.1518 26.7997 46.2199 23.7516C46.4648 13.0563 39.1985 3.70806 28.8025 1.24514ZM23.5773 31.467C19.0733 31.467 15.3993 27.7658 15.3993 23.2482C15.3993 18.7305 19.0869 15.0566 23.6045 15.0566C28.1085 15.0566 31.8097 18.7441 31.8097 23.2345C31.8097 27.793 28.1222 31.4806 23.5773 31.467Z" fill="#1D1E21"/>
</svg>
