<svg width="41" height="42" viewBox="0 0 41 42" fill="none" xmlns="http://www.w3.org/2000/svg">
<path d="M39.9219 31.2344L38.0469 39.125C37.8125 40.2969 36.875 41.0781 35.7031 41.0781C16.0156 41 0 24.9844 0 5.29688C0 4.125 0.703125 3.1875 1.875 2.95312L9.76562 1.07812C10.8594 0.84375 12.0312 1.46875 12.5 2.48438L16.1719 11C16.5625 12.0156 16.3281 13.1875 15.4688 13.8125L11.25 17.25C13.9062 22.6406 18.2812 27.0156 23.75 29.6719L27.1875 25.4531C27.8125 24.6719 28.9844 24.3594 30 24.75L38.5156 28.4219C39.5312 28.9688 40.1562 30.1406 39.9219 31.2344Z" fill="white"/>
</svg>
 