<svg width="45" height="46" viewBox="0 0 45 46" fill="none" xmlns="http://www.w3.org/2000/svg">
<g clip-path="url(#clip0_3755_190)">
<path d="M22.5 7.82812C19.1213 7.83194 15.8821 9.17575 13.493 11.5648C11.1039 13.9538 9.75986 17.1929 9.75586 20.5716C9.75586 31.7136 21.7406 37.1516 22.2507 37.3763C22.3292 37.411 22.4141 37.429 22.5 37.429C22.5859 37.429 22.6708 37.411 22.7493 37.3763C23.2594 37.1502 35.2441 31.7122 35.2441 20.5716C35.2401 17.1929 33.8961 13.9538 31.507 11.5648C29.1179 9.17575 25.8787 7.83194 22.5 7.82812ZM22.5 36.1345C20.7967 35.2996 10.9863 30.0715 10.9863 20.5716C10.9863 17.5179 12.1994 14.5894 14.3586 12.4302C16.5178 10.2709 19.4464 9.05789 22.5 9.05789C25.5536 9.05789 28.4822 10.2709 30.6414 12.4302C32.8006 14.5894 34.0137 17.5179 34.0137 20.5716C34.0137 30.0585 24.2016 35.2982 22.5 36.1345Z" fill="#034833"/>
<path d="M22.4998 11.1172C20.6298 11.1172 18.8018 11.6717 17.2469 12.7107C15.692 13.7496 14.4802 15.2263 13.7646 16.954C13.049 18.6817 12.8618 20.5828 13.2267 22.4169C13.5915 24.251 14.4921 25.9357 15.8145 27.258C17.1368 28.5803 18.8216 29.4807 20.6557 29.8454C22.4898 30.2102 24.3909 30.0229 26.1186 29.3071C27.8462 28.5914 29.3228 27.3794 30.3617 25.8245C31.4005 24.2695 31.9549 22.4414 31.9548 20.5714C31.9517 18.0648 30.9546 15.6618 29.1821 13.8894C27.4096 12.117 25.0064 11.1201 22.4998 11.1172ZM17.7098 27.2511V26.4966C17.7104 25.6342 18.0531 24.8072 18.6628 24.1973C19.2725 23.5873 20.0993 23.2442 20.9618 23.2433H24.0379C24.9001 23.2442 25.7267 23.5871 26.3364 24.1968C26.946 24.8064 27.289 25.6331 27.2899 26.4952V27.2511C25.8947 28.2557 24.2191 28.7962 22.4998 28.7962C20.7806 28.7962 19.105 28.2557 17.7098 27.2511ZM28.5045 26.1838C28.4249 25.0532 27.9201 23.9948 27.0918 23.2213C26.2635 22.4477 25.173 22.0165 24.0397 22.0142H20.9635C19.8302 22.0165 18.7397 22.4477 17.9114 23.2213C17.0831 23.9948 16.5784 25.0532 16.4987 26.1838C15.403 25.013 14.6734 23.5476 14.3996 21.9676C14.1259 20.3877 14.32 18.7622 14.958 17.2911C15.5961 15.82 16.6502 14.5675 17.9908 13.6877C19.3314 12.8079 20.8999 12.3392 22.5034 12.3392C24.1069 12.3392 25.6754 12.8079 27.0159 13.6877C28.3565 14.5675 29.4107 15.82 30.0487 17.2911C30.6867 18.7622 30.8808 20.3877 30.6071 21.9676C30.3334 23.5476 29.6038 25.013 28.5081 26.1838H28.5045Z" fill="#034833"/>
<path d="M0.379688 11.7145C0.492081 11.7611 0.615779 11.7733 0.735123 11.7496C0.854467 11.7259 0.964091 11.6673 1.05012 11.5812L4.61883 8.01285L9.51645 12.9105C9.63187 13.0259 9.78843 13.0908 9.95168 13.0908C9.97329 13.0909 9.99489 13.0897 10.0164 13.0873C10.1076 13.0778 10.1955 13.0479 10.2736 12.9999C10.3517 12.9519 10.4181 12.887 10.4678 12.8099C11.0838 11.8593 11.8093 10.9844 12.6295 10.2031C12.689 10.1465 12.7365 10.0786 12.7692 10.0033C12.802 9.92808 12.8194 9.84704 12.8204 9.76498C12.8214 9.68291 12.8059 9.60148 12.775 9.52548C12.744 9.44947 12.6981 9.38043 12.6401 9.32242L7.97484 4.65684L11.5432 1.08812C11.6289 1.00216 11.6873 0.892738 11.7109 0.773655C11.7346 0.654572 11.7224 0.531156 11.676 0.418965C11.6296 0.306774 11.5511 0.210828 11.4502 0.143221C11.3494 0.0756136 11.2308 0.0393715 11.1094 0.0390625L0.615234 0.0390625C0.452247 0.0390623 0.295919 0.103737 0.18057 0.218887C0.0652219 0.334038 0.000279408 0.490255 0 0.653242L0 11.1463C-3.44277e-07 11.268 0.0360738 11.3869 0.103659 11.488C0.171244 11.5891 0.267304 11.6679 0.379688 11.7145ZM1.23047 1.26953H9.62297L6.66985 4.22266C6.61267 4.27976 6.56731 4.34758 6.53636 4.42223C6.50541 4.49688 6.48948 4.5769 6.48948 4.65771C6.48948 4.73853 6.50541 4.81855 6.53636 4.8932C6.56731 4.96785 6.61267 5.03567 6.66985 5.09277L11.3333 9.7559C10.8006 10.3059 10.3089 10.8941 9.86203 11.5158L5.05371 6.70785C4.9966 6.65067 4.92879 6.60531 4.85414 6.57436C4.77948 6.54342 4.69947 6.52749 4.61865 6.52749C4.53784 6.52749 4.45782 6.54342 4.38317 6.57436C4.30852 6.60531 4.2407 6.65067 4.18359 6.70785L1.23047 9.66098V1.26953Z" fill="#034833"/>
<path d="M11.7454 30.9305C11.6925 30.8598 11.6251 30.8014 11.5477 30.759C11.4703 30.7167 11.3847 30.6915 11.2967 30.6852C11.2087 30.6788 11.1204 30.6915 11.0377 30.7223C10.9551 30.7531 10.88 30.8013 10.8176 30.8637L4.61883 37.0628L1.05012 33.4941C0.964077 33.4081 0.85448 33.3496 0.735177 33.3259C0.615874 33.3022 0.492218 33.3143 0.379837 33.3609C0.267455 33.4074 0.171391 33.4862 0.103784 33.5873C0.0361774 33.6885 6.16089e-05 33.8074 9.041e-07 33.929V44.4221C-0.000137752 44.503 0.0156734 44.5831 0.0465298 44.6578C0.0773861 44.7326 0.122682 44.8006 0.179826 44.8578C0.236969 44.915 0.304839 44.9605 0.379551 44.9914C0.454264 45.0224 0.534353 45.0384 0.615235 45.0384H11.1094C11.2311 45.0385 11.3501 45.0025 11.4513 44.9349C11.5525 44.8673 11.6314 44.7712 11.678 44.6588C11.7246 44.5463 11.7367 44.4226 11.7129 44.3032C11.6891 44.1838 11.6304 44.0742 11.5443 43.9883L7.9759 40.4195L14.0087 34.386C14.0661 34.3286 14.1115 34.2605 14.1424 34.1854C14.1733 34.1104 14.1891 34.03 14.1888 33.9489C14.1885 33.8678 14.1721 33.7875 14.1407 33.7127C14.1092 33.6379 14.0633 33.5701 14.0055 33.5131C13.1886 32.71 12.433 31.8467 11.7454 30.9305ZM6.66984 39.9836C6.61268 40.0407 6.56732 40.1085 6.53638 40.1831C6.50544 40.2577 6.48951 40.3377 6.48951 40.4185C6.48951 40.4993 6.50544 40.5793 6.53638 40.6539C6.56732 40.7285 6.61268 40.7963 6.66984 40.8534L9.62297 43.8065H1.23047V35.4147L4.18359 38.3678C4.2407 38.425 4.30852 38.4704 4.38317 38.5013C4.45782 38.5323 4.53784 38.5482 4.61865 38.5482C4.69946 38.5482 4.77948 38.5323 4.85414 38.5013C4.92879 38.4704 4.9966 38.425 5.05371 38.3678L11.1934 32.2281C11.6617 32.8149 12.1676 33.3901 12.7051 33.9473L6.66984 39.9836Z" fill="#034833"/>
<path d="M44.6206 33.3608C44.5082 33.3142 44.3845 33.3019 44.2652 33.3257C44.1458 33.3494 44.0362 33.408 43.9502 33.494L40.3815 37.0627L34.1824 30.8636C34.1198 30.8015 34.0447 30.7534 33.962 30.7226C33.8794 30.6918 33.7912 30.679 33.7032 30.685C33.6152 30.6914 33.5296 30.7167 33.4522 30.7592C33.3748 30.8016 33.3076 30.8603 33.2549 30.9311C32.5672 31.8467 31.8117 32.7094 30.9947 33.512C30.937 33.5689 30.891 33.6368 30.8596 33.7116C30.8282 33.7863 30.8118 33.8666 30.8115 33.9478C30.8112 34.0289 30.827 34.1093 30.8579 34.1843C30.8888 34.2593 30.9342 34.3275 30.9916 34.3849L37.0254 40.4191L33.4571 43.9871C33.3706 44.073 33.3116 44.1826 33.2876 44.302C33.2635 44.4214 33.2755 44.5453 33.322 44.658C33.3685 44.7706 33.4474 44.8669 33.5487 44.9346C33.65 45.0023 33.7691 45.0384 33.8909 45.0383H44.3851C44.5482 45.0383 44.7047 44.9735 44.8201 44.8581C44.9355 44.7427 45.0003 44.5862 45.0003 44.423V33.9289C45.0002 33.8073 44.9641 33.6884 44.8966 33.5873C44.829 33.4862 44.733 33.4073 44.6206 33.3608ZM43.7698 43.8078H35.3773L38.3304 40.8547C38.3876 40.7976 38.433 40.7298 38.4639 40.6552C38.4949 40.5806 38.5108 40.5006 38.5108 40.4198C38.5108 40.339 38.4949 40.259 38.4639 40.1844C38.433 40.1098 38.3876 40.042 38.3304 39.9849L32.2945 33.9472C32.8327 33.39 33.3386 32.8148 33.8062 32.228L39.9459 38.3674C40.003 38.4246 40.0708 38.4699 40.1455 38.5009C40.2201 38.5318 40.3001 38.5477 40.3809 38.5477C40.4617 38.5477 40.5418 38.5318 40.6164 38.5009C40.6911 38.4699 40.7589 38.4246 40.816 38.3674L43.7691 35.4143L43.7698 43.8078Z" fill="#034833"/>
<path d="M44.3849 0.0390627H33.8907C33.769 0.0389554 33.65 0.074972 33.5488 0.142551C33.4476 0.21013 33.3687 0.30623 33.3221 0.418681C33.2755 0.531132 33.2634 0.654874 33.2872 0.774235C33.311 0.893596 33.3697 1.0032 33.4559 1.08918L37.0242 4.65789L32.36 9.32242C32.302 9.38043 32.2561 9.44947 32.2252 9.52548C32.1942 9.60148 32.1787 9.68291 32.1797 9.76498C32.1807 9.84704 32.1981 9.92808 32.2309 10.0033C32.2637 10.0786 32.3112 10.1465 32.3706 10.2031C33.1907 10.9845 33.9162 11.8594 34.5323 12.8099C34.5821 12.887 34.6484 12.9519 34.7265 12.9999C34.8047 13.0479 34.8926 13.0778 34.9837 13.0873C35.0052 13.0897 35.0268 13.0909 35.0484 13.0908C35.2117 13.0908 35.3682 13.0259 35.4837 12.9105L40.3813 8.01285L43.95 11.5812C44.036 11.6672 44.1456 11.7257 44.2649 11.7494C44.3842 11.7732 44.5079 11.761 44.6203 11.7144C44.7327 11.6679 44.8287 11.5891 44.8963 11.488C44.9639 11.3869 45.0001 11.268 45.0001 11.1463V0.653242C44.9998 0.490255 44.9349 0.334038 44.8195 0.218888C44.7042 0.103737 44.5479 0.0390625 44.3849 0.0390627ZM43.7696 9.66098L40.8165 6.70785C40.7594 6.65067 40.6916 6.60531 40.6169 6.57436C40.5423 6.54341 40.4623 6.52749 40.3815 6.52749C40.3007 6.52749 40.2206 6.54341 40.146 6.57436C40.0713 6.60531 40.0035 6.65067 39.9464 6.70785L35.1381 11.5158C34.6913 10.8941 34.1995 10.3059 33.6668 9.7559L38.3303 5.09207C38.3874 5.03496 38.4328 4.96714 38.4638 4.89249C38.4947 4.81784 38.5106 4.73782 38.5106 4.65701C38.5106 4.5762 38.4947 4.49618 38.4638 4.42153C38.4328 4.34688 38.3874 4.27906 38.3303 4.22195L35.3771 1.26883H43.7696V9.66098Z" fill="#034833"/>
<path d="M22.5 14.103C21.8095 14.0645 21.1234 14.2341 20.5303 14.5899C19.9373 14.9456 19.4646 15.4711 19.1735 16.0984C18.8825 16.7257 18.7863 17.426 18.8975 18.1085C19.0088 18.7911 19.3222 19.4246 19.7974 19.927C20.2726 20.4294 20.8877 20.7777 21.563 20.9268C22.2383 21.0758 22.9428 21.0188 23.5853 20.7631C24.2278 20.5074 24.7789 20.0647 25.1671 19.4924C25.5553 18.9201 25.7628 18.2445 25.7629 17.5529C25.7859 16.6632 25.4555 15.8006 24.844 15.154C24.2324 14.5074 23.3896 14.1295 22.5 14.103ZM22.5 19.772C22.0528 19.8114 21.6041 19.7147 21.2127 19.4947C20.8213 19.2746 20.5056 18.9415 20.3068 18.5389C20.1081 18.1363 20.0356 17.6831 20.0989 17.2386C20.1622 16.7941 20.3584 16.3791 20.6616 16.048C20.9649 15.7169 21.3611 15.4852 21.7983 15.3831C22.2355 15.2811 22.6934 15.3136 23.1118 15.4763C23.5303 15.639 23.8898 15.9243 24.1433 16.2948C24.3968 16.6654 24.5324 17.1039 24.5324 17.5529C24.5553 18.1161 24.3544 18.6655 23.9736 19.0812C23.5928 19.4968 23.0631 19.7449 22.5 19.7713V19.772Z" fill="#034833"/>
</g>
<defs>
<clipPath id="clip0_3755_190">
<rect width="45" height="45" fill="white" transform="translate(0 0.0390625)"/>
</clipPath>
</defs>
</svg>
