<svg width="65" height="65" viewBox="0 0 65 65" fill="none" xmlns="http://www.w3.org/2000/svg">
<path d="M53.9121 39.0974C53.9664 38.4062 54.0025 37.7192 54.0025 37.0534V11.0448C54.0025 10.8695 53.9506 10.6982 53.8535 10.5524C53.7564 10.4065 53.6183 10.2927 53.4566 10.2252L29.177 0.0689159C29.0684 0.0234264 28.9518 0 28.834 0C28.7162 0 28.5996 0.0234264 28.491 0.0689159L4.21195 10.2252C4.05025 10.2927 3.91214 10.4065 3.81501 10.5524C3.71787 10.6982 3.66604 10.8695 3.66605 11.0448V37.0534C3.65766 42.2373 5.1864 47.3073 8.05901 51.6225C10.9316 55.9377 15.0191 59.3044 19.8048 61.2969L28.492 64.9308C28.6006 64.9764 28.7172 64.9998 28.835 64.9998C28.9528 64.9998 29.0694 64.9764 29.178 64.9308L37.8657 61.2969C37.9998 61.241 38.1303 61.1796 38.2628 61.1212C39.6797 62.4729 41.3708 63.504 43.2213 64.1444C45.0719 64.7849 47.0386 65.0196 48.9879 64.8328C50.9372 64.646 52.8235 64.0419 54.5188 63.0617C56.214 62.0814 57.6785 60.7479 58.8128 59.1516C59.9471 57.5554 60.7247 55.7337 61.0928 53.8104C61.4609 51.887 61.4108 49.907 60.946 48.0047C60.4813 46.1024 59.6127 44.3224 58.3992 42.7855C57.1856 41.2486 55.6557 39.9907 53.9131 39.0974H53.9121ZM28.8343 63.1479L20.4899 59.6577C16.028 57.7996 12.2172 54.6605 9.53901 50.6371C6.86084 46.6137 5.43558 41.8867 5.44339 37.0534V11.6364L28.8343 1.85185L52.2251 11.6364V37.0534C52.2251 37.479 52.2109 37.9167 52.1865 38.3534C51.1289 37.9821 50.0295 37.7433 48.9132 37.6425C48.9193 37.4424 48.9243 37.2449 48.9243 37.0524V14.4253C48.9243 14.25 48.8725 14.0786 48.7753 13.9327C48.6782 13.7868 48.5401 13.6728 48.3784 13.6052L29.177 5.5736C29.0684 5.52811 28.9518 5.50469 28.834 5.50469C28.7162 5.50469 28.5996 5.52811 28.491 5.5736L9.28957 13.6052C9.128 13.673 8.99006 13.787 8.89303 13.9329C8.79601 14.0788 8.74422 14.2501 8.74417 14.4253V37.0534C8.7374 41.2355 9.97062 45.3257 12.288 48.8071C14.6053 52.2884 17.9027 55.0046 21.7635 56.6123L28.491 59.4261C28.5996 59.4717 28.7162 59.4951 28.834 59.4951C28.9518 59.4951 29.0684 59.4717 29.177 59.4261L35.2464 56.887C35.7102 57.904 36.2971 58.8603 36.9938 59.7343L28.8343 63.1479ZM34.02 51.2422C34.0194 52.5921 34.2196 53.9345 34.6142 55.2255L28.8343 57.6432L22.4495 54.9726C18.9123 53.4998 15.8912 51.0114 13.7681 47.8219C11.645 44.6323 10.5152 40.8849 10.5215 37.0534V15.0169L28.8343 7.35653L47.147 15.0169V37.0559C47.147 37.2332 47.1424 37.416 47.1368 37.6013C43.6132 37.7444 40.2811 39.2435 37.8368 41.7855C35.3925 44.3275 34.025 47.7157 34.02 51.2422ZM40.7582 60.8906V59.7999C40.7595 58.5545 41.2549 57.3605 42.1355 56.4799C43.0161 55.5993 44.2101 55.1039 45.4555 55.1026H49.8988C51.1442 55.1039 52.3382 55.5993 53.2188 56.4799C54.0994 57.3605 54.5947 58.5545 54.5961 59.7999V60.8901C52.5809 62.3412 50.1604 63.122 47.6771 63.122C45.1939 63.122 42.7734 62.3417 40.7582 60.8906ZM56.3506 59.3484C56.2354 57.7155 55.5062 56.1867 54.3098 55.0694C53.1134 53.9521 51.5384 53.3291 49.9014 53.3258H45.458C43.821 53.329 42.2459 53.9519 41.0494 55.0692C39.853 56.1866 39.1239 57.7154 39.0088 59.3484C37.4261 57.6574 36.3722 55.5406 35.9768 53.2584C35.5814 50.9763 35.8618 48.6283 36.7834 46.5035C37.705 44.3786 39.2277 42.5694 41.1641 41.2986C43.1004 40.0278 45.3661 39.3507 47.6822 39.3507C49.9984 39.3507 52.264 40.0278 54.2004 41.2986C56.1367 42.5694 57.6594 44.3786 58.581 46.5035C59.5026 48.6283 59.783 50.9763 59.3876 53.2584C58.9922 55.5406 57.9384 57.6574 56.3557 59.3484H56.3506Z" fill="white"/>
<path d="M47.6768 41.8945C46.6794 41.8389 45.6883 42.0838 44.8317 42.5977C43.9751 43.1115 43.2924 43.8706 42.8719 44.7767C42.4514 45.6828 42.3125 46.6943 42.4732 47.6802C42.6338 48.6661 43.0867 49.5811 43.7731 50.3069C44.4594 51.0326 45.3478 51.5357 46.3233 51.751C47.2987 51.9663 48.3163 51.8839 49.2444 51.5146C50.1725 51.1452 50.9685 50.5058 51.5292 49.6791C52.09 48.8525 52.3897 47.8765 52.3898 46.8776C52.4231 45.5925 51.9459 44.3466 51.0625 43.4126C50.1792 42.4786 48.9617 41.9327 47.6768 41.8945ZM47.6768 50.0829C47.0307 50.1398 46.3826 50.0002 45.8173 49.6824C45.252 49.3646 44.7959 48.8833 44.5089 48.3018C44.2218 47.7203 44.1171 47.0656 44.2086 46.4236C44.3 45.7815 44.5833 45.1821 45.0213 44.7039C45.4593 44.2256 46.0316 43.8909 46.6632 43.7435C47.2947 43.5961 47.9561 43.643 48.5605 43.878C49.1649 44.113 49.6843 44.5252 50.0504 45.0604C50.4166 45.5957 50.6125 46.2291 50.6124 46.8776C50.6462 47.6917 50.3564 48.486 49.8063 49.0869C49.2562 49.6879 48.4906 50.0467 47.6768 50.085V50.0829Z" fill="white"/>
<path d="M28.8342 14.3672C26.6084 14.3672 24.4325 15.0272 22.5818 16.2639C20.731 17.5005 19.2886 19.2581 18.4368 21.3146C17.585 23.371 17.3621 25.6338 17.7963 27.8169C18.2306 30 19.3024 32.0053 20.8763 33.5792C22.4503 35.1531 24.4556 36.225 26.6386 36.6592C28.8217 37.0935 31.0846 36.8706 33.141 36.0188C35.1974 35.167 36.9551 33.7245 38.1917 31.8738C39.4283 30.0231 40.0884 27.8472 40.0884 25.6213C40.085 22.6376 38.8982 19.777 36.7884 17.6672C34.6786 15.5573 31.818 14.3705 28.8342 14.3672ZM37.3954 29.6574H34.541C34.7484 28.6195 34.8727 27.5667 34.9127 26.509H38.2643C38.1609 27.6012 37.8668 28.6668 37.3954 29.6574ZM20.273 21.5832H23.1269C22.9201 22.6212 22.7958 23.674 22.7552 24.7316H19.4036C19.5072 23.6394 19.8015 22.5738 20.273 21.5832ZM29.7229 19.8059V16.3883C30.6491 16.8717 31.5459 18.0768 32.1919 19.8069L29.7229 19.8059ZM32.719 21.5832C32.9504 22.6183 33.089 23.6719 33.1329 24.7316H29.7229V21.5832H32.719ZM27.9456 16.3873V19.8059H25.4766C26.1225 18.0793 27.0193 16.8717 27.9456 16.3883V16.3873ZM27.9456 21.5832V24.7316H24.5356C24.5792 23.6719 24.7178 22.6182 24.9495 21.5832H27.9456ZM19.4026 26.509H22.7542C22.7947 27.5666 22.919 28.6194 23.1259 29.6574H20.272C19.8005 28.6668 19.5062 27.6012 19.4026 26.509ZM24.5356 26.509H27.9456V29.6574H24.9495C24.7178 28.6224 24.5792 27.5687 24.5356 26.509ZM27.9456 31.4348V34.8534C27.0193 34.3704 26.1225 33.1649 25.4761 31.4348H27.9456ZM29.7229 34.8534V31.4348H32.1919C31.5459 33.1654 30.6491 34.3704 29.7229 34.8534ZM29.7229 29.6574V26.509H33.1329C33.089 27.5687 32.9504 28.6224 32.719 29.6574H29.7229ZM34.9127 24.7316C34.8724 23.674 34.7481 22.6212 34.541 21.5832H37.3954C37.8673 22.5738 38.1619 23.6394 38.2658 24.7316H34.9127ZM36.3011 19.8059H34.0814C33.7777 18.831 33.3511 17.8988 32.8119 17.0317C34.1783 17.667 35.3742 18.6179 36.3011 19.8059ZM24.854 17.0327C24.3158 17.8996 23.8901 18.8315 23.587 19.8059H21.3673C22.2938 18.6186 23.4887 17.6682 24.854 17.0327ZM21.3668 31.4348H23.587C23.89 32.4095 24.3157 33.3417 24.854 34.2089C23.4885 33.5732 22.2933 32.6224 21.3668 31.4348ZM32.8139 34.2095C33.3531 33.3421 33.7797 32.4098 34.0835 31.4348H36.3036C35.3764 32.623 34.1804 33.5736 32.8139 34.2095Z" fill="white"/>
</svg>
