<svg width="54" height="32" viewBox="0 0 54 32" fill="none" xmlns="http://www.w3.org/2000/svg">
<path d="M35.0341 1.54509L35.0344 1.54517L35.0367 1.53512C35.1306 1.12818 35.4712 0.847622 35.914 0.847622H53.0595C53.3775 0.847622 53.5532 0.918825 53.6535 1.02233C53.7551 1.12702 53.8182 1.30424 53.8182 1.60627V4.17827C53.7817 4.63765 53.6405 5.05576 53.3993 5.40165L34.3594 30.51L34.3591 30.5098L34.3527 30.5194C34.106 30.8894 33.5749 31.0166 33.1685 30.7665L33.1686 30.7664L33.1611 30.7622L27.9788 27.8874C27.8253 27.7614 27.7424 27.6291 27.7066 27.4683C27.6684 27.2962 27.6803 27.074 27.7524 26.7656L35.0341 1.54509ZM8.3297 1.54509L8.33015 1.54522L8.33293 1.53222C8.42556 1.09994 8.82857 0.815472 9.27194 0.847139L9.27191 0.847622H9.28545H26.3551C26.6731 0.847622 26.8487 0.918825 26.9491 1.02233C27.0506 1.12702 27.1137 1.30424 27.1137 1.60627V4.17828C27.0772 4.63772 26.9361 5.05589 26.6947 5.40182L7.7306 30.5103L7.73034 30.5101L7.72414 30.5194C7.47774 30.889 6.95181 31.0134 6.54847 30.7342L6.53983 30.7282L6.53058 30.7232L1.27357 27.8867C1.12059 27.7609 1.03785 27.6288 1.00217 27.4683C0.963951 27.2962 0.975807 27.074 1.04799 26.7656L8.3297 1.54509Z" stroke="#83CD20" stroke-width="0.379325"/>
</svg>
