<svg class="svg-link2" width="60" height="61" viewBox="0 0 60 61" fill="none" xmlns="http://www.w3.org/2000/svg">
    <path id="lis1" d="M59.5 30.043C59.5 46.3354 46.2924 59.543 30 59.543C13.7076 59.543 0.5 46.3354 0.5 30.043C0.5 13.7506 13.7076 0.542969 30 0.542969C46.2924 0.542969 59.5 13.7506 59.5 30.043Z" fill="white" stroke="#E3DBD8"/>
    <path id="lis2" d="M36.6875 30.7617L31.6875 35.7617C31.5 35.9492 31.25 36.043 31 36.043C30.7188 36.043 30.4688 35.9492 30.2812 35.7617C29.875 35.3867 29.875 34.7305 30.2812 34.3555L33.5625 31.043H24C23.4375 31.043 23 30.6055 23 30.043C23 29.5117 23.4375 29.043 24 29.043H33.5625L30.2812 25.7617C29.875 25.3867 29.875 24.7305 30.2812 24.3555C30.6562 23.9492 31.3125 23.9492 31.6875 24.3555L36.6875 29.3555C37.0938 29.7305 37.0938 30.3867 36.6875 30.7617Z" fill="#034833"/>
</svg>
