<svg width="15" height="14" viewBox="0 0 15 14" fill="none" xmlns="http://www.w3.org/2000/svg">
<path d="M13.6875 7.76172L8.6875 12.7617C8.5 12.9492 8.25 13.043 8 13.043C7.71875 13.043 7.46875 12.9492 7.28125 12.7617C6.875 12.3867 6.875 11.7305 7.28125 11.3555L10.5625 8.04297H1C0.4375 8.04297 0 7.60547 0 7.04297C0 6.51172 0.4375 6.04297 1 6.04297H10.5625L7.28125 2.76172C6.875 2.38672 6.875 1.73047 7.28125 1.35547C7.65625 0.949219 8.3125 0.949219 8.6875 1.35547L13.6875 6.35547C14.0938 6.73047 14.0938 7.38672 13.6875 7.76172Z" fill="#034833"/>
</svg>
