<svg width="14" height="16" viewBox="0 0 14 16" fill="none" xmlns="http://www.w3.org/2000/svg">
    <path d="M13.6875 7.75781L8.6875 12.7578C8.5 12.9453 8.25 13.0391 8 13.0391C7.71875 13.0391 7.46875 12.9453 7.28125 12.7578C6.875 12.3828 6.875 11.7266 7.28125 11.3516L10.5625 8.03906H1C0.4375 8.03906 0 7.60156 0 7.03906C0 6.50781 0.4375 6.03906 1 6.03906H10.5625L7.28125 2.75781C6.875 2.38281 6.875 1.72656 7.28125 1.35156C7.65625 0.945312 8.3125 0.945312 8.6875 1.35156L13.6875 6.35156C14.0938 6.72656 14.0938 7.38281 13.6875 7.75781Z" fill="white"/>
</svg>