 <svg width="40" height="34" viewBox="0 0 40 34" fill="none" xmlns="http://www.w3.org/2000/svg">
<g clip-path="url(#clip0_5704_8321)">
<path d="M18.0945 33.3706C14.8636 33.3706 11.7052 32.4125 9.01885 30.6175C6.33247 28.8225 4.23868 26.2712 3.00227 23.2863C1.76587 20.3013 1.44237 17.0168 2.07268 13.848C2.703 10.6792 4.25882 7.76841 6.5434 5.48383C8.82798 3.19925 11.7387 1.64343 14.9075 1.01311C18.0763 0.382796 21.3609 0.706296 24.3458 1.9427C27.3308 3.17911 29.8821 5.2729 31.6771 7.95928C33.472 10.6457 34.4301 13.804 34.4301 17.0349C34.4253 21.3659 32.7027 25.5182 29.6402 28.5807C26.5777 31.6431 22.4255 33.3658 18.0945 33.3706Z" fill="#83CD20"/>
<path d="M18.094 32.3754C21.1279 32.3754 24.0938 31.4758 26.6164 29.7902C29.1391 28.1046 31.1053 25.7088 32.2663 22.9058C33.4274 20.1027 33.7312 17.0184 33.1393 14.0427C32.5474 11.067 31.0864 8.33366 28.941 6.18832C26.7957 4.04297 24.0623 2.58197 21.0867 1.99007C18.111 1.39817 15.0266 1.70196 12.2236 2.86301C9.42055 4.02406 7.02476 5.99024 5.33917 8.5129C3.65358 11.0356 2.75391 14.0014 2.75391 17.0354C2.7587 21.1023 4.37642 25.0014 7.2522 27.8771C10.128 30.7529 14.027 32.3706 18.094 32.3754Z" fill="#034833"/>
<path d="M38.2725 11.2424C38.0139 11.1467 37.326 10.3347 34.2358 10.5933C33.2014 10.6812 30.2042 11.6277 26.4157 12.8095L17.5458 9.23047L14.8719 9.51493L22.0015 14.1878C19.5318 14.9481 16.9329 15.7213 14.4271 16.3936L9.21119 12.7733L7.76562 13.1663L12.1825 18.809L10.9076 21.4518L12.7566 21.232L13.9823 19.4606C17.4592 19.3497 20.9201 18.9387 24.3263 18.2323L22.5937 25.2144L24.784 24.2731L28.1768 17.397C38.8647 14.8421 39.7853 12.887 39.987 12.3414C40.2042 11.7208 38.5337 11.3406 38.2725 11.2424Z" fill="#83CD20"/>
<path d="M4.25098 28.0274L22.0063 24.7949L22.3425 22.8477L4.25098 28.0274Z" fill="#83CD20"/>
<path d="M2.22656 25.2966L22.692 21.2185L23.1058 19.1445L2.22656 25.2966Z" fill="#83CD20"/>
<path d="M10.548 20.6284L1.02637 22.5885L11.1453 19.4414L10.548 20.6284Z" fill="#83CD20"/>
<path d="M10.6082 17.8145L0.4375 20.098L9.8841 16.9922L10.6082 17.8145Z" fill="#83CD20"/>
<path d="M9.04577 15.5202L0 17.6097L8.3217 14.6953L9.04577 15.5202Z" fill="#83CD20"/>
</g>
<defs>
<clipPath id="clip0_5704_8321">
<rect width="40" height="32.6713" fill="white" transform="translate(0 0.703125)"/>
</clipPath>
</defs>
</svg>