<svg width="65" height="65" viewBox="0 0 65 65" fill="none" xmlns="http://www.w3.org/2000/svg">
<g clip-path="url(#clip0_3823_183)">
<path d="M64.1956 15.2566L63.6492 14.4776C63.5148 14.2855 63.3099 14.1543 63.0792 14.1127C62.8485 14.0712 62.6107 14.1225 62.4177 14.2557C61.2325 15.0682 59.8737 15.5923 58.4498 15.7863C57.0259 15.9803 55.5764 15.8387 54.217 15.3728L48.3218 13.3457C45.1412 12.2446 41.6948 12.1716 38.4703 13.1369L36.439 13.7407V10.44C37.351 9.63973 37.9973 8.58052 38.2918 7.40357C38.5863 6.22662 38.5151 4.98784 38.0875 3.85242C37.66 2.71701 36.8965 1.7389 35.8988 1.04851C34.9012 0.35813 33.7167 -0.0117187 32.5035 -0.0117188C31.2902 -0.0117188 30.1058 0.35813 29.1082 1.04851C28.1105 1.7389 27.347 2.71701 26.9194 3.85242C26.4919 4.98784 26.4207 6.22662 26.7152 7.40357C27.0097 8.58052 27.656 9.63973 28.5679 10.44V13.7407L26.5367 13.1369C23.3122 12.1723 19.866 12.2451 16.6851 13.3452L10.7828 15.3723C9.42341 15.8382 7.97393 15.9797 6.55007 15.7858C5.12622 15.5918 3.76743 15.0676 2.58216 14.2552C2.38923 14.1219 2.1514 14.0704 1.92065 14.112C1.6899 14.1536 1.48499 14.2849 1.35071 14.4771L0.8038 15.2566C0.397339 15.8279 0.134777 16.4889 0.0384134 17.1835C-0.0579504 17.878 0.0147308 18.5855 0.250284 19.2459C0.490316 19.9212 0.887504 20.5298 1.40907 21.0213C1.93063 21.5128 2.56161 21.8733 3.24993 22.0729C4.7294 22.5048 6.26278 22.724 7.804 22.7239C9.58653 22.7256 11.3569 22.4306 13.0426 21.851L13.234 21.7855L7.76946 32.4684H6.95696C6.19696 32.4672 5.46503 32.7555 4.90997 33.2746C4.3549 33.7938 4.01836 34.5048 3.96876 35.2632C3.91916 36.0216 4.16022 36.7704 4.64293 37.3574C5.12565 37.9445 5.81379 38.3256 6.56747 38.4235V40.9422C6.56895 42.2549 7.09106 43.5134 8.01927 44.4416C8.94747 45.3698 10.206 45.8919 11.5186 45.8934H18.5351C19.8478 45.8919 21.1063 45.3698 22.0345 44.4416C22.9627 43.5134 23.4848 42.2549 23.4863 40.9422V38.4235C24.2399 38.3256 24.9281 37.9445 25.4108 37.3574C25.8935 36.7704 26.1346 36.0216 26.085 35.2632C26.0354 34.5048 25.6988 33.7938 25.1438 33.2746C24.5887 32.7555 23.8568 32.4672 23.0968 32.4684H22.2843L16.2855 20.7359L18.9373 19.8218C20.7503 19.1946 22.7147 19.153 24.5527 19.703L28.5644 20.8948V50.6978H14.4548C13.5461 50.6989 12.6748 51.0604 12.0322 51.703C11.3896 52.3455 11.0282 53.2168 11.0271 54.1255V57.1287H8.14017C7.366 57.1296 6.62378 57.4374 6.07636 57.9849C5.52894 58.5323 5.22105 59.2745 5.22024 60.0487V64.1112C5.22018 64.2279 5.24312 64.3435 5.28776 64.4513C5.33239 64.5592 5.39785 64.6572 5.48038 64.7397C5.56292 64.8222 5.66091 64.8877 5.76876 64.9323C5.87661 64.977 5.9922 64.9999 6.10892 64.9998H58.8909C59.1266 64.9998 59.3527 64.9062 59.5193 64.7395C59.686 64.5729 59.7796 64.3469 59.7796 64.1112V60.0487C59.7788 59.2745 59.4709 58.5323 58.9235 57.9849C58.3761 57.4374 57.6339 57.1296 56.8597 57.1287H53.9728V54.1255C53.9717 53.2168 53.6102 52.3455 52.9676 51.703C52.325 51.0604 51.4538 50.6989 50.5451 50.6978H36.4355V20.8968L40.4472 19.705C42.2851 19.1543 44.2497 19.1959 46.0626 19.8238L48.7149 20.7379L42.7161 32.4684H41.9036C41.1436 32.4672 40.4117 32.7555 39.8566 33.2746C39.3015 33.7938 38.965 34.5048 38.9154 35.2632C38.8658 36.0216 39.1069 36.7704 39.5896 37.3574C40.0723 37.9445 40.7604 38.3256 41.5141 38.4235V40.9422C41.5156 42.2549 42.0377 43.5134 42.9659 44.4416C43.8941 45.3698 45.1526 45.8919 46.4653 45.8934H53.4792C54.7919 45.8919 56.0504 45.3698 56.9786 44.4416C57.9068 43.5134 58.4289 42.2549 58.4304 40.9422V38.4235C59.184 38.3256 59.8721 37.9445 60.3548 37.3575C60.8375 36.7706 61.0786 36.0218 61.0291 35.2635C60.9795 34.5051 60.6431 33.7941 60.0881 33.2749C59.5332 32.7557 58.8013 32.4673 58.0414 32.4684H57.2289L51.7658 21.785L51.9573 21.8505C53.6426 22.43 55.4127 22.725 57.1949 22.7234C58.7359 22.7235 60.2691 22.5043 61.7484 22.0724C62.4372 21.8729 63.0686 21.5123 63.5904 21.0204C64.1123 20.5286 64.5096 19.9197 64.7496 19.2439C64.9848 18.5837 65.0573 17.8765 64.9609 17.1824C64.8644 16.4882 64.6019 15.8276 64.1956 15.2566ZM32.4999 1.77718C33.3285 1.77718 34.1385 2.02289 34.8275 2.48323C35.5164 2.94358 36.0534 3.59788 36.3705 4.3634C36.6876 5.12892 36.7705 5.97128 36.6089 6.78396C36.4472 7.59663 36.0482 8.34312 35.4623 8.92903C34.8764 9.51493 34.1299 9.91394 33.3173 10.0756C32.5046 10.2372 31.6622 10.1543 30.8967 9.83719C30.1312 9.5201 29.4769 8.98312 29.0165 8.29417C28.5562 7.60522 28.3105 6.79523 28.3105 5.96664C28.3117 4.8559 28.7535 3.79099 29.5389 3.00558C30.3243 2.22017 31.3892 1.77839 32.4999 1.77718ZM21.7089 40.9422C21.708 41.7837 21.3733 42.5904 20.7783 43.1854C20.1833 43.7804 19.3766 44.1151 18.5351 44.1161H11.5207C10.6792 44.1151 9.87248 43.7804 9.27748 43.1854C8.68247 42.5904 8.34779 41.7837 8.34685 40.9422V38.4539H21.7089V40.9422ZM24.3115 35.4578C24.3104 35.7797 24.1821 36.088 23.9545 36.3156C23.7269 36.5431 23.4186 36.6715 23.0968 36.6725H6.95696C6.79539 36.6758 6.63479 36.6469 6.48455 36.5873C6.33432 36.5278 6.19747 36.4388 6.08204 36.3257C5.96661 36.2127 5.8749 36.0777 5.81229 35.9287C5.74969 35.7797 5.71744 35.6197 5.71744 35.4581C5.71744 35.2965 5.74969 35.1365 5.81229 34.9875C5.8749 34.8385 5.96661 34.7035 6.08204 34.5905C6.19747 34.4774 6.33432 34.3884 6.48455 34.3289C6.63479 34.2693 6.79539 34.2404 6.95696 34.2437H23.0968C23.4191 34.2439 23.7281 34.3722 23.9559 34.6003C24.1837 34.8283 24.3116 35.1375 24.3115 35.4599V35.4578ZM9.76771 32.4663L15.0281 22.1806L20.2881 32.4684L9.76771 32.4663ZM25.059 17.9987C22.8661 17.3424 20.5224 17.3921 18.3594 18.1409L12.4642 20.1702C9.6484 21.1298 6.6053 21.1984 3.74911 20.3667C3.33058 20.2489 2.94665 20.0319 2.62989 19.734C2.31314 19.4362 2.07292 19.0663 1.92962 18.6559C1.78941 18.262 1.74635 17.84 1.80408 17.4259C1.86181 17.0118 2.01863 16.6178 2.26122 16.2773L2.32216 16.1899C3.68102 16.9677 5.19002 17.447 6.74864 17.5959C8.30726 17.7447 9.87971 17.5597 11.3612 17.0532L17.2564 15.026C20.0876 14.0457 23.1554 13.9811 26.0253 14.8412L28.5644 15.5953V19.0428L25.059 17.9987ZM58.0023 60.0456V63.2194H6.99759V60.0456C6.9988 59.7432 7.11966 59.4536 7.33376 59.2401C7.54786 59.0266 7.83779 58.9065 8.14017 58.9061H56.8597C57.1626 58.9065 57.453 59.027 57.6672 59.2412C57.8814 59.4554 58.0019 59.7458 58.0023 60.0487V60.0456ZM52.1954 54.1225V57.1287H12.8044V54.1255C12.805 53.688 12.979 53.2685 13.2884 52.9591C13.5978 52.6497 14.0173 52.4757 14.4548 52.4752H50.5451C50.9826 52.4757 51.4021 52.6497 51.7115 52.9591C52.0209 53.2685 52.1949 53.688 52.1954 54.1255V54.1225ZM30.3417 50.6978V11.5231C31.7285 12.0702 33.2713 12.0702 34.6581 11.5231V50.6978H30.3417ZM56.6525 40.9422C56.6516 41.7837 56.3169 42.5904 55.7219 43.1854C55.1269 43.7804 54.3201 44.1151 53.4787 44.1161H46.4648C45.6233 44.1151 44.8166 43.7804 44.2216 43.1854C43.6266 42.5904 43.2919 41.7837 43.291 40.9422V38.4539H56.6525V40.9422ZM59.2551 35.4578C59.2548 35.7798 59.1268 36.0886 58.8992 36.3163C58.6715 36.544 58.3629 36.6721 58.0409 36.6725H41.9031C41.7415 36.6758 41.5809 36.6469 41.4307 36.5873C41.2804 36.5278 41.1436 36.4388 41.0282 36.3257C40.9127 36.2127 40.821 36.0777 40.7584 35.9287C40.6958 35.7797 40.6636 35.6197 40.6636 35.4581C40.6636 35.2965 40.6958 35.1365 40.7584 34.9875C40.821 34.8385 40.9127 34.7035 41.0282 34.5905C41.1436 34.4774 41.2804 34.3884 41.4307 34.3289C41.5809 34.2693 41.7415 34.2404 41.9031 34.2437H58.0429C58.3648 34.2446 58.6732 34.3732 58.9004 34.6012C59.1277 34.8292 59.2552 35.138 59.2551 35.4599V35.4578ZM44.7118 32.4684L49.9717 22.1806L55.2322 32.4684H44.7118ZM63.0723 18.6559C62.9287 19.0666 62.688 19.4366 62.3708 19.7344C62.0536 20.0323 61.6692 20.2492 61.2502 20.3667C58.3942 21.1983 55.3513 21.1297 52.5357 20.1702L46.6405 18.143C44.4774 17.3945 42.1338 17.3447 39.9409 18.0008L36.4355 19.0428V15.5953L38.9745 14.8412C41.8445 13.9808 44.9124 14.0457 47.7434 15.0265L53.6386 17.0537C55.1202 17.5602 56.6926 17.7452 58.2512 17.5964C59.8098 17.4475 61.3189 16.9682 62.6777 16.1904L62.7386 16.2778C62.9812 16.6182 63.1379 17.0122 63.1957 17.4262C63.2534 17.8402 63.2104 18.262 63.0702 18.6559H63.0723Z" fill="white"/>
</g>
<defs>
<clipPath id="clip0_3823_183">
<rect width="65" height="65" fill="white"/>
</clipPath>
</defs>
</svg>
