<svg width="20" height="20" viewBox="0 0 20 20" fill="none" xmlns="http://www.w3.org/2000/svg">
<path d="M8.41927 16.7487C10.3422 16.7487 12.1099 16.0872 13.5203 14.9904L18.0995 19.5695L19.5724 18.0966L14.9932 13.5174C16.0911 12.106 16.7526 10.3383 16.7526 8.41536C16.7526 3.82057 13.0141 0.0820312 8.41927 0.0820312C3.82448 0.0820312 0.0859375 3.82057 0.0859375 8.41536C0.0859375 13.0102 3.82448 16.7487 8.41927 16.7487ZM8.41927 2.16536C11.8661 2.16536 14.6693 4.96849 14.6693 8.41536C14.6693 11.8622 11.8661 14.6654 8.41927 14.6654C4.9724 14.6654 2.16927 11.8622 2.16927 8.41536C2.16927 4.96849 4.9724 2.16536 8.41927 2.16536Z" fill="#034833"/>
</svg>
