<svg width="45" height="46" viewBox="0 0 45 46" fill="none" xmlns="http://www.w3.org/2000/svg">
<g clip-path="url(#clip0_3749_1094)">
<path d="M37.3238 27.1065C37.3614 26.628 37.3864 26.1523 37.3864 25.6914V7.68544C37.3864 7.56413 37.3505 7.44553 37.2833 7.34456C37.216 7.24359 37.1204 7.16477 37.0085 7.11802L20.1996 0.0867735C20.1243 0.0552808 20.0436 0.0390625 19.9621 0.0390625C19.8805 0.0390625 19.7998 0.0552808 19.7246 0.0867735L2.91604 7.11802C2.8041 7.16477 2.70848 7.24359 2.64123 7.34456C2.57398 7.44553 2.5381 7.56413 2.53811 7.68544V25.6914C2.5323 29.2803 3.59066 32.7903 5.57939 35.7777C7.56813 38.7652 10.3979 41.0959 13.7111 42.4754L19.7253 44.9911C19.8005 45.0227 19.8812 45.0389 19.9628 45.0389C20.0443 45.0389 20.1251 45.0227 20.2003 44.9911L26.2148 42.4754C26.3076 42.4367 26.398 42.3941 26.4897 42.3537C27.4706 43.2895 28.6414 44.0034 29.9225 44.4467C31.2037 44.8901 32.5653 45.0526 33.9148 44.9233C35.2643 44.794 36.5702 44.3758 37.7438 43.6971C38.9175 43.0185 39.9313 42.0953 40.7166 40.9902C41.5019 39.8851 42.0403 38.6239 42.2951 37.2924C42.5499 35.9609 42.5153 34.5901 42.1935 33.2731C41.8717 31.9561 41.2704 30.7238 40.4303 29.6598C39.5901 28.5958 38.5309 27.7249 37.3245 27.1065H37.3238ZM19.9623 43.7568L14.1854 41.3405C11.0964 40.0542 8.45812 37.881 6.604 35.0955C4.74988 32.3101 3.76317 29.0375 3.76858 25.6914V8.09501L19.9623 1.32111L36.1559 8.09501V25.6914C36.1559 25.986 36.1461 26.2891 36.1292 26.5914C35.397 26.3344 34.6359 26.1691 33.863 26.0992C33.8673 25.9607 33.8708 25.824 33.8708 25.6907V10.0258C33.8708 9.90444 33.8349 9.7858 33.7676 9.68478C33.7004 9.58376 33.6048 9.50487 33.4928 9.45802L20.1996 3.89771C20.1243 3.86622 20.0436 3.85 19.9621 3.85C19.8805 3.85 19.7998 3.86622 19.7246 3.89771L6.43131 9.45802C6.31946 9.50496 6.22396 9.58389 6.15679 9.68489C6.08962 9.7859 6.05377 9.90449 6.05374 10.0258V25.6914C6.04904 28.5867 6.90282 31.4184 8.50713 33.8286C10.1114 36.2387 12.3943 38.1192 15.0671 39.2322L19.7246 41.1802C19.7998 41.2118 19.8805 41.228 19.9621 41.228C20.0436 41.228 20.1244 41.2118 20.1996 41.1802L24.4014 39.4224C24.7225 40.1265 25.1288 40.7885 25.6112 41.3936L19.9623 43.7568ZM23.5524 35.5144C23.5519 36.449 23.6906 37.3784 23.9637 38.2721L19.9623 39.9459L15.5421 38.097C13.0932 37.0774 11.0017 35.3546 9.53183 33.1465C8.06198 30.9384 7.27981 28.344 7.2842 25.6914V10.4354L19.9623 5.13205L32.6403 10.4354V25.6932C32.6403 25.8159 32.6371 25.9424 32.6333 26.0708C30.1938 26.1698 27.887 27.2076 26.1948 28.9675C24.5026 30.7273 23.5558 33.073 23.5524 35.5144ZM28.2173 42.1941V41.439C28.2182 40.5768 28.5611 39.7502 29.1708 39.1405C29.7805 38.5308 30.6071 38.1879 31.4692 38.187H34.5454C35.4076 38.1879 36.2342 38.5308 36.8439 39.1405C37.4535 39.7502 37.7964 40.5768 37.7974 41.439V42.1938C36.4022 43.1984 34.7265 43.7389 33.0073 43.7389C31.2881 43.7389 29.6124 43.1987 28.2173 42.1941ZM39.012 41.1264C38.9323 39.9959 38.4275 38.9375 37.5992 38.164C36.7709 37.3905 35.6805 36.9592 34.5472 36.9569H31.471C30.3377 36.9591 29.2472 37.3904 28.4189 38.1639C27.5906 38.9374 27.0858 39.9959 27.0062 41.1264C25.9104 39.9557 25.1808 38.4902 24.9071 36.9103C24.6334 35.3303 24.8275 33.7048 25.4655 32.2338C26.1036 30.7627 27.1577 29.5102 28.4983 28.6304C29.8389 27.7506 31.4074 27.2819 33.0109 27.2819C34.6143 27.2819 36.1828 27.7506 37.5234 28.6304C38.864 29.5102 39.9181 30.7627 40.5562 32.2338C41.1942 33.7048 41.3883 35.3303 41.1146 36.9103C40.8409 38.4902 40.1113 39.9557 39.0155 41.1264H39.012Z" fill="#034833"/>
<path d="M33.0068 29.0444C32.3164 29.0059 31.6302 29.1755 31.0372 29.5313C30.4441 29.887 29.9715 30.4125 29.6804 31.0398C29.3893 31.6672 29.2931 32.3674 29.4044 33.0499C29.5156 33.7325 29.8291 34.366 30.3043 34.8684C30.7795 35.3708 31.3945 35.7191 32.0698 35.8682C32.7451 36.0172 33.4496 35.9602 34.0921 35.7045C34.7347 35.4488 35.2857 35.0061 35.6739 34.4338C36.0621 33.8615 36.2697 33.1859 36.2697 32.4943C36.2928 31.6046 35.9624 30.742 35.3508 30.0954C34.7393 29.4488 33.8964 29.0709 33.0068 29.0444ZM33.0068 34.7134C32.5596 34.7528 32.1109 34.6561 31.7195 34.4361C31.3282 34.216 31.0124 33.8829 30.8137 33.4803C30.6149 33.0777 30.5425 32.6245 30.6058 32.18C30.6691 31.7355 30.8652 31.3205 31.1685 30.9894C31.4717 30.6583 31.8679 30.4266 32.3051 30.3245C32.7424 30.2225 33.2002 30.255 33.6187 30.4177C34.0371 30.5804 34.3967 30.8657 34.6502 31.2363C34.9036 31.6068 35.0393 32.0453 35.0392 32.4943C35.0626 33.0579 34.862 33.6078 34.4811 34.0238C34.1003 34.4399 33.5703 34.6883 33.0068 34.7148V34.7134Z" fill="#034833"/>
<path d="M19.9622 9.98438C18.4212 9.98438 16.9149 10.4413 15.6336 11.2975C14.3523 12.1536 13.3537 13.3704 12.764 14.7941C12.1743 16.2178 12.02 17.7843 12.3206 19.2957C12.6212 20.8071 13.3633 22.1954 14.4529 23.285C15.5426 24.3746 16.9308 25.1167 18.4422 25.4173C19.9536 25.718 21.5202 25.5637 22.9438 24.9739C24.3675 24.3842 25.5844 23.3856 26.4405 22.1043C27.2966 20.8231 27.7536 19.3167 27.7536 17.7757C27.7512 15.71 26.9296 13.7296 25.469 12.269C24.0083 10.8083 22.0279 9.9867 19.9622 9.98438ZM25.8892 20.5699H23.9131C24.0566 19.8513 24.1427 19.1225 24.1704 18.3902H26.4907C26.4191 19.1464 26.2155 19.8841 25.8892 20.5699ZM14.0352 14.9801H16.011C15.8678 15.6987 15.7818 16.4275 15.7537 17.1598H13.4334C13.5051 16.4036 13.7088 15.6659 14.0352 14.9801ZM20.5775 13.7496V11.3836C21.2187 11.7183 21.8396 12.5525 22.2868 13.7503L20.5775 13.7496ZM22.6517 14.9801C22.8119 15.6967 22.9078 16.4261 22.9382 17.1598H20.5775V14.9801H22.6517ZM19.347 11.3829V13.7496H17.6377C18.0849 12.5543 18.7057 11.7183 19.347 11.3836V11.3829ZM19.347 14.9801V17.1598H16.9863C17.0165 16.4261 17.1124 15.6966 17.2728 14.9801H19.347ZM13.4327 18.3902H15.753C15.7811 19.1225 15.8671 19.8513 16.0103 20.5699H14.0345C13.7081 19.8841 13.5044 19.1464 13.4327 18.3902ZM16.9863 18.3902H19.347V20.5699H17.2728C17.1124 19.8534 17.0165 19.1239 16.9863 18.3902ZM19.347 21.8004V24.1671C18.7057 23.8328 18.0849 22.9982 17.6373 21.8004H19.347ZM20.5775 24.1671V21.8004H22.2868C21.8396 22.9985 21.2187 23.8328 20.5775 24.1671ZM20.5775 20.5699V18.3902H22.9382C22.9078 19.1239 22.8119 19.8533 22.6517 20.5699H20.5775ZM24.1704 17.1598C24.1425 16.4275 24.0565 15.6987 23.9131 14.9801H25.8892C26.2159 15.6658 26.4199 16.4036 26.4918 17.1598H24.1704ZM25.1316 13.7496H23.5949C23.3846 13.0747 23.0893 12.4293 22.716 11.829C23.662 12.2689 24.4899 12.9271 25.1316 13.7496ZM17.2067 11.8297C16.8341 12.4299 16.5393 13.0751 16.3295 13.7496H14.7929C15.4342 12.9277 16.2615 12.2697 17.2067 11.8297ZM14.7925 21.8004H16.3295C16.5393 22.4752 16.834 23.1206 17.2067 23.721C16.2613 23.2808 15.4339 22.6226 14.7925 21.8004ZM22.7174 23.7213C23.0907 23.1209 23.386 22.4754 23.5963 21.8004H25.1334C24.4915 22.623 23.6634 23.2811 22.7174 23.7213Z" fill="#034833"/>
</g>
<defs>
<clipPath id="clip0_3749_1094">
<rect width="45" height="45" fill="white" transform="translate(0 0.0390625)"/>
</clipPath>
</defs>
</svg>
