<svg width="45" height="46" viewBox="0 0 45 46" fill="none" xmlns="http://www.w3.org/2000/svg">
<g clip-path="url(#clip0_3755_199)">
<path d="M41.7113 12.7838C41.7114 10.9136 41.1569 9.08552 40.118 7.53055C39.079 5.97559 37.6023 4.76363 35.8746 4.04794C34.1469 3.33225 32.2457 3.14497 30.4115 3.50979C28.5773 3.87462 26.8925 4.77515 25.5702 6.09751C24.2478 7.41988 23.3473 9.10468 22.9824 10.9389C22.6176 12.773 22.8049 14.6742 23.5206 16.4019C24.2363 18.1297 25.4482 19.6064 27.0032 20.6453C28.5582 21.6843 30.3863 22.2387 32.2564 22.2387C34.7632 22.2359 37.1664 21.2388 38.939 19.4663C40.7115 17.6938 41.7085 15.2905 41.7113 12.7838ZM24.0316 12.7838C24.0315 11.157 24.5139 9.56681 25.4176 8.2142C26.3213 6.86159 27.6058 5.80734 29.1087 5.18477C30.6116 4.5622 32.2653 4.39928 33.8608 4.71659C35.4563 5.03391 36.9218 5.81722 38.0721 6.96746C39.2224 8.11771 40.0058 9.58323 40.3232 11.1787C40.6405 12.7742 40.4777 14.4279 39.8552 15.9308C39.2327 17.4337 38.1785 18.7183 36.8259 19.6221C35.4733 20.5258 33.8831 21.0082 32.2564 21.0082C30.0759 21.0057 27.9854 20.1384 26.4435 18.5966C24.9016 17.0547 24.0342 14.9643 24.0316 12.7838Z" fill="#034833"/>
<path d="M36.9148 31.7254H15.6892V29.6417H32.2566C32.3414 29.6414 32.4252 29.6235 32.5027 29.5889H32.5048C33.016 29.3632 45.0007 23.9253 45.0007 12.7832C45.0007 9.40325 43.658 6.16173 41.268 3.77174C38.8781 1.38174 35.6365 0.0390625 32.2566 0.0390625C28.8766 0.0390625 25.6351 1.38174 23.2451 3.77174C20.8551 6.16173 19.5124 9.40325 19.5124 12.7832C19.5124 18.5745 22.7503 22.8214 25.9316 25.5987H15.4255C14.4235 25.5998 13.4629 25.9984 12.7544 26.7069C12.0459 27.4154 11.6473 28.376 11.6462 29.378V31.988C11.6473 32.99 12.0459 33.9506 12.7544 34.6591C13.4629 35.3677 14.4235 35.7662 15.4255 35.7673H36.6511V37.5895H10.4597C9.99011 36.4195 9.12783 35.4495 8.02093 34.846C6.91403 34.2425 5.63156 34.0433 4.39373 34.2824C3.15591 34.5215 2.03995 35.1842 1.23748 36.1565C0.435011 37.1288 -0.00390625 38.3502 -0.00390625 39.6109C-0.00390625 40.8717 0.435011 42.093 1.23748 43.0654C2.03995 44.0377 3.15591 44.7003 4.39373 44.9395C5.63156 45.1786 6.91403 44.9794 8.02093 44.3759C9.12783 43.7724 9.99011 42.8024 10.4597 41.6324H36.9148C37.9168 41.6313 38.8774 41.2328 39.5859 40.5243C40.2944 39.8157 40.693 38.8551 40.6941 37.8531V35.5036C40.6927 34.5018 40.294 33.5415 39.5855 32.8332C38.8771 32.1249 37.9166 31.7265 36.9148 31.7254ZM20.7429 12.7832C20.7429 9.72959 21.9559 6.80104 24.1152 4.64181C26.2744 2.48258 29.203 1.26953 32.2566 1.26953C35.3102 1.26953 38.2387 2.48258 40.398 4.64181C42.5572 6.80104 43.7702 9.72959 43.7702 12.7832C43.7702 22.2694 33.9581 27.5091 32.2562 28.3458C30.5533 27.5105 20.7429 22.2828 20.7429 12.7832ZM5.42779 43.8097C4.59774 43.8097 3.78633 43.5635 3.09616 43.1024C2.40599 42.6413 1.86805 41.9858 1.55037 41.219C1.2327 40.4521 1.14954 39.6083 1.31142 38.7942C1.47331 37.9801 1.87296 37.2322 2.45984 36.6453C3.04673 36.0583 3.79449 35.6585 4.60857 35.4965C5.42265 35.3345 6.2665 35.4175 7.0334 35.735C7.80031 36.0526 8.45583 36.5904 8.91708 37.2805C9.37833 37.9706 9.6246 38.7819 9.62474 39.612C9.62372 40.7248 9.18123 41.7918 8.39439 42.5788C7.60755 43.3658 6.54064 43.8084 5.42779 43.8097ZM39.4636 37.8542C39.4629 38.5299 39.1941 39.1778 38.7163 39.6557C38.2384 40.1335 37.5905 40.4023 36.9148 40.403H10.7909C10.8767 39.8792 10.8767 39.3448 10.7909 38.821H36.9148C37.1711 38.8207 37.4169 38.7188 37.5981 38.5375C37.7794 38.3563 37.8813 38.1105 37.8816 37.8542V35.5047C37.8814 35.2483 37.7795 35.0025 37.5982 34.8213C37.4169 34.64 37.1711 34.5381 36.9148 34.5379H15.4255C14.7498 34.5371 14.1019 34.2684 13.6241 33.7905C13.1462 33.3127 12.8774 32.6648 12.8767 31.9891V29.3791C12.8774 28.7033 13.1462 28.0554 13.6241 27.5776C14.1019 27.0998 14.7498 26.831 15.4255 26.8302H27.4521C28.2085 27.3968 28.993 27.9248 29.8027 28.4123H15.4255C15.1692 28.4125 14.9234 28.5144 14.7421 28.6956C14.5608 28.8769 14.4589 29.1227 14.4587 29.3791V31.9891C14.459 32.2454 14.561 32.4911 14.7422 32.6724C14.9234 32.8536 15.1692 32.9556 15.4255 32.9559H36.9148C37.5905 32.9566 38.2384 33.2254 38.7163 33.7032C39.1941 34.1811 39.4629 34.8289 39.4636 35.5047V37.8542Z" fill="#034833"/>
</g>
<defs>
<clipPath id="clip0_3755_199">
<rect width="45" height="45" fill="white" transform="translate(0 0.0390625)"/>
</clipPath>
</defs>
</svg>
