<svg width="16" height="17" viewBox="0 0 16 17" fill="none" xmlns="http://www.w3.org/2000/svg">
<path d="M15.75 3.75C15.75 5.61328 14.2383 7.125 12.375 7.125C11.4609 7.125 10.6172 6.77344 10.0195 6.21094L6.71484 7.86328C6.71484 7.96875 6.71484 8.10938 6.71484 8.25C6.71484 8.39062 6.71484 8.53125 6.71484 8.67188L10.0195 10.3242C10.6172 9.76172 11.4609 9.375 12.375 9.375C14.2383 9.375 15.75 10.8867 15.75 12.75C15.75 14.6133 14.2383 16.125 12.375 16.125C10.4766 16.125 9 14.6133 9 12.75C9 12.6094 9 12.4688 9 12.3633L5.69531 10.7109C5.09766 11.2734 4.25391 11.625 3.375 11.625C1.47656 11.625 0 10.1133 0 8.25C0 6.38672 1.47656 4.875 3.375 4.875C4.25391 4.875 5.09766 5.26172 5.69531 5.82422L9 4.17188C9 4.03125 9 3.89062 9 3.75C9 1.88672 10.4766 0.375 12.375 0.375C14.2383 0.375 15.75 1.88672 15.75 3.75ZM3.33984 9.375C3.97266 9.375 4.46484 8.88281 4.46484 8.25C4.46484 7.65234 3.97266 7.125 3.33984 7.125C2.74219 7.125 2.21484 7.65234 2.21484 8.25C2.21484 8.88281 2.74219 9.375 3.33984 9.375ZM12.375 2.625C11.7422 2.625 11.25 3.15234 11.25 3.75C11.25 4.38281 11.7422 4.875 12.375 4.875C12.9727 4.875 13.5 4.38281 13.5 3.75C13.5 3.15234 12.9727 2.625 12.375 2.625ZM12.375 13.875C12.9727 13.875 13.5 13.3828 13.5 12.75C13.5 12.1523 12.9727 11.625 12.375 11.625C11.7422 11.625 11.25 12.1523 11.25 12.75C11.25 13.3828 11.7422 13.875 12.375 13.875Z" fill="#83CD20"/>
</svg>
