<svg width="17" height="18" viewBox="0 0 17 18" fill="none" xmlns="http://www.w3.org/2000/svg">
<path d="M15.9678 13.1328L15.2178 16.2891C15.124 16.7578 14.749 17.0703 14.2803 17.0703C6.40527 17.0391 -0.000976562 10.6328 -0.000976562 2.75781C-0.000976562 2.28906 0.280273 1.91406 0.749023 1.82031L3.90527 1.07031C4.34277 0.976562 4.81152 1.22656 4.99902 1.63281L6.46777 5.03906C6.62402 5.44531 6.53027 5.91406 6.18652 6.16406L4.49902 7.53906C5.56152 9.69531 7.31152 11.4453 9.49902 12.5078L10.874 10.8203C11.124 10.5078 11.5928 10.3828 11.999 10.5391L15.4053 12.0078C15.8115 12.2266 16.0615 12.6953 15.9678 13.1328Z" fill="white"/>
</svg>
