<svg width="16" height="15" viewBox="0 0 16 15"
                                                fill="none" xmlns="http://www.w3.org/2000/svg">
                                                <path
                                                    d="M14.9727 1.80469L13.2227 13.1523C13.1953 13.4258 13.0312 13.6719 12.7852 13.8086C12.6484 13.8633 12.5117 13.918 12.3477 13.918C12.2383 13.918 12.1289 13.8906 12.0195 13.8359L8.68359 12.4414L7.28906 14.5195C7.17969 14.7109 6.98828 14.793 6.79688 14.793C6.49609 14.793 6.25 14.5469 6.25 14.2461V11.6211C6.25 11.4023 6.30469 11.2109 6.41406 11.0742L12.375 3.41797L4.33594 10.6641L1.51953 9.48828C1.21875 9.35156 1 9.07812 1 8.72266C0.972656 8.33984 1.13672 8.06641 1.4375 7.90234L13.6875 0.929688C13.9609 0.765625 14.3438 0.765625 14.6172 0.957031C14.8906 1.14844 15.0273 1.47656 14.9727 1.80469Z"
                                                    fill="white" />
                                            </svg>