<svg width="45" height="27" viewBox="0 0 45 27" fill="none" xmlns="http://www.w3.org/2000/svg">
<path d="M44.3848 0.8125H11.7348C11.644 0.812447 11.5543 0.832501 11.4722 0.871221C11.3901 0.909941 11.3176 0.966367 11.2598 1.03645L9.88875 2.70145L8.51766 1.03645C8.45993 0.966367 8.3874 0.909941 8.30528 0.871221C8.22316 0.832501 8.13349 0.812447 8.0427 0.8125H0.615234C0.534411 0.8125 0.45438 0.828425 0.379713 0.859366C0.305047 0.890306 0.237208 0.935655 0.180074 0.992822C0.122939 1.04999 0.0776288 1.11785 0.0467311 1.19254C0.0158333 1.26722 -4.60843e-05 1.34726 1.00456e-07 1.42809V25.6859C1.00456e-07 25.8491 0.0648192 26.0056 0.180198 26.1209C0.295577 26.2363 0.452064 26.3011 0.615234 26.3011H8.04059C8.13138 26.3012 8.22105 26.2811 8.30317 26.2424C8.38529 26.2037 8.45782 26.1473 8.51555 26.0772L9.88664 24.4122L11.2577 26.0772C11.3155 26.1473 11.388 26.2037 11.4701 26.2424C11.5522 26.2811 11.6419 26.3012 11.7327 26.3011H44.3848C44.4656 26.3012 44.5456 26.2853 44.6203 26.2544C44.6949 26.2235 44.7628 26.1782 44.8199 26.121C44.877 26.0639 44.9224 25.9961 44.9533 25.9214C44.9842 25.8467 45 25.7667 45 25.6859V1.42809C45.0001 1.34725 44.9842 1.26719 44.9534 1.19248C44.9225 1.11778 44.8772 1.0499 44.82 0.992719C44.7629 0.935543 44.695 0.890195 44.6203 0.859271C44.5457 0.828347 44.4656 0.812454 44.3848 0.8125ZM1.23047 2.04297H7.7502L9.41273 4.06023C9.47242 4.12707 9.54556 4.18055 9.62735 4.21716C9.70913 4.25377 9.79773 4.2727 9.88734 4.2727C9.97695 4.2727 10.0656 4.25377 10.1473 4.21716C10.2291 4.18055 10.3023 4.12707 10.362 4.06023L12.0245 2.04297H43.7706V20.8104H1.23047V2.04297ZM43.7695 25.0703H12.0252L10.3627 23.053C10.303 22.9862 10.2298 22.9327 10.148 22.8961C10.0663 22.8595 9.97766 22.8406 9.88805 22.8406C9.79844 22.8406 9.70984 22.8595 9.62805 22.8961C9.54626 22.9327 9.47313 22.9862 9.41344 23.053L7.7509 25.0703H1.23047V22.0409H43.7695V25.0703Z" fill="white"/>
<path d="M20.4609 3.62535H13.0612C12.9705 3.62528 12.8809 3.64532 12.7988 3.68405C12.7167 3.72277 12.6443 3.77921 12.5866 3.8493L9.8877 7.12375L7.18875 3.84894C7.13111 3.77886 7.05865 3.72242 6.97658 3.68369C6.89452 3.64497 6.80488 3.62493 6.71414 3.625H3.42773C3.34688 3.625 3.26682 3.64094 3.19213 3.6719C3.11744 3.70286 3.04959 3.74824 2.99245 3.80545C2.93531 3.86265 2.89001 3.93056 2.85913 4.00528C2.82825 4.08001 2.81241 4.16008 2.8125 4.24094V18.6135C2.8125 18.7767 2.87732 18.9332 2.9927 19.0486C3.10808 19.1639 3.26456 19.2288 3.42773 19.2288H20.4609C20.6241 19.2288 20.7806 19.1639 20.896 19.0486C21.0114 18.9332 21.0762 18.7767 21.0762 18.6135V4.24094C21.0762 4.16011 21.0603 4.08007 21.0294 4.00539C20.9985 3.93071 20.9532 3.86284 20.8961 3.80567C20.839 3.74851 20.7711 3.70316 20.6965 3.67222C20.6218 3.64128 20.5418 3.62535 20.4609 3.62535ZM19.8457 17.9983H4.04297V4.85582H6.42375L9.41203 8.48289C9.47172 8.54973 9.54485 8.6032 9.62664 8.63982C9.70843 8.67643 9.79703 8.69536 9.88664 8.69536C9.97625 8.69536 10.0648 8.67643 10.1466 8.63982C10.2284 8.6032 10.3016 8.54973 10.3612 8.48289L13.3495 4.85582H19.8464L19.8457 17.9983Z" fill="white"/>
<path d="M40.8447 4.55826C40.3333 4.04817 39.6405 3.76172 38.9181 3.76172C38.1958 3.76172 37.503 4.04817 36.9916 4.55826L34.435 7.11482L30.1133 6.11427C29.6047 5.99489 29.074 6.00776 28.5718 6.15164C28.0697 6.29553 27.6127 6.56564 27.2445 6.93623L26.2833 7.8974C26.2124 7.9682 26.1599 8.05526 26.1303 8.151C26.1007 8.24674 26.095 8.34826 26.1136 8.44672C26.1322 8.54518 26.1746 8.6376 26.2371 8.71594C26.2996 8.79427 26.3803 8.85615 26.4721 8.89619L30.7742 10.7774L28.8515 12.6997L25.0898 13.0481C24.947 13.0608 24.8132 13.1229 24.7115 13.2239L22.8482 15.0872C22.7724 15.163 22.7177 15.2573 22.6896 15.3608C22.6614 15.4642 22.6608 15.5733 22.6877 15.677C22.7147 15.7808 22.7683 15.8757 22.8433 15.9524C22.9182 16.0291 23.0119 16.0848 23.1151 16.1141L27.678 17.4117C28.5061 17.647 29.382 17.6571 30.2153 17.4407C31.0486 17.2244 31.809 16.7896 32.4181 16.1813L42.0073 6.59205C42.0645 6.53497 42.1099 6.46718 42.1408 6.39256C42.1717 6.31794 42.1877 6.23795 42.1877 6.15716C42.1877 6.07638 42.1717 5.99639 42.1408 5.92177C42.1099 5.84715 42.0645 5.77936 42.0073 5.72228L40.8447 4.55826ZM31.548 15.3104C31.0941 15.7642 30.5272 16.0885 29.906 16.2499C29.2848 16.4113 28.6318 16.4039 28.0144 16.2284L24.4587 15.2176L25.4255 14.2508L29.1873 13.9024C29.3302 13.8893 29.4641 13.8265 29.5655 13.7249L32.2828 11.0077C32.3537 10.9369 32.4062 10.8498 32.4358 10.7541C32.4654 10.6583 32.4711 10.5568 32.4525 10.4584C32.4339 10.3599 32.3915 10.2675 32.329 10.1891C32.2665 10.1108 32.1858 10.0489 32.094 10.0089L27.7912 8.12943L28.1146 7.80599C28.3357 7.58347 28.6102 7.42137 28.9118 7.3352C29.2134 7.24903 29.532 7.24166 29.8373 7.31381L34.4885 8.39029C34.5902 8.41359 34.6961 8.41075 34.7965 8.38204C34.8968 8.35333 34.9882 8.29969 35.0622 8.22611L37.86 5.42838C38.1405 5.14871 38.5204 4.99166 38.9166 4.99166C39.3127 4.99166 39.6927 5.14871 39.9732 5.42838L40.7009 6.15646L31.548 15.3104Z" fill="white"/>
<path d="M17.6484 15.1875H6.24023C6.07706 15.1875 5.92058 15.2523 5.8052 15.3677C5.68982 15.4831 5.625 15.6396 5.625 15.8027C5.625 15.9659 5.68982 16.1224 5.8052 16.2378C5.92058 16.3531 6.07706 16.418 6.24023 16.418H17.6484C17.8116 16.418 17.9681 16.3531 18.0835 16.2378C18.1988 16.1224 18.2637 15.9659 18.2637 15.8027C18.2637 15.6396 18.1988 15.4831 18.0835 15.3677C17.9681 15.2523 17.8116 15.1875 17.6484 15.1875Z" fill="white"/>
<path d="M17.6484 12.9336H6.24023C6.07706 12.9336 5.92058 12.9984 5.8052 13.1138C5.68982 13.2292 5.625 13.3857 5.625 13.5488C5.625 13.712 5.68982 13.8685 5.8052 13.9839C5.92058 14.0992 6.07706 14.1641 6.24023 14.1641H17.6484C17.8116 14.1641 17.9681 14.0992 18.0835 13.9839C18.1988 13.8685 18.2637 13.712 18.2637 13.5488C18.2637 13.3857 18.1988 13.2292 18.0835 13.1138C17.9681 12.9984 17.8116 12.9336 17.6484 12.9336Z" fill="white"/>
<path d="M17.6484 10.6797H6.24023C6.07706 10.6797 5.92058 10.7445 5.8052 10.8599C5.68982 10.9753 5.625 11.1318 5.625 11.2949C5.625 11.4581 5.68982 11.6146 5.8052 11.73C5.92058 11.8453 6.07706 11.9102 6.24023 11.9102H17.6484C17.8116 11.9102 17.9681 11.8453 18.0835 11.73C18.1988 11.6146 18.2637 11.4581 18.2637 11.2949C18.2637 11.1318 18.1988 10.9753 18.0835 10.8599C17.9681 10.7445 17.8116 10.6797 17.6484 10.6797Z" fill="white"/>
<path d="M12.7334 9.04492C12.7334 9.12573 12.7492 9.20575 12.7801 9.28042C12.811 9.35508 12.8564 9.42292 12.9135 9.48006C12.9706 9.5372 13.0385 9.58252 13.1131 9.61342C13.1878 9.64432 13.2678 9.6602 13.3486 9.66016H17.6486C17.8118 9.66016 17.9683 9.59534 18.0836 9.47996C18.199 9.36458 18.2638 9.20809 18.2638 9.04492C18.2638 8.88175 18.199 8.72527 18.0836 8.60989C17.9683 8.49451 17.8118 8.42969 17.6486 8.42969H13.3486C13.2678 8.42964 13.1878 8.44552 13.1131 8.47643C13.0385 8.50733 12.9706 8.55264 12.9135 8.60978C12.8564 8.66692 12.811 8.73476 12.7801 8.80943C12.7492 8.88409 12.7334 8.96412 12.7334 9.04492Z" fill="white"/>
</svg>
