<svg width="321" height="45" viewBox="0 0 321 45" fill="none" xmlns="http://www.w3.org/2000/svg">
<g opacity="0.7">
<mask id="path-1-outside-1_3823_182" maskUnits="userSpaceOnUse" x="-1" y="-1.5" width="323" height="47" fill="black">
<rect fill="white" x="-1" y="-1.5" width="323" height="47"/>
<path d="M9.18 34.5V6.375H0.495V0.974997H23.895V6.375H15.345V34.5H9.18ZM24.454 34.5V10.02H29.989V15.465L29.539 14.655C30.109 12.825 30.994 11.55 32.194 10.83C33.424 10.11 34.894 9.75 36.604 9.75H38.044V14.97H35.929C34.249 14.97 32.899 15.495 31.879 16.545C30.859 17.565 30.349 19.005 30.349 20.865V34.5H24.454ZM48.71 35.04C47 35.04 45.515 34.755 44.255 34.185C42.995 33.615 42.02 32.805 41.33 31.755C40.64 30.675 40.295 29.43 40.295 28.02C40.295 26.67 40.595 25.47 41.195 24.42C41.795 23.34 42.725 22.44 43.985 21.72C45.245 21 46.835 20.49 48.755 20.19L56.765 18.885V23.385L49.88 24.555C48.71 24.765 47.84 25.14 47.27 25.68C46.7 26.22 46.415 26.925 46.415 27.795C46.415 28.635 46.73 29.31 47.36 29.82C48.02 30.3 48.83 30.54 49.79 30.54C51.02 30.54 52.1 30.285 53.03 29.775C53.99 29.235 54.725 28.5 55.235 27.57C55.775 26.64 56.045 25.62 56.045 24.51V18.21C56.045 17.16 55.625 16.29 54.785 15.6C53.975 14.88 52.895 14.52 51.545 14.52C50.285 14.52 49.16 14.865 48.17 15.555C47.21 16.215 46.505 17.1 46.055 18.21L41.24 15.87C41.72 14.58 42.47 13.47 43.49 12.54C44.54 11.58 45.77 10.83 47.18 10.29C48.59 9.75 50.12 9.48 51.77 9.48C53.78 9.48 55.55 9.855 57.08 10.605C58.61 11.325 59.795 12.345 60.635 13.665C61.505 14.955 61.94 16.47 61.94 18.21V34.5H56.36V30.315L57.62 30.225C56.99 31.275 56.24 32.16 55.37 32.88C54.5 33.57 53.51 34.11 52.4 34.5C51.29 34.86 50.06 35.04 48.71 35.04ZM74.3291 34.5L64.6991 10.02H71.1341L78.1091 29.28H75.7241L82.7441 10.02H89.1791L79.5491 34.5H74.3291ZM103.608 35.04C101.088 35.04 98.8829 34.47 96.9929 33.33C95.1029 32.19 93.6329 30.645 92.5829 28.695C91.5329 26.745 91.0079 24.585 91.0079 22.215C91.0079 19.755 91.5329 17.58 92.5829 15.69C93.6629 13.77 95.1179 12.255 96.9479 11.145C98.8079 10.035 100.878 9.48 103.158 9.48C105.078 9.48 106.758 9.795 108.198 10.425C109.668 11.055 110.913 11.925 111.933 13.035C112.953 14.145 113.733 15.42 114.273 16.86C114.813 18.27 115.083 19.8 115.083 21.45C115.083 21.87 115.053 22.305 114.993 22.755C114.963 23.205 114.888 23.595 114.768 23.925H95.8679V19.425H111.438L108.648 21.54C108.918 20.16 108.843 18.93 108.423 17.85C108.033 16.77 107.373 15.915 106.443 15.285C105.543 14.655 104.448 14.34 103.158 14.34C101.928 14.34 100.833 14.655 99.8729 15.285C98.9129 15.885 98.1779 16.785 97.6679 17.985C97.1879 19.155 97.0079 20.58 97.1279 22.26C97.0079 23.76 97.2029 25.095 97.7129 26.265C98.2529 27.405 99.0329 28.29 100.053 28.92C101.103 29.55 102.303 29.865 103.653 29.865C105.003 29.865 106.143 29.58 107.073 29.01C108.033 28.44 108.783 27.675 109.323 26.715L114.093 29.055C113.613 30.225 112.863 31.26 111.843 32.16C110.823 33.06 109.608 33.765 108.198 34.275C106.818 34.785 105.288 35.04 103.608 35.04ZM119.552 34.5V0.434999H125.447V34.5H119.552ZM139.383 34.5V0.974997H151.893C154.173 0.974997 156.183 1.395 157.923 2.235C159.693 3.045 161.073 4.245 162.063 5.835C163.053 7.395 163.548 9.3 163.548 11.55C163.548 13.77 163.038 15.675 162.018 17.265C161.028 18.825 159.663 20.025 157.923 20.865C156.183 21.705 154.173 22.125 151.893 22.125H145.503V34.5H139.383ZM145.503 16.725H151.983C153.093 16.725 154.053 16.515 154.863 16.095C155.673 15.645 156.303 15.03 156.753 14.25C157.203 13.47 157.428 12.57 157.428 11.55C157.428 10.5 157.203 9.6 156.753 8.85C156.303 8.07 155.673 7.47 154.863 7.05C154.053 6.6 153.093 6.375 151.983 6.375H145.503V16.725ZM168.067 34.5V0.434999H173.962V34.5H168.067ZM186.83 35.04C185.12 35.04 183.635 34.755 182.375 34.185C181.115 33.615 180.14 32.805 179.45 31.755C178.76 30.675 178.415 29.43 178.415 28.02C178.415 26.67 178.715 25.47 179.315 24.42C179.915 23.34 180.845 22.44 182.105 21.72C183.365 21 184.955 20.49 186.875 20.19L194.885 18.885V23.385L188 24.555C186.83 24.765 185.96 25.14 185.39 25.68C184.82 26.22 184.535 26.925 184.535 27.795C184.535 28.635 184.85 29.31 185.48 29.82C186.14 30.3 186.95 30.54 187.91 30.54C189.14 30.54 190.22 30.285 191.15 29.775C192.11 29.235 192.845 28.5 193.355 27.57C193.895 26.64 194.165 25.62 194.165 24.51V18.21C194.165 17.16 193.745 16.29 192.905 15.6C192.095 14.88 191.015 14.52 189.665 14.52C188.405 14.52 187.28 14.865 186.29 15.555C185.33 16.215 184.625 17.1 184.175 18.21L179.36 15.87C179.84 14.58 180.59 13.47 181.61 12.54C182.66 11.58 183.89 10.83 185.3 10.29C186.71 9.75 188.24 9.48 189.89 9.48C191.9 9.48 193.67 9.855 195.2 10.605C196.73 11.325 197.915 12.345 198.755 13.665C199.625 14.955 200.06 16.47 200.06 18.21V34.5H194.48V30.315L195.74 30.225C195.11 31.275 194.36 32.16 193.49 32.88C192.62 33.57 191.63 34.11 190.52 34.5C189.41 34.86 188.18 35.04 186.83 35.04ZM205.509 34.5V10.02H211.044V14.835L210.594 13.98C211.164 12.51 212.094 11.4 213.384 10.65C214.704 9.87 216.234 9.48 217.974 9.48C219.774 9.48 221.364 9.87 222.744 10.65C224.154 11.43 225.249 12.525 226.029 13.935C226.809 15.315 227.199 16.92 227.199 18.75V34.5H221.304V20.145C221.304 19.065 221.094 18.135 220.674 17.355C220.254 16.575 219.669 15.975 218.919 15.555C218.199 15.105 217.344 14.88 216.354 14.88C215.394 14.88 214.539 15.105 213.789 15.555C213.039 15.975 212.454 16.575 212.034 17.355C211.614 18.135 211.404 19.065 211.404 20.145V34.5H205.509ZM232.183 34.5V10.02H237.718V14.835L237.268 13.98C237.838 12.51 238.768 11.4 240.058 10.65C241.378 9.87 242.908 9.48 244.648 9.48C246.448 9.48 248.038 9.87 249.418 10.65C250.828 11.43 251.923 12.525 252.703 13.935C253.483 15.315 253.873 16.92 253.873 18.75V34.5H247.978V20.145C247.978 19.065 247.768 18.135 247.348 17.355C246.928 16.575 246.343 15.975 245.593 15.555C244.873 15.105 244.018 14.88 243.028 14.88C242.068 14.88 241.213 15.105 240.463 15.555C239.713 15.975 239.128 16.575 238.708 17.355C238.288 18.135 238.078 19.065 238.078 20.145V34.5H232.183ZM258.858 34.5V10.02H264.753V34.5H258.858ZM258.858 7.275V0.974997H264.753V7.275H258.858ZM270.196 34.5V10.02H275.731V14.835L275.281 13.98C275.851 12.51 276.781 11.4 278.071 10.65C279.391 9.87 280.921 9.48 282.661 9.48C284.461 9.48 286.051 9.87 287.431 10.65C288.841 11.43 289.936 12.525 290.716 13.935C291.496 15.315 291.886 16.92 291.886 18.75V34.5H285.991V20.145C285.991 19.065 285.781 18.135 285.361 17.355C284.941 16.575 284.356 15.975 283.606 15.555C282.886 15.105 282.031 14.88 281.041 14.88C280.081 14.88 279.226 15.105 278.476 15.555C277.726 15.975 277.141 16.575 276.721 17.355C276.301 18.135 276.091 19.065 276.091 20.145V34.5H270.196ZM308.751 44.4C306.921 44.4 305.226 44.1 303.666 43.5C302.106 42.9 300.756 42.06 299.616 40.98C298.506 39.93 297.696 38.685 297.186 37.245L302.676 35.175C303.036 36.315 303.741 37.23 304.791 37.92C305.871 38.64 307.191 39 308.751 39C309.951 39 311.001 38.775 311.901 38.325C312.831 37.875 313.551 37.215 314.061 36.345C314.571 35.505 314.826 34.485 314.826 33.285V27.705L315.951 29.055C315.111 30.525 313.986 31.635 312.576 32.385C311.166 33.135 309.561 33.51 307.761 33.51C305.481 33.51 303.441 32.985 301.641 31.935C299.841 30.885 298.431 29.445 297.411 27.615C296.391 25.785 295.881 23.73 295.881 21.45C295.881 19.14 296.391 17.085 297.411 15.285C298.431 13.485 299.826 12.075 301.596 11.055C303.366 10.005 305.376 9.48 307.626 9.48C309.456 9.48 311.061 9.87 312.441 10.65C313.851 11.4 315.021 12.495 315.951 13.935L315.141 15.42V10.02H320.721V33.285C320.721 35.415 320.196 37.32 319.146 39C318.126 40.68 316.716 42 314.916 42.96C313.146 43.92 311.091 44.4 308.751 44.4ZM308.481 28.065C309.741 28.065 310.836 27.795 311.766 27.255C312.726 26.685 313.476 25.905 314.016 24.915C314.556 23.925 314.826 22.785 314.826 21.495C314.826 20.235 314.541 19.11 313.971 18.12C313.431 17.1 312.681 16.305 311.721 15.735C310.791 15.165 309.711 14.88 308.481 14.88C307.251 14.88 306.141 15.165 305.151 15.735C304.161 16.305 303.381 17.1 302.811 18.12C302.271 19.11 302.001 20.235 302.001 21.495C302.001 22.755 302.271 23.88 302.811 24.87C303.381 25.86 304.146 26.64 305.106 27.21C306.096 27.78 307.221 28.065 308.481 28.065Z"/>
</mask>
<path d="M9.18 34.5H8.18V35.5H9.18V34.5ZM9.18 6.375H10.18V5.375H9.18V6.375ZM0.495 6.375H-0.505V7.375H0.495V6.375ZM0.495 0.974998V-0.0250025H-0.505V0.974998H0.495ZM23.895 0.974998H24.895V-0.0250025H23.895V0.974998ZM23.895 6.375V7.375H24.895V6.375H23.895ZM15.345 6.375V5.375H14.345V6.375H15.345ZM15.345 34.5V35.5H16.345V34.5H15.345ZM10.18 34.5V6.375H8.18V34.5H10.18ZM9.18 5.375H0.495V7.375H9.18V5.375ZM1.495 6.375V0.974998H-0.505V6.375H1.495ZM0.495 1.975H23.895V-0.0250025H0.495V1.975ZM22.895 0.974998V6.375H24.895V0.974998H22.895ZM23.895 5.375H15.345V7.375H23.895V5.375ZM14.345 6.375V34.5H16.345V6.375H14.345ZM15.345 33.5H9.18V35.5H15.345V33.5ZM24.454 34.5H23.454V35.5H24.454V34.5ZM24.454 10.02V9.02H23.454V10.02H24.454ZM29.989 10.02H30.989V9.02H29.989V10.02ZM29.989 15.465L29.1148 15.9506L30.989 19.3241V15.465H29.989ZM29.539 14.655L28.5842 14.3576L28.4569 14.7664L28.6648 15.1406L29.539 14.655ZM32.194 10.83L31.6888 9.96693L31.6795 9.97251L32.194 10.83ZM38.044 9.75H39.044V8.75H38.044V9.75ZM38.044 14.97V15.97H39.044V14.97H38.044ZM31.879 16.545L32.5861 17.2521L32.5912 17.247L32.5963 17.2418L31.879 16.545ZM30.349 34.5V35.5H31.349V34.5H30.349ZM25.454 34.5V10.02H23.454V34.5H25.454ZM24.454 11.02H29.989V9.02H24.454V11.02ZM28.989 10.02V15.465H30.989V10.02H28.989ZM30.8631 14.9794L30.4131 14.1694L28.6648 15.1406L29.1148 15.9506L30.8631 14.9794ZM30.4937 14.9524C31.0179 13.2696 31.786 12.241 32.7085 11.6875L31.6795 9.97251C30.202 10.859 29.2001 12.3804 28.5842 14.3576L30.4937 14.9524ZM32.6992 11.693C33.7479 11.0791 35.036 10.75 36.604 10.75V8.75C34.752 8.75 33.1001 9.14088 31.6888 9.96698L32.6992 11.693ZM36.604 10.75H38.044V8.75H36.604V10.75ZM37.044 9.75V14.97H39.044V9.75H37.044ZM38.044 13.97H35.929V15.97H38.044V13.97ZM35.929 13.97C34.0222 13.97 32.3983 14.5752 31.1617 15.8482L32.5963 17.2418C33.3997 16.4147 34.4757 15.97 35.929 15.97V13.97ZM31.1719 15.8379C29.9143 17.0954 29.349 18.82 29.349 20.865H31.349C31.349 19.19 31.8036 18.0346 32.5861 17.2521L31.1719 15.8379ZM29.349 20.865V34.5H31.349V20.865H29.349ZM30.349 33.5H24.454V35.5H30.349V33.5ZM44.255 34.185L43.8429 35.0961L44.255 34.185ZM41.33 31.755L40.4873 32.2934L40.4943 32.3042L41.33 31.755ZM41.195 24.42L42.0633 24.9162L42.0692 24.9056L41.195 24.42ZM43.985 21.72L44.4812 22.5882L43.985 21.72ZM48.755 20.19L48.9094 21.178L48.9158 21.177L48.755 20.19ZM56.765 18.885H57.765V17.7089L56.6042 17.898L56.765 18.885ZM56.765 23.385L56.9326 24.3709L57.765 24.2294V23.385H56.765ZM49.88 24.555L49.7125 23.5691L49.7034 23.5707L49.88 24.555ZM47.27 25.68L46.5823 24.954L47.27 25.68ZM47.36 29.82L46.7308 30.5972L46.7509 30.6135L46.7719 30.6287L47.36 29.82ZM53.03 29.775L53.5109 30.6519L53.5203 30.6466L53.03 29.775ZM55.235 27.57L54.3703 27.0679L54.3641 27.0784L54.3582 27.0892L55.235 27.57ZM54.785 15.6L54.1207 16.3474L54.1352 16.3604L54.1503 16.3727L54.785 15.6ZM48.17 15.555L48.7366 16.3791L48.7418 16.3754L48.17 15.555ZM46.055 18.21L45.6179 19.1094L46.5799 19.5769L46.9818 18.5857L46.055 18.21ZM41.24 15.87L40.3028 15.5213L39.9861 16.3724L40.8029 16.7694L41.24 15.87ZM43.49 12.54L44.1638 13.279L44.1648 13.278L43.49 12.54ZM47.18 10.29L46.8224 9.35614L47.18 10.29ZM57.08 10.605L56.6399 11.5029L56.647 11.5064L56.6542 11.5098L57.08 10.605ZM60.635 13.665L59.7914 14.2019L59.7985 14.2131L59.806 14.2241L60.635 13.665ZM61.94 34.5V35.5H62.94V34.5H61.94ZM56.36 34.5H55.36V35.5H56.36V34.5ZM56.36 30.315L56.2888 29.3175L55.36 29.3839V30.315H56.36ZM57.62 30.225L58.4775 30.7395L59.4669 29.0905L57.5488 29.2275L57.62 30.225ZM55.37 32.88L55.9914 33.6635L55.9996 33.657L56.0076 33.6504L55.37 32.88ZM52.4 34.5L52.7085 35.4512L52.7201 35.4475L52.7315 35.4435L52.4 34.5ZM48.71 34.04C47.1094 34.04 45.7709 33.7732 44.6672 33.2739L43.8429 35.0961C45.2592 35.7368 46.8906 36.04 48.71 36.04V34.04ZM44.6672 33.2739C43.5618 32.7738 42.7414 32.0818 42.1657 31.2058L40.4943 32.3042C41.2987 33.5282 42.4283 34.4562 43.8429 35.0961L44.6672 33.2739ZM42.1727 31.2166C41.5956 30.3133 41.295 29.259 41.295 28.02H39.295C39.295 29.601 39.6844 31.0367 40.4873 32.2934L42.1727 31.2166ZM41.295 28.02C41.295 26.8233 41.5593 25.798 42.0633 24.9161L40.3268 23.9239C39.6307 25.142 39.295 26.5167 39.295 28.02H41.295ZM42.0692 24.9056C42.566 24.0113 43.3517 23.2336 44.4812 22.5882L43.4889 20.8518C42.0983 21.6464 41.024 22.6687 40.3209 23.9344L42.0692 24.9056ZM44.4812 22.5882C45.6064 21.9453 47.0713 21.4652 48.9094 21.178L48.6007 19.202C46.5987 19.5148 44.8837 20.0547 43.4889 20.8518L44.4812 22.5882ZM48.9158 21.177L56.9258 19.872L56.6042 17.898L48.5942 19.203L48.9158 21.177ZM55.765 18.885V23.385H57.765V18.885H55.765ZM56.5975 22.3991L49.7125 23.5691L50.0476 25.5409L56.9326 24.3709L56.5975 22.3991ZM49.7034 23.5707C48.4335 23.7986 47.3491 24.2276 46.5823 24.954L47.9578 26.406C48.3309 26.0524 48.9865 25.7313 50.0567 25.5393L49.7034 23.5707ZM46.5823 24.954C45.7903 25.7043 45.415 26.6832 45.415 27.795H47.415C47.415 27.1668 47.6098 26.7357 47.9578 26.406L46.5823 24.954ZM45.415 27.795C45.415 28.9241 45.8566 29.8895 46.7308 30.5972L47.9892 29.0428C47.6035 28.7305 47.415 28.3459 47.415 27.795H45.415ZM46.7719 30.6287C47.6314 31.2539 48.6571 31.54 49.79 31.54V29.54C49.003 29.54 48.4086 29.3461 47.9482 29.0113L46.7719 30.6287ZM49.79 31.54C51.1611 31.54 52.4115 31.2547 53.5109 30.6518L52.5492 28.8982C51.7886 29.3153 50.879 29.54 49.79 29.54V31.54ZM53.5203 30.6466C54.6365 30.0187 55.5085 29.1511 56.1119 28.0508L54.3582 27.0892C53.9416 27.8489 53.3435 28.4513 52.5398 28.9034L53.5203 30.6466ZM56.0998 28.0721C56.7313 26.9846 57.045 25.7904 57.045 24.51H55.045C55.045 25.4496 54.8188 26.2954 54.3703 27.0679L56.0998 28.0721ZM57.045 24.51V18.21H55.045V24.51H57.045ZM57.045 18.21C57.045 16.8488 56.4816 15.6995 55.4198 14.8273L54.1503 16.3727C54.7685 16.8805 55.045 17.4712 55.045 18.21H57.045ZM55.4494 14.8526C54.4145 13.9326 53.0774 13.52 51.545 13.52V15.52C52.7126 15.52 53.5356 15.8274 54.1207 16.3474L55.4494 14.8526ZM51.545 13.52C50.0901 13.52 48.7637 13.9223 47.5982 14.7346L48.7418 16.3754C49.5564 15.8077 50.4799 15.52 51.545 15.52V13.52ZM47.6035 14.731C46.4774 15.5052 45.6497 16.5482 45.1283 17.8343L46.9818 18.5857C47.3604 17.6518 47.9427 16.9248 48.7366 16.379L47.6035 14.731ZM46.4921 17.3106L41.6771 14.9706L40.8029 16.7694L45.6179 19.1094L46.4921 17.3106ZM42.1773 16.2187C42.6016 15.0784 43.2611 14.102 44.1638 13.279L42.8163 11.801C41.679 12.838 40.8385 14.0816 40.3028 15.5213L42.1773 16.2187ZM44.1648 13.278C45.1167 12.4077 46.2375 11.7218 47.5377 11.2239L46.8224 9.35614C45.3026 9.93819 43.9633 10.7523 42.8153 11.802L44.1648 13.278ZM47.5377 11.2239C48.8234 10.7315 50.2309 10.48 51.77 10.48V8.48C50.0092 8.48 48.3567 8.76853 46.8224 9.35614L47.5377 11.2239ZM51.77 10.48C53.6547 10.48 55.2694 10.8311 56.6399 11.5029L57.5202 9.70708C55.8307 8.87888 53.9054 8.48 51.77 8.48V10.48ZM56.6542 11.5098C58.0273 12.156 59.0612 13.0545 59.7914 14.2019L61.4787 13.1281C60.5288 11.6355 59.1927 10.494 57.5058 9.70018L56.6542 11.5098ZM59.806 14.2241C60.5516 15.3298 60.94 16.6448 60.94 18.21H62.94C62.94 16.2952 62.4585 14.5802 61.4641 13.1059L59.806 14.2241ZM60.94 18.21V34.5H62.94V18.21H60.94ZM61.94 33.5H56.36V35.5H61.94V33.5ZM57.36 34.5V30.315H55.36V34.5H57.36ZM56.4313 31.3125L57.6913 31.2225L57.5488 29.2275L56.2888 29.3175L56.4313 31.3125ZM56.7625 29.7105C56.1859 30.6716 55.5081 31.4677 54.7325 32.1096L56.0076 33.6504C56.972 32.8523 57.7942 31.8784 58.4775 30.7395L56.7625 29.7105ZM54.7486 32.0965C53.9708 32.7134 53.08 33.2012 52.0686 33.5565L52.7315 35.4435C53.9401 35.0188 55.0293 34.4266 55.9914 33.6635L54.7486 32.0965ZM52.0915 33.5488C51.0954 33.8718 49.9714 34.04 48.71 34.04V36.04C50.1487 36.04 51.4847 35.8482 52.7085 35.4512L52.0915 33.5488ZM74.3291 34.5L73.3985 34.8661L73.6479 35.5H74.3291V34.5ZM64.6991 10.02V9.02H63.2311L63.7685 10.3861L64.6991 10.02ZM71.1341 10.02L72.0743 9.67949L71.8355 9.02H71.1341V10.02ZM78.1091 29.28V30.28H79.5348L79.0493 28.9395L78.1091 29.28ZM75.7241 29.28L74.7846 28.9376L74.2953 30.28H75.7241V29.28ZM82.7441 10.02V9.02H82.0442L81.8046 9.67755L82.7441 10.02ZM89.1791 10.02L90.1097 10.3861L90.6471 9.02H89.1791V10.02ZM79.5491 34.5V35.5H80.2303L80.4797 34.8661L79.5491 34.5ZM75.2597 34.1339L65.6297 9.65392L63.7685 10.3861L73.3985 34.8661L75.2597 34.1339ZM64.6991 11.02H71.1341V9.02H64.6991V11.02ZM70.1939 10.3605L77.1689 29.6205L79.0493 28.9395L72.0743 9.67949L70.1939 10.3605ZM78.1091 28.28H75.7241V30.28H78.1091V28.28ZM76.6636 29.6224L83.6836 10.3624L81.8046 9.67755L74.7846 28.9376L76.6636 29.6224ZM82.7441 11.02H89.1791V9.02H82.7441V11.02ZM88.2485 9.65392L78.6185 34.1339L80.4797 34.8661L90.1097 10.3861L88.2485 9.65392ZM79.5491 33.5H74.3291V35.5H79.5491V33.5ZM96.9929 33.33L96.4764 34.1863L96.9929 33.33ZM92.5829 28.695L93.4634 28.2209L92.5829 28.695ZM92.5829 15.69L91.7113 15.1997L91.7088 15.2044L92.5829 15.69ZM96.9479 11.145L96.4355 10.2863L96.4293 10.29L96.9479 11.145ZM108.198 10.425L107.797 11.3412L107.804 11.3441L108.198 10.425ZM111.933 13.035L111.197 13.7116L111.933 13.035ZM114.273 16.86L113.337 17.2111L113.339 17.2176L114.273 16.86ZM114.993 22.755L114.002 22.6228L113.997 22.6556L113.995 22.6885L114.993 22.755ZM114.768 23.925V24.925H115.468L115.708 24.2667L114.768 23.925ZM95.8679 23.925H94.8679V24.925H95.8679V23.925ZM95.8679 19.425V18.425H94.8679V19.425H95.8679ZM111.438 19.425L112.042 20.2219L114.412 18.425H111.438V19.425ZM108.648 21.54L107.667 21.348L107.163 23.9203L109.252 22.3369L108.648 21.54ZM108.423 17.85L107.482 18.1896L107.487 18.2011L107.491 18.2124L108.423 17.85ZM106.443 15.285L105.869 16.1042L105.876 16.1086L105.882 16.1129L106.443 15.285ZM99.8729 15.285L100.403 16.133L100.412 16.1271L100.422 16.121L99.8729 15.285ZM97.6679 17.985L96.7475 17.5938L96.7428 17.6054L97.6679 17.985ZM97.1279 22.26L98.1247 22.3397L98.1308 22.2643L98.1254 22.1888L97.1279 22.26ZM97.7129 26.265L96.7962 26.6646L96.8025 26.6789L96.8092 26.6931L97.7129 26.265ZM100.053 28.92L99.5274 29.7709L99.5384 29.7775L100.053 28.92ZM107.073 29.01L106.562 28.1501L106.55 28.1574L107.073 29.01ZM109.323 26.715L109.763 25.8172L108.915 25.4009L108.451 26.2247L109.323 26.715ZM114.093 29.055L115.018 29.4346L115.373 28.5692L114.533 28.1572L114.093 29.055ZM111.843 32.16L112.505 32.9098V32.9098L111.843 32.16ZM108.198 34.275L107.858 33.3346L107.851 33.337L108.198 34.275ZM103.608 34.04C101.244 34.04 99.2225 33.507 97.5094 32.4737L96.4764 34.1863C98.5434 35.433 100.932 36.04 103.608 36.04V34.04ZM97.5094 32.4737C95.7733 31.4265 94.4288 30.0138 93.4634 28.2209L91.7025 29.1691C92.8371 31.2762 94.4325 32.9535 96.4764 34.1863L97.5094 32.4737ZM93.4634 28.2209C92.4973 26.4268 92.0079 24.4314 92.0079 22.215H90.0079C90.0079 24.7385 90.5685 27.0632 91.7025 29.1691L93.4634 28.2209ZM92.0079 22.215C92.0079 19.9012 92.5004 17.8976 93.4571 16.1756L91.7088 15.2044C90.5654 17.2624 90.0079 19.6088 90.0079 22.215H92.0079ZM93.4545 16.1803C94.4528 14.4056 95.788 13.0181 97.4665 12L96.4293 10.29C94.4478 11.4919 92.8731 13.1344 91.7114 15.1997L93.4545 16.1803ZM97.4604 12.0037C99.1572 10.9911 101.048 10.48 103.158 10.48V8.48C100.707 8.48 98.4587 9.07887 96.4355 10.2863L97.4604 12.0037ZM103.158 10.48C104.97 10.48 106.508 10.7773 107.797 11.3412L108.599 9.50884C107.008 8.81273 105.186 8.48 103.158 8.48V10.48ZM107.804 11.3441C109.152 11.9219 110.278 12.712 111.197 13.7116L112.669 12.3584C111.548 11.138 110.184 10.1881 108.592 9.50585L107.804 11.3441ZM111.197 13.7116C112.128 14.725 112.841 15.889 113.337 17.2111L115.209 16.5089C114.625 14.951 113.778 13.5649 112.669 12.3584L111.197 13.7116ZM113.339 17.2176C113.831 18.5033 114.083 19.9109 114.083 21.45H116.083C116.083 19.6891 115.794 18.0367 115.207 16.5024L113.339 17.2176ZM114.083 21.45C114.083 21.8224 114.056 22.2132 114.002 22.6228L115.984 22.8872C116.05 22.3968 116.083 21.9176 116.083 21.45H114.083ZM113.995 22.6885C113.97 23.0697 113.908 23.3628 113.828 23.5833L115.708 24.2667C115.868 23.8272 115.956 23.3403 115.991 22.8215L113.995 22.6885ZM114.768 22.925H95.8679V24.925H114.768V22.925ZM96.8679 23.925V19.425H94.8679V23.925H96.8679ZM95.8679 20.425H111.438V18.425H95.8679V20.425ZM110.834 18.6281L108.044 20.7431L109.252 22.3369L112.042 20.2219L110.834 18.6281ZM109.629 21.732C109.928 20.2061 109.857 18.7784 109.355 17.4876L107.491 18.2124C107.829 19.0816 107.908 20.1139 107.667 21.348L109.629 21.732ZM109.363 17.5104C108.903 16.2363 108.113 15.2084 107.004 14.4571L105.882 16.1129C106.633 16.6216 107.162 17.3037 107.482 18.1896L109.363 17.5104ZM107.016 14.4658C105.921 13.6987 104.616 13.34 103.158 13.34V15.34C104.279 15.34 105.165 15.6113 105.869 16.1042L107.016 14.4658ZM103.158 13.34C101.748 13.34 100.459 13.7043 99.3243 14.449L100.422 16.121C101.207 15.6057 102.108 15.34 103.158 15.34V13.34ZM99.3429 14.437C98.1837 15.1615 97.3252 16.2347 96.7476 17.5939L98.5883 18.3761C99.0306 17.3353 99.6422 16.6085 100.403 16.133L99.3429 14.437ZM96.7428 17.6054C96.1881 18.9574 96.003 20.5462 96.1305 22.3312L98.1254 22.1888C98.0129 20.6138 98.1877 19.3526 98.5931 18.3646L96.7428 17.6054ZM96.1311 22.1803C96.0004 23.8148 96.2097 25.319 96.7962 26.6646L98.6296 25.8654C98.1962 24.871 98.0155 23.7052 98.1247 22.3397L96.1311 22.1803ZM96.8092 26.6931C97.4273 27.998 98.3344 29.0339 99.5274 29.7708L100.578 28.0692C99.7314 27.5461 99.0786 26.812 98.6167 25.8369L96.8092 26.6931ZM99.5384 29.7775C100.759 30.5101 102.141 30.865 103.653 30.865V28.865C102.465 28.865 101.446 28.5899 100.567 28.0625L99.5384 29.7775ZM103.653 30.865C105.144 30.865 106.475 30.5495 107.595 29.8626L106.55 28.1574C105.811 28.6105 104.862 28.865 103.653 28.865V30.865ZM107.583 29.8699C108.692 29.2117 109.567 28.3201 110.195 27.2053L108.451 26.2247C107.998 27.0299 107.374 27.6683 106.562 28.1501L107.583 29.8699ZM108.883 27.6128L113.653 29.9528L114.533 28.1572L109.763 25.8172L108.883 27.6128ZM113.168 28.6754C112.75 29.6928 112.095 30.6039 111.181 31.4102L112.505 32.9098C113.631 31.9161 114.475 30.7572 115.018 29.4346L113.168 28.6754ZM111.181 31.4102C110.265 32.2189 109.162 32.863 107.858 33.3346L108.538 35.2154C110.054 34.667 111.381 33.9011 112.505 32.9098L111.181 31.4102ZM107.851 33.337C106.597 33.8006 105.186 34.04 103.608 34.04V36.04C105.39 36.04 107.039 35.7694 108.545 35.213L107.851 33.337ZM119.552 34.5H118.552V35.5H119.552V34.5ZM119.552 0.434999V-0.565001H118.552V0.434999H119.552ZM125.447 0.434999H126.447V-0.565001H125.447V0.434999ZM125.447 34.5V35.5H126.447V34.5H125.447ZM120.552 34.5V0.434999H118.552V34.5H120.552ZM119.552 1.435H125.447V-0.565001H119.552V1.435ZM124.447 0.434999V34.5H126.447V0.434999H124.447ZM125.447 33.5H119.552V35.5H125.447V33.5ZM139.383 34.5H138.383V35.5H139.383V34.5ZM139.383 0.974998V-0.0250025H138.383V0.974998H139.383ZM157.923 2.235L157.488 3.13555L157.497 3.14003L157.506 3.14431L157.923 2.235ZM162.063 5.835L161.214 6.36358L161.218 6.37082L162.063 5.835ZM162.018 17.265L161.176 16.725L161.173 16.7292L162.018 17.265ZM157.923 20.865L158.357 21.7656L157.923 20.865ZM145.503 22.125V21.125H144.503V22.125H145.503ZM145.503 34.5V35.5H146.503V34.5H145.503ZM145.503 16.725H144.503V17.725H145.503V16.725ZM154.863 16.095L155.323 16.9828L155.336 16.9761L155.348 16.9692L154.863 16.095ZM156.753 14.25L157.619 14.7497L156.753 14.25ZM156.753 8.85L155.886 9.34972L155.891 9.35714L155.895 9.36449L156.753 8.85ZM154.863 7.05L154.377 7.92416L154.389 7.93114L154.402 7.93775L154.863 7.05ZM145.503 6.375V5.375H144.503V6.375H145.503ZM140.383 34.5V0.974998H138.383V34.5H140.383ZM139.383 1.975H151.893V-0.0250025H139.383V1.975ZM151.893 1.975C154.049 1.975 155.906 2.37177 157.488 3.13555L158.357 1.33445C156.459 0.418225 154.296 -0.0250025 151.893 -0.0250025V1.975ZM157.506 3.14431C159.105 3.87601 160.332 4.94698 161.214 6.36356L162.911 5.30644C161.813 3.54301 160.28 2.21399 158.339 1.32569L157.506 3.14431ZM161.218 6.37082C162.086 7.73881 162.548 9.44822 162.548 11.55H164.548C164.548 9.15178 164.019 7.05118 162.907 5.29917L161.218 6.37082ZM162.548 11.55C162.548 13.6127 162.076 15.3227 161.176 16.725L162.859 17.805C164 16.0273 164.548 13.9273 164.548 11.55H162.548ZM161.173 16.7292C160.288 18.1244 159.068 19.2016 157.488 19.9644L158.357 21.7656C160.257 20.8484 161.767 19.5256 162.862 17.8008L161.173 16.7292ZM157.488 19.9644C155.906 20.7282 154.049 21.125 151.893 21.125V23.125C154.296 23.125 156.459 22.6818 158.357 21.7656L157.488 19.9644ZM151.893 21.125H145.503V23.125H151.893V21.125ZM144.503 22.125V34.5H146.503V22.125H144.503ZM145.503 33.5H139.383V35.5H145.503V33.5ZM145.503 17.725H151.983V15.725H145.503V17.725ZM151.983 17.725C153.219 17.725 154.343 17.4908 155.323 16.9828L154.402 15.2072C153.762 15.5392 152.967 15.725 151.983 15.725V17.725ZM155.348 16.9692C156.312 16.4338 157.075 15.6914 157.619 14.7497L155.886 13.7503C155.53 14.3686 155.033 14.8562 154.377 15.2208L155.348 16.9692ZM157.619 14.7497C158.168 13.7985 158.428 12.7217 158.428 11.55H156.428C156.428 12.4183 156.238 13.1415 155.886 13.7503L157.619 14.7497ZM158.428 11.55C158.428 10.3552 158.17 9.26949 157.61 8.3355L155.895 9.36449C156.235 9.93051 156.428 10.6447 156.428 11.55H158.428ZM157.619 8.35028C157.072 7.40252 156.3 6.66894 155.323 6.16224L154.402 7.93775C155.045 8.27106 155.533 8.73748 155.886 9.34972L157.619 8.35028ZM155.348 6.17584C154.363 5.62841 153.229 5.375 151.983 5.375V7.375C152.956 7.375 153.742 7.57159 154.377 7.92416L155.348 6.17584ZM151.983 5.375H145.503V7.375H151.983V5.375ZM144.503 6.375V16.725H146.503V6.375H144.503ZM168.067 34.5H167.067V35.5H168.067V34.5ZM168.067 0.434999V-0.565001H167.067V0.434999H168.067ZM173.962 0.434999H174.962V-0.565001H173.962V0.434999ZM173.962 34.5V35.5H174.962V34.5H173.962ZM169.067 34.5V0.434999H167.067V34.5H169.067ZM168.067 1.435H173.962V-0.565001H168.067V1.435ZM172.962 0.434999V34.5H174.962V0.434999H172.962ZM173.962 33.5H168.067V35.5H173.962V33.5ZM182.375 34.185L181.963 35.0961L182.375 34.185ZM179.45 31.755L178.607 32.2934L178.614 32.3042L179.45 31.755ZM179.315 24.42L180.183 24.9162L180.189 24.9056L179.315 24.42ZM182.105 21.72L182.601 22.5882H182.601L182.105 21.72ZM186.875 20.19L187.03 21.178L187.036 21.177L186.875 20.19ZM194.885 18.885H195.885V17.7089L194.724 17.898L194.885 18.885ZM194.885 23.385L195.053 24.3709L195.885 24.2294V23.385H194.885ZM188 24.555L187.833 23.5691L187.823 23.5707L188 24.555ZM185.39 25.68L184.702 24.954L185.39 25.68ZM185.48 29.82L184.851 30.5972L184.871 30.6135L184.892 30.6287L185.48 29.82ZM191.15 29.775L191.631 30.6519L191.64 30.6466L191.15 29.775ZM193.355 27.57L192.49 27.0679L192.484 27.0784L192.478 27.0892L193.355 27.57ZM192.905 15.6L192.241 16.3474L192.255 16.3604L192.27 16.3727L192.905 15.6ZM186.29 15.555L186.857 16.3791L186.862 16.3754L186.29 15.555ZM184.175 18.21L183.738 19.1094L184.7 19.5769L185.102 18.5857L184.175 18.21ZM179.36 15.87L178.423 15.5213L178.106 16.3724L178.923 16.7694L179.36 15.87ZM181.61 12.54L182.284 13.279L182.285 13.278L181.61 12.54ZM185.3 10.29L184.943 9.35614L185.3 10.29ZM195.2 10.605L194.76 11.5029L194.767 11.5064L194.774 11.5098L195.2 10.605ZM198.755 13.665L197.911 14.2019L197.919 14.2131L197.926 14.2241L198.755 13.665ZM200.06 34.5V35.5H201.06V34.5H200.06ZM194.48 34.5H193.48V35.5H194.48V34.5ZM194.48 30.315L194.409 29.3175L193.48 29.3839V30.315H194.48ZM195.74 30.225L196.598 30.7395L197.587 29.0905L195.669 29.2275L195.74 30.225ZM193.49 32.88L194.112 33.6635L194.12 33.657L194.128 33.6504L193.49 32.88ZM190.52 34.5L190.829 35.4512L190.84 35.4475L190.852 35.4435L190.52 34.5ZM186.83 34.04C185.23 34.04 183.891 33.7732 182.787 33.2739L181.963 35.0961C183.379 35.7368 185.011 36.04 186.83 36.04V34.04ZM182.787 33.2739C181.682 32.7738 180.861 32.0818 180.286 31.2058L178.614 32.3042C179.419 33.5282 180.548 34.4562 181.963 35.0961L182.787 33.2739ZM180.293 31.2166C179.716 30.3133 179.415 29.259 179.415 28.02H177.415C177.415 29.601 177.805 31.0367 178.607 32.2934L180.293 31.2166ZM179.415 28.02C179.415 26.8233 179.679 25.798 180.183 24.9161L178.447 23.9239C177.751 25.142 177.415 26.5167 177.415 28.02H179.415ZM180.189 24.9056C180.686 24.0113 181.472 23.2336 182.601 22.5882L181.609 20.8518C180.218 21.6464 179.144 22.6687 178.441 23.9344L180.189 24.9056ZM182.601 22.5882C183.726 21.9453 185.191 21.4652 187.03 21.178L186.721 19.202C184.719 19.5148 183.004 20.0547 181.609 20.8518L182.601 22.5882ZM187.036 21.177L195.046 19.872L194.724 17.898L186.714 19.203L187.036 21.177ZM193.885 18.885V23.385H195.885V18.885H193.885ZM194.718 22.3991L187.833 23.5691L188.168 25.5409L195.053 24.3709L194.718 22.3991ZM187.823 23.5707C186.554 23.7986 185.469 24.2276 184.702 24.954L186.078 26.406C186.451 26.0524 187.107 25.7313 188.177 25.5393L187.823 23.5707ZM184.702 24.954C183.91 25.7043 183.535 26.6832 183.535 27.795H185.535C185.535 27.1668 185.73 26.7357 186.078 26.406L184.702 24.954ZM183.535 27.795C183.535 28.9241 183.977 29.8895 184.851 30.5972L186.109 29.0428C185.724 28.7305 185.535 28.3459 185.535 27.795H183.535ZM184.892 30.6287C185.752 31.2539 186.777 31.54 187.91 31.54V29.54C187.123 29.54 186.529 29.3461 186.068 29.0113L184.892 30.6287ZM187.91 31.54C189.281 31.54 190.532 31.2547 191.631 30.6518L190.669 28.8982C189.909 29.3153 188.999 29.54 187.91 29.54V31.54ZM191.64 30.6466C192.757 30.0187 193.629 29.1511 194.232 28.0508L192.478 27.0892C192.062 27.8489 191.464 28.4513 190.66 28.9034L191.64 30.6466ZM194.22 28.0721C194.851 26.9846 195.165 25.7904 195.165 24.51H193.165C193.165 25.4496 192.939 26.2954 192.49 27.0679L194.22 28.0721ZM195.165 24.51V18.21H193.165V24.51H195.165ZM195.165 18.21C195.165 16.8488 194.602 15.6995 193.54 14.8273L192.27 16.3727C192.889 16.8805 193.165 17.4712 193.165 18.21H195.165ZM193.57 14.8526C192.535 13.9326 191.198 13.52 189.665 13.52V15.52C190.833 15.52 191.656 15.8274 192.241 16.3474L193.57 14.8526ZM189.665 13.52C188.21 13.52 186.884 13.9223 185.718 14.7346L186.862 16.3754C187.676 15.8077 188.6 15.52 189.665 15.52V13.52ZM185.724 14.731C184.598 15.5052 183.77 16.5482 183.248 17.8343L185.102 18.5857C185.481 17.6518 186.063 16.9248 186.857 16.379L185.724 14.731ZM184.612 17.3106L179.797 14.9706L178.923 16.7694L183.738 19.1094L184.612 17.3106ZM180.297 16.2187C180.722 15.0784 181.381 14.102 182.284 13.279L180.936 11.801C179.799 12.838 178.959 14.0816 178.423 15.5213L180.297 16.2187ZM182.285 13.278C183.237 12.4077 184.358 11.7218 185.658 11.2239L184.943 9.35614C183.423 9.93819 182.083 10.7523 180.935 11.802L182.285 13.278ZM185.658 11.2239C186.943 10.7315 188.351 10.48 189.89 10.48V8.48C188.129 8.48 186.477 8.76853 184.943 9.35614L185.658 11.2239ZM189.89 10.48C191.775 10.48 193.39 10.8311 194.76 11.5029L195.64 9.70708C193.951 8.87888 192.026 8.48 189.89 8.48V10.48ZM194.774 11.5098C196.147 12.156 197.181 13.0545 197.911 14.2019L199.599 13.1281C198.649 11.6355 197.313 10.494 195.626 9.70018L194.774 11.5098ZM197.926 14.2241C198.672 15.3298 199.06 16.6448 199.06 18.21H201.06C201.06 16.2952 200.579 14.5802 199.584 13.1059L197.926 14.2241ZM199.06 18.21V34.5H201.06V18.21H199.06ZM200.06 33.5H194.48V35.5H200.06V33.5ZM195.48 34.5V30.315H193.48V34.5H195.48ZM194.551 31.3125L195.811 31.2225L195.669 29.2275L194.409 29.3175L194.551 31.3125ZM194.883 29.7105C194.306 30.6716 193.628 31.4677 192.853 32.1096L194.128 33.6504C195.092 32.8523 195.914 31.8784 196.598 30.7395L194.883 29.7105ZM192.869 32.0965C192.091 32.7134 191.2 33.2012 190.189 33.5565L190.852 35.4435C192.06 35.0188 193.149 34.4266 194.112 33.6635L192.869 32.0965ZM190.212 33.5488C189.216 33.8718 188.091 34.04 186.83 34.04V36.04C188.269 36.04 189.605 35.8482 190.829 35.4512L190.212 33.5488ZM205.509 34.5H204.509V35.5H205.509V34.5ZM205.509 10.02V9.02H204.509V10.02H205.509ZM211.044 10.02H212.044V9.02H211.044V10.02ZM211.044 14.835L210.159 15.3007L212.044 14.835H211.044ZM210.594 13.98L209.661 13.6185L209.497 14.0429L209.709 14.4457L210.594 13.98ZM213.384 10.65L213.886 11.5145L213.892 11.5109L213.384 10.65ZM222.744 10.65L222.252 11.5206L222.26 11.525L222.744 10.65ZM226.029 13.935L225.154 14.4191L225.158 14.4271L226.029 13.935ZM227.199 34.5V35.5H228.199V34.5H227.199ZM221.304 34.5H220.304V35.5H221.304V34.5ZM220.674 17.355L221.554 16.8809L220.674 17.355ZM218.919 15.555L218.389 16.403L218.409 16.4157L218.43 16.4275L218.919 15.555ZM213.789 15.555L214.277 16.4275L214.29 16.4202L214.303 16.4125L213.789 15.555ZM212.034 17.355L212.914 17.8291L212.034 17.355ZM211.404 34.5V35.5H212.404V34.5H211.404ZM206.509 34.5V10.02H204.509V34.5H206.509ZM205.509 11.02H211.044V9.02H205.509V11.02ZM210.044 10.02V14.835H212.044V10.02H210.044ZM211.929 14.3693L211.479 13.5143L209.709 14.4457L210.159 15.3007L211.929 14.3693ZM211.526 14.3415C212.019 13.0702 212.804 12.1437 213.886 11.5145L212.881 9.78549C211.383 10.6563 210.308 11.9498 209.661 13.6185L211.526 14.3415ZM213.892 11.5109C215.038 10.8337 216.388 10.48 217.974 10.48V8.48C216.079 8.48 214.369 8.90627 212.875 9.78907L213.892 11.5109ZM217.974 10.48C219.625 10.48 221.041 10.8364 222.252 11.5206L223.236 9.77944C221.686 8.90362 219.922 8.48 217.974 8.48V10.48ZM222.26 11.525C223.505 12.214 224.465 13.1735 225.154 14.4191L226.904 13.4509C226.033 11.8765 224.802 10.646 223.228 9.77497L222.26 11.525ZM225.158 14.4271C225.841 15.6351 226.199 17.0655 226.199 18.75H228.199C228.199 16.7745 227.776 14.9949 226.899 13.4429L225.158 14.4271ZM226.199 18.75V34.5H228.199V18.75H226.199ZM227.199 33.5H221.304V35.5H227.199V33.5ZM222.304 34.5V20.145H220.304V34.5H222.304ZM222.304 20.145C222.304 18.9354 222.068 17.8353 221.554 16.8809L219.793 17.8291C220.119 18.4347 220.304 19.1946 220.304 20.145H222.304ZM221.554 16.8809C221.047 15.939 220.328 15.1983 219.407 14.6825L218.43 16.4275C219.009 16.7517 219.46 17.211 219.793 17.8291L221.554 16.8809ZM219.449 14.707C218.545 14.1421 217.499 13.88 216.354 13.88V15.88C217.188 15.88 217.852 16.0679 218.389 16.403L219.449 14.707ZM216.354 13.88C215.231 13.88 214.195 14.1453 213.274 14.6975L214.303 16.4125C214.883 16.0647 215.557 15.88 216.354 15.88V13.88ZM213.3 14.6825C212.379 15.1983 211.66 15.939 211.153 16.8809L212.914 17.8291C213.247 17.211 213.698 16.7517 214.277 16.4275L213.3 14.6825ZM211.153 16.8809C210.639 17.8353 210.404 18.9354 210.404 20.145H212.404C212.404 19.1946 212.588 18.4347 212.914 17.8291L211.153 16.8809ZM210.404 20.145V34.5H212.404V20.145H210.404ZM211.404 33.5H205.509V35.5H211.404V33.5ZM232.183 34.5H231.183V35.5H232.183V34.5ZM232.183 10.02V9.02H231.183V10.02H232.183ZM237.718 10.02H238.718V9.02H237.718V10.02ZM237.718 14.835L236.834 15.3007L238.718 14.835H237.718ZM237.268 13.98L236.336 13.6185L236.172 14.0429L236.384 14.4457L237.268 13.98ZM240.058 10.65L240.561 11.5145L240.567 11.5109L240.058 10.65ZM249.418 10.65L248.926 11.5206L248.934 11.525L249.418 10.65ZM252.703 13.935L251.828 14.4191L251.833 14.4271L252.703 13.935ZM253.873 34.5V35.5H254.873V34.5H253.873ZM247.978 34.5H246.978V35.5H247.978V34.5ZM247.348 17.355L248.229 16.8809L247.348 17.355ZM245.593 15.555L245.063 16.403L245.084 16.4157L245.105 16.4275L245.593 15.555ZM240.463 15.555L240.952 16.4275L240.965 16.4202L240.978 16.4125L240.463 15.555ZM238.708 17.355L239.589 17.8291L238.708 17.355ZM238.078 34.5V35.5H239.078V34.5H238.078ZM233.183 34.5V10.02H231.183V34.5H233.183ZM232.183 11.02H237.718V9.02H232.183V11.02ZM236.718 10.02V14.835H238.718V10.02H236.718ZM238.603 14.3693L238.153 13.5143L236.384 14.4457L236.834 15.3007L238.603 14.3693ZM238.201 14.3415C238.694 13.0702 239.479 12.1437 240.561 11.5145L239.556 9.78549C238.058 10.6563 236.983 11.9498 236.336 13.6185L238.201 14.3415ZM240.567 11.5109C241.713 10.8337 243.063 10.48 244.648 10.48V8.48C242.754 8.48 241.044 8.90627 239.55 9.78907L240.567 11.5109ZM244.648 10.48C246.3 10.48 247.716 10.8364 248.926 11.5206L249.911 9.77944C248.361 8.90362 246.597 8.48 244.648 8.48V10.48ZM248.934 11.525C250.18 12.214 251.139 13.1735 251.828 14.4191L253.579 13.4509C252.708 11.8765 251.477 10.646 249.903 9.77497L248.934 11.525ZM251.833 14.4271C252.516 15.6351 252.873 17.0655 252.873 18.75H254.873C254.873 16.7745 254.451 14.9949 253.574 13.4429L251.833 14.4271ZM252.873 18.75V34.5H254.873V18.75H252.873ZM253.873 33.5H247.978V35.5H253.873V33.5ZM248.978 34.5V20.145H246.978V34.5H248.978ZM248.978 20.145C248.978 18.9354 248.743 17.8353 248.229 16.8809L246.468 17.8291C246.794 18.4347 246.978 19.1946 246.978 20.145H248.978ZM248.229 16.8809C247.722 15.939 247.003 15.1983 246.082 14.6825L245.105 16.4275C245.684 16.7517 246.135 17.211 246.468 17.8291L248.229 16.8809ZM246.123 14.707C245.22 14.1421 244.174 13.88 243.028 13.88V15.88C243.863 15.88 244.527 16.0679 245.063 16.403L246.123 14.707ZM243.028 13.88C241.905 13.88 240.869 14.1453 239.949 14.6975L240.978 16.4125C241.558 16.0647 242.231 15.88 243.028 15.88V13.88ZM239.975 14.6825C239.054 15.1983 238.335 15.939 237.828 16.8809L239.589 17.8291C239.922 17.211 240.373 16.7517 240.952 16.4275L239.975 14.6825ZM237.828 16.8809C237.314 17.8353 237.078 18.9354 237.078 20.145H239.078C239.078 19.1946 239.263 18.4347 239.589 17.8291L237.828 16.8809ZM237.078 20.145V34.5H239.078V20.145H237.078ZM238.078 33.5H232.183V35.5H238.078V33.5ZM258.858 34.5H257.858V35.5H258.858V34.5ZM258.858 10.02V9.02H257.858V10.02H258.858ZM264.753 10.02H265.753V9.02H264.753V10.02ZM264.753 34.5V35.5H265.753V34.5H264.753ZM258.858 7.275H257.858V8.275H258.858V7.275ZM258.858 0.974998V-0.0250025H257.858V0.974998H258.858ZM264.753 0.974998H265.753V-0.0250025H264.753V0.974998ZM264.753 7.275V8.275H265.753V7.275H264.753ZM259.858 34.5V10.02H257.858V34.5H259.858ZM258.858 11.02H264.753V9.02H258.858V11.02ZM263.753 10.02V34.5H265.753V10.02H263.753ZM264.753 33.5H258.858V35.5H264.753V33.5ZM259.858 7.275V0.974998H257.858V7.275H259.858ZM258.858 1.975H264.753V-0.0250025H258.858V1.975ZM263.753 0.974998V7.275H265.753V0.974998H263.753ZM264.753 6.275H258.858V8.275H264.753V6.275ZM270.196 34.5H269.196V35.5H270.196V34.5ZM270.196 10.02V9.02H269.196V10.02H270.196ZM275.731 10.02H276.731V9.02H275.731V10.02ZM275.731 14.835L274.846 15.3007L276.731 14.835H275.731ZM275.281 13.98L274.349 13.6185L274.184 14.0429L274.396 14.4457L275.281 13.98ZM278.071 10.65L278.574 11.5145L278.58 11.5109L278.071 10.65ZM287.431 10.65L286.939 11.5206L286.947 11.525L287.431 10.65ZM290.716 13.935L289.841 14.4191L289.846 14.4271L290.716 13.935ZM291.886 34.5V35.5H292.886V34.5H291.886ZM285.991 34.5H284.991V35.5H285.991V34.5ZM285.361 17.355L286.242 16.8809L285.361 17.355ZM283.606 15.555L283.076 16.403L283.097 16.4157L283.118 16.4275L283.606 15.555ZM278.476 15.555L278.965 16.4275L278.978 16.4202L278.991 16.4125L278.476 15.555ZM276.721 17.355L277.602 17.8291L276.721 17.355ZM276.091 34.5V35.5H277.091V34.5H276.091ZM271.196 34.5V10.02H269.196V34.5H271.196ZM270.196 11.02H275.731V9.02H270.196V11.02ZM274.731 10.02V14.835H276.731V10.02H274.731ZM276.616 14.3693L276.166 13.5143L274.396 14.4457L274.846 15.3007L276.616 14.3693ZM276.214 14.3415C276.706 13.0702 277.492 12.1437 278.574 11.5145L277.569 9.78549C276.071 10.6563 274.996 11.9498 274.349 13.6185L276.214 14.3415ZM278.58 11.5109C279.726 10.8337 281.076 10.48 282.661 10.48V8.48C280.767 8.48 279.056 8.90627 277.562 9.78907L278.58 11.5109ZM282.661 10.48C284.312 10.48 285.729 10.8364 286.939 11.5206L287.923 9.77944C286.374 8.90362 284.61 8.48 282.661 8.48V10.48ZM286.947 11.525C288.193 12.214 289.152 13.1735 289.841 14.4191L291.591 13.4509C290.72 11.8765 289.49 10.646 287.915 9.77497L286.947 11.525ZM289.846 14.4271C290.528 15.6351 290.886 17.0655 290.886 18.75H292.886C292.886 16.7745 292.464 14.9949 291.587 13.4429L289.846 14.4271ZM290.886 18.75V34.5H292.886V18.75H290.886ZM291.886 33.5H285.991V35.5H291.886V33.5ZM286.991 34.5V20.145H284.991V34.5H286.991ZM286.991 20.145C286.991 18.9354 286.756 17.8353 286.242 16.8809L284.481 17.8291C284.807 18.4347 284.991 19.1946 284.991 20.145H286.991ZM286.242 16.8809C285.734 15.939 285.016 15.1983 284.095 14.6825L283.118 16.4275C283.696 16.7517 284.148 17.211 284.481 17.8291L286.242 16.8809ZM284.136 14.707C283.232 14.1421 282.187 13.88 281.041 13.88V15.88C281.875 15.88 282.54 16.0679 283.076 16.403L284.136 14.707ZM281.041 13.88C279.918 13.88 278.882 14.1453 277.962 14.6975L278.991 16.4125C279.57 16.0647 280.244 15.88 281.041 15.88V13.88ZM277.988 14.6825C277.066 15.1983 276.348 15.939 275.841 16.8809L277.602 17.8291C277.934 17.211 278.386 16.7517 278.965 16.4275L277.988 14.6825ZM275.841 16.8809C275.327 17.8353 275.091 18.9354 275.091 20.145H277.091C277.091 19.1946 277.276 18.4347 277.602 17.8291L275.841 16.8809ZM275.091 20.145V34.5H277.091V20.145H275.091ZM276.091 33.5H270.196V35.5H276.091V33.5ZM303.666 43.5L304.025 42.5667L303.666 43.5ZM299.616 40.98L300.304 40.254L300.303 40.2535L299.616 40.98ZM297.186 37.245L296.833 36.3093L295.916 36.6551L296.243 37.5788L297.186 37.245ZM302.676 35.175L303.63 34.8739L303.311 33.8667L302.323 34.2393L302.676 35.175ZM304.791 37.92L305.346 37.0879L305.34 37.0843L304.791 37.92ZM311.901 38.325L311.465 37.4248L311.454 37.4306L311.901 38.325ZM314.061 36.345L313.206 35.826L313.202 35.8326L313.198 35.8393L314.061 36.345ZM314.826 27.705L315.594 27.0648L313.826 24.943V27.705H314.826ZM315.951 29.055L316.819 29.5511L317.164 28.9482L316.719 28.4148L315.951 29.055ZM312.576 32.385L313.046 33.2679L312.576 32.385ZM301.641 31.935L301.137 32.7988L301.641 31.935ZM297.411 27.615L298.284 27.1281L297.411 27.615ZM297.411 15.285L298.281 15.778L297.411 15.285ZM301.596 11.055L302.095 11.9215L302.106 11.9151L301.596 11.055ZM312.441 10.65L311.949 11.5206L311.96 11.5269L311.971 11.5329L312.441 10.65ZM315.951 13.935L316.829 14.4139L317.114 13.8919L316.791 13.3925L315.951 13.935ZM315.141 15.42H314.141L316.019 15.8989L315.141 15.42ZM315.141 10.02V9.02H314.141V10.02H315.141ZM320.721 10.02H321.721V9.02H320.721V10.02ZM319.146 39L318.298 38.47L318.291 38.481L319.146 39ZM314.916 42.96L314.445 42.0776L314.439 42.081L314.916 42.96ZM311.766 27.255L312.268 28.1198L312.277 28.1149L311.766 27.255ZM314.016 24.915L314.894 25.3939L314.016 24.915ZM313.971 18.12L313.087 18.5879L313.095 18.6036L313.104 18.619L313.971 18.12ZM311.721 15.735L311.198 16.5877L311.21 16.5949L311.721 15.735ZM305.151 15.735L304.652 14.8684L305.151 15.735ZM302.811 18.12L301.938 17.6322L301.933 17.6411L302.811 18.12ZM302.811 24.87L301.933 25.3489L301.939 25.359L301.944 25.369L302.811 24.87ZM305.106 27.21L304.595 28.0699L304.607 28.0766L305.106 27.21ZM308.751 43.4C307.032 43.4 305.46 43.1186 304.025 42.5667L303.307 44.4333C304.992 45.0814 306.81 45.4 308.751 45.4V43.4ZM304.025 42.5667C302.579 42.0106 301.343 41.2384 300.304 40.254L298.928 41.706C300.169 42.8816 301.633 43.7894 303.307 44.4333L304.025 42.5667ZM300.303 40.2535C299.308 39.3123 298.586 38.2019 298.129 36.9112L296.243 37.5788C296.806 39.1681 297.704 40.5477 298.929 41.7065L300.303 40.2535ZM297.539 38.1807L303.029 36.1107L302.323 34.2393L296.833 36.3093L297.539 38.1807ZM301.722 35.4761C302.155 36.8473 303.01 37.9463 304.242 38.7557L305.34 37.0843C304.472 36.5137 303.917 35.7827 303.63 34.8739L301.722 35.4761ZM304.236 38.7521C305.511 39.602 307.034 40 308.751 40V38C307.348 38 306.231 37.678 305.346 37.088L304.236 38.7521ZM308.751 40C310.077 40 311.285 39.751 312.348 39.2194L311.454 37.4306C310.717 37.799 309.825 38 308.751 38V40ZM312.337 39.2252C313.44 38.6911 314.311 37.896 314.924 36.8507L313.198 35.8393C312.791 36.534 312.222 37.0589 311.465 37.4248L312.337 39.2252ZM314.916 36.864C315.54 35.8362 315.826 34.6275 315.826 33.285H313.826C313.826 34.3424 313.602 35.1738 313.206 35.826L314.916 36.864ZM315.826 33.285V27.705H313.826V33.285H315.826ZM314.058 28.3452L315.183 29.6952L316.719 28.4148L315.594 27.0648L314.058 28.3452ZM315.083 28.5589C314.331 29.8752 313.339 30.8462 312.106 31.5021L313.046 33.2679C314.633 32.4238 315.891 31.1748 316.819 29.5511L315.083 28.5589ZM312.106 31.5021C310.858 32.1659 309.418 32.51 307.761 32.51V34.51C309.704 34.51 311.473 34.1041 313.046 33.2679L312.106 31.5021ZM307.761 32.51C305.641 32.51 303.778 32.0237 302.145 31.0712L301.137 32.7988C303.104 33.9463 305.321 34.51 307.761 34.51V32.51ZM302.145 31.0712C300.5 30.112 299.218 28.8025 298.284 27.1281L296.538 28.1019C297.644 30.0874 299.181 31.658 301.137 32.7988L302.145 31.0712ZM298.284 27.1281C297.355 25.4599 296.881 23.575 296.881 21.45H294.881C294.881 23.885 295.427 26.1101 296.538 28.1019L298.284 27.1281ZM296.881 21.45C296.881 19.2922 297.356 17.4107 298.281 15.778L296.541 14.792C295.426 16.7593 294.881 18.9878 294.881 21.45H296.881ZM298.281 15.778C299.214 14.1313 300.482 12.8511 302.095 11.9214L301.097 10.1886C299.17 11.2989 297.648 12.8387 296.541 14.792L298.281 15.778ZM302.106 11.9151C303.708 10.9651 305.538 10.48 307.626 10.48V8.48C305.214 8.48 303.024 9.04491 301.086 10.1949L302.106 11.9151ZM307.626 10.48C309.31 10.48 310.741 10.8377 311.949 11.5206L312.933 9.77944C311.381 8.90225 309.602 8.48 307.626 8.48V10.48ZM311.971 11.5329C313.22 12.197 314.266 13.1699 315.111 14.4775L316.791 13.3925C315.776 11.8201 314.482 10.603 312.911 9.76713L311.971 11.5329ZM315.073 13.4561L314.263 14.9411L316.019 15.8989L316.829 14.4139L315.073 13.4561ZM316.141 15.42V10.02H314.141V15.42H316.141ZM315.141 11.02H320.721V9.02H315.141V11.02ZM319.721 10.02V33.285H321.721V10.02H319.721ZM319.721 33.285C319.721 35.2422 319.241 36.9609 318.298 38.47L319.994 39.53C321.151 37.6791 321.721 35.5878 321.721 33.285H319.721ZM318.291 38.481C317.368 40.0016 316.093 41.1987 314.445 42.0776L315.387 43.8424C317.339 42.8013 318.884 41.3584 320.001 39.519L318.291 38.481ZM314.439 42.081C312.838 42.9496 310.952 43.4 308.751 43.4V45.4C311.23 45.4 313.454 44.8904 315.393 43.839L314.439 42.081ZM308.481 29.065C309.887 29.065 311.161 28.7625 312.268 28.1198L311.264 26.3902C310.511 26.8275 309.595 27.065 308.481 27.065V29.065ZM312.277 28.1149C313.393 27.4522 314.269 26.5399 314.894 25.3939L313.138 24.4361C312.683 25.2701 312.059 25.9178 311.255 26.3951L312.277 28.1149ZM314.894 25.3939C315.525 24.237 315.826 22.928 315.826 21.495H313.826C313.826 22.642 313.587 23.613 313.138 24.4361L314.894 25.3939ZM315.826 21.495C315.826 20.0784 315.504 18.7781 314.838 17.621L313.104 18.619C313.578 19.4419 313.826 20.3916 313.826 21.495H315.826ZM314.855 17.6521C314.232 16.4754 313.355 15.5423 312.232 14.8751L311.21 16.5949C312.007 17.0677 312.63 17.7246 313.087 18.5879L314.855 17.6521ZM312.244 14.8824C311.137 14.2041 309.871 13.88 308.481 13.88V15.88C309.551 15.88 310.445 16.1259 311.198 16.5876L312.244 14.8824ZM308.481 13.88C307.09 13.88 305.805 14.2043 304.652 14.8684L305.65 16.6016C306.477 16.1257 307.412 15.88 308.481 15.88V13.88ZM304.652 14.8684C303.502 15.5307 302.594 16.4582 301.938 17.6322L303.684 18.6078C304.168 17.7418 304.82 17.0793 305.65 16.6016L304.652 14.8684ZM301.933 17.6411C301.304 18.7946 301.001 20.0877 301.001 21.495H303.001C303.001 20.3823 303.238 19.4254 303.689 18.5989L301.933 17.6411ZM301.001 21.495C301.001 22.9023 301.304 24.1954 301.933 25.3489L303.689 24.3911C303.238 23.5646 303.001 22.6077 303.001 21.495H301.001ZM301.944 25.369C302.598 26.5042 303.484 27.41 304.595 28.0699L305.617 26.3501C304.808 25.87 304.164 25.2158 303.678 24.371L301.944 25.369ZM304.607 28.0766C305.764 28.7428 307.064 29.065 308.481 29.065V27.065C307.378 27.065 306.428 26.8172 305.605 26.3434L304.607 28.0766Z" fill="white" mask="url(#path-1-outside-1_3823_182)"/>
</g>
</svg>
