<svg width="270" height="45" viewBox="0 0 270 45" fill="none" xmlns="http://www.w3.org/2000/svg">
<path d="M-47.82 34.5V6.375H-56.505V0.974997H-33.105V6.375H-41.655V34.5H-47.82ZM-34.026 34.5V10.02H-28.491V15.465L-28.941 14.655C-28.371 12.825 -27.486 11.55 -26.286 10.83C-25.056 10.11 -23.586 9.75 -21.876 9.75H-20.436V14.97H-22.551C-24.231 14.97 -25.581 15.495 -26.601 16.545C-27.621 17.565 -28.131 19.005 -28.131 20.865V34.5H-34.026ZM-11.25 35.04C-12.96 35.04 -14.445 34.755 -15.705 34.185C-16.965 33.615 -17.94 32.805 -18.63 31.755C-19.32 30.675 -19.665 29.43 -19.665 28.02C-19.665 26.67 -19.365 25.47 -18.765 24.42C-18.165 23.34 -17.235 22.44 -15.975 21.72C-14.715 21 -13.125 20.49 -11.205 20.19L-3.19496 18.885V23.385L-10.08 24.555C-11.25 24.765 -12.12 25.14 -12.69 25.68C-13.26 26.22 -13.545 26.925 -13.545 27.795C-13.545 28.635 -13.23 29.31 -12.6 29.82C-11.94 30.3 -11.13 30.54 -10.17 30.54C-8.93996 30.54 -7.85996 30.285 -6.92996 29.775C-5.96996 29.235 -5.23496 28.5 -4.72496 27.57C-4.18496 26.64 -3.91496 25.62 -3.91496 24.51V18.21C-3.91496 17.16 -4.33496 16.29 -5.17496 15.6C-5.98496 14.88 -7.06496 14.52 -8.41496 14.52C-9.67496 14.52 -10.8 14.865 -11.79 15.555C-12.75 16.215 -13.455 17.1 -13.905 18.21L-18.72 15.87C-18.24 14.58 -17.49 13.47 -16.47 12.54C-15.42 11.58 -14.19 10.83 -12.78 10.29C-11.37 9.75 -9.83996 9.48 -8.18996 9.48C-6.17996 9.48 -4.40996 9.855 -2.87996 10.605C-1.34996 11.325 -0.164959 12.345 0.675041 13.665C1.54504 14.955 1.98004 16.47 1.98004 18.21V34.5H-3.59996V30.315L-2.33996 30.225C-2.96996 31.275 -3.71996 32.16 -4.58996 32.88C-5.45996 33.57 -6.44996 34.11 -7.55996 34.5C-8.66996 34.86 -9.89996 35.04 -11.25 35.04ZM12.8891 34.5L3.2591 10.02H9.6941L16.6691 29.28H14.2841L21.3041 10.02H27.7391L18.1091 34.5H12.8891ZM40.6879 35.04C38.1679 35.04 35.9629 34.47 34.0729 33.33C32.1829 32.19 30.7129 30.645 29.6629 28.695C28.6129 26.745 28.0879 24.585 28.0879 22.215C28.0879 19.755 28.6129 17.58 29.6629 15.69C30.7429 13.77 32.1979 12.255 34.0279 11.145C35.8879 10.035 37.9579 9.48 40.2379 9.48C42.1579 9.48 43.8379 9.795 45.2779 10.425C46.7479 11.055 47.9929 11.925 49.0129 13.035C50.0329 14.145 50.8129 15.42 51.3529 16.86C51.8929 18.27 52.1629 19.8 52.1629 21.45C52.1629 21.87 52.1329 22.305 52.0729 22.755C52.0429 23.205 51.9679 23.595 51.8479 23.925H32.9479V19.425H48.5179L45.7279 21.54C45.9979 20.16 45.9229 18.93 45.5029 17.85C45.1129 16.77 44.4529 15.915 43.5229 15.285C42.6229 14.655 41.5279 14.34 40.2379 14.34C39.0079 14.34 37.9129 14.655 36.9529 15.285C35.9929 15.885 35.2579 16.785 34.7479 17.985C34.2679 19.155 34.0879 20.58 34.2079 22.26C34.0879 23.76 34.2829 25.095 34.7929 26.265C35.3329 27.405 36.1129 28.29 37.1329 28.92C38.1829 29.55 39.3829 29.865 40.7329 29.865C42.0829 29.865 43.2229 29.58 44.1529 29.01C45.1129 28.44 45.8629 27.675 46.4029 26.715L51.1729 29.055C50.6929 30.225 49.9429 31.26 48.9229 32.16C47.9029 33.06 46.6879 33.765 45.2779 34.275C43.8979 34.785 42.3679 35.04 40.6879 35.04ZM55.1516 34.5V0.434999H61.0466V34.5H55.1516ZM72.0226 34.5V0.974997H84.5326C86.8126 0.974997 88.8226 1.395 90.5626 2.235C92.3326 3.045 93.7126 4.245 94.7026 5.835C95.6926 7.395 96.1876 9.3 96.1876 11.55C96.1876 13.77 95.6776 15.675 94.6576 17.265C93.6676 18.825 92.3026 20.025 90.5626 20.865C88.8226 21.705 86.8126 22.125 84.5326 22.125H78.1426V34.5H72.0226ZM78.1426 16.725H84.6226C85.7326 16.725 86.6926 16.515 87.5026 16.095C88.3126 15.645 88.9426 15.03 89.3926 14.25C89.8426 13.47 90.0676 12.57 90.0676 11.55C90.0676 10.5 89.8426 9.6 89.3926 8.85C88.9426 8.07 88.3126 7.47 87.5026 7.05C86.6926 6.6 85.7326 6.375 84.6226 6.375H78.1426V16.725ZM105.202 35.04C103.492 35.04 102.007 34.755 100.747 34.185C99.4871 33.615 98.5121 32.805 97.8221 31.755C97.1321 30.675 96.7871 29.43 96.7871 28.02C96.7871 26.67 97.0871 25.47 97.6871 24.42C98.2871 23.34 99.2171 22.44 100.477 21.72C101.737 21 103.327 20.49 105.247 20.19L113.257 18.885V23.385L106.372 24.555C105.202 24.765 104.332 25.14 103.762 25.68C103.192 26.22 102.907 26.925 102.907 27.795C102.907 28.635 103.222 29.31 103.852 29.82C104.512 30.3 105.322 30.54 106.282 30.54C107.512 30.54 108.592 30.285 109.522 29.775C110.482 29.235 111.217 28.5 111.727 27.57C112.267 26.64 112.537 25.62 112.537 24.51V18.21C112.537 17.16 112.117 16.29 111.277 15.6C110.467 14.88 109.387 14.52 108.037 14.52C106.777 14.52 105.652 14.865 104.662 15.555C103.702 16.215 102.997 17.1 102.547 18.21L97.7321 15.87C98.2121 14.58 98.9621 13.47 99.9821 12.54C101.032 11.58 102.262 10.83 103.672 10.29C105.082 9.75 106.612 9.48 108.262 9.48C110.272 9.48 112.042 9.855 113.572 10.605C115.102 11.325 116.287 12.345 117.127 13.665C117.997 14.955 118.432 16.47 118.432 18.21V34.5H112.852V30.315L114.112 30.225C113.482 31.275 112.732 32.16 111.862 32.88C110.992 33.57 110.002 34.11 108.892 34.5C107.782 34.86 106.552 35.04 105.202 35.04ZM134.191 35.04C131.761 35.04 129.571 34.485 127.621 33.375C125.701 32.235 124.186 30.705 123.076 28.785C121.966 26.835 121.411 24.645 121.411 22.215C121.411 19.785 121.966 17.61 123.076 15.69C124.186 13.77 125.701 12.255 127.621 11.145C129.571 10.035 131.761 9.48 134.191 9.48C135.931 9.48 137.551 9.795 139.051 10.425C140.551 11.025 141.841 11.865 142.921 12.945C144.031 13.995 144.826 15.255 145.306 16.725L140.131 18.975C139.681 17.745 138.916 16.755 137.836 16.005C136.786 15.255 135.571 14.88 134.191 14.88C132.901 14.88 131.746 15.195 130.726 15.825C129.736 16.455 128.956 17.325 128.386 18.435C127.816 19.545 127.531 20.82 127.531 22.26C127.531 23.7 127.816 24.975 128.386 26.085C128.956 27.195 129.736 28.065 130.726 28.695C131.746 29.325 132.901 29.64 134.191 29.64C135.601 29.64 136.831 29.265 137.881 28.515C138.931 27.765 139.681 26.76 140.131 25.5L145.306 27.84C144.826 29.22 144.046 30.465 142.966 31.575C141.886 32.655 140.596 33.51 139.096 34.14C137.596 34.74 135.961 35.04 134.191 35.04ZM148.299 34.5V0.434999H154.194V22.755L151.944 22.08L163.464 10.02H170.799L161.754 19.875L170.979 34.5H164.229L156.219 21.81L159.729 21.09L152.349 29.01L154.194 25.41V34.5H148.299ZM180.215 35.04C178.505 35.04 177.02 34.755 175.76 34.185C174.5 33.615 173.525 32.805 172.835 31.755C172.145 30.675 171.8 29.43 171.8 28.02C171.8 26.67 172.1 25.47 172.7 24.42C173.3 23.34 174.23 22.44 175.49 21.72C176.75 21 178.34 20.49 180.26 20.19L188.27 18.885V23.385L181.385 24.555C180.215 24.765 179.345 25.14 178.775 25.68C178.205 26.22 177.92 26.925 177.92 27.795C177.92 28.635 178.235 29.31 178.865 29.82C179.525 30.3 180.335 30.54 181.295 30.54C182.525 30.54 183.605 30.285 184.535 29.775C185.495 29.235 186.23 28.5 186.74 27.57C187.28 26.64 187.55 25.62 187.55 24.51V18.21C187.55 17.16 187.13 16.29 186.29 15.6C185.48 14.88 184.4 14.52 183.05 14.52C181.79 14.52 180.665 14.865 179.675 15.555C178.715 16.215 178.01 17.1 177.56 18.21L172.745 15.87C173.225 14.58 173.975 13.47 174.995 12.54C176.045 11.58 177.275 10.83 178.685 10.29C180.095 9.75 181.625 9.48 183.275 9.48C185.285 9.48 187.055 9.855 188.585 10.605C190.115 11.325 191.3 12.345 192.14 13.665C193.01 14.955 193.445 16.47 193.445 18.21V34.5H187.865V30.315L189.125 30.225C188.495 31.275 187.745 32.16 186.875 32.88C186.005 33.57 185.015 34.11 183.905 34.5C182.795 34.86 181.565 35.04 180.215 35.04ZM209.294 44.4C207.464 44.4 205.769 44.1 204.209 43.5C202.649 42.9 201.299 42.06 200.159 40.98C199.049 39.93 198.239 38.685 197.729 37.245L203.219 35.175C203.579 36.315 204.284 37.23 205.334 37.92C206.414 38.64 207.734 39 209.294 39C210.494 39 211.544 38.775 212.444 38.325C213.374 37.875 214.094 37.215 214.604 36.345C215.114 35.505 215.369 34.485 215.369 33.285V27.705L216.494 29.055C215.654 30.525 214.529 31.635 213.119 32.385C211.709 33.135 210.104 33.51 208.304 33.51C206.024 33.51 203.984 32.985 202.184 31.935C200.384 30.885 198.974 29.445 197.954 27.615C196.934 25.785 196.424 23.73 196.424 21.45C196.424 19.14 196.934 17.085 197.954 15.285C198.974 13.485 200.369 12.075 202.139 11.055C203.909 10.005 205.919 9.48 208.169 9.48C209.999 9.48 211.604 9.87 212.984 10.65C214.394 11.4 215.564 12.495 216.494 13.935L215.684 15.42V10.02H221.264V33.285C221.264 35.415 220.739 37.32 219.689 39C218.669 40.68 217.259 42 215.459 42.96C213.689 43.92 211.634 44.4 209.294 44.4ZM209.024 28.065C210.284 28.065 211.379 27.795 212.309 27.255C213.269 26.685 214.019 25.905 214.559 24.915C215.099 23.925 215.369 22.785 215.369 21.495C215.369 20.235 215.084 19.11 214.514 18.12C213.974 17.1 213.224 16.305 212.264 15.735C211.334 15.165 210.254 14.88 209.024 14.88C207.794 14.88 206.684 15.165 205.694 15.735C204.704 16.305 203.924 17.1 203.354 18.12C202.814 19.11 202.544 20.235 202.544 21.495C202.544 22.755 202.814 23.88 203.354 24.87C203.924 25.86 204.689 26.64 205.649 27.21C206.639 27.78 207.764 28.065 209.024 28.065ZM236.899 35.04C234.379 35.04 232.174 34.47 230.284 33.33C228.394 32.19 226.924 30.645 225.874 28.695C224.824 26.745 224.299 24.585 224.299 22.215C224.299 19.755 224.824 17.58 225.874 15.69C226.954 13.77 228.409 12.255 230.239 11.145C232.099 10.035 234.169 9.48 236.449 9.48C238.369 9.48 240.049 9.795 241.489 10.425C242.959 11.055 244.204 11.925 245.224 13.035C246.244 14.145 247.024 15.42 247.564 16.86C248.104 18.27 248.374 19.8 248.374 21.45C248.374 21.87 248.344 22.305 248.284 22.755C248.254 23.205 248.179 23.595 248.059 23.925H229.159V19.425H244.729L241.939 21.54C242.209 20.16 242.134 18.93 241.714 17.85C241.324 16.77 240.664 15.915 239.734 15.285C238.834 14.655 237.739 14.34 236.449 14.34C235.219 14.34 234.124 14.655 233.164 15.285C232.204 15.885 231.469 16.785 230.959 17.985C230.479 19.155 230.299 20.58 230.419 22.26C230.299 23.76 230.494 25.095 231.004 26.265C231.544 27.405 232.324 28.29 233.344 28.92C234.394 29.55 235.594 29.865 236.944 29.865C238.294 29.865 239.434 29.58 240.364 29.01C241.324 28.44 242.074 27.675 242.614 26.715L247.384 29.055C246.904 30.225 246.154 31.26 245.134 32.16C244.114 33.06 242.899 33.765 241.489 34.275C240.109 34.785 238.579 35.04 236.899 35.04ZM260.678 35.04C258.068 35.04 255.788 34.425 253.838 33.195C251.918 31.935 250.598 30.24 249.878 28.11L254.288 25.995C254.918 27.375 255.788 28.455 256.898 29.235C258.038 30.015 259.298 30.405 260.678 30.405C261.758 30.405 262.613 30.165 263.243 29.685C263.873 29.205 264.188 28.575 264.188 27.795C264.188 27.315 264.053 26.925 263.783 26.625C263.543 26.295 263.198 26.025 262.748 25.815C262.328 25.575 261.863 25.38 261.353 25.23L257.348 24.105C255.278 23.505 253.703 22.59 252.623 21.36C251.573 20.13 251.048 18.675 251.048 16.995C251.048 15.495 251.423 14.19 252.173 13.08C252.953 11.94 254.018 11.055 255.368 10.425C256.748 9.795 258.323 9.48 260.093 9.48C262.403 9.48 264.443 10.035 266.213 11.145C267.983 12.255 269.243 13.815 269.993 15.825L265.493 17.94C265.073 16.83 264.368 15.945 263.378 15.285C262.388 14.625 261.278 14.295 260.048 14.295C259.058 14.295 258.278 14.52 257.708 14.97C257.138 15.42 256.853 16.005 256.853 16.725C256.853 17.175 256.973 17.565 257.213 17.895C257.453 18.225 257.783 18.495 258.203 18.705C258.653 18.915 259.163 19.11 259.733 19.29L263.648 20.46C265.658 21.06 267.203 21.96 268.283 23.16C269.393 24.36 269.948 25.83 269.948 27.57C269.948 29.04 269.558 30.345 268.778 31.485C267.998 32.595 266.918 33.465 265.538 34.095C264.158 34.725 262.538 35.04 260.678 35.04Z" fill="white"/>
</svg>
