<svg width="11" height="13" viewBox="0 0 11 13" fill="none" xmlns="http://www.w3.org/2000/svg">
<path d="M6.375 7.625C8.64844 7.625 10.5 9.47656 10.5 11.75C10.5 12.1719 10.1484 12.5 9.75 12.5H0.75C0.328125 12.5 0 12.1719 0 11.75C0 9.47656 1.82812 7.625 4.125 7.625H6.375ZM1.125 11.375H9.35156C9.16406 9.89844 7.89844 8.75 6.375 8.75H4.125C2.57812 8.75 1.3125 9.89844 1.125 11.375ZM5.25 6.5C3.58594 6.5 2.25 5.16406 2.25 3.5C2.25 1.85938 3.58594 0.5 5.25 0.5C6.89062 0.5 8.25 1.85938 8.25 3.5C8.25 5.16406 6.89062 6.5 5.25 6.5ZM5.25 1.625C4.19531 1.625 3.375 2.46875 3.375 3.5C3.375 4.55469 4.19531 5.375 5.25 5.375C6.28125 5.375 7.125 4.55469 7.125 3.5C7.125 2.46875 6.28125 1.625 5.25 1.625Z" fill="#83CD20"/>
</svg>
