<svg width="11" height="13" viewBox="0 0 11 13" fill="none" xmlns="http://www.w3.org/2000/svg">
<path d="M6.375 7.67188C8.64844 7.67188 10.5 9.52344 10.5 11.7969C10.5 12.2188 10.1484 12.5469 9.75 12.5469H0.75C0.328125 12.5469 0 12.2188 0 11.7969C0 9.52344 1.82812 7.67188 4.125 7.67188H6.375ZM1.125 11.4219H9.35156C9.16406 9.94531 7.89844 8.79688 6.375 8.79688H4.125C2.57812 8.79688 1.3125 9.94531 1.125 11.4219ZM5.25 6.54688C3.58594 6.54688 2.25 5.21094 2.25 3.54688C2.25 1.90625 3.58594 0.546875 5.25 0.546875C6.89062 0.546875 8.25 1.90625 8.25 3.54688C8.25 5.21094 6.89062 6.54688 5.25 6.54688ZM5.25 1.67188C4.19531 1.67188 3.375 2.51562 3.375 3.54688C3.375 4.60156 4.19531 5.42188 5.25 5.42188C6.28125 5.42188 7.125 4.60156 7.125 3.54688C7.125 2.51562 6.28125 1.67188 5.25 1.67188Z" fill="#111214"/>
</svg>
