<svg width="317" height="36" viewBox="0 0 317 36" fill="none" xmlns="http://www.w3.org/2000/svg">
<path d="M12.195 34.5L0.495 0.974997H7.155L16.335 28.74H15.03L24.21 0.974997H30.87L19.215 34.5H12.195ZM32.642 34.5V10.02H38.537V34.5H32.642ZM32.642 7.275V0.974997H38.537V7.275H32.642ZM51.8148 35.04C49.2048 35.04 46.9248 34.425 44.9748 33.195C43.0548 31.935 41.7348 30.24 41.0148 28.11L45.4248 25.995C46.0548 27.375 46.9248 28.455 48.0348 29.235C49.1748 30.015 50.4348 30.405 51.8148 30.405C52.8948 30.405 53.7498 30.165 54.3798 29.685C55.0098 29.205 55.3248 28.575 55.3248 27.795C55.3248 27.315 55.1898 26.925 54.9198 26.625C54.6798 26.295 54.3348 26.025 53.8848 25.815C53.4648 25.575 52.9998 25.38 52.4898 25.23L48.4848 24.105C46.4148 23.505 44.8398 22.59 43.7598 21.36C42.7098 20.13 42.1848 18.675 42.1848 16.995C42.1848 15.495 42.5598 14.19 43.3098 13.08C44.0898 11.94 45.1548 11.055 46.5048 10.425C47.8848 9.795 49.4598 9.48 51.2298 9.48C53.5398 9.48 55.5798 10.035 57.3498 11.145C59.1198 12.255 60.3798 13.815 61.1298 15.825L56.6298 17.94C56.2098 16.83 55.5048 15.945 54.5148 15.285C53.5248 14.625 52.4148 14.295 51.1848 14.295C50.1948 14.295 49.4148 14.52 48.8448 14.97C48.2748 15.42 47.9898 16.005 47.9898 16.725C47.9898 17.175 48.1098 17.565 48.3498 17.895C48.5898 18.225 48.9198 18.495 49.3398 18.705C49.7898 18.915 50.2998 19.11 50.8698 19.29L54.7848 20.46C56.7948 21.06 58.3398 21.96 59.4198 23.16C60.5298 24.36 61.0848 25.83 61.0848 27.57C61.0848 29.04 60.6948 30.345 59.9148 31.485C59.1348 32.595 58.0548 33.465 56.6748 34.095C55.2948 34.725 53.6748 35.04 51.8148 35.04ZM71.5601 35.04C69.8501 35.04 68.3651 34.755 67.1051 34.185C65.8451 33.615 64.8701 32.805 64.1801 31.755C63.4901 30.675 63.1451 29.43 63.1451 28.02C63.1451 26.67 63.4451 25.47 64.0451 24.42C64.6451 23.34 65.5751 22.44 66.8351 21.72C68.0951 21 69.6851 20.49 71.6051 20.19L79.6151 18.885V23.385L72.7301 24.555C71.5601 24.765 70.6901 25.14 70.1201 25.68C69.5501 26.22 69.2651 26.925 69.2651 27.795C69.2651 28.635 69.5801 29.31 70.2101 29.82C70.8701 30.3 71.6801 30.54 72.6401 30.54C73.8701 30.54 74.9501 30.285 75.8801 29.775C76.8401 29.235 77.5751 28.5 78.0851 27.57C78.6251 26.64 78.8951 25.62 78.8951 24.51V18.21C78.8951 17.16 78.4751 16.29 77.6351 15.6C76.8251 14.88 75.7451 14.52 74.3951 14.52C73.1351 14.52 72.0101 14.865 71.0201 15.555C70.0601 16.215 69.3551 17.1 68.9051 18.21L64.0901 15.87C64.5701 14.58 65.3201 13.47 66.3401 12.54C67.3901 11.58 68.6201 10.83 70.0301 10.29C71.4401 9.75 72.9701 9.48 74.6201 9.48C76.6301 9.48 78.4001 9.855 79.9301 10.605C81.4601 11.325 82.6451 12.345 83.4851 13.665C84.3551 14.955 84.7901 16.47 84.7901 18.21V34.5H79.2101V30.315L80.4701 30.225C79.8401 31.275 79.0901 32.16 78.2201 32.88C77.3501 33.57 76.3601 34.11 75.2501 34.5C74.1401 34.86 72.9101 35.04 71.5601 35.04ZM93.0266 34.5L104.592 0.974997H112.512L124.077 34.5H117.417L115.032 27.3H102.072L99.6416 34.5H93.0266ZM103.827 21.9H113.277L107.697 5.205H109.407L103.827 21.9ZM135.148 35.04C132.538 35.04 130.258 34.425 128.308 33.195C126.388 31.935 125.068 30.24 124.348 28.11L128.758 25.995C129.388 27.375 130.258 28.455 131.368 29.235C132.508 30.015 133.768 30.405 135.148 30.405C136.228 30.405 137.083 30.165 137.713 29.685C138.343 29.205 138.658 28.575 138.658 27.795C138.658 27.315 138.523 26.925 138.253 26.625C138.013 26.295 137.668 26.025 137.218 25.815C136.798 25.575 136.333 25.38 135.823 25.23L131.818 24.105C129.748 23.505 128.173 22.59 127.093 21.36C126.043 20.13 125.518 18.675 125.518 16.995C125.518 15.495 125.893 14.19 126.643 13.08C127.423 11.94 128.488 11.055 129.838 10.425C131.218 9.795 132.793 9.48 134.563 9.48C136.873 9.48 138.913 10.035 140.683 11.145C142.453 12.255 143.713 13.815 144.463 15.825L139.963 17.94C139.543 16.83 138.838 15.945 137.848 15.285C136.858 14.625 135.748 14.295 134.518 14.295C133.528 14.295 132.748 14.52 132.178 14.97C131.608 15.42 131.323 16.005 131.323 16.725C131.323 17.175 131.443 17.565 131.683 17.895C131.923 18.225 132.253 18.495 132.673 18.705C133.123 18.915 133.633 19.11 134.203 19.29L138.118 20.46C140.128 21.06 141.673 21.96 142.753 23.16C143.863 24.36 144.418 25.83 144.418 27.57C144.418 29.04 144.028 30.345 143.248 31.485C142.468 32.595 141.388 33.465 140.008 34.095C138.628 34.725 137.008 35.04 135.148 35.04ZM156.783 35.04C154.173 35.04 151.893 34.425 149.943 33.195C148.023 31.935 146.703 30.24 145.983 28.11L150.393 25.995C151.023 27.375 151.893 28.455 153.003 29.235C154.143 30.015 155.403 30.405 156.783 30.405C157.863 30.405 158.718 30.165 159.348 29.685C159.978 29.205 160.293 28.575 160.293 27.795C160.293 27.315 160.158 26.925 159.888 26.625C159.648 26.295 159.303 26.025 158.853 25.815C158.433 25.575 157.968 25.38 157.458 25.23L153.453 24.105C151.383 23.505 149.808 22.59 148.728 21.36C147.678 20.13 147.153 18.675 147.153 16.995C147.153 15.495 147.528 14.19 148.278 13.08C149.058 11.94 150.123 11.055 151.473 10.425C152.853 9.795 154.428 9.48 156.198 9.48C158.508 9.48 160.548 10.035 162.318 11.145C164.088 12.255 165.348 13.815 166.098 15.825L161.598 17.94C161.178 16.83 160.473 15.945 159.483 15.285C158.493 14.625 157.383 14.295 156.153 14.295C155.163 14.295 154.383 14.52 153.813 14.97C153.243 15.42 152.958 16.005 152.958 16.725C152.958 17.175 153.078 17.565 153.318 17.895C153.558 18.225 153.888 18.495 154.308 18.705C154.758 18.915 155.268 19.11 155.838 19.29L159.753 20.46C161.763 21.06 163.308 21.96 164.388 23.16C165.498 24.36 166.053 25.83 166.053 27.57C166.053 29.04 165.663 30.345 164.883 31.485C164.103 32.595 163.023 33.465 161.643 34.095C160.263 34.725 158.643 35.04 156.783 35.04ZM169.103 34.5V10.02H174.998V34.5H169.103ZM169.103 7.275V0.974997H174.998V7.275H169.103ZM188.276 35.04C185.666 35.04 183.386 34.425 181.436 33.195C179.516 31.935 178.196 30.24 177.476 28.11L181.886 25.995C182.516 27.375 183.386 28.455 184.496 29.235C185.636 30.015 186.896 30.405 188.276 30.405C189.356 30.405 190.211 30.165 190.841 29.685C191.471 29.205 191.786 28.575 191.786 27.795C191.786 27.315 191.651 26.925 191.381 26.625C191.141 26.295 190.796 26.025 190.346 25.815C189.926 25.575 189.461 25.38 188.951 25.23L184.946 24.105C182.876 23.505 181.301 22.59 180.221 21.36C179.171 20.13 178.646 18.675 178.646 16.995C178.646 15.495 179.021 14.19 179.771 13.08C180.551 11.94 181.616 11.055 182.966 10.425C184.346 9.795 185.921 9.48 187.691 9.48C190.001 9.48 192.041 10.035 193.811 11.145C195.581 12.255 196.841 13.815 197.591 15.825L193.091 17.94C192.671 16.83 191.966 15.945 190.976 15.285C189.986 14.625 188.876 14.295 187.646 14.295C186.656 14.295 185.876 14.52 185.306 14.97C184.736 15.42 184.451 16.005 184.451 16.725C184.451 17.175 184.571 17.565 184.811 17.895C185.051 18.225 185.381 18.495 185.801 18.705C186.251 18.915 186.761 19.11 187.331 19.29L191.246 20.46C193.256 21.06 194.801 21.96 195.881 23.16C196.991 24.36 197.546 25.83 197.546 27.57C197.546 29.04 197.156 30.345 196.376 31.485C195.596 32.595 194.516 33.465 193.136 34.095C191.756 34.725 190.136 35.04 188.276 35.04ZM211.756 34.77C208.996 34.77 206.851 34.02 205.321 32.52C203.821 30.99 203.071 28.845 203.071 26.085V15.285H198.841V10.02H199.291C200.491 10.02 201.421 9.705 202.081 9.075C202.741 8.445 203.071 7.53 203.071 6.33V4.44H208.966V10.02H214.591V15.285H208.966V25.77C208.966 26.58 209.101 27.27 209.371 27.84C209.671 28.41 210.121 28.845 210.721 29.145C211.351 29.445 212.146 29.595 213.106 29.595C213.316 29.595 213.556 29.58 213.826 29.55C214.126 29.52 214.411 29.49 214.681 29.46V34.5C214.261 34.56 213.781 34.62 213.241 34.68C212.701 34.74 212.206 34.77 211.756 34.77ZM225.042 35.04C223.332 35.04 221.847 34.755 220.587 34.185C219.327 33.615 218.352 32.805 217.662 31.755C216.972 30.675 216.627 29.43 216.627 28.02C216.627 26.67 216.927 25.47 217.527 24.42C218.127 23.34 219.057 22.44 220.317 21.72C221.577 21 223.167 20.49 225.087 20.19L233.097 18.885V23.385L226.212 24.555C225.042 24.765 224.172 25.14 223.602 25.68C223.032 26.22 222.747 26.925 222.747 27.795C222.747 28.635 223.062 29.31 223.692 29.82C224.352 30.3 225.162 30.54 226.122 30.54C227.352 30.54 228.432 30.285 229.362 29.775C230.322 29.235 231.057 28.5 231.567 27.57C232.107 26.64 232.377 25.62 232.377 24.51V18.21C232.377 17.16 231.957 16.29 231.117 15.6C230.307 14.88 229.227 14.52 227.877 14.52C226.617 14.52 225.492 14.865 224.502 15.555C223.542 16.215 222.837 17.1 222.387 18.21L217.572 15.87C218.052 14.58 218.802 13.47 219.822 12.54C220.872 11.58 222.102 10.83 223.512 10.29C224.922 9.75 226.452 9.48 228.102 9.48C230.112 9.48 231.882 9.855 233.412 10.605C234.942 11.325 236.127 12.345 236.967 13.665C237.837 14.955 238.272 16.47 238.272 18.21V34.5H232.692V30.315L233.952 30.225C233.322 31.275 232.572 32.16 231.702 32.88C230.832 33.57 229.842 34.11 228.732 34.5C227.622 34.86 226.392 35.04 225.042 35.04ZM242.241 34.5V10.02H247.776V14.835L247.326 13.98C247.896 12.51 248.826 11.4 250.116 10.65C251.436 9.87 252.966 9.48 254.706 9.48C256.506 9.48 258.096 9.87 259.476 10.65C260.886 11.43 261.981 12.525 262.761 13.935C263.541 15.315 263.931 16.92 263.931 18.75V34.5H258.036V20.145C258.036 19.065 257.826 18.135 257.406 17.355C256.986 16.575 256.401 15.975 255.651 15.555C254.931 15.105 254.076 14.88 253.086 14.88C252.126 14.88 251.271 15.105 250.521 15.555C249.771 15.975 249.186 16.575 248.766 17.355C248.346 18.135 248.136 19.065 248.136 20.145V34.5H242.241ZM279.226 35.04C276.796 35.04 274.606 34.485 272.656 33.375C270.736 32.235 269.221 30.705 268.111 28.785C267.001 26.835 266.446 24.645 266.446 22.215C266.446 19.785 267.001 17.61 268.111 15.69C269.221 13.77 270.736 12.255 272.656 11.145C274.606 10.035 276.796 9.48 279.226 9.48C280.966 9.48 282.586 9.795 284.086 10.425C285.586 11.025 286.876 11.865 287.956 12.945C289.066 13.995 289.861 15.255 290.341 16.725L285.166 18.975C284.716 17.745 283.951 16.755 282.871 16.005C281.821 15.255 280.606 14.88 279.226 14.88C277.936 14.88 276.781 15.195 275.761 15.825C274.771 16.455 273.991 17.325 273.421 18.435C272.851 19.545 272.566 20.82 272.566 22.26C272.566 23.7 272.851 24.975 273.421 26.085C273.991 27.195 274.771 28.065 275.761 28.695C276.781 29.325 277.936 29.64 279.226 29.64C280.636 29.64 281.866 29.265 282.916 28.515C283.966 27.765 284.716 26.76 285.166 25.5L290.341 27.84C289.861 29.22 289.081 30.465 288.001 31.575C286.921 32.655 285.631 33.51 284.131 34.14C282.631 34.74 280.996 35.04 279.226 35.04ZM304.944 35.04C302.424 35.04 300.219 34.47 298.329 33.33C296.439 32.19 294.969 30.645 293.919 28.695C292.869 26.745 292.344 24.585 292.344 22.215C292.344 19.755 292.869 17.58 293.919 15.69C294.999 13.77 296.454 12.255 298.284 11.145C300.144 10.035 302.214 9.48 304.494 9.48C306.414 9.48 308.094 9.795 309.534 10.425C311.004 11.055 312.249 11.925 313.269 13.035C314.289 14.145 315.069 15.42 315.609 16.86C316.149 18.27 316.419 19.8 316.419 21.45C316.419 21.87 316.389 22.305 316.329 22.755C316.299 23.205 316.224 23.595 316.104 23.925H297.204V19.425H312.774L309.984 21.54C310.254 20.16 310.179 18.93 309.759 17.85C309.369 16.77 308.709 15.915 307.779 15.285C306.879 14.655 305.784 14.34 304.494 14.34C303.264 14.34 302.169 14.655 301.209 15.285C300.249 15.885 299.514 16.785 299.004 17.985C298.524 19.155 298.344 20.58 298.464 22.26C298.344 23.76 298.539 25.095 299.049 26.265C299.589 27.405 300.369 28.29 301.389 28.92C302.439 29.55 303.639 29.865 304.989 29.865C306.339 29.865 307.479 29.58 308.409 29.01C309.369 28.44 310.119 27.675 310.659 26.715L315.429 29.055C314.949 30.225 314.199 31.26 313.179 32.16C312.159 33.06 310.944 33.765 309.534 34.275C308.154 34.785 306.624 35.04 304.944 35.04Z" fill="white"/>
</svg>
