<svg width="45" height="39" viewBox="0 0 45 39" fill="none" xmlns="http://www.w3.org/2000/svg">
<path d="M6.67969 17.0977C6.67969 21.3516 10.125 24.8672 14.4492 24.8672C18.7383 24.8672 22.2187 21.3867 22.2187 17.0977C22.2187 12.8789 18.8086 9.32812 14.4492 9.32812C10.1953 9.32812 6.67969 12.8086 6.67969 17.0977ZM20.3555 19.875H18.3867C18.5273 19.1719 18.6328 18.4336 18.6328 17.6953H20.9531C20.918 18.4687 20.707 19.207 20.3555 19.875ZM7.94531 17.6953H10.2656C10.3008 18.4336 10.3711 19.1367 10.5117 19.875H8.54297C8.19141 19.207 8.01562 18.4687 7.94531 17.6953ZM11.4961 17.6953H13.8516V19.875H11.7773C11.6016 19.1719 11.4961 18.4336 11.4961 17.6953ZM13.8516 21.1055V23.4609C13.2187 23.1445 12.5859 22.3008 12.1289 21.1055H13.8516ZM15.082 23.4961V21.1406H16.8047C16.3125 22.3008 15.7148 23.1445 15.082 23.4961ZM15.082 19.875V17.6953H17.4375C17.4023 18.4336 17.2969 19.1719 17.1562 19.875H15.082ZM20.9883 16.5H18.668C18.6328 15.7617 18.5625 15.0586 18.4219 14.3203H20.3906C20.707 14.9883 20.918 15.7266 20.9883 16.5ZM17.4375 16.5H15.082V14.3203H17.1562C17.2969 15.0234 17.4023 15.7617 17.4375 16.5ZM15.082 13.0898V10.7344C15.7148 11.0508 16.3477 11.8945 16.8047 13.0898H15.082ZM13.8516 10.6992V13.0547H12.1289C12.5859 11.8945 13.1836 11.0508 13.8516 10.6992ZM13.8516 14.3203V16.5H11.4961C11.5312 15.7617 11.6367 15.0234 11.7773 14.3203H13.8516ZM10.2656 16.5H7.94531C8.01562 15.7617 8.22656 15.0234 8.54297 14.3203H10.5117C10.3711 15.0234 10.2656 15.7617 10.2656 16.5ZM9.28125 21.1055H10.8281C11.0391 21.7734 11.3203 22.4414 11.707 23.0391C10.7578 22.582 9.94922 21.9492 9.28125 21.1055ZM17.1914 23.0391C17.5781 22.4414 17.8594 21.8086 18.0703 21.1055H19.6172C18.9844 21.9492 18.1406 22.582 17.1914 23.0391ZM19.6172 13.0898H18.0703C17.8594 12.4219 17.5781 11.7891 17.1914 11.1562C18.1406 11.6133 18.9844 12.2461 19.6172 13.0898ZM11.707 11.1562C11.3203 11.7539 11.0391 12.3867 10.8281 13.0898H9.28125C9.94922 12.2461 10.7578 11.6133 11.707 11.1562Z" fill="white"/>
<path d="M25.875 26.6602H3.05859C2.70703 26.6602 2.46094 26.9414 2.46094 27.2578V29.6484C2.46094 30 2.74219 30.2461 3.05859 30.2461H25.875C26.2266 30.2461 26.4727 29.9648 26.4727 29.6484V27.2578C26.4727 26.9414 26.1914 26.6602 25.875 26.6602ZM25.2422 29.0508H3.65625V27.8906H25.2422V29.0508Z" fill="white"/>
<path d="M21.0586 31.4414H7.875C7.52344 31.4414 7.27734 31.7227 7.27734 32.0391V34.4297C7.27734 34.7813 7.55859 35.0273 7.875 35.0273H21.0586C21.4102 35.0273 21.6562 34.7461 21.6562 34.4297V32.0391C21.6562 31.7227 21.375 31.4414 21.0586 31.4414ZM20.4258 33.8672H8.47266V32.707H20.4258V33.8672Z" fill="white"/>
<path d="M30.4805 11.332L32.625 10.4883V11.543L31.2891 13.1602C31.1836 13.2656 31.1484 13.4062 31.1484 13.5469V15.0586C31.1484 15.5156 31.6406 15.832 32.0625 15.5859L34.418 14.2852C35.3672 13.7578 35.9648 12.7383 35.9648 11.6484V3.91406C35.9648 3.5625 35.6836 3.31641 35.3672 3.31641H34.418C33.4336 3.31641 32.5898 4.125 32.5898 5.14453V7.04297L30.5859 8.27344C29.9883 8.625 29.6367 9.29297 29.6367 9.99609V10.7695C29.6367 11.1914 30.0937 11.5078 30.4805 11.332ZM31.2539 9.32813L33.5742 7.88672C33.75 7.78125 33.8555 7.57031 33.8555 7.35937V5.10938C33.8555 4.79297 34.1016 4.51172 34.4531 4.51172H34.7695V11.6133C34.7695 12.2461 34.418 12.8437 33.8555 13.1602L32.4141 13.9687V13.7227L33.7148 12.1406C33.8203 12.0352 33.8555 11.8945 33.8555 11.7539V9.57422C33.8555 9.15234 33.4336 8.83594 33.0117 9.01172L30.9023 9.85547C30.9023 9.64453 31.043 9.43359 31.2539 9.32813Z" fill="white"/>
<path d="M44.7891 10.208C31.3945 -3.18652 36.0351 1.4541 35.0156 0.43457C34.7695 0.188477 34.3828 0.188477 34.1367 0.43457L28.1602 6.44629C27.4219 5.3916 26.2266 4.79395 24.9609 4.79395H24.3984V0.891601C24.3984 0.504883 24.0469 0.223633 23.6602 0.293945L0.527344 4.79395C0.246094 4.86426 0.0351562 5.11035 0.0351562 5.3916V38.2627C0.0351562 38.6143 0.316406 38.8604 0.632812 38.8604H28.2305C28.582 38.8604 28.8281 38.5791 28.8281 38.2627V27.0127L44.7539 11.0869C45.0351 10.8408 45.0351 10.4541 44.7891 10.208ZM28.7227 7.60645L34.5937 1.73535L41.7656 8.90723C41.0977 9.5752 30.3047 20.3682 28.8633 21.8096V8.69629C28.8633 8.30957 28.8281 7.95801 28.7227 7.60645ZM23.168 1.62988V4.75879H7.03125L23.168 1.62988ZM1.26562 37.6299V5.98926H24.9609C26.4375 5.98926 27.6328 7.18457 27.6328 8.66113V37.5947H1.26562V37.6299ZM28.8633 25.2549V23.5674L42.6445 9.78613L43.4883 10.6299L28.8633 25.2549Z" fill="white"/>
</svg>
