<svg width="45" height="46" viewBox="0 0 45 46" fill="none" xmlns="http://www.w3.org/2000/svg">
<g clip-path="url(#clip0_3755_203)">
<path d="M39.721 26.9925C41.2013 22.6303 41.1621 17.8955 39.6098 13.5583C38.0576 9.2211 35.0836 5.53668 31.1715 3.10427C27.2595 0.671863 22.6396 -0.365422 18.0632 0.161129C13.4868 0.68768 9.22313 2.74709 5.96573 6.00439C2.70833 9.2617 0.648807 13.5253 0.122131 18.1017C-0.404546 22.678 0.632611 27.298 3.06491 31.2101C5.49721 35.1222 9.18156 38.0963 13.5187 39.6487C17.8558 41.2011 22.5906 41.2404 26.953 39.7602C27.6259 41.1123 28.6108 42.285 29.8264 43.1814C31.0419 44.0777 32.4533 44.6721 33.9439 44.9154C35.4344 45.1587 36.9615 45.044 38.399 44.5807C39.8365 44.1174 41.1432 43.3188 42.2112 42.2508C43.2791 41.1829 44.0778 39.8762 44.5411 38.4387C45.0045 37.0013 45.1192 35.4742 44.876 33.9836C44.6327 32.493 44.0384 31.0816 43.142 29.8661C42.2457 28.6505 41.0731 27.6655 39.721 26.9925ZM38.5844 26.5144C36.2446 25.7031 33.6804 25.8384 31.4389 26.8913L32.3406 25.3174C32.394 25.2242 32.422 25.1188 32.4219 25.0115V22.1023L34.3337 20.1357C34.4454 20.0209 34.5079 19.867 34.5077 19.7068V17.204C34.5077 17.0697 34.4637 16.939 34.3824 16.832C34.3012 16.7251 34.1871 16.6476 34.0577 16.6116L30.6827 15.6708L29.4346 13.2289C29.3904 13.1425 29.3264 13.0678 29.2479 13.0108C29.1693 12.9539 29.0784 12.9163 28.9825 12.9012L24.1978 12.1485V11.6788L30.6567 10.2494L33.0701 12.6611C33.1856 12.7765 33.3421 12.8413 33.5054 12.8415H37.9983C39.8715 17.1708 40.0802 22.0393 38.5844 26.513V26.5144ZM37.4098 11.6124H33.7599L31.2895 9.14091C31.2163 9.06785 31.126 9.01437 31.0268 8.98537C30.9276 8.95637 30.8227 8.9528 30.7217 8.97497L23.4496 10.5841C23.3129 10.6144 23.1906 10.6904 23.103 10.7996C23.0153 10.9087 22.9674 11.0445 22.9673 11.1845V12.6745C22.9674 12.821 23.0197 12.9627 23.115 13.0741C23.2102 13.1855 23.3421 13.2592 23.4869 13.282L28.4815 14.0674L29.7096 16.4706C29.7482 16.5464 29.8022 16.6132 29.868 16.667C29.9339 16.7208 30.0101 16.7604 30.0921 16.7832L33.2772 17.6709V19.4568L31.3654 21.4234C31.2538 21.5383 31.1914 21.6922 31.1914 21.8524V24.8473L29.1601 28.3942C28.338 29.1234 27.6473 29.9884 27.1182 30.9515H25.7471V29.0042C25.7471 28.9189 25.7293 28.8346 25.695 28.7565C25.6607 28.6784 25.6106 28.6083 25.5478 28.5507L22.8871 26.1112V23.2825C22.8871 23.1562 22.8483 23.033 22.7758 22.9296C22.7034 22.8262 22.6008 22.7476 22.4821 22.7045L16.9865 20.7063V16.1359L20.5774 12.2586C20.6355 12.1958 20.68 12.1215 20.7078 12.0405C20.7357 11.9596 20.7463 11.8737 20.7391 11.7884C20.7318 11.7031 20.7068 11.6202 20.6657 11.5451C20.6246 11.47 20.5683 11.4043 20.5004 11.3522L17.2161 8.83294L19.9076 5.03607H25.4001C25.5632 5.03598 25.7197 4.97111 25.835 4.85571L27.8944 2.79661C31.9889 4.54849 35.351 7.66334 37.4098 11.6124ZM8.02553 5.81724L9.5703 8.99923L8.32647 9.62149C8.26534 9.65202 8.20973 9.69254 8.16194 9.74138L5.24186 12.7209C5.16116 12.8032 5.10519 12.9065 5.08033 13.0191C5.05547 13.1316 5.06271 13.2489 5.10124 13.3575L5.51995 14.5346C5.03996 14.8304 4.60526 15.194 4.22936 15.6142L1.74839 16.0319C2.69617 12.044 4.89595 8.46436 8.02553 5.81724ZM1.23546 20.6201H3.25096L8.33632 22.533L10.9379 26.9374V28.7001L10.1757 29.8574C10.0922 29.984 10.0584 30.1369 10.0808 30.2869C10.1031 30.4368 10.1801 30.5732 10.297 30.6699L10.4903 30.8295L8.64499 31.9327C8.55374 31.9872 8.47818 32.0645 8.42568 32.1569C8.37319 32.2493 8.34554 32.3538 8.34546 32.46V35.3298C6.14829 33.5546 4.37131 31.315 3.14203 28.7718C1.91275 26.2285 1.26166 23.4447 1.23546 20.6201ZM20.4016 39.6119C16.5346 39.6154 12.7581 38.4424 9.57346 36.2488C9.57346 36.2411 9.57557 36.2337 9.57557 36.226V32.8098L11.8685 31.4388C11.9531 31.3883 12.0244 31.3182 12.0763 31.2345C12.1282 31.1507 12.1592 31.0557 12.1667 30.9575C12.1742 30.8592 12.158 30.7606 12.1194 30.6699C12.0809 30.5793 12.0211 30.4992 11.9451 30.4365L11.5064 30.0733L12.0664 29.2232C12.1328 29.1228 12.1681 29.005 12.168 28.8847V26.769C12.1681 26.659 12.1386 26.551 12.0826 26.4564L9.28553 21.7209C9.21418 21.6 9.10365 21.5072 8.97229 21.4579L3.57932 19.429C3.51008 19.403 3.43673 19.3897 3.36276 19.3897H1.26077C1.29941 18.6972 1.37535 18.0074 1.48823 17.3232L4.65229 16.7909C4.79841 16.7663 4.93073 16.6898 5.02495 16.5754C5.44229 16.0702 5.96163 15.6588 6.54897 15.3681C6.6834 15.301 6.78862 15.187 6.84477 15.0476C6.90092 14.9082 6.90412 14.7531 6.85378 14.6116L6.38971 13.3066L8.96878 10.6751L10.6644 9.82716C10.8092 9.75469 10.9196 9.62808 10.9717 9.47475C11.0239 9.32142 11.0135 9.15373 10.9428 9.00802L9.01202 5.0322C11.5075 3.18141 14.4165 1.96682 17.4872 1.49359C20.5578 1.02037 23.6975 1.30278 26.6344 2.31638L25.1452 3.8056H19.5895C19.4912 3.80564 19.3943 3.82921 19.307 3.87435C19.2196 3.91949 19.1443 3.98488 19.0874 4.06505L15.8696 8.60478C15.7776 8.73462 15.7396 8.89505 15.7633 9.05237C15.7871 9.2097 15.871 9.35168 15.9972 9.44852L19.2158 11.9172L15.9202 15.4736C15.8147 15.5874 15.7561 15.7368 15.756 15.892V21.1373C15.756 21.2635 15.7949 21.3867 15.8674 21.4901C15.9398 21.5935 16.0424 21.6721 16.161 21.7152L21.6567 23.7135V26.3819C21.6567 26.4672 21.6744 26.5515 21.7087 26.6296C21.743 26.7076 21.7932 26.7777 21.856 26.8354L24.517 29.2745V31.5667C24.517 31.7299 24.5818 31.8864 24.6972 32.0018C24.8126 32.1171 24.969 32.182 25.1322 32.182H26.555C25.7785 34.2545 25.7503 36.5332 26.4752 38.6243C24.5172 39.2792 22.4662 39.6127 20.4016 39.6119ZM35.4759 43.8095C33.8354 43.8096 32.2317 43.3232 30.8676 42.4118C29.5036 41.5004 28.4404 40.205 27.8126 38.6894C27.1847 37.1738 27.0204 35.506 27.3405 33.897C27.6605 32.2881 28.4505 30.8101 29.6105 29.6501C30.7705 28.4901 32.2485 27.7001 33.8575 27.3801C35.4664 27.06 37.1342 27.2243 38.6498 27.8522C40.1655 28.48 41.4609 29.5432 42.3722 30.9072C43.2836 32.2713 43.77 33.875 43.7699 35.5155C43.7674 37.7144 42.8928 39.8226 41.3379 41.3775C39.783 42.9324 37.6748 43.807 35.4759 43.8095Z" fill="#034833"/>
<path d="M42.0628 32.0386L41.2805 31.256C40.899 30.8745 40.3815 30.6602 39.8419 30.6602C39.3024 30.6602 38.7849 30.8745 38.4033 31.256L36.7622 32.8968L33.9638 32.2488C33.5883 32.1607 33.1965 32.1702 32.8257 32.2764C32.4549 32.3826 32.1175 32.582 31.8456 32.8556L31.1991 33.5025C31.1282 33.5733 31.0757 33.6603 31.046 33.7561C31.0164 33.8518 31.0107 33.9533 31.0293 34.0517C31.0478 34.1502 31.0902 34.2426 31.1526 34.321C31.2151 34.3993 31.2957 34.4612 31.3876 34.5013L34.012 35.6474L32.9784 36.6806L30.5206 36.9085C30.3779 36.9211 30.2441 36.9833 30.1423 37.0842L28.8879 38.3383C28.8122 38.4141 28.7576 38.5084 28.7295 38.6119C28.7014 38.7153 28.7008 38.8243 28.7278 38.928C28.7547 39.0317 28.8083 39.1266 28.8832 39.2033C28.9581 39.28 29.0517 39.3358 29.1548 39.3652L32.2246 40.2385C32.8163 40.4067 33.4421 40.414 34.0374 40.2595C34.6328 40.105 35.1761 39.7943 35.6112 39.3596L42.0628 32.908C42.1199 32.8509 42.1653 32.7832 42.1962 32.7085C42.2272 32.6339 42.2431 32.5539 42.2431 32.4731C42.2431 32.3924 42.2272 32.3124 42.1962 32.2377C42.1653 32.1631 42.1199 32.0957 42.0628 32.0386ZM34.7411 38.4898C34.4611 38.7697 34.1115 38.9698 33.7283 39.0694C33.3451 39.1689 32.9423 39.1644 32.5614 39.0562L30.4992 38.4697L30.8556 38.1133L33.3134 37.8851C33.4562 37.8725 33.59 37.8103 33.6917 37.7093L35.5198 35.8812C35.5907 35.8104 35.6431 35.7234 35.6727 35.6277C35.7022 35.532 35.7079 35.4305 35.6893 35.3321C35.6707 35.2337 35.6283 35.1413 35.5659 35.063C35.5035 34.9847 35.4228 34.9228 35.331 34.8828L32.707 33.7363L32.7161 33.7272C32.8405 33.6017 32.995 33.5103 33.1648 33.4617C33.3347 33.4131 33.5141 33.4089 33.6861 33.4494L36.8174 34.1744C36.9191 34.1979 37.0251 34.1952 37.1255 34.1664C37.2258 34.1376 37.3171 34.0837 37.3908 34.0098L39.2735 32.1279C39.4265 31.9814 39.6301 31.8996 39.8419 31.8996C40.0538 31.8996 40.2574 31.9814 40.4104 32.1279L40.7578 32.4753L34.7411 38.4898Z" fill="#034833"/>
</g>
<defs>
<clipPath id="clip0_3755_203">
<rect width="45" height="45" fill="white" transform="translate(0 0.0390625)"/>
</clipPath>
</defs>
</svg>
