<svg width="43" height="45" viewBox="0 0 43 45" fill="none" xmlns="http://www.w3.org/2000/svg">
<path d="M39.8517 16.1406C39.2892 14.9453 38.6212 13.7852 37.8478 12.7305C39.5353 11.6055 42.0314 9.39062 42.0314 5.94531C42.0314 2.67578 39.3946 0.0742188 36.1603 0.0742188C32.9259 0.0742188 30.254 2.67578 30.254 5.94531V6.33203C29.797 6.12109 29.3399 5.91016 28.8829 5.69922C15.6642 0.390625 1.03916 9.98828 0.968852 24.5781C0.933696 35.8281 10.004 44.9688 21.254 45.0039C32.504 45.0391 41.6446 35.9688 41.6798 24.7188C41.6798 24.6484 41.6798 24.6133 41.6798 24.543C41.6798 21.6602 41.047 18.7773 39.8517 16.1406ZM36.1603 1.26953C38.7267 1.26953 40.8009 3.34375 40.836 5.94531C40.836 9.63672 37.1798 11.8164 36.1603 12.3086C35.1759 11.7813 31.4845 9.63672 31.4845 5.94531C31.4845 3.34375 33.5587 1.26953 36.1603 1.26953ZM35.879 13.5742C36.0548 13.6445 36.2306 13.6445 36.3712 13.5742C36.4064 13.5742 36.547 13.5039 36.7579 13.3633C37.3204 14.1367 37.8126 14.9453 38.2696 15.7891H34.6134L32.1524 13.3281C32.0118 13.1875 31.8009 13.1172 31.5899 13.1523L24.3478 14.7695C24.0665 14.8398 23.8556 15.0859 23.8556 15.3672V16.8438C23.8556 17.1602 24.0665 17.4063 24.3829 17.4414L29.3751 18.2148L30.6056 20.6055C30.6759 20.7461 30.8165 20.8867 30.9923 20.9219L34.1564 21.8008V23.5938L32.2579 25.5625C32.1524 25.668 32.0821 25.8438 32.0821 25.9844V28.9727L28.6017 35.0547H26.6681V33.1211C26.6681 32.9453 26.5978 32.7695 26.4571 32.6641L23.7853 30.2383V27.4258C23.7853 27.1797 23.6095 26.9336 23.3985 26.8633L17.9142 24.8594V20.2891L21.5001 16.4219C21.7462 16.1758 21.711 15.7891 21.4649 15.543L21.4298 15.5078L18.1603 12.9766L20.8321 9.17969H26.3165C26.4923 9.17969 26.6329 9.10938 26.7384 9.00391L28.7774 6.96484C29.3399 7.21094 29.9376 7.49219 30.5001 7.80859C31.6251 11.6055 35.7032 13.4688 35.879 13.5742ZM8.98448 9.98828L10.5314 13.1875L9.30088 13.8203C9.23057 13.8555 9.19541 13.8906 9.1251 13.9258L6.20713 16.9141C6.03135 17.0898 5.9962 17.3359 6.06651 17.5469L6.48838 18.7422C6.03135 19.0234 5.57432 19.4102 5.22276 19.7969L2.72666 20.2188C3.64073 16.2109 5.85557 12.625 8.98448 9.98828ZM9.58213 30.0625C8.59776 29.5352 4.90635 27.3906 4.90635 23.6992C4.94151 21.1328 7.05088 19.0586 9.61729 19.0938C12.1485 19.1289 14.2228 21.168 14.2228 23.6992C14.2228 27.3906 10.5665 29.5703 9.58213 30.0625ZM2.23448 23.5586C2.26963 22.8555 2.33995 22.1875 2.44541 21.4844L4.23838 21.168C3.88682 21.9063 3.67588 22.7148 3.67588 23.5234H2.23448V23.5586ZM9.30088 36.6016V39.4844C4.8712 35.8984 2.26963 30.5195 2.19932 24.7891H3.78135C4.44932 29.1133 9.1251 31.2227 9.33604 31.3281C9.51182 31.3984 9.6876 31.3984 9.82823 31.3281C10.3204 31.082 10.7774 30.8359 11.2345 30.5195L11.8673 31.1523V32.8398L11.0939 34C10.9181 34.2461 10.9884 34.5977 11.1993 34.8086L11.3751 34.9844L9.54698 36.0742C9.40635 36.1797 9.30088 36.3555 9.30088 36.6016ZM21.3243 43.7383C17.4571 43.7383 13.6954 42.5781 10.5314 40.3984V36.9531L12.8165 35.582C13.0978 35.4063 13.2032 35.0195 13.0274 34.7383C12.9923 34.668 12.9571 34.6328 12.8868 34.5977L12.4649 34.2461L13.0274 33.4023C13.0978 33.2969 13.1329 33.1914 13.1329 33.0508V30.9414C13.1329 30.7656 13.0626 30.625 12.9571 30.5195L12.2892 29.8516C13.836 28.6211 15.5235 26.582 15.5235 23.7695C15.5235 20.5352 12.922 17.8984 9.65244 17.8984C8.94932 17.8984 8.28135 18.0039 7.61338 18.25L7.36729 17.5469L9.9337 14.9102L11.6212 14.0664C11.9376 13.9258 12.0431 13.5391 11.9024 13.2578L9.96885 9.28516C15.0314 5.55859 21.6056 4.53906 27.547 6.57813L26.0704 7.98438H20.5157C20.3048 7.98438 20.129 8.08984 20.0235 8.23047L16.8243 12.7656C16.6485 13.0469 16.6837 13.3984 16.9649 13.6094L20.1642 16.0703L16.8595 19.6211C16.754 19.7266 16.6837 19.8672 16.6837 20.043V25.2813C16.6837 25.5273 16.8595 25.7734 17.0704 25.8438L22.5548 27.8477V30.5195C22.5548 30.6953 22.6251 30.8711 22.7657 30.9766L25.4376 33.4023V35.6875C25.4376 36.0391 25.7189 36.2852 26.0353 36.2852H28.9532C29.1642 36.2852 29.3751 36.1797 29.4806 35.9688L33.2423 29.4297C33.3126 29.3242 33.3126 29.2188 33.3126 29.1133V26.1953L35.211 24.2969C35.3165 24.1914 35.3868 24.0156 35.3868 23.875V21.3789C35.3868 21.0977 35.211 20.8516 34.9298 20.7813L31.5548 19.832L30.3243 17.4063C30.2189 17.2305 30.0782 17.125 29.8673 17.0898L25.086 16.3516V15.8594L31.5196 14.418L33.9454 16.8438C34.0509 16.9492 34.2267 17.0195 34.3673 17.0195H38.8673C39.922 19.4102 40.4493 21.9766 40.4493 24.6133C40.4493 35.1602 31.8712 43.7031 21.3243 43.7383Z" fill="white"/>
</svg>
