<svg width="30" height="31" viewBox="0 0 30 31" fill="none" xmlns="http://www.w3.org/2000/svg">
<path d="M28.1836 3.20312H1.81641C1.33484 3.20368 0.873151 3.39523 0.53263 3.73575C0.192108 4.07628 0.00055827 4.53796 0 5.01953L0 26.4634C6.2096e-05 26.5722 0.0432948 26.6765 0.120201 26.7534C0.197106 26.8303 0.301395 26.8735 0.410156 26.8736H29.5898C29.6986 26.8735 29.8029 26.8303 29.8798 26.7534C29.9567 26.6765 29.9999 26.5722 30 26.4634V5.01953C29.9994 4.53796 29.8079 4.07628 29.4674 3.73575C29.1269 3.39523 28.6652 3.20368 28.1836 3.20312ZM0.820312 5.01953C0.820623 4.75545 0.925668 4.50227 1.1124 4.31553C1.29914 4.12879 1.55232 4.02375 1.81641 4.02344H28.1836C28.4477 4.02375 28.7009 4.12879 28.8876 4.31553C29.0743 4.50227 29.1794 4.75545 29.1797 5.01953V8.74305H0.820312V5.01953ZM29.1797 26.0533H0.820312V9.56336H29.1797V26.0533Z" fill="white"/>
<path d="M27.7147 5.07812H9.78809C9.67931 5.07812 9.57498 5.12134 9.49806 5.19826C9.42114 5.27518 9.37793 5.3795 9.37793 5.48828V7.27797C9.37793 7.38675 9.42114 7.49107 9.49806 7.56799C9.57498 7.64491 9.67931 7.68813 9.78809 7.68813H27.7147C27.8235 7.68806 27.9278 7.64483 28.0047 7.56792C28.0816 7.49102 28.1248 7.38673 28.1249 7.27797V5.48828C28.1248 5.37952 28.0816 5.27523 28.0047 5.19833C27.9278 5.12142 27.8235 5.07819 27.7147 5.07812ZM27.3046 6.86781H10.1982V5.89844H27.3046V6.86781Z" fill="white"/>
<path d="M4.16016 5.07812H2.28516C2.1764 5.07819 2.07211 5.12142 1.9952 5.19833C1.91829 5.27523 1.87506 5.37952 1.875 5.48828V7.27797C1.87506 7.38673 1.91829 7.49102 1.9952 7.56792C2.07211 7.64483 2.1764 7.68806 2.28516 7.68813H4.16016C4.26892 7.68806 4.37321 7.64483 4.45011 7.56792C4.52702 7.49102 4.57025 7.38673 4.57031 7.27797V5.48828C4.57025 5.37952 4.52702 5.27523 4.45011 5.19833C4.37321 5.12142 4.26892 5.07819 4.16016 5.07812ZM3.75 6.86781H2.69531V5.89844H3.75V6.86781Z" fill="white"/>
<path d="M7.91113 5.07812H6.03613C5.92737 5.07819 5.82308 5.12142 5.74618 5.19833C5.66927 5.27523 5.62604 5.37952 5.62598 5.48828V7.27797C5.62604 7.38673 5.66927 7.49102 5.74618 7.56792C5.82308 7.64483 5.92737 7.68806 6.03613 7.68813H7.91113C8.01991 7.68813 8.12424 7.64491 8.20116 7.56799C8.27808 7.49107 8.32129 7.38675 8.32129 7.27797V5.48828C8.32129 5.3795 8.27808 5.27518 8.20116 5.19826C8.12424 5.12134 8.01991 5.07812 7.91113 5.07812ZM7.50098 6.86781H6.44629V5.89844H7.50098V6.86781Z" fill="white"/>
<path d="M15.0001 24.1608C16.256 24.1608 17.4837 23.7885 18.528 23.0907C19.5722 22.393 20.3862 21.4013 20.8668 20.241C21.3475 19.0807 21.4732 17.804 21.2283 16.5722C20.9833 15.3404 20.3785 14.2089 19.4905 13.3209C18.6024 12.4328 17.471 11.828 16.2392 11.583C15.0074 11.3379 13.7307 11.4637 12.5704 11.9443C11.41 12.4249 10.4183 13.2388 9.72056 14.283C9.02281 15.3273 8.65039 16.555 8.65039 17.8109C8.65225 19.4944 9.32182 21.1084 10.5122 22.2988C11.7026 23.4892 13.3166 24.1589 15.0001 24.1608ZM15.0001 12.2815C16.0938 12.2814 17.1629 12.6057 18.0723 13.2133C18.9816 13.8209 19.6904 14.6845 20.109 15.6949C20.5275 16.7053 20.637 17.8172 20.4237 18.8898C20.2103 19.9625 19.6837 20.9478 18.9103 21.7211C18.137 22.4945 17.1517 23.0211 16.079 23.2345C15.0064 23.4478 13.8945 23.3383 12.8841 22.9197C11.8737 22.5012 11.0101 21.7924 10.4025 20.883C9.79493 19.9737 9.47066 18.9045 9.4707 17.8109C9.47238 16.3449 10.0555 14.9395 11.0921 13.9029C12.1287 12.8663 13.5341 12.2832 15.0001 12.2815Z" fill="white"/>
<path d="M12.1441 20.9755H17.8544C17.9631 20.9755 18.0674 20.9323 18.1443 20.8553C18.2212 20.7784 18.2645 20.6742 18.2645 20.5654V16.5353C18.2645 16.4266 18.2212 16.3223 18.1443 16.2454C18.0674 16.1685 17.9631 16.1252 17.8544 16.1252H17.0809L16.8302 14.9645C16.8104 14.8728 16.7598 14.7906 16.6868 14.7316C16.6138 14.6727 16.5228 14.6406 16.4289 14.6406H13.5695C13.4758 14.6406 13.385 14.6728 13.312 14.7316C13.2391 14.7904 13.1886 14.8725 13.1687 14.9641L12.918 16.1247H12.1445C12.0358 16.1248 11.9315 16.168 11.8546 16.2449C11.7777 16.3218 11.7344 16.4261 11.7344 16.5348V20.5654C11.7344 20.6741 11.7776 20.7783 11.8544 20.8552C11.9312 20.9321 12.0354 20.9754 12.1441 20.9755ZM12.5542 20.1552V18.6679H13.6323V18.7091C13.6323 18.8179 13.6756 18.9222 13.7525 18.9992C13.8294 19.0761 13.9337 19.1193 14.0425 19.1193C14.1513 19.1193 14.2556 19.0761 14.3325 18.9992C14.4094 18.9222 14.4527 18.8179 14.4527 18.7091V18.6679H15.5448V18.7091C15.5448 18.8179 15.5881 18.9222 15.665 18.9992C15.7419 19.0761 15.8462 19.1193 15.955 19.1193C16.0638 19.1193 16.1681 19.0761 16.245 18.9992C16.3219 18.9222 16.3652 18.8179 16.3652 18.7091V18.6679H17.4433V20.1552H12.5542ZM13.9007 15.4609H16.0975L16.2412 16.1247H13.757L13.9007 15.4609ZM16.7484 16.945H17.4442V17.8471H12.5542V16.9455L16.7484 16.945Z" fill="white"/>
</svg>
