<svg width="60" height="60" viewBox="0 0 60 60" fill="none" xmlns="http://www.w3.org/2000/svg">
<path d="M59.5 30C59.5 46.2924 46.2924 59.5 30 59.5C13.7076 59.5 0.5 46.2924 0.5 30C0.5 13.7076 13.7076 0.5 30 0.5C46.2924 0.5 59.5 13.7076 59.5 30Z" stroke="#83CD20"/>
<path d="M37.75 25.75C37.75 27.6133 36.2383 29.125 34.375 29.125C33.4609 29.125 32.6172 28.7734 32.0195 28.2109L28.7148 29.8633C28.7148 29.9688 28.7148 30.1094 28.7148 30.25C28.7148 30.3906 28.7148 30.5312 28.7148 30.6719L32.0195 32.3242C32.6172 31.7617 33.4609 31.375 34.375 31.375C36.2383 31.375 37.75 32.8867 37.75 34.75C37.75 36.6133 36.2383 38.125 34.375 38.125C32.4766 38.125 31 36.6133 31 34.75C31 34.6094 31 34.4688 31 34.3633L27.6953 32.7109C27.0977 33.2734 26.2539 33.625 25.375 33.625C23.4766 33.625 22 32.1133 22 30.25C22 28.3867 23.4766 26.875 25.375 26.875C26.2539 26.875 27.0977 27.2617 27.6953 27.8242L31 26.1719C31 26.0312 31 25.8906 31 25.75C31 23.8867 32.4766 22.375 34.375 22.375C36.2383 22.375 37.75 23.8867 37.75 25.75ZM25.3398 31.375C25.9727 31.375 26.4648 30.8828 26.4648 30.25C26.4648 29.6523 25.9727 29.125 25.3398 29.125C24.7422 29.125 24.2148 29.6523 24.2148 30.25C24.2148 30.8828 24.7422 31.375 25.3398 31.375ZM34.375 24.625C33.7422 24.625 33.25 25.1523 33.25 25.75C33.25 26.3828 33.7422 26.875 34.375 26.875C34.9727 26.875 35.5 26.3828 35.5 25.75C35.5 25.1523 34.9727 24.625 34.375 24.625ZM34.375 35.875C34.9727 35.875 35.5 35.3828 35.5 34.75C35.5 34.1523 34.9727 33.625 34.375 33.625C33.7422 33.625 33.25 34.1523 33.25 34.75C33.25 35.3828 33.7422 35.875 34.375 35.875Z" fill="#83CD20"/>
</svg>
