<svg width="40" height="38" viewBox="0 0 40 38" fill="none" xmlns="http://www.w3.org/2000/svg">
<path d="M38.2031 14.3458H36.0562C36.8555 12.9007 37.2636 11.272 37.2403 9.62082C37.2171 7.96962 36.7632 6.35309 35.9235 4.93111C35.0839 3.50913 33.8876 2.33095 32.453 1.5131C31.0184 0.695254 29.3951 0.266062 27.7437 0.267974C26.2274 0.27277 24.7339 0.638882 23.3873 1.33597C22.0406 2.03306 20.8794 3.04105 20 4.27641C18.5991 2.2956 16.4929 0.92646 14.1139 0.450268C11.735 -0.0259238 9.26405 0.426988 7.20866 1.71596C5.15328 3.00493 3.66955 5.03209 3.06228 7.38098C2.45501 9.72987 2.77032 12.2221 3.94344 14.3458H1.79688C1.32049 14.3464 0.863786 14.5359 0.526932 14.8727C0.190078 15.2096 0.000578888 15.6663 0 16.1427L0 36.028C0.000578888 36.5044 0.190078 36.9611 0.526932 37.2979C0.863786 37.6348 1.32049 37.8243 1.79688 37.8249H38.2031C38.6795 37.8244 39.1363 37.6349 39.4732 37.298C39.81 36.9611 39.9995 36.5044 40 36.028V16.1427C39.9995 15.6663 39.81 15.2095 39.4732 14.8726C39.1363 14.5358 38.6795 14.3463 38.2031 14.3458ZM27.7431 1.36172C29.2561 1.3614 30.741 1.76958 32.0412 2.54317C33.3414 3.31677 34.4087 4.42706 35.1302 5.75686C35.8518 7.08665 36.2009 8.58659 36.1408 10.0983C36.0806 11.6101 35.6134 13.0775 34.7884 14.3458H33.0219C34.1333 13.0794 34.7444 11.451 34.7406 9.7661C34.7409 8.15872 34.1877 6.60027 33.1741 5.35277C32.1605 4.10526 30.7483 3.24479 29.1749 2.91601C27.6015 2.58724 25.9629 2.81022 24.5346 3.54746C23.1062 4.2847 21.9753 5.49124 21.3319 6.96422C21.1531 6.38723 20.9193 5.82873 20.6338 5.29641C21.3921 4.09544 22.4412 3.10522 23.6839 2.41743C24.9266 1.72965 26.3228 1.36654 27.7431 1.36172ZM21.3319 12.5695C21.6168 13.2158 21.9987 13.8148 22.4644 14.3458H20.5703C20.8844 13.7814 21.1396 13.1862 21.3319 12.5695ZM21.8391 9.76516C21.8368 8.76716 22.0876 7.78488 22.5679 6.91008C23.0483 6.03528 23.7425 5.29651 24.5858 4.76279C25.4291 4.22907 26.394 3.91782 27.3902 3.85811C28.3864 3.7984 29.3815 3.99218 30.2825 4.42135C31.1835 4.85052 31.961 5.50108 32.5424 6.31224C33.1238 7.1234 33.4901 8.0687 33.6071 9.05982C33.7241 10.0509 33.5879 11.0555 33.2114 11.9798C32.8348 12.904 32.2301 13.7177 31.4538 14.3448H24.0312C23.3457 13.7948 22.7927 13.0976 22.4132 12.3048C22.0338 11.5121 21.8375 10.6441 21.8391 9.76516ZM3.85281 9.76516C3.85265 8.45723 4.15776 7.16731 4.74387 5.99806C5.32999 4.8288 6.18092 3.81249 7.22896 3.02999C8.27699 2.24749 9.4932 1.7204 10.7808 1.49068C12.0684 1.26096 13.3918 1.33494 14.6458 1.70673C15.8998 2.07853 17.0497 2.73787 18.004 3.6323C18.9583 4.52673 19.6906 5.63155 20.1428 6.85884C20.5949 8.08614 20.7544 9.40202 20.6085 10.7018C20.4625 12.0016 20.0152 13.2493 19.3022 14.3458H17.5356C18.6469 13.0794 19.2581 11.451 19.2544 9.7661C19.2605 8.84318 19.0841 7.92815 18.7352 7.07371C18.3863 6.21926 17.8718 5.44227 17.2213 4.78747C16.5709 4.13268 15.7974 3.61301 14.9453 3.25839C14.0932 2.90377 13.1793 2.72121 12.2564 2.72121C11.3335 2.72121 10.4196 2.90377 9.56754 3.25839C8.71545 3.61301 7.94191 4.13268 7.29148 4.78747C6.64104 5.44227 6.12656 6.21926 5.77764 7.07371C5.42872 7.92815 5.25227 8.84318 5.25844 9.7661C5.25471 11.451 5.86584 13.0794 6.97719 14.3458H5.21156C4.32208 12.9839 3.84982 11.3918 3.85281 9.76516ZM6.35281 9.76516C6.3509 8.76731 6.60192 7.78525 7.08241 6.91071C7.56291 6.03616 8.25721 5.29766 9.10048 4.76417C9.94374 4.23068 10.9085 3.91961 11.9045 3.86002C12.9006 3.80042 13.8955 3.99424 14.7964 4.42337C15.6973 4.8525 16.4747 5.50295 17.056 6.31396C17.6374 7.12498 18.0037 8.0701 18.1208 9.06105C18.2379 10.052 18.1019 11.0565 17.7255 11.9806C17.3492 12.9048 16.7448 13.7185 15.9688 14.3458H8.54625C7.8603 13.7958 7.30695 13.0985 6.92724 12.3056C6.54752 11.5126 6.3512 10.6443 6.35281 9.76516ZM38.9062 36.028C38.906 36.2144 38.8318 36.3931 38.7 36.5249C38.5682 36.6567 38.3895 36.7309 38.2031 36.7311H1.79688C1.61047 36.7309 1.43177 36.6567 1.29996 36.5249C1.16816 36.3931 1.094 36.2144 1.09375 36.028V16.1427C1.094 15.9563 1.16816 15.7776 1.29996 15.6458C1.43177 15.5139 1.61047 15.4398 1.79688 15.4395H38.2031C38.3895 15.4398 38.5682 15.5139 38.7 15.6458C38.8318 15.7776 38.906 15.9563 38.9062 16.1427V36.028Z" fill="white"/>
<path d="M36.9531 19.6805C36.3471 19.6798 35.766 19.4388 35.3375 19.0102C34.9089 18.5816 34.6678 18.0006 34.6672 17.3945C34.6672 17.2495 34.6096 17.1104 34.507 17.0078C34.4045 16.9053 34.2654 16.8477 34.1203 16.8477H5.87969C5.73465 16.8477 5.59555 16.9053 5.49299 17.0078C5.39043 17.1104 5.33281 17.2495 5.33281 17.3945C5.33215 18.0006 5.0911 18.5816 4.66255 19.0102C4.23399 19.4388 3.65294 19.6798 3.04688 19.6805C2.90186 19.6806 2.76281 19.7382 2.66027 19.8407C2.55773 19.9433 2.50008 20.0823 2.5 20.2273V31.9461C2.5 32.0911 2.55762 32.2302 2.66018 32.3328C2.76273 32.4354 2.90183 32.493 3.04688 32.493C3.65297 32.4937 4.23402 32.7348 4.66256 33.1634C5.09111 33.592 5.33215 34.1731 5.33281 34.7792C5.33281 34.9243 5.39043 35.0634 5.49299 35.1659C5.59555 35.2685 5.73465 35.3261 5.87969 35.3261H34.1203C34.2654 35.3261 34.4045 35.2685 34.507 35.1659C34.6096 35.0634 34.6672 34.9243 34.6672 34.7792C34.6678 34.1731 34.9089 33.592 35.3374 33.1634C35.766 32.7348 36.347 32.4937 36.9531 32.493C37.025 32.493 37.0961 32.4789 37.1625 32.4514C37.2288 32.424 37.2891 32.3837 37.3399 32.3329C37.3907 32.2821 37.431 32.2218 37.4585 32.1554C37.4859 32.0891 37.5 32.0179 37.5 31.9461V20.2273C37.5 20.0823 37.4424 19.9432 37.3398 19.8406C37.2373 19.7381 37.0982 19.6805 36.9531 19.6805ZM6.38219 34.233C6.2666 33.5353 5.93558 32.8912 5.43552 32.3911C4.93547 31.891 4.29145 31.5599 3.59375 31.4442V20.7302C4.29143 20.6144 4.93542 20.2833 5.43547 19.7832C5.93552 19.2831 6.26656 18.6391 6.38219 17.9414H15.6444C14.169 18.7296 12.9353 19.9037 12.0752 21.3384C11.2151 22.7731 10.7608 24.4144 10.7608 26.0872C10.7608 27.7599 11.2151 29.4013 12.0752 30.836C12.9353 32.2706 14.169 33.4448 15.6444 34.233H6.38219ZM20 17.9414C21.6111 17.9413 23.1861 18.419 24.5258 19.3141C25.8654 20.2092 26.9095 21.4814 27.5261 22.9699C28.1427 24.4584 28.304 26.0963 27.9897 27.6765C27.6754 29.2566 26.8996 30.7081 25.7604 31.8474C24.6211 32.9866 23.1696 33.7625 21.5894 34.0768C20.0092 34.3911 18.3713 34.2297 16.8829 33.6131C15.3944 32.9966 14.1221 31.9524 13.2271 30.6128C12.332 29.2731 11.8543 27.6982 11.8544 26.087C11.8572 23.9275 12.7163 21.8573 14.2433 20.3303C15.7703 18.8033 17.8405 17.9442 20 17.9414ZM36.4062 31.4442C35.7084 31.5597 35.0643 31.8907 34.5641 32.3909C34.064 32.891 33.733 33.5352 33.6175 34.233H24.3556C25.831 33.4448 27.0647 32.2706 27.9248 30.836C28.7849 29.4013 29.2392 27.7599 29.2392 26.0872C29.2392 24.4144 28.7849 22.7731 27.9248 21.3384C27.0647 19.9037 25.831 18.7296 24.3556 17.9414H33.6175C33.7331 18.6392 34.0641 19.2833 34.5642 19.7834C35.0644 20.2835 35.7085 20.6146 36.4062 20.7302V31.4442Z" fill="white"/>
<path d="M21.8065 28.4683H16.9434C16.7983 28.4683 16.6592 28.5259 16.5567 28.6285C16.4541 28.731 16.3965 28.8701 16.3965 29.0152C16.3965 29.1602 16.4541 29.2993 16.5567 29.4019C16.6592 29.5044 16.7983 29.562 16.9434 29.562H18.3155V30.9173C18.3155 31.0624 18.3732 31.2015 18.4757 31.304C18.5783 31.4066 18.7174 31.4642 18.8624 31.4642C19.0075 31.4642 19.1466 31.4066 19.2491 31.304C19.3517 31.2015 19.4093 31.0624 19.4093 30.9173V29.562H20.5905V30.9173C20.5905 31.0624 20.6482 31.2015 20.7507 31.304C20.8533 31.4066 20.9924 31.4642 21.1374 31.4642C21.2825 31.4642 21.4216 31.4066 21.5241 31.304C21.6267 31.2015 21.6843 31.0624 21.6843 30.9173V29.562H21.8065C22.2829 29.5615 22.7396 29.3721 23.0765 29.0352C23.4134 28.6983 23.6029 28.2416 23.6034 27.7652V26.0855C23.6034 25.9404 23.5457 25.8013 23.4432 25.6988C23.3406 25.5962 23.2015 25.5386 23.0565 25.5386H17.4902V24.4058C17.4905 24.2194 17.5646 24.0407 17.6964 23.9089C17.8283 23.7771 18.007 23.7029 18.1934 23.7027H23.0565C23.2015 23.7027 23.3406 23.645 23.4432 23.5425C23.5457 23.4399 23.6034 23.3008 23.6034 23.1558C23.6034 23.0107 23.5457 22.8716 23.4432 22.7691C23.3406 22.6665 23.2015 22.6089 23.0565 22.6089H21.6843V21.2539C21.6843 21.1089 21.6267 20.9698 21.5241 20.8672C21.4216 20.7646 21.2825 20.707 21.1374 20.707C20.9924 20.707 20.8533 20.7646 20.7507 20.8672C20.6482 20.9698 20.5905 21.1089 20.5905 21.2539V22.6092H19.4093V21.2539C19.4093 21.1089 19.3517 20.9698 19.2491 20.8672C19.1466 20.7646 19.0075 20.707 18.8624 20.707C18.7174 20.707 18.5783 20.7646 18.4757 20.8672C18.3732 20.9698 18.3155 21.1089 18.3155 21.2539V22.6092H18.1934C17.717 22.6097 17.2602 22.7992 16.9233 23.1361C16.5865 23.4729 16.397 23.9297 16.3965 24.4061V26.0858C16.3964 26.1576 16.4106 26.2287 16.438 26.2951C16.4655 26.3615 16.5058 26.4218 16.5566 26.4726C16.6074 26.5234 16.6677 26.5636 16.734 26.5911C16.8004 26.6186 16.8715 26.6327 16.9434 26.6327H22.5096V27.7655C22.5093 27.9518 22.4351 28.1304 22.3033 28.2622C22.1715 28.3939 21.9928 28.468 21.8065 28.4683Z" fill="white"/>
<path d="M14.0141 6.4224L12.2572 8.25646L10.5004 6.4224C10.4507 6.37055 10.3912 6.32899 10.3255 6.30011C10.2597 6.27122 10.1889 6.25557 10.1171 6.25405C10.0453 6.25252 9.9739 6.26516 9.90698 6.29123C9.84006 6.3173 9.77892 6.3563 9.72707 6.406C9.67522 6.45569 9.63367 6.51512 9.60478 6.58087C9.57589 6.64663 9.56024 6.71743 9.55872 6.78924C9.55719 6.86104 9.56983 6.93245 9.5959 6.99937C9.62197 7.06629 9.66097 7.12742 9.71067 7.17928L10.976 8.4999H10.265C10.12 8.4999 9.9809 8.55752 9.87834 8.66008C9.77578 8.76264 9.71817 8.90174 9.71817 9.04678C9.71817 9.19182 9.77578 9.33092 9.87834 9.43347C9.9809 9.53603 10.12 9.59365 10.265 9.59365H11.7104V10.2974H10.265C10.12 10.2974 9.9809 10.355 9.87834 10.4576C9.77578 10.5601 9.71817 10.6992 9.71817 10.8443C9.71817 10.9893 9.77578 11.1284 9.87834 11.231C9.9809 11.3335 10.12 11.3912 10.265 11.3912H11.7104V12.3677C11.7104 12.5128 11.768 12.6519 11.8705 12.7544C11.9731 12.857 12.1122 12.9146 12.2572 12.9146C12.4023 12.9146 12.5414 12.857 12.6439 12.7544C12.7465 12.6519 12.8041 12.5128 12.8041 12.3677V11.3912H14.2504C14.3954 11.3912 14.5345 11.3335 14.6371 11.231C14.7396 11.1284 14.7972 10.9893 14.7972 10.8443C14.7972 10.6992 14.7396 10.5601 14.6371 10.4576C14.5345 10.355 14.3954 10.2974 14.2504 10.2974H12.8041V9.59428H14.2504C14.3954 9.59428 14.5345 9.53666 14.6371 9.4341C14.7396 9.33154 14.7972 9.19244 14.7972 9.0474C14.7972 8.90236 14.7396 8.76326 14.6371 8.6607C14.5345 8.55814 14.3954 8.50053 14.2504 8.50053H13.5385L14.8041 7.1799C14.9046 7.07514 14.9593 6.93477 14.9562 6.78966C14.9532 6.64455 14.8926 6.5066 14.7879 6.40615C14.6831 6.3057 14.5427 6.25098 14.3976 6.25403C14.2525 6.25707 14.1146 6.31764 14.0141 6.4224Z" fill="white"/>
<path d="M29.5004 6.42238L27.7439 8.25645L25.9867 6.42238C25.937 6.37053 25.8776 6.32898 25.8118 6.30009C25.746 6.2712 25.6752 6.25555 25.6034 6.25403C25.5316 6.25251 25.4602 6.26514 25.3933 6.29121C25.3264 6.31728 25.2653 6.35628 25.2134 6.40598C25.1616 6.45568 25.12 6.5151 25.0911 6.58086C25.0622 6.64661 25.0466 6.71741 25.045 6.78922C25.0435 6.86103 25.0562 6.93243 25.0822 6.99935C25.1083 7.06627 25.1473 7.12741 25.197 7.17926L26.4623 8.49988H25.7504C25.6054 8.49988 25.4663 8.5575 25.3637 8.66006C25.2612 8.76262 25.2036 8.90172 25.2036 9.04676C25.2036 9.1918 25.2612 9.3309 25.3637 9.43346C25.4663 9.53602 25.6054 9.59363 25.7504 9.59363H27.1957V10.2974H25.7504C25.6054 10.2974 25.4663 10.355 25.3637 10.4576C25.2612 10.5601 25.2036 10.6992 25.2036 10.8443C25.2036 10.9893 25.2612 11.1284 25.3637 11.231C25.4663 11.3335 25.6054 11.3911 25.7504 11.3911H27.1957V12.3677C27.1957 12.5127 27.2534 12.6518 27.3559 12.7544C27.4585 12.857 27.5976 12.9146 27.7426 12.9146C27.8877 12.9146 28.0268 12.857 28.1293 12.7544C28.2319 12.6518 28.2895 12.5127 28.2895 12.3677V11.3911H29.7348C29.8798 11.3911 30.0189 11.3335 30.1215 11.231C30.2241 11.1284 30.2817 10.9893 30.2817 10.8443C30.2817 10.6992 30.2241 10.5601 30.1215 10.4576C30.0189 10.355 29.8798 10.2974 29.7348 10.2974H28.2904V9.59426H29.7357C29.8808 9.59426 30.0199 9.53664 30.1224 9.43408C30.225 9.33152 30.2826 9.19242 30.2826 9.04738C30.2826 8.90234 30.225 8.76324 30.1224 8.66069C30.0199 8.55813 29.8808 8.50051 29.7357 8.50051H29.0248L30.2901 7.17988C30.3399 7.12803 30.3789 7.06689 30.405 6.99995C30.4311 6.93301 30.4438 6.86159 30.4423 6.78975C30.4408 6.71792 30.4252 6.64708 30.3963 6.58129C30.3674 6.51549 30.3259 6.45603 30.274 6.40629C30.2222 6.35655 30.161 6.31751 30.0941 6.2914C30.0272 6.2653 29.9557 6.25263 29.8839 6.25412C29.8121 6.25562 29.7412 6.27124 29.6754 6.30012C29.6096 6.32899 29.5502 6.37053 29.5004 6.42238Z" fill="white"/>
</svg>
