<svg width="171" height="49" viewBox="0 0 171 49" fill="none" xmlns="http://www.w3.org/2000/svg">
<path fill-rule="evenodd" clip-rule="evenodd" d="M63.5316 21.8684L60.427 21.1949C58.8734 20.8581 58.0182 19.8999 58.0182 18.4957C58.0182 16.7112 59.6025 15.365 61.7039 15.365C64.6118 15.365 65.4703 17.5043 65.6648 18.1609C65.7265 18.3791 65.8783 18.5641 66.0823 18.666C66.2815 18.768 66.5044 18.7832 66.7179 18.7087L68.3544 18.1314C68.5509 18.0617 68.7134 17.9195 68.8086 17.734C68.9038 17.5485 68.9246 17.3337 68.8668 17.1334C68.4446 15.6486 66.8934 12.1953 61.6328 12.1953C57.7383 12.1953 54.451 15.1743 54.451 18.7011C54.451 21.7323 56.44 23.9713 59.7733 24.697L62.7333 25.3422C64.515 25.7169 65.5794 26.8032 65.5794 28.2453C65.5794 30.0858 64.0662 31.229 61.628 31.229C58.7629 31.229 57.3825 29.3505 57.0457 27.5906C57.0244 27.4772 56.9793 27.3695 56.9132 27.2748C56.8472 27.1801 56.7618 27.1005 56.6627 27.0413C56.5635 26.9821 56.453 26.9447 56.3383 26.9314C56.2236 26.9182 56.1074 26.9294 55.9974 26.9645L54.1996 27.5385C54.0106 27.596 53.8495 27.7212 53.7471 27.8902C53.6447 28.0591 53.6082 28.2598 53.6446 28.454C54.2043 31.3713 56.6013 34.4831 61.6612 34.4831C65.9371 34.4831 69.1618 31.6986 69.1618 28.0081C69.1618 24.8915 67.105 22.6526 63.5169 21.8604L63.5316 21.8684ZM81.8993 24.7065C81.9088 24.7682 81.8803 24.8156 81.8613 24.8346C81.8456 24.854 81.8258 24.8697 81.8032 24.8804C81.7806 24.891 81.7559 24.8965 81.7309 24.8963H75.1373C75.1111 24.8963 75.0852 24.8903 75.0616 24.8788C75.038 24.8673 75.0173 24.8506 75.0012 24.8299C74.9861 24.8125 74.9753 24.7919 74.9696 24.7697C74.9638 24.7475 74.9633 24.7243 74.968 24.7018C75.2692 23.3271 76.448 21.941 78.4023 21.941C80.3221 21.941 81.628 22.9704 81.896 24.6985L81.8993 24.7065ZM78.3767 18.8624C74.9044 18.8624 71.3135 21.7655 71.3135 26.6277C71.3135 28.971 72.082 30.9728 73.5382 32.4101C74.8873 33.7431 76.7307 34.4783 78.7277 34.4783C81.702 34.4783 84.1117 32.9243 85.1743 30.3229C85.2597 30.1095 85.2549 29.8723 85.1629 29.6636C85.1175 29.5623 85.0518 29.4715 84.9697 29.3967C84.8877 29.322 84.7912 29.2649 84.6862 29.2291L83.2346 28.7263C83.0404 28.6595 82.8281 28.6685 82.6402 28.7514C82.4523 28.8344 82.3026 28.9851 82.2209 29.1736C81.5948 30.6488 80.4183 31.3936 78.7249 31.3936C76.6757 31.3936 75.115 30.0132 74.8446 27.9578C74.8412 27.9348 74.8431 27.9113 74.8501 27.8891C74.857 27.8669 74.869 27.8466 74.8849 27.8297C74.9039 27.806 74.9466 27.768 75.013 27.768H84.6349C85.0666 27.768 85.4271 27.4313 85.4508 27.0015C85.4603 26.8639 85.4651 26.7121 85.4651 26.5622C85.4651 21.8091 82.747 18.8572 78.3734 18.8572L78.3767 18.8624ZM94.7611 30.3988C92.4509 30.3988 91.0136 28.7955 91.0136 26.215C91.0136 23.6724 92.4841 22.0293 94.7611 22.0293C96.9668 22.0293 98.4487 23.7085 98.4487 26.2131C98.4487 28.7149 96.9659 30.3969 94.7606 30.3969L94.7611 30.3988ZM100.918 19.2988H99.1773C98.7267 19.2988 98.3591 19.6655 98.3591 20.1385C98.3589 20.1719 98.3489 20.2046 98.3304 20.2324C98.3118 20.2602 98.2855 20.282 98.2547 20.295C98.2215 20.3092 98.1551 20.3282 98.0953 20.2713C97.1988 19.4516 95.937 19.0356 94.3479 19.0356C90.4093 19.0356 87.5503 22.0572 87.5503 26.2174C87.5503 30.3595 90.4093 33.366 94.3479 33.366C95.8042 33.366 97.1229 32.8878 98.0621 32.0197C98.1238 31.9628 98.1902 31.977 98.2234 31.9913C98.2471 32.0008 98.3278 32.0434 98.3278 32.1478V32.7455C98.3278 35.6391 97.0612 36.9886 94.3479 36.9886C92.626 36.9886 91.2741 35.9213 90.9088 34.2715C90.8614 34.0581 90.7333 33.8778 90.5483 33.7625C90.3633 33.6473 90.1403 33.6107 89.9269 33.6582L88.2173 34.0519C88.0073 34.1018 87.8254 34.2322 87.7106 34.415C87.5958 34.5977 87.5573 34.8182 87.6035 35.0291C88.2154 38.027 90.9268 40.043 94.3441 40.043C96.8914 40.043 98.8315 39.2675 100.112 37.7377C101.17 36.473 101.73 34.7174 101.73 32.6606V20.1294C101.73 19.6788 101.365 19.3135 100.914 19.3135L100.918 19.2988ZM121.615 18.889C119.689 18.889 118.122 19.6157 117.083 20.9951C117.065 21.0207 117.041 21.0413 117.013 21.0549C116.985 21.0685 116.955 21.0747 116.924 21.0729C116.901 21.0732 116.878 21.0674 116.858 21.0562C116.838 21.045 116.821 21.0286 116.81 21.0089C115.938 19.6617 114.434 18.8885 112.683 18.8885C111.29 18.8885 109.951 19.3781 109.007 20.2333C108.985 20.2571 108.955 20.2731 108.923 20.2791C108.89 20.285 108.857 20.2806 108.827 20.2665C108.798 20.2546 108.773 20.234 108.756 20.2075C108.739 20.181 108.731 20.15 108.732 20.1185C108.732 19.6679 108.365 19.3026 107.915 19.3026H106.261C105.81 19.3026 105.445 19.6679 105.445 20.1185V33.2251C105.445 33.6757 105.812 34.0419 106.263 34.0419H108.004C108.454 34.0419 108.82 33.6738 108.82 33.2232V25.2335C108.82 23.292 110.006 21.987 111.775 21.987C114.09 21.987 114.436 23.8024 114.436 24.8839V33.2374C114.436 33.688 114.801 34.0533 115.252 34.0533H117.023C117.473 34.0533 117.839 33.6862 117.839 33.2355V25.2051C117.839 23.3095 119.044 21.9861 120.765 21.9861C123.082 21.9861 123.427 23.8029 123.427 24.8844V33.2379C123.427 33.6885 123.792 34.0538 124.242 34.0538H125.983C126.434 34.0538 126.799 33.6866 126.799 33.236V24.5884C126.799 20.6607 124.195 18.9042 121.615 18.9042V18.889ZM133.383 24.9077C133.357 24.9076 133.331 24.9017 133.308 24.8903C133.284 24.879 133.264 24.8626 133.247 24.8422C133.233 24.8249 133.223 24.8046 133.217 24.7827C133.212 24.7609 133.211 24.7381 133.216 24.716C133.518 23.3404 134.696 21.9553 136.652 21.9553C138.571 21.9553 139.878 22.9846 140.145 24.7113C140.155 24.7729 140.125 24.8204 140.107 24.8394C140.091 24.857 140.07 24.8711 140.048 24.8809C140.026 24.8907 140.001 24.8959 139.977 24.8963H133.383V24.9077ZM136.623 18.8738C133.151 18.8738 129.56 21.7788 129.56 26.6391C129.56 28.9853 130.328 30.9856 131.783 32.4244C133.13 33.7573 134.971 34.4878 136.972 34.4878C139.942 34.4878 142.352 32.9319 143.419 30.3277C143.504 30.1142 143.5 29.877 143.405 29.6683C143.31 29.4596 143.139 29.3078 142.926 29.2319L141.474 28.73C141.071 28.5911 140.625 28.787 140.46 29.1769C139.834 30.6484 138.657 31.3969 136.964 31.3969C134.915 31.3969 133.354 30.0137 133.084 27.9578C133.08 27.9345 133.081 27.9107 133.088 27.8881C133.095 27.8655 133.106 27.8446 133.122 27.8269C133.141 27.8031 133.183 27.7676 133.25 27.7676H142.874C143.306 27.7676 143.665 27.4308 143.69 27.0005C143.698 26.863 143.704 26.7112 143.704 26.5594C143.704 21.8063 140.986 18.851 136.613 18.851L136.623 18.8738ZM154.065 18.9037C152.593 18.9037 151.301 19.4056 150.332 20.3552C150.31 20.3776 150.282 20.3928 150.251 20.3987C150.22 20.4046 150.188 20.401 150.159 20.3884C150.129 20.3754 150.103 20.3539 150.086 20.3266C150.068 20.2992 150.059 20.2673 150.059 20.2347V20.1304C150.059 19.6798 149.692 19.3145 149.241 19.3145H147.534C147.083 19.3145 146.716 19.6798 146.716 20.1304V33.2346C146.716 33.6852 147.081 34.0519 147.532 34.0519H149.301C149.752 34.0519 150.119 33.6843 150.119 33.2336V25.5836C150.119 23.8721 150.895 22.043 153.074 22.043C155.034 22.043 156.028 23.126 156.028 25.2615V33.2308C156.028 33.6814 156.393 34.0467 156.844 34.0467H158.613C159.064 34.0467 159.43 33.6767 159.43 33.226V24.7924C159.43 21.1588 157.372 18.9009 154.065 18.9009L154.065 18.9037ZM167.674 22.4529H169.738C170.188 22.4529 170.554 22.0852 170.554 21.6351V20.1294C170.554 19.6788 170.188 19.3135 169.738 19.3135H167.674C167.653 19.3135 167.631 19.3093 167.611 19.3009C167.591 19.2926 167.572 19.2803 167.557 19.2649C167.541 19.2495 167.529 19.2312 167.521 19.2111C167.513 19.1909 167.508 19.1693 167.508 19.1475V15.6781C167.508 15.2274 167.14 14.8612 166.69 14.8612H165.153C164.702 14.8612 164.337 15.2274 164.337 15.6781V17.4711C164.337 18.3108 164.016 19.3131 162.493 19.3131H162.231C161.78 19.3131 161.415 19.6783 161.415 20.129V21.6327C161.415 22.0833 161.781 22.4486 162.231 22.4486H163.943C164.035 22.4486 164.109 22.5197 164.109 22.6146V29.8581C164.109 32.5335 165.738 34.1937 168.359 34.1937C169.09 34.1937 169.658 34.0894 169.932 34.0277C170.302 33.9423 170.562 33.615 170.562 33.2308V31.8366C170.562 31.7219 170.537 31.6086 170.491 31.5039C170.444 31.3991 170.375 31.3054 170.29 31.2288C170.205 31.1522 170.104 31.0944 169.995 31.0591C169.886 31.0238 169.771 31.0119 169.657 31.024C169.472 31.043 169.292 31.0539 169.152 31.0539C167.961 31.0539 167.515 30.6175 167.515 29.4459V22.6151C167.515 22.524 167.591 22.45 167.681 22.45" fill="#034833"/>
<path fill-rule="evenodd" clip-rule="evenodd" d="M19.7575 41.0406C17.9056 41.0406 16.0764 40.7655 14.3213 40.2214C13.8407 40.0724 13.4389 39.7387 13.2043 39.2936C12.9697 38.8484 12.9216 38.3283 13.0704 37.8477C13.3807 36.842 14.4461 36.2823 15.4446 36.5954C16.8354 37.0271 18.286 37.2453 19.7575 37.2453C26.1959 37.2453 31.7863 33.1136 33.669 26.9612C33.7418 26.7229 33.861 26.5014 34.0195 26.3092C34.1781 26.1171 34.373 25.9581 34.5931 25.8413C34.8131 25.7246 35.0541 25.6524 35.3021 25.6288C35.5501 25.6053 35.8003 25.6309 36.0384 25.7041C37.0403 26.0077 37.6038 27.0703 37.2974 28.0712C34.9237 35.8274 27.8747 41.0406 19.7575 41.0406Z" fill="#034833"/>
<path fill-rule="evenodd" clip-rule="evenodd" d="M4.03246 19.7779C3.7357 19.778 3.44306 19.7084 3.17807 19.5748C2.91307 19.4412 2.6831 19.2473 2.50664 19.0087C2.33018 18.7701 2.21215 18.4935 2.16203 18.201C2.1119 17.9085 2.13109 17.6083 2.21804 17.3246C4.59221 9.56879 11.6412 4.35938 19.7575 4.35938C21.6108 4.35938 23.4399 4.6345 25.1936 5.17907C25.4316 5.25281 25.6528 5.37272 25.8445 5.53194C26.0362 5.69117 26.1946 5.8866 26.3108 6.10706C26.427 6.32753 26.4986 6.56871 26.5215 6.81685C26.5444 7.06499 26.5183 7.31521 26.4445 7.55323C26.371 7.7914 26.2512 8.01272 26.092 8.20453C25.9328 8.39633 25.7374 8.55485 25.5168 8.671C25.2963 8.78715 25.055 8.85866 24.8068 8.88142C24.5586 8.90418 24.3083 8.87775 24.0703 8.80364C22.6805 8.37672 21.2289 8.15852 19.7575 8.15852C13.3204 8.15852 7.72914 12.2902 5.84641 18.4426C5.72741 18.8309 5.48708 19.1708 5.16068 19.4124C4.83429 19.654 4.43903 19.7846 4.03294 19.7851" fill="#034833"/>
<path fill-rule="evenodd" clip-rule="evenodd" d="M24.6316 29.4155H1.89744C0.849102 29.4155 0 28.5664 0 27.5181C0 26.4698 0.849102 25.6207 1.89744 25.6207H24.6316C25.6799 25.6207 26.529 26.4698 26.529 27.5181C26.529 28.5664 25.6799 29.4155 24.6316 29.4155Z" fill="#034833"/>
<path fill-rule="evenodd" clip-rule="evenodd" d="M37.6167 19.7755H14.8835C13.8352 19.7755 12.9861 18.9264 12.9861 17.8781C12.9861 16.8298 13.8352 15.9807 14.8835 15.9807H37.6167C38.665 15.9807 39.5141 16.8298 39.5141 17.8781C39.5141 18.9264 38.665 19.7755 37.6167 19.7755Z" fill="#034833"/>
<path fill-rule="evenodd" clip-rule="evenodd" d="M32.9167 10.6474C32.9167 11.1507 32.7168 11.6333 32.361 11.9891C32.0051 12.345 31.5225 12.5449 31.0193 12.5449C30.5161 12.5449 30.0334 12.345 29.6776 11.9891C29.3218 11.6333 29.1218 11.1507 29.1218 10.6474C29.1218 10.1442 29.3218 9.66158 29.6776 9.30575C30.0334 8.94991 30.5161 8.75 31.0193 8.75C31.5225 8.75 32.0051 8.94991 32.361 9.30575C32.7168 9.66158 32.9167 10.1442 32.9167 10.6474ZM10.3918 34.7515C10.3918 35.2547 10.1919 35.7374 9.83604 36.0932C9.4802 36.449 8.99758 36.6489 8.49435 36.6489C7.99111 36.6489 7.50849 36.449 7.15266 36.0932C6.79682 35.7374 6.59691 35.2547 6.59691 34.7515C6.59691 34.2483 6.79682 33.7657 7.15266 33.4098C7.50849 33.054 7.99111 32.8541 8.49435 32.8541C8.99758 32.8541 9.4802 33.054 9.83604 33.4098C10.1919 33.7657 10.3918 34.2483 10.3918 34.7515Z" fill="#034833"/>
</svg>
