<svg width="15" height="15" viewBox="0 0 15 15" fill="none" xmlns="http://www.w3.org/2000/svg">
<path d="M13.9727 11.332L13.3164 14.0938C13.2344 14.5039 12.9062 14.7773 12.4961 14.7773C5.60547 14.75 0 9.14453 0 2.25391C0 1.84375 0.246094 1.51562 0.65625 1.43359L3.41797 0.777344C3.80078 0.695312 4.21094 0.914062 4.375 1.26953L5.66016 4.25C5.79688 4.60547 5.71484 5.01562 5.41406 5.23438L3.9375 6.4375C4.86719 8.32422 6.39844 9.85547 8.3125 10.7852L9.51562 9.30859C9.73438 9.03516 10.1445 8.92578 10.5 9.0625L13.4805 10.3477C13.8359 10.5391 14.0547 10.9492 13.9727 11.332Z" fill="#034833"/>
</svg>
